# Guoshui 2026 collection-frame bottom net.
# Units: metres. White 3 mm-diameter rods.
# Generated by generate_guoshui_2026_scene.py from the diagonal source mesh.
o Guoshui2026CollectionNetPart
v 0.144061 -0.135061 0.000000
v 0.189061 -0.090061 0.000000
v 0.143530 -0.134530 -0.001299
v 0.188530 -0.089530 -0.001299
v 0.142470 -0.133470 -0.001299
v 0.187470 -0.088470 -0.001299
v 0.141939 -0.132939 0.000000
v 0.186939 -0.087939 0.000000
v 0.142470 -0.133470 0.001299
v 0.187470 -0.088470 0.001299
v 0.143530 -0.134530 0.001299
v 0.188530 -0.089530 0.001299
v 0.143000 -0.134000 0.000000
v 0.188000 -0.089000 0.000000
v 0.099061 -0.135061 0.000000
v 0.189061 -0.045061 0.000000
v 0.098530 -0.134530 -0.001299
v 0.188530 -0.044530 -0.001299
v 0.097470 -0.133470 -0.001299
v 0.187470 -0.043470 -0.001299
v 0.096939 -0.132939 0.000000
v 0.186939 -0.042939 0.000000
v 0.097470 -0.133470 0.001299
v 0.187470 -0.043470 0.001299
v 0.098530 -0.134530 0.001299
v 0.188530 -0.044530 0.001299
v 0.098000 -0.134000 0.000000
v 0.188000 -0.044000 0.000000
v 0.054061 -0.135061 0.000000
v 0.189061 -0.000061 0.000000
v 0.053530 -0.134530 -0.001299
v 0.188530 0.000470 -0.001299
v 0.052470 -0.133470 -0.001299
v 0.187470 0.001530 -0.001299
v 0.051939 -0.132939 0.000000
v 0.186939 0.002061 0.000000
v 0.052470 -0.133470 0.001299
v 0.187470 0.001530 0.001299
v 0.053530 -0.134530 0.001299
v 0.188530 0.000470 0.001299
v 0.053000 -0.134000 0.000000
v 0.188000 0.001000 0.000000
v 0.009061 -0.135061 0.000000
v 0.189061 0.044939 0.000000
v 0.008530 -0.134530 -0.001299
v 0.188530 0.045470 -0.001299
v 0.007470 -0.133470 -0.001299
v 0.187470 0.046530 -0.001299
v 0.006939 -0.132939 0.000000
v 0.186939 0.047061 0.000000
v 0.007470 -0.133470 0.001299
v 0.187470 0.046530 0.001299
v 0.008530 -0.134530 0.001299
v 0.188530 0.045470 0.001299
v 0.008000 -0.134000 0.000000
v 0.188000 0.046000 0.000000
v -0.035939 -0.135061 0.000000
v 0.189061 0.089939 0.000000
v -0.036470 -0.134530 -0.001299
v 0.188530 0.090470 -0.001299
v -0.037530 -0.133470 -0.001299
v 0.187470 0.091530 -0.001299
v -0.038061 -0.132939 0.000000
v 0.186939 0.092061 0.000000
v -0.037530 -0.133470 0.001299
v 0.187470 0.091530 0.001299
v -0.036470 -0.134530 0.001299
v 0.188530 0.090470 0.001299
v -0.037000 -0.134000 0.000000
v 0.188000 0.091000 0.000000
v -0.080939 -0.135061 0.000000
v 0.187061 0.132939 0.000000
v -0.081470 -0.134530 -0.001299
v 0.186530 0.133470 -0.001299
v -0.082530 -0.133470 -0.001299
v 0.185470 0.134530 -0.001299
v -0.083061 -0.132939 0.000000
v 0.184939 0.135061 0.000000
v -0.082530 -0.133470 0.001299
v 0.185470 0.134530 0.001299
v -0.081470 -0.134530 0.001299
v 0.186530 0.133470 0.001299
v -0.082000 -0.134000 0.000000
v 0.186000 0.134000 0.000000
v -0.125939 -0.135061 0.000000
v 0.142061 0.132939 0.000000
v -0.126470 -0.134530 -0.001299
v 0.141530 0.133470 -0.001299
v -0.127530 -0.133470 -0.001299
v 0.140470 0.134530 -0.001299
v -0.128061 -0.132939 0.000000
v 0.139939 0.135061 0.000000
v -0.127530 -0.133470 0.001299
v 0.140470 0.134530 0.001299
v -0.126470 -0.134530 0.001299
v 0.141530 0.133470 0.001299
v -0.127000 -0.134000 0.000000
v 0.141000 0.134000 0.000000
v -0.170939 -0.135061 0.000000
v 0.097061 0.132939 0.000000
v -0.171470 -0.134530 -0.001299
v 0.096530 0.133470 -0.001299
v -0.172530 -0.133470 -0.001299
v 0.095470 0.134530 -0.001299
v -0.173061 -0.132939 0.000000
v 0.094939 0.135061 0.000000
v -0.172530 -0.133470 0.001299
v 0.095470 0.134530 0.001299
v -0.171470 -0.134530 0.001299
v 0.096530 0.133470 0.001299
v -0.172000 -0.134000 0.000000
v 0.096000 0.134000 0.000000
v -0.186939 -0.106061 0.000000
v 0.052061 0.132939 0.000000
v -0.187470 -0.105530 -0.001299
v 0.051530 0.133470 -0.001299
v -0.188530 -0.104470 -0.001299
v 0.050470 0.134530 -0.001299
v -0.189061 -0.103939 0.000000
v 0.049939 0.135061 0.000000
v -0.188530 -0.104470 0.001299
v 0.050470 0.134530 0.001299
v -0.187470 -0.105530 0.001299
v 0.051530 0.133470 0.001299
v -0.188000 -0.105000 0.000000
v 0.051000 0.134000 0.000000
v -0.186939 -0.061061 0.000000
v 0.007061 0.132939 0.000000
v -0.187470 -0.060530 -0.001299
v 0.006530 0.133470 -0.001299
v -0.188530 -0.059470 -0.001299
v 0.005470 0.134530 -0.001299
v -0.189061 -0.058939 0.000000
v 0.004939 0.135061 0.000000
v -0.188530 -0.059470 0.001299
v 0.005470 0.134530 0.001299
v -0.187470 -0.060530 0.001299
v 0.006530 0.133470 0.001299
v -0.188000 -0.060000 0.000000
v 0.006000 0.134000 0.000000
v -0.186939 -0.016061 0.000000
v -0.037939 0.132939 0.000000
v -0.187470 -0.015530 -0.001299
v -0.038470 0.133470 -0.001299
v -0.188530 -0.014470 -0.001299
v -0.039530 0.134530 -0.001299
v -0.189061 -0.013939 0.000000
v -0.040061 0.135061 0.000000
v -0.188530 -0.014470 0.001299
v -0.039530 0.134530 0.001299
v -0.187470 -0.015530 0.001299
v -0.038470 0.133470 0.001299
v -0.188000 -0.015000 0.000000
v -0.039000 0.134000 0.000000
v -0.186939 0.028939 0.000000
v -0.082939 0.132939 0.000000
v -0.187470 0.029470 -0.001299
v -0.083470 0.133470 -0.001299
v -0.188530 0.030530 -0.001299
v -0.084530 0.134530 -0.001299
v -0.189061 0.031061 0.000000
v -0.085061 0.135061 0.000000
v -0.188530 0.030530 0.001299
v -0.084530 0.134530 0.001299
v -0.187470 0.029470 0.001299
v -0.083470 0.133470 0.001299
v -0.188000 0.030000 0.000000
v -0.084000 0.134000 0.000000
v -0.186939 0.073939 0.000000
v -0.127939 0.132939 0.000000
v -0.187470 0.074470 -0.001299
v -0.128470 0.133470 -0.001299
v -0.188530 0.075530 -0.001299
v -0.129530 0.134530 -0.001299
v -0.189061 0.076061 0.000000
v -0.130061 0.135061 0.000000
v -0.188530 0.075530 0.001299
v -0.129530 0.134530 0.001299
v -0.187470 0.074470 0.001299
v -0.128470 0.133470 0.001299
v -0.188000 0.075000 0.000000
v -0.129000 0.134000 0.000000
v -0.186939 0.118939 0.000000
v -0.172939 0.132939 0.000000
v -0.187470 0.119470 -0.001299
v -0.173470 0.133470 -0.001299
v -0.188530 0.120530 -0.001299
v -0.174530 0.134530 -0.001299
v -0.189061 0.121061 0.000000
v -0.175061 0.135061 0.000000
v -0.188530 0.120530 0.001299
v -0.174530 0.134530 0.001299
v -0.187470 0.119470 0.001299
v -0.173470 0.133470 0.001299
v -0.188000 0.120000 0.000000
v -0.174000 0.134000 0.000000
v -0.189061 -0.090061 0.000000
v -0.144061 -0.135061 0.000000
v -0.188530 -0.089530 -0.001299
v -0.143530 -0.134530 -0.001299
v -0.187470 -0.088470 -0.001299
v -0.142470 -0.133470 -0.001299
v -0.186939 -0.087939 0.000000
v -0.141939 -0.132939 0.000000
v -0.187470 -0.088470 0.001299
v -0.142470 -0.133470 0.001299
v -0.188530 -0.089530 0.001299
v -0.143530 -0.134530 0.001299
v -0.188000 -0.089000 0.000000
v -0.143000 -0.134000 0.000000
v -0.189061 -0.045061 0.000000
v -0.099061 -0.135061 0.000000
v -0.188530 -0.044530 -0.001299
v -0.098530 -0.134530 -0.001299
v -0.187470 -0.043470 -0.001299
v -0.097470 -0.133470 -0.001299
v -0.186939 -0.042939 0.000000
v -0.096939 -0.132939 0.000000
v -0.187470 -0.043470 0.001299
v -0.097470 -0.133470 0.001299
v -0.188530 -0.044530 0.001299
v -0.098530 -0.134530 0.001299
v -0.188000 -0.044000 0.000000
v -0.098000 -0.134000 0.000000
v -0.189061 -0.000061 0.000000
v -0.054061 -0.135061 0.000000
v -0.188530 0.000470 -0.001299
v -0.053530 -0.134530 -0.001299
v -0.187470 0.001530 -0.001299
v -0.052470 -0.133470 -0.001299
v -0.186939 0.002061 0.000000
v -0.051939 -0.132939 0.000000
v -0.187470 0.001530 0.001299
v -0.052470 -0.133470 0.001299
v -0.188530 0.000470 0.001299
v -0.053530 -0.134530 0.001299
v -0.188000 0.001000 0.000000
v -0.053000 -0.134000 0.000000
v -0.189061 0.044939 0.000000
v -0.009061 -0.135061 0.000000
v -0.188530 0.045470 -0.001299
v -0.008530 -0.134530 -0.001299
v -0.187470 0.046530 -0.001299
v -0.007470 -0.133470 -0.001299
v -0.186939 0.047061 0.000000
v -0.006939 -0.132939 0.000000
v -0.187470 0.046530 0.001299
v -0.007470 -0.133470 0.001299
v -0.188530 0.045470 0.001299
v -0.008530 -0.134530 0.001299
v -0.188000 0.046000 0.000000
v -0.008000 -0.134000 0.000000
v -0.189061 0.089939 0.000000
v 0.035939 -0.135061 0.000000
v -0.188530 0.090470 -0.001299
v 0.036470 -0.134530 -0.001299
v -0.187470 0.091530 -0.001299
v 0.037530 -0.133470 -0.001299
v -0.186939 0.092061 0.000000
v 0.038061 -0.132939 0.000000
v -0.187470 0.091530 0.001299
v 0.037530 -0.133470 0.001299
v -0.188530 0.090470 0.001299
v 0.036470 -0.134530 0.001299
v -0.188000 0.091000 0.000000
v 0.037000 -0.134000 0.000000
v -0.187061 0.132939 0.000000
v 0.080939 -0.135061 0.000000
v -0.186530 0.133470 -0.001299
v 0.081470 -0.134530 -0.001299
v -0.185470 0.134530 -0.001299
v 0.082530 -0.133470 -0.001299
v -0.184939 0.135061 0.000000
v 0.083061 -0.132939 0.000000
v -0.185470 0.134530 0.001299
v 0.082530 -0.133470 0.001299
v -0.186530 0.133470 0.001299
v 0.081470 -0.134530 0.001299
v -0.186000 0.134000 0.000000
v 0.082000 -0.134000 0.000000
v -0.142061 0.132939 0.000000
v 0.125939 -0.135061 0.000000
v -0.141530 0.133470 -0.001299
v 0.126470 -0.134530 -0.001299
v -0.140470 0.134530 -0.001299
v 0.127530 -0.133470 -0.001299
v -0.139939 0.135061 0.000000
v 0.128061 -0.132939 0.000000
v -0.140470 0.134530 0.001299
v 0.127530 -0.133470 0.001299
v -0.141530 0.133470 0.001299
v 0.126470 -0.134530 0.001299
v -0.141000 0.134000 0.000000
v 0.127000 -0.134000 0.000000
v -0.097061 0.132939 0.000000
v 0.170939 -0.135061 0.000000
v -0.096530 0.133470 -0.001299
v 0.171470 -0.134530 -0.001299
v -0.095470 0.134530 -0.001299
v 0.172530 -0.133470 -0.001299
v -0.094939 0.135061 0.000000
v 0.173061 -0.132939 0.000000
v -0.095470 0.134530 0.001299
v 0.172530 -0.133470 0.001299
v -0.096530 0.133470 0.001299
v 0.171470 -0.134530 0.001299
v -0.096000 0.134000 0.000000
v 0.172000 -0.134000 0.000000
v -0.052061 0.132939 0.000000
v 0.186939 -0.106061 0.000000
v -0.051530 0.133470 -0.001299
v 0.187470 -0.105530 -0.001299
v -0.050470 0.134530 -0.001299
v 0.188530 -0.104470 -0.001299
v -0.049939 0.135061 0.000000
v 0.189061 -0.103939 0.000000
v -0.050470 0.134530 0.001299
v 0.188530 -0.104470 0.001299
v -0.051530 0.133470 0.001299
v 0.187470 -0.105530 0.001299
v -0.051000 0.134000 0.000000
v 0.188000 -0.105000 0.000000
v -0.007061 0.132939 0.000000
v 0.186939 -0.061061 0.000000
v -0.006530 0.133470 -0.001299
v 0.187470 -0.060530 -0.001299
v -0.005470 0.134530 -0.001299
v 0.188530 -0.059470 -0.001299
v -0.004939 0.135061 0.000000
v 0.189061 -0.058939 0.000000
v -0.005470 0.134530 0.001299
v 0.188530 -0.059470 0.001299
v -0.006530 0.133470 0.001299
v 0.187470 -0.060530 0.001299
v -0.006000 0.134000 0.000000
v 0.188000 -0.060000 0.000000
v 0.037939 0.132939 0.000000
v 0.186939 -0.016061 0.000000
v 0.038470 0.133470 -0.001299
v 0.187470 -0.015530 -0.001299
v 0.039530 0.134530 -0.001299
v 0.188530 -0.014470 -0.001299
v 0.040061 0.135061 0.000000
v 0.189061 -0.013939 0.000000
v 0.039530 0.134530 0.001299
v 0.188530 -0.014470 0.001299
v 0.038470 0.133470 0.001299
v 0.187470 -0.015530 0.001299
v 0.039000 0.134000 0.000000
v 0.188000 -0.015000 0.000000
v 0.082939 0.132939 0.000000
v 0.186939 0.028939 0.000000
v 0.083470 0.133470 -0.001299
v 0.187470 0.029470 -0.001299
v 0.084530 0.134530 -0.001299
v 0.188530 0.030530 -0.001299
v 0.085061 0.135061 0.000000
v 0.189061 0.031061 0.000000
v 0.084530 0.134530 0.001299
v 0.188530 0.030530 0.001299
v 0.083470 0.133470 0.001299
v 0.187470 0.029470 0.001299
v 0.084000 0.134000 0.000000
v 0.188000 0.030000 0.000000
v 0.127939 0.132939 0.000000
v 0.186939 0.073939 0.000000
v 0.128470 0.133470 -0.001299
v 0.187470 0.074470 -0.001299
v 0.129530 0.134530 -0.001299
v 0.188530 0.075530 -0.001299
v 0.130061 0.135061 0.000000
v 0.189061 0.076061 0.000000
v 0.129530 0.134530 0.001299
v 0.188530 0.075530 0.001299
v 0.128470 0.133470 0.001299
v 0.187470 0.074470 0.001299
v 0.129000 0.134000 0.000000
v 0.188000 0.075000 0.000000
v 0.172939 0.132939 0.000000
v 0.186939 0.118939 0.000000
v 0.173470 0.133470 -0.001299
v 0.187470 0.119470 -0.001299
v 0.174530 0.134530 -0.001299
v 0.188530 0.120530 -0.001299
v 0.175061 0.135061 0.000000
v 0.189061 0.121061 0.000000
v 0.174530 0.134530 0.001299
v 0.188530 0.120530 0.001299
v 0.173470 0.133470 0.001299
v 0.187470 0.119470 0.001299
v 0.174000 0.134000 0.000000
v 0.188000 0.120000 0.000000
vn 0.707107 -0.707107 0.000000
vn 0.353553 -0.353553 -0.866025
vn -0.353553 0.353553 -0.866025
vn -0.707107 0.707107 0.000000
vn -0.353553 0.353553 0.866025
vn 0.353553 -0.353553 0.866025
vn -0.707107 -0.707107 0.000000
vn 0.707107 0.707107 0.000000
vn 0.707107 -0.707107 0.000000
vn 0.353553 -0.353553 -0.866025
vn -0.353553 0.353553 -0.866025
vn -0.707107 0.707107 0.000000
vn -0.353553 0.353553 0.866025
vn 0.353553 -0.353553 0.866025
vn -0.707107 -0.707107 0.000000
vn 0.707107 0.707107 0.000000
vn 0.707107 -0.707107 0.000000
vn 0.353553 -0.353553 -0.866025
vn -0.353553 0.353553 -0.866025
vn -0.707107 0.707107 0.000000
vn -0.353553 0.353553 0.866025
vn 0.353553 -0.353553 0.866025
vn -0.707107 -0.707107 0.000000
vn 0.707107 0.707107 0.000000
vn 0.707107 -0.707107 0.000000
vn 0.353553 -0.353553 -0.866025
vn -0.353553 0.353553 -0.866025
vn -0.707107 0.707107 0.000000
vn -0.353553 0.353553 0.866025
vn 0.353553 -0.353553 0.866025
vn -0.707107 -0.707107 0.000000
vn 0.707107 0.707107 0.000000
vn 0.707107 -0.707107 0.000000
vn 0.353553 -0.353553 -0.866025
vn -0.353553 0.353553 -0.866025
vn -0.707107 0.707107 0.000000
vn -0.353553 0.353553 0.866025
vn 0.353553 -0.353553 0.866025
vn -0.707107 -0.707107 0.000000
vn 0.707107 0.707107 0.000000
vn 0.707107 -0.707107 0.000000
vn 0.353553 -0.353553 -0.866025
vn -0.353553 0.353553 -0.866025
vn -0.707107 0.707107 0.000000
vn -0.353553 0.353553 0.866025
vn 0.353553 -0.353553 0.866025
vn -0.707107 -0.707107 0.000000
vn 0.707107 0.707107 0.000000
vn 0.707107 -0.707107 0.000000
vn 0.353553 -0.353553 -0.866025
vn -0.353553 0.353553 -0.866025
vn -0.707107 0.707107 0.000000
vn -0.353553 0.353553 0.866025
vn 0.353553 -0.353553 0.866025
vn -0.707107 -0.707107 0.000000
vn 0.707107 0.707107 0.000000
vn 0.707107 -0.707107 0.000000
vn 0.353553 -0.353553 -0.866025
vn -0.353553 0.353553 -0.866025
vn -0.707107 0.707107 0.000000
vn -0.353553 0.353553 0.866025
vn 0.353553 -0.353553 0.866025
vn -0.707107 -0.707107 0.000000
vn 0.707107 0.707107 0.000000
vn 0.707107 -0.707107 0.000000
vn 0.353553 -0.353553 -0.866025
vn -0.353553 0.353553 -0.866025
vn -0.707107 0.707107 0.000000
vn -0.353553 0.353553 0.866025
vn 0.353553 -0.353553 0.866025
vn -0.707107 -0.707107 0.000000
vn 0.707107 0.707107 0.000000
vn 0.707107 -0.707107 0.000000
vn 0.353553 -0.353553 -0.866025
vn -0.353553 0.353553 -0.866025
vn -0.707107 0.707107 0.000000
vn -0.353553 0.353553 0.866025
vn 0.353553 -0.353553 0.866025
vn -0.707107 -0.707107 0.000000
vn 0.707107 0.707107 0.000000
vn 0.707107 -0.707107 0.000000
vn 0.353553 -0.353553 -0.866025
vn -0.353553 0.353553 -0.866025
vn -0.707107 0.707107 0.000000
vn -0.353553 0.353553 0.866025
vn 0.353553 -0.353553 0.866025
vn -0.707107 -0.707107 0.000000
vn 0.707107 0.707107 0.000000
vn 0.707107 -0.707107 0.000000
vn 0.353553 -0.353553 -0.866025
vn -0.353553 0.353553 -0.866025
vn -0.707107 0.707107 0.000000
vn -0.353553 0.353553 0.866025
vn 0.353553 -0.353553 0.866025
vn -0.707107 -0.707107 0.000000
vn 0.707107 0.707107 0.000000
vn 0.707107 -0.707107 0.000000
vn 0.353553 -0.353553 -0.866025
vn -0.353553 0.353553 -0.866025
vn -0.707107 0.707107 0.000000
vn -0.353553 0.353553 0.866025
vn 0.353553 -0.353553 0.866025
vn -0.707107 -0.707107 0.000000
vn 0.707107 0.707107 0.000000
vn 0.707107 -0.707107 0.000000
vn 0.353553 -0.353553 -0.866025
vn -0.353553 0.353553 -0.866025
vn -0.707107 0.707107 0.000000
vn -0.353553 0.353553 0.866025
vn 0.353553 -0.353553 0.866025
vn -0.707107 -0.707107 0.000000
vn 0.707107 0.707107 0.000000
vn -0.707107 -0.707107 0.000000
vn -0.353553 -0.353553 -0.866025
vn 0.353553 0.353553 -0.866025
vn 0.707107 0.707107 0.000000
vn 0.353553 0.353553 0.866025
vn -0.353553 -0.353553 0.866025
vn -0.707107 0.707107 0.000000
vn 0.707107 -0.707107 0.000000
vn -0.707107 -0.707107 0.000000
vn -0.353553 -0.353553 -0.866025
vn 0.353553 0.353553 -0.866025
vn 0.707107 0.707107 0.000000
vn 0.353553 0.353553 0.866025
vn -0.353553 -0.353553 0.866025
vn -0.707107 0.707107 0.000000
vn 0.707107 -0.707107 0.000000
vn -0.707107 -0.707107 0.000000
vn -0.353553 -0.353553 -0.866025
vn 0.353553 0.353553 -0.866025
vn 0.707107 0.707107 0.000000
vn 0.353553 0.353553 0.866025
vn -0.353553 -0.353553 0.866025
vn -0.707107 0.707107 0.000000
vn 0.707107 -0.707107 0.000000
vn -0.707107 -0.707107 0.000000
vn -0.353553 -0.353553 -0.866025
vn 0.353553 0.353553 -0.866025
vn 0.707107 0.707107 0.000000
vn 0.353553 0.353553 0.866025
vn -0.353553 -0.353553 0.866025
vn -0.707107 0.707107 0.000000
vn 0.707107 -0.707107 0.000000
vn -0.707107 -0.707107 0.000000
vn -0.353553 -0.353553 -0.866025
vn 0.353553 0.353553 -0.866025
vn 0.707107 0.707107 0.000000
vn 0.353553 0.353553 0.866025
vn -0.353553 -0.353553 0.866025
vn -0.707107 0.707107 0.000000
vn 0.707107 -0.707107 0.000000
vn -0.707107 -0.707107 0.000000
vn -0.353553 -0.353553 -0.866025
vn 0.353553 0.353553 -0.866025
vn 0.707107 0.707107 0.000000
vn 0.353553 0.353553 0.866025
vn -0.353553 -0.353553 0.866025
vn -0.707107 0.707107 0.000000
vn 0.707107 -0.707107 0.000000
vn -0.707107 -0.707107 0.000000
vn -0.353553 -0.353553 -0.866025
vn 0.353553 0.353553 -0.866025
vn 0.707107 0.707107 0.000000
vn 0.353553 0.353553 0.866025
vn -0.353553 -0.353553 0.866025
vn -0.707107 0.707107 0.000000
vn 0.707107 -0.707107 0.000000
vn -0.707107 -0.707107 0.000000
vn -0.353553 -0.353553 -0.866025
vn 0.353553 0.353553 -0.866025
vn 0.707107 0.707107 0.000000
vn 0.353553 0.353553 0.866025
vn -0.353553 -0.353553 0.866025
vn -0.707107 0.707107 0.000000
vn 0.707107 -0.707107 0.000000
vn -0.707107 -0.707107 0.000000
vn -0.353553 -0.353553 -0.866025
vn 0.353553 0.353553 -0.866025
vn 0.707107 0.707107 0.000000
vn 0.353553 0.353553 0.866025
vn -0.353553 -0.353553 0.866025
vn -0.707107 0.707107 0.000000
vn 0.707107 -0.707107 0.000000
vn -0.707107 -0.707107 0.000000
vn -0.353553 -0.353553 -0.866025
vn 0.353553 0.353553 -0.866025
vn 0.707107 0.707107 0.000000
vn 0.353553 0.353553 0.866025
vn -0.353553 -0.353553 0.866025
vn -0.707107 0.707107 0.000000
vn 0.707107 -0.707107 0.000000
vn -0.707107 -0.707107 0.000000
vn -0.353553 -0.353553 -0.866025
vn 0.353553 0.353553 -0.866025
vn 0.707107 0.707107 0.000000
vn 0.353553 0.353553 0.866025
vn -0.353553 -0.353553 0.866025
vn -0.707107 0.707107 0.000000
vn 0.707107 -0.707107 0.000000
vn -0.707107 -0.707107 0.000000
vn -0.353553 -0.353553 -0.866025
vn 0.353553 0.353553 -0.866025
vn 0.707107 0.707107 0.000000
vn 0.353553 0.353553 0.866025
vn -0.353553 -0.353553 0.866025
vn -0.707107 0.707107 0.000000
vn 0.707107 -0.707107 0.000000
vn -0.707107 -0.707107 0.000000
vn -0.353553 -0.353553 -0.866025
vn 0.353553 0.353553 -0.866025
vn 0.707107 0.707107 0.000000
vn 0.353553 0.353553 0.866025
vn -0.353553 -0.353553 0.866025
vn -0.707107 0.707107 0.000000
vn 0.707107 -0.707107 0.000000
vn -0.707107 -0.707107 0.000000
vn -0.353553 -0.353553 -0.866025
vn 0.353553 0.353553 -0.866025
vn 0.707107 0.707107 0.000000
vn 0.353553 0.353553 0.866025
vn -0.353553 -0.353553 0.866025
vn -0.707107 0.707107 0.000000
vn 0.707107 -0.707107 0.000000
f 1//1 3//2 4//2
f 1//1 4//2 2//1
f 13//7 3//7 1//7
f 14//8 2//8 4//8
f 3//2 5//3 6//3
f 3//2 6//3 4//2
f 13//7 5//7 3//7
f 14//8 4//8 6//8
f 5//3 7//4 8//4
f 5//3 8//4 6//3
f 13//7 7//7 5//7
f 14//8 6//8 8//8
f 7//4 9//5 10//5
f 7//4 10//5 8//4
f 13//7 9//7 7//7
f 14//8 8//8 10//8
f 9//5 11//6 12//6
f 9//5 12//6 10//5
f 13//7 11//7 9//7
f 14//8 10//8 12//8
f 11//6 1//1 2//1
f 11//6 2//1 12//6
f 13//7 1//7 11//7
f 14//8 12//8 2//8
f 15//9 17//10 18//10
f 15//9 18//10 16//9
f 27//15 17//15 15//15
f 28//16 16//16 18//16
f 17//10 19//11 20//11
f 17//10 20//11 18//10
f 27//15 19//15 17//15
f 28//16 18//16 20//16
f 19//11 21//12 22//12
f 19//11 22//12 20//11
f 27//15 21//15 19//15
f 28//16 20//16 22//16
f 21//12 23//13 24//13
f 21//12 24//13 22//12
f 27//15 23//15 21//15
f 28//16 22//16 24//16
f 23//13 25//14 26//14
f 23//13 26//14 24//13
f 27//15 25//15 23//15
f 28//16 24//16 26//16
f 25//14 15//9 16//9
f 25//14 16//9 26//14
f 27//15 15//15 25//15
f 28//16 26//16 16//16
f 29//17 31//18 32//18
f 29//17 32//18 30//17
f 41//23 31//23 29//23
f 42//24 30//24 32//24
f 31//18 33//19 34//19
f 31//18 34//19 32//18
f 41//23 33//23 31//23
f 42//24 32//24 34//24
f 33//19 35//20 36//20
f 33//19 36//20 34//19
f 41//23 35//23 33//23
f 42//24 34//24 36//24
f 35//20 37//21 38//21
f 35//20 38//21 36//20
f 41//23 37//23 35//23
f 42//24 36//24 38//24
f 37//21 39//22 40//22
f 37//21 40//22 38//21
f 41//23 39//23 37//23
f 42//24 38//24 40//24
f 39//22 29//17 30//17
f 39//22 30//17 40//22
f 41//23 29//23 39//23
f 42//24 40//24 30//24
f 43//25 45//26 46//26
f 43//25 46//26 44//25
f 55//31 45//31 43//31
f 56//32 44//32 46//32
f 45//26 47//27 48//27
f 45//26 48//27 46//26
f 55//31 47//31 45//31
f 56//32 46//32 48//32
f 47//27 49//28 50//28
f 47//27 50//28 48//27
f 55//31 49//31 47//31
f 56//32 48//32 50//32
f 49//28 51//29 52//29
f 49//28 52//29 50//28
f 55//31 51//31 49//31
f 56//32 50//32 52//32
f 51//29 53//30 54//30
f 51//29 54//30 52//29
f 55//31 53//31 51//31
f 56//32 52//32 54//32
f 53//30 43//25 44//25
f 53//30 44//25 54//30
f 55//31 43//31 53//31
f 56//32 54//32 44//32
f 57//33 59//34 60//34
f 57//33 60//34 58//33
f 69//39 59//39 57//39
f 70//40 58//40 60//40
f 59//34 61//35 62//35
f 59//34 62//35 60//34
f 69//39 61//39 59//39
f 70//40 60//40 62//40
f 61//35 63//36 64//36
f 61//35 64//36 62//35
f 69//39 63//39 61//39
f 70//40 62//40 64//40
f 63//36 65//37 66//37
f 63//36 66//37 64//36
f 69//39 65//39 63//39
f 70//40 64//40 66//40
f 65//37 67//38 68//38
f 65//37 68//38 66//37
f 69//39 67//39 65//39
f 70//40 66//40 68//40
f 67//38 57//33 58//33
f 67//38 58//33 68//38
f 69//39 57//39 67//39
f 70//40 68//40 58//40
f 71//41 73//42 74//42
f 71//41 74//42 72//41
f 83//47 73//47 71//47
f 84//48 72//48 74//48
f 73//42 75//43 76//43
f 73//42 76//43 74//42
f 83//47 75//47 73//47
f 84//48 74//48 76//48
f 75//43 77//44 78//44
f 75//43 78//44 76//43
f 83//47 77//47 75//47
f 84//48 76//48 78//48
f 77//44 79//45 80//45
f 77//44 80//45 78//44
f 83//47 79//47 77//47
f 84//48 78//48 80//48
f 79//45 81//46 82//46
f 79//45 82//46 80//45
f 83//47 81//47 79//47
f 84//48 80//48 82//48
f 81//46 71//41 72//41
f 81//46 72//41 82//46
f 83//47 71//47 81//47
f 84//48 82//48 72//48
f 85//49 87//50 88//50
f 85//49 88//50 86//49
f 97//55 87//55 85//55
f 98//56 86//56 88//56
f 87//50 89//51 90//51
f 87//50 90//51 88//50
f 97//55 89//55 87//55
f 98//56 88//56 90//56
f 89//51 91//52 92//52
f 89//51 92//52 90//51
f 97//55 91//55 89//55
f 98//56 90//56 92//56
f 91//52 93//53 94//53
f 91//52 94//53 92//52
f 97//55 93//55 91//55
f 98//56 92//56 94//56
f 93//53 95//54 96//54
f 93//53 96//54 94//53
f 97//55 95//55 93//55
f 98//56 94//56 96//56
f 95//54 85//49 86//49
f 95//54 86//49 96//54
f 97//55 85//55 95//55
f 98//56 96//56 86//56
f 99//57 101//58 102//58
f 99//57 102//58 100//57
f 111//63 101//63 99//63
f 112//64 100//64 102//64
f 101//58 103//59 104//59
f 101//58 104//59 102//58
f 111//63 103//63 101//63
f 112//64 102//64 104//64
f 103//59 105//60 106//60
f 103//59 106//60 104//59
f 111//63 105//63 103//63
f 112//64 104//64 106//64
f 105//60 107//61 108//61
f 105//60 108//61 106//60
f 111//63 107//63 105//63
f 112//64 106//64 108//64
f 107//61 109//62 110//62
f 107//61 110//62 108//61
f 111//63 109//63 107//63
f 112//64 108//64 110//64
f 109//62 99//57 100//57
f 109//62 100//57 110//62
f 111//63 99//63 109//63
f 112//64 110//64 100//64
f 113//65 115//66 116//66
f 113//65 116//66 114//65
f 125//71 115//71 113//71
f 126//72 114//72 116//72
f 115//66 117//67 118//67
f 115//66 118//67 116//66
f 125//71 117//71 115//71
f 126//72 116//72 118//72
f 117//67 119//68 120//68
f 117//67 120//68 118//67
f 125//71 119//71 117//71
f 126//72 118//72 120//72
f 119//68 121//69 122//69
f 119//68 122//69 120//68
f 125//71 121//71 119//71
f 126//72 120//72 122//72
f 121//69 123//70 124//70
f 121//69 124//70 122//69
f 125//71 123//71 121//71
f 126//72 122//72 124//72
f 123//70 113//65 114//65
f 123//70 114//65 124//70
f 125//71 113//71 123//71
f 126//72 124//72 114//72
f 127//73 129//74 130//74
f 127//73 130//74 128//73
f 139//79 129//79 127//79
f 140//80 128//80 130//80
f 129//74 131//75 132//75
f 129//74 132//75 130//74
f 139//79 131//79 129//79
f 140//80 130//80 132//80
f 131//75 133//76 134//76
f 131//75 134//76 132//75
f 139//79 133//79 131//79
f 140//80 132//80 134//80
f 133//76 135//77 136//77
f 133//76 136//77 134//76
f 139//79 135//79 133//79
f 140//80 134//80 136//80
f 135//77 137//78 138//78
f 135//77 138//78 136//77
f 139//79 137//79 135//79
f 140//80 136//80 138//80
f 137//78 127//73 128//73
f 137//78 128//73 138//78
f 139//79 127//79 137//79
f 140//80 138//80 128//80
f 141//81 143//82 144//82
f 141//81 144//82 142//81
f 153//87 143//87 141//87
f 154//88 142//88 144//88
f 143//82 145//83 146//83
f 143//82 146//83 144//82
f 153//87 145//87 143//87
f 154//88 144//88 146//88
f 145//83 147//84 148//84
f 145//83 148//84 146//83
f 153//87 147//87 145//87
f 154//88 146//88 148//88
f 147//84 149//85 150//85
f 147//84 150//85 148//84
f 153//87 149//87 147//87
f 154//88 148//88 150//88
f 149//85 151//86 152//86
f 149//85 152//86 150//85
f 153//87 151//87 149//87
f 154//88 150//88 152//88
f 151//86 141//81 142//81
f 151//86 142//81 152//86
f 153//87 141//87 151//87
f 154//88 152//88 142//88
f 155//89 157//90 158//90
f 155//89 158//90 156//89
f 167//95 157//95 155//95
f 168//96 156//96 158//96
f 157//90 159//91 160//91
f 157//90 160//91 158//90
f 167//95 159//95 157//95
f 168//96 158//96 160//96
f 159//91 161//92 162//92
f 159//91 162//92 160//91
f 167//95 161//95 159//95
f 168//96 160//96 162//96
f 161//92 163//93 164//93
f 161//92 164//93 162//92
f 167//95 163//95 161//95
f 168//96 162//96 164//96
f 163//93 165//94 166//94
f 163//93 166//94 164//93
f 167//95 165//95 163//95
f 168//96 164//96 166//96
f 165//94 155//89 156//89
f 165//94 156//89 166//94
f 167//95 155//95 165//95
f 168//96 166//96 156//96
f 169//97 171//98 172//98
f 169//97 172//98 170//97
f 181//103 171//103 169//103
f 182//104 170//104 172//104
f 171//98 173//99 174//99
f 171//98 174//99 172//98
f 181//103 173//103 171//103
f 182//104 172//104 174//104
f 173//99 175//100 176//100
f 173//99 176//100 174//99
f 181//103 175//103 173//103
f 182//104 174//104 176//104
f 175//100 177//101 178//101
f 175//100 178//101 176//100
f 181//103 177//103 175//103
f 182//104 176//104 178//104
f 177//101 179//102 180//102
f 177//101 180//102 178//101
f 181//103 179//103 177//103
f 182//104 178//104 180//104
f 179//102 169//97 170//97
f 179//102 170//97 180//102
f 181//103 169//103 179//103
f 182//104 180//104 170//104
f 183//105 185//106 186//106
f 183//105 186//106 184//105
f 195//111 185//111 183//111
f 196//112 184//112 186//112
f 185//106 187//107 188//107
f 185//106 188//107 186//106
f 195//111 187//111 185//111
f 196//112 186//112 188//112
f 187//107 189//108 190//108
f 187//107 190//108 188//107
f 195//111 189//111 187//111
f 196//112 188//112 190//112
f 189//108 191//109 192//109
f 189//108 192//109 190//108
f 195//111 191//111 189//111
f 196//112 190//112 192//112
f 191//109 193//110 194//110
f 191//109 194//110 192//109
f 195//111 193//111 191//111
f 196//112 192//112 194//112
f 193//110 183//105 184//105
f 193//110 184//105 194//110
f 195//111 183//111 193//111
f 196//112 194//112 184//112
f 197//113 199//114 200//114
f 197//113 200//114 198//113
f 209//119 199//119 197//119
f 210//120 198//120 200//120
f 199//114 201//115 202//115
f 199//114 202//115 200//114
f 209//119 201//119 199//119
f 210//120 200//120 202//120
f 201//115 203//116 204//116
f 201//115 204//116 202//115
f 209//119 203//119 201//119
f 210//120 202//120 204//120
f 203//116 205//117 206//117
f 203//116 206//117 204//116
f 209//119 205//119 203//119
f 210//120 204//120 206//120
f 205//117 207//118 208//118
f 205//117 208//118 206//117
f 209//119 207//119 205//119
f 210//120 206//120 208//120
f 207//118 197//113 198//113
f 207//118 198//113 208//118
f 209//119 197//119 207//119
f 210//120 208//120 198//120
f 211//121 213//122 214//122
f 211//121 214//122 212//121
f 223//127 213//127 211//127
f 224//128 212//128 214//128
f 213//122 215//123 216//123
f 213//122 216//123 214//122
f 223//127 215//127 213//127
f 224//128 214//128 216//128
f 215//123 217//124 218//124
f 215//123 218//124 216//123
f 223//127 217//127 215//127
f 224//128 216//128 218//128
f 217//124 219//125 220//125
f 217//124 220//125 218//124
f 223//127 219//127 217//127
f 224//128 218//128 220//128
f 219//125 221//126 222//126
f 219//125 222//126 220//125
f 223//127 221//127 219//127
f 224//128 220//128 222//128
f 221//126 211//121 212//121
f 221//126 212//121 222//126
f 223//127 211//127 221//127
f 224//128 222//128 212//128
f 225//129 227//130 228//130
f 225//129 228//130 226//129
f 237//135 227//135 225//135
f 238//136 226//136 228//136
f 227//130 229//131 230//131
f 227//130 230//131 228//130
f 237//135 229//135 227//135
f 238//136 228//136 230//136
f 229//131 231//132 232//132
f 229//131 232//132 230//131
f 237//135 231//135 229//135
f 238//136 230//136 232//136
f 231//132 233//133 234//133
f 231//132 234//133 232//132
f 237//135 233//135 231//135
f 238//136 232//136 234//136
f 233//133 235//134 236//134
f 233//133 236//134 234//133
f 237//135 235//135 233//135
f 238//136 234//136 236//136
f 235//134 225//129 226//129
f 235//134 226//129 236//134
f 237//135 225//135 235//135
f 238//136 236//136 226//136
f 239//137 241//138 242//138
f 239//137 242//138 240//137
f 251//143 241//143 239//143
f 252//144 240//144 242//144
f 241//138 243//139 244//139
f 241//138 244//139 242//138
f 251//143 243//143 241//143
f 252//144 242//144 244//144
f 243//139 245//140 246//140
f 243//139 246//140 244//139
f 251//143 245//143 243//143
f 252//144 244//144 246//144
f 245//140 247//141 248//141
f 245//140 248//141 246//140
f 251//143 247//143 245//143
f 252//144 246//144 248//144
f 247//141 249//142 250//142
f 247//141 250//142 248//141
f 251//143 249//143 247//143
f 252//144 248//144 250//144
f 249//142 239//137 240//137
f 249//142 240//137 250//142
f 251//143 239//143 249//143
f 252//144 250//144 240//144
f 253//145 255//146 256//146
f 253//145 256//146 254//145
f 265//151 255//151 253//151
f 266//152 254//152 256//152
f 255//146 257//147 258//147
f 255//146 258//147 256//146
f 265//151 257//151 255//151
f 266//152 256//152 258//152
f 257//147 259//148 260//148
f 257//147 260//148 258//147
f 265//151 259//151 257//151
f 266//152 258//152 260//152
f 259//148 261//149 262//149
f 259//148 262//149 260//148
f 265//151 261//151 259//151
f 266//152 260//152 262//152
f 261//149 263//150 264//150
f 261//149 264//150 262//149
f 265//151 263//151 261//151
f 266//152 262//152 264//152
f 263//150 253//145 254//145
f 263//150 254//145 264//150
f 265//151 253//151 263//151
f 266//152 264//152 254//152
f 267//153 269//154 270//154
f 267//153 270//154 268//153
f 279//159 269//159 267//159
f 280//160 268//160 270//160
f 269//154 271//155 272//155
f 269//154 272//155 270//154
f 279//159 271//159 269//159
f 280//160 270//160 272//160
f 271//155 273//156 274//156
f 271//155 274//156 272//155
f 279//159 273//159 271//159
f 280//160 272//160 274//160
f 273//156 275//157 276//157
f 273//156 276//157 274//156
f 279//159 275//159 273//159
f 280//160 274//160 276//160
f 275//157 277//158 278//158
f 275//157 278//158 276//157
f 279//159 277//159 275//159
f 280//160 276//160 278//160
f 277//158 267//153 268//153
f 277//158 268//153 278//158
f 279//159 267//159 277//159
f 280//160 278//160 268//160
f 281//161 283//162 284//162
f 281//161 284//162 282//161
f 293//167 283//167 281//167
f 294//168 282//168 284//168
f 283//162 285//163 286//163
f 283//162 286//163 284//162
f 293//167 285//167 283//167
f 294//168 284//168 286//168
f 285//163 287//164 288//164
f 285//163 288//164 286//163
f 293//167 287//167 285//167
f 294//168 286//168 288//168
f 287//164 289//165 290//165
f 287//164 290//165 288//164
f 293//167 289//167 287//167
f 294//168 288//168 290//168
f 289//165 291//166 292//166
f 289//165 292//166 290//165
f 293//167 291//167 289//167
f 294//168 290//168 292//168
f 291//166 281//161 282//161
f 291//166 282//161 292//166
f 293//167 281//167 291//167
f 294//168 292//168 282//168
f 295//169 297//170 298//170
f 295//169 298//170 296//169
f 307//175 297//175 295//175
f 308//176 296//176 298//176
f 297//170 299//171 300//171
f 297//170 300//171 298//170
f 307//175 299//175 297//175
f 308//176 298//176 300//176
f 299//171 301//172 302//172
f 299//171 302//172 300//171
f 307//175 301//175 299//175
f 308//176 300//176 302//176
f 301//172 303//173 304//173
f 301//172 304//173 302//172
f 307//175 303//175 301//175
f 308//176 302//176 304//176
f 303//173 305//174 306//174
f 303//173 306//174 304//173
f 307//175 305//175 303//175
f 308//176 304//176 306//176
f 305//174 295//169 296//169
f 305//174 296//169 306//174
f 307//175 295//175 305//175
f 308//176 306//176 296//176
f 309//177 311//178 312//178
f 309//177 312//178 310//177
f 321//183 311//183 309//183
f 322//184 310//184 312//184
f 311//178 313//179 314//179
f 311//178 314//179 312//178
f 321//183 313//183 311//183
f 322//184 312//184 314//184
f 313//179 315//180 316//180
f 313//179 316//180 314//179
f 321//183 315//183 313//183
f 322//184 314//184 316//184
f 315//180 317//181 318//181
f 315//180 318//181 316//180
f 321//183 317//183 315//183
f 322//184 316//184 318//184
f 317//181 319//182 320//182
f 317//181 320//182 318//181
f 321//183 319//183 317//183
f 322//184 318//184 320//184
f 319//182 309//177 310//177
f 319//182 310//177 320//182
f 321//183 309//183 319//183
f 322//184 320//184 310//184
f 323//185 325//186 326//186
f 323//185 326//186 324//185
f 335//191 325//191 323//191
f 336//192 324//192 326//192
f 325//186 327//187 328//187
f 325//186 328//187 326//186
f 335//191 327//191 325//191
f 336//192 326//192 328//192
f 327//187 329//188 330//188
f 327//187 330//188 328//187
f 335//191 329//191 327//191
f 336//192 328//192 330//192
f 329//188 331//189 332//189
f 329//188 332//189 330//188
f 335//191 331//191 329//191
f 336//192 330//192 332//192
f 331//189 333//190 334//190
f 331//189 334//190 332//189
f 335//191 333//191 331//191
f 336//192 332//192 334//192
f 333//190 323//185 324//185
f 333//190 324//185 334//190
f 335//191 323//191 333//191
f 336//192 334//192 324//192
f 337//193 339//194 340//194
f 337//193 340//194 338//193
f 349//199 339//199 337//199
f 350//200 338//200 340//200
f 339//194 341//195 342//195
f 339//194 342//195 340//194
f 349//199 341//199 339//199
f 350//200 340//200 342//200
f 341//195 343//196 344//196
f 341//195 344//196 342//195
f 349//199 343//199 341//199
f 350//200 342//200 344//200
f 343//196 345//197 346//197
f 343//196 346//197 344//196
f 349//199 345//199 343//199
f 350//200 344//200 346//200
f 345//197 347//198 348//198
f 345//197 348//198 346//197
f 349//199 347//199 345//199
f 350//200 346//200 348//200
f 347//198 337//193 338//193
f 347//198 338//193 348//198
f 349//199 337//199 347//199
f 350//200 348//200 338//200
f 351//201 353//202 354//202
f 351//201 354//202 352//201
f 363//207 353//207 351//207
f 364//208 352//208 354//208
f 353//202 355//203 356//203
f 353//202 356//203 354//202
f 363//207 355//207 353//207
f 364//208 354//208 356//208
f 355//203 357//204 358//204
f 355//203 358//204 356//203
f 363//207 357//207 355//207
f 364//208 356//208 358//208
f 357//204 359//205 360//205
f 357//204 360//205 358//204
f 363//207 359//207 357//207
f 364//208 358//208 360//208
f 359//205 361//206 362//206
f 359//205 362//206 360//205
f 363//207 361//207 359//207
f 364//208 360//208 362//208
f 361//206 351//201 352//201
f 361//206 352//201 362//206
f 363//207 351//207 361//207
f 364//208 362//208 352//208
f 365//209 367//210 368//210
f 365//209 368//210 366//209
f 377//215 367//215 365//215
f 378//216 366//216 368//216
f 367//210 369//211 370//211
f 367//210 370//211 368//210
f 377//215 369//215 367//215
f 378//216 368//216 370//216
f 369//211 371//212 372//212
f 369//211 372//212 370//211
f 377//215 371//215 369//215
f 378//216 370//216 372//216
f 371//212 373//213 374//213
f 371//212 374//213 372//212
f 377//215 373//215 371//215
f 378//216 372//216 374//216
f 373//213 375//214 376//214
f 373//213 376//214 374//213
f 377//215 375//215 373//215
f 378//216 374//216 376//216
f 375//214 365//209 366//209
f 375//214 366//209 376//214
f 377//215 365//215 375//215
f 378//216 376//216 366//216
f 379//217 381//218 382//218
f 379//217 382//218 380//217
f 391//223 381//223 379//223
f 392//224 380//224 382//224
f 381//218 383//219 384//219
f 381//218 384//219 382//218
f 391//223 383//223 381//223
f 392//224 382//224 384//224
f 383//219 385//220 386//220
f 383//219 386//220 384//219
f 391//223 385//223 383//223
f 392//224 384//224 386//224
f 385//220 387//221 388//221
f 385//220 388//221 386//220
f 391//223 387//223 385//223
f 392//224 386//224 388//224
f 387//221 389//222 390//222
f 387//221 390//222 388//221
f 391//223 389//223 387//223
f 392//224 388//224 390//224
f 389//222 379//217 380//217
f 389//222 380//217 390//222
f 391//223 379//223 389//223
f 392//224 390//224 380//224
# counts: vertices=392, normals=224, faces=672
