# YouLong unified collision/hydrodynamics proxy (metres).
# Custom YouLong ellipsoid preserving the calibrated outer envelope.
v 0.000000000 0.000000000 -0.063329000
v 0.051012000 0.000000000 -0.060508000
v 0.050031000 0.008421000 -0.060508000
v 0.047129000 0.016518000 -0.060508000
v 0.042415000 0.023980000 -0.060508000
v 0.036071000 0.030521000 -0.060508000
v 0.028340000 0.035889000 -0.060508000
v 0.019521000 0.039878000 -0.060508000
v 0.009952000 0.042334000 -0.060508000
v 0.000000000 0.043164000 -0.060508000
v -0.009952000 0.042334000 -0.060508000
v -0.019521000 0.039878000 -0.060508000
v -0.028340000 0.035889000 -0.060508000
v -0.036071000 0.030521000 -0.060508000
v -0.042415000 0.023980000 -0.060508000
v -0.047129000 0.016518000 -0.060508000
v -0.050031000 0.008421000 -0.060508000
v -0.051012000 0.000000000 -0.060508000
v -0.050031000 -0.008421000 -0.060508000
v -0.047129000 -0.016518000 -0.060508000
v -0.042415000 -0.023980000 -0.060508000
v -0.036071000 -0.030521000 -0.060508000
v -0.028340000 -0.035889000 -0.060508000
v -0.019521000 -0.039878000 -0.060508000
v -0.009952000 -0.042334000 -0.060508000
v -0.000000000 -0.043164000 -0.060508000
v 0.009952000 -0.042334000 -0.060508000
v 0.019521000 -0.039878000 -0.060508000
v 0.028340000 -0.035889000 -0.060508000
v 0.036071000 -0.030521000 -0.060508000
v 0.042415000 -0.023980000 -0.060508000
v 0.047129000 -0.016518000 -0.060508000
v 0.050031000 -0.008421000 -0.060508000
v 0.100063000 0.000000000 -0.052152000
v 0.098140000 0.016518000 -0.052152000
v 0.092446000 0.032401000 -0.052152000
v 0.083199000 0.047039000 -0.052152000
v 0.070755000 0.059870000 -0.052152000
v 0.055592000 0.070399000 -0.052152000
v 0.038292000 0.078224000 -0.052152000
v 0.019521000 0.083042000 -0.052152000
v 0.000000000 0.084669000 -0.052152000
v -0.019521000 0.083042000 -0.052152000
v -0.038292000 0.078224000 -0.052152000
v -0.055592000 0.070399000 -0.052152000
v -0.070755000 0.059870000 -0.052152000
v -0.083199000 0.047039000 -0.052152000
v -0.092446000 0.032401000 -0.052152000
v -0.098140000 0.016518000 -0.052152000
v -0.100063000 0.000000000 -0.052152000
v -0.098140000 -0.016518000 -0.052152000
v -0.092446000 -0.032401000 -0.052152000
v -0.083199000 -0.047039000 -0.052152000
v -0.070755000 -0.059870000 -0.052152000
v -0.055592000 -0.070399000 -0.052152000
v -0.038292000 -0.078224000 -0.052152000
v -0.019521000 -0.083042000 -0.052152000
v -0.000000000 -0.084669000 -0.052152000
v 0.019521000 -0.083042000 -0.052152000
v 0.038292000 -0.078224000 -0.052152000
v 0.055592000 -0.070399000 -0.052152000
v 0.070755000 -0.059870000 -0.052152000
v 0.083199000 -0.047039000 -0.052152000
v 0.092446000 -0.032401000 -0.052152000
v 0.098140000 -0.016518000 -0.052152000
v 0.145269000 0.000000000 -0.038584000
v 0.142477000 0.023980000 -0.038584000
v 0.134211000 0.047039000 -0.038584000
v 0.120786000 0.068290000 -0.038584000
v 0.102720000 0.086917000 -0.038584000
v 0.080707000 0.102204000 -0.038584000
v 0.055592000 0.113563000 -0.038584000
v 0.028340000 0.120558000 -0.038584000
v 0.000000000 0.122920000 -0.038584000
v -0.028340000 0.120558000 -0.038584000
v -0.055592000 0.113563000 -0.038584000
v -0.080707000 0.102204000 -0.038584000
v -0.102720000 0.086917000 -0.038584000
v -0.120786000 0.068290000 -0.038584000
v -0.134211000 0.047039000 -0.038584000
v -0.142477000 0.023980000 -0.038584000
v -0.145269000 0.000000000 -0.038584000
v -0.142477000 -0.023980000 -0.038584000
v -0.134211000 -0.047039000 -0.038584000
v -0.120786000 -0.068290000 -0.038584000
v -0.102720000 -0.086917000 -0.038584000
v -0.080707000 -0.102204000 -0.038584000
v -0.055592000 -0.113563000 -0.038584000
v -0.028340000 -0.120558000 -0.038584000
v -0.000000000 -0.122920000 -0.038584000
v 0.028340000 -0.120558000 -0.038584000
v 0.055592000 -0.113563000 -0.038584000
v 0.080707000 -0.102204000 -0.038584000
v 0.102720000 -0.086917000 -0.038584000
v 0.120786000 -0.068290000 -0.038584000
v 0.134211000 -0.047039000 -0.038584000
v 0.142477000 -0.023980000 -0.038584000
v 0.184892000 0.000000000 -0.020324000
v 0.181339000 0.030521000 -0.020324000
v 0.170818000 0.059870000 -0.020324000
v 0.153732000 0.086917000 -0.020324000
v 0.130738000 0.110625000 -0.020324000
v 0.102720000 0.130081000 -0.020324000
v 0.070755000 0.144538000 -0.020324000
v 0.036071000 0.153441000 -0.020324000
v 0.000000000 0.156447000 -0.020324000
v -0.036071000 0.153441000 -0.020324000
v -0.070755000 0.144538000 -0.020324000
v -0.102720000 0.130081000 -0.020324000
v -0.130738000 0.110625000 -0.020324000
v -0.153732000 0.086917000 -0.020324000
v -0.170818000 0.059870000 -0.020324000
v -0.181339000 0.030521000 -0.020324000
v -0.184892000 0.000000000 -0.020324000
v -0.181339000 -0.030521000 -0.020324000
v -0.170818000 -0.059870000 -0.020324000
v -0.153732000 -0.086917000 -0.020324000
v -0.130738000 -0.110625000 -0.020324000
v -0.102720000 -0.130081000 -0.020324000
v -0.070755000 -0.144538000 -0.020324000
v -0.036071000 -0.153441000 -0.020324000
v -0.000000000 -0.156447000 -0.020324000
v 0.036071000 -0.153441000 -0.020324000
v 0.070755000 -0.144538000 -0.020324000
v 0.102720000 -0.130081000 -0.020324000
v 0.130738000 -0.110625000 -0.020324000
v 0.153732000 -0.086917000 -0.020324000
v 0.170818000 -0.059870000 -0.020324000
v 0.181339000 -0.030521000 -0.020324000
v 0.217410000 0.000000000 0.001926000
v 0.213232000 0.035889000 0.001926000
v 0.200860000 0.070399000 0.001926000
v 0.180770000 0.102204000 0.001926000
v 0.153732000 0.130081000 0.001926000
v 0.120786000 0.152959000 0.001926000
v 0.083199000 0.169959000 0.001926000
v 0.042415000 0.180427000 0.001926000
v 0.000000000 0.183962000 0.001926000
v -0.042415000 0.180427000 0.001926000
v -0.083199000 0.169959000 0.001926000
v -0.120786000 0.152959000 0.001926000
v -0.153732000 0.130081000 0.001926000
v -0.180770000 0.102204000 0.001926000
v -0.200860000 0.070399000 0.001926000
v -0.213232000 0.035889000 0.001926000
v -0.217410000 0.000000000 0.001926000
v -0.213232000 -0.035889000 0.001926000
v -0.200860000 -0.070399000 0.001926000
v -0.180770000 -0.102204000 0.001926000
v -0.153732000 -0.130081000 0.001926000
v -0.120786000 -0.152959000 0.001926000
v -0.083199000 -0.169959000 0.001926000
v -0.042415000 -0.180427000 0.001926000
v -0.000000000 -0.183962000 0.001926000
v 0.042415000 -0.180427000 0.001926000
v 0.083199000 -0.169959000 0.001926000
v 0.120786000 -0.152959000 0.001926000
v 0.153732000 -0.130081000 0.001926000
v 0.180770000 -0.102204000 0.001926000
v 0.200860000 -0.070399000 0.001926000
v 0.213232000 -0.035889000 0.001926000
v 0.241573000 0.000000000 0.027311000
v 0.236931000 0.039878000 0.027311000
v 0.223184000 0.078224000 0.027311000
v 0.200860000 0.113563000 0.027311000
v 0.170818000 0.144538000 0.027311000
v 0.134211000 0.169959000 0.027311000
v 0.092446000 0.188848000 0.027311000
v 0.047129000 0.200480000 0.027311000
v 0.000000000 0.204408000 0.027311000
v -0.047129000 0.200480000 0.027311000
v -0.092446000 0.188848000 0.027311000
v -0.134211000 0.169959000 0.027311000
v -0.170818000 0.144538000 0.027311000
v -0.200860000 0.113563000 0.027311000
v -0.223184000 0.078224000 0.027311000
v -0.236931000 0.039878000 0.027311000
v -0.241573000 0.000000000 0.027311000
v -0.236931000 -0.039878000 0.027311000
v -0.223184000 -0.078224000 0.027311000
v -0.200860000 -0.113563000 0.027311000
v -0.170818000 -0.144538000 0.027311000
v -0.134211000 -0.169959000 0.027311000
v -0.092446000 -0.188848000 0.027311000
v -0.047129000 -0.200480000 0.027311000
v -0.000000000 -0.204408000 0.027311000
v 0.047129000 -0.200480000 0.027311000
v 0.092446000 -0.188848000 0.027311000
v 0.134211000 -0.169959000 0.027311000
v 0.170818000 -0.144538000 0.027311000
v 0.200860000 -0.113563000 0.027311000
v 0.223184000 -0.078224000 0.027311000
v 0.236931000 -0.039878000 0.027311000
v 0.256452000 0.000000000 0.054855000
v 0.251525000 0.042334000 0.054855000
v 0.236931000 0.083042000 0.054855000
v 0.213232000 0.120558000 0.054855000
v 0.181339000 0.153441000 0.054855000
v 0.142477000 0.180427000 0.054855000
v 0.098140000 0.200480000 0.054855000
v 0.050031000 0.212829000 0.054855000
v 0.000000000 0.216998000 0.054855000
v -0.050031000 0.212829000 0.054855000
v -0.098140000 0.200480000 0.054855000
v -0.142477000 0.180427000 0.054855000
v -0.181339000 0.153441000 0.054855000
v -0.213232000 0.120558000 0.054855000
v -0.236931000 0.083042000 0.054855000
v -0.251525000 0.042334000 0.054855000
v -0.256452000 0.000000000 0.054855000
v -0.251525000 -0.042334000 0.054855000
v -0.236931000 -0.083042000 0.054855000
v -0.213232000 -0.120558000 0.054855000
v -0.181339000 -0.153441000 0.054855000
v -0.142477000 -0.180427000 0.054855000
v -0.098140000 -0.200480000 0.054855000
v -0.050031000 -0.212829000 0.054855000
v -0.000000000 -0.216998000 0.054855000
v 0.050031000 -0.212829000 0.054855000
v 0.098140000 -0.200480000 0.054855000
v 0.142477000 -0.180427000 0.054855000
v 0.181339000 -0.153441000 0.054855000
v 0.213232000 -0.120558000 0.054855000
v 0.236931000 -0.083042000 0.054855000
v 0.251525000 -0.042334000 0.054855000
v 0.261477000 0.000000000 0.083500000
v 0.256452000 0.043164000 0.083500000
v 0.241573000 0.084669000 0.083500000
v 0.217410000 0.122920000 0.083500000
v 0.184892000 0.156447000 0.083500000
v 0.145269000 0.183962000 0.083500000
v 0.100063000 0.204408000 0.083500000
v 0.051012000 0.216998000 0.083500000
v 0.000000000 0.221249000 0.083500000
v -0.051012000 0.216998000 0.083500000
v -0.100063000 0.204408000 0.083500000
v -0.145269000 0.183962000 0.083500000
v -0.184892000 0.156447000 0.083500000
v -0.217410000 0.122920000 0.083500000
v -0.241573000 0.084669000 0.083500000
v -0.256452000 0.043164000 0.083500000
v -0.261477000 0.000000000 0.083500000
v -0.256452000 -0.043164000 0.083500000
v -0.241573000 -0.084669000 0.083500000
v -0.217410000 -0.122920000 0.083500000
v -0.184892000 -0.156447000 0.083500000
v -0.145269000 -0.183962000 0.083500000
v -0.100063000 -0.204408000 0.083500000
v -0.051012000 -0.216998000 0.083500000
v -0.000000000 -0.221249000 0.083500000
v 0.051012000 -0.216998000 0.083500000
v 0.100063000 -0.204408000 0.083500000
v 0.145269000 -0.183962000 0.083500000
v 0.184892000 -0.156447000 0.083500000
v 0.217410000 -0.122920000 0.083500000
v 0.241573000 -0.084669000 0.083500000
v 0.256452000 -0.043164000 0.083500000
v 0.256452000 0.000000000 0.112145000
v 0.251525000 0.042334000 0.112145000
v 0.236931000 0.083042000 0.112145000
v 0.213232000 0.120558000 0.112145000
v 0.181339000 0.153441000 0.112145000
v 0.142477000 0.180427000 0.112145000
v 0.098140000 0.200480000 0.112145000
v 0.050031000 0.212829000 0.112145000
v 0.000000000 0.216998000 0.112145000
v -0.050031000 0.212829000 0.112145000
v -0.098140000 0.200480000 0.112145000
v -0.142477000 0.180427000 0.112145000
v -0.181339000 0.153441000 0.112145000
v -0.213232000 0.120558000 0.112145000
v -0.236931000 0.083042000 0.112145000
v -0.251525000 0.042334000 0.112145000
v -0.256452000 0.000000000 0.112145000
v -0.251525000 -0.042334000 0.112145000
v -0.236931000 -0.083042000 0.112145000
v -0.213232000 -0.120558000 0.112145000
v -0.181339000 -0.153441000 0.112145000
v -0.142477000 -0.180427000 0.112145000
v -0.098140000 -0.200480000 0.112145000
v -0.050031000 -0.212829000 0.112145000
v -0.000000000 -0.216998000 0.112145000
v 0.050031000 -0.212829000 0.112145000
v 0.098140000 -0.200480000 0.112145000
v 0.142477000 -0.180427000 0.112145000
v 0.181339000 -0.153441000 0.112145000
v 0.213232000 -0.120558000 0.112145000
v 0.236931000 -0.083042000 0.112145000
v 0.251525000 -0.042334000 0.112145000
v 0.241573000 0.000000000 0.139689000
v 0.236931000 0.039878000 0.139689000
v 0.223184000 0.078224000 0.139689000
v 0.200860000 0.113563000 0.139689000
v 0.170818000 0.144538000 0.139689000
v 0.134211000 0.169959000 0.139689000
v 0.092446000 0.188848000 0.139689000
v 0.047129000 0.200480000 0.139689000
v 0.000000000 0.204408000 0.139689000
v -0.047129000 0.200480000 0.139689000
v -0.092446000 0.188848000 0.139689000
v -0.134211000 0.169959000 0.139689000
v -0.170818000 0.144538000 0.139689000
v -0.200860000 0.113563000 0.139689000
v -0.223184000 0.078224000 0.139689000
v -0.236931000 0.039878000 0.139689000
v -0.241573000 0.000000000 0.139689000
v -0.236931000 -0.039878000 0.139689000
v -0.223184000 -0.078224000 0.139689000
v -0.200860000 -0.113563000 0.139689000
v -0.170818000 -0.144538000 0.139689000
v -0.134211000 -0.169959000 0.139689000
v -0.092446000 -0.188848000 0.139689000
v -0.047129000 -0.200480000 0.139689000
v -0.000000000 -0.204408000 0.139689000
v 0.047129000 -0.200480000 0.139689000
v 0.092446000 -0.188848000 0.139689000
v 0.134211000 -0.169959000 0.139689000
v 0.170818000 -0.144538000 0.139689000
v 0.200860000 -0.113563000 0.139689000
v 0.223184000 -0.078224000 0.139689000
v 0.236931000 -0.039878000 0.139689000
v 0.217410000 0.000000000 0.165074000
v 0.213232000 0.035889000 0.165074000
v 0.200860000 0.070399000 0.165074000
v 0.180770000 0.102204000 0.165074000
v 0.153732000 0.130081000 0.165074000
v 0.120786000 0.152959000 0.165074000
v 0.083199000 0.169959000 0.165074000
v 0.042415000 0.180427000 0.165074000
v 0.000000000 0.183962000 0.165074000
v -0.042415000 0.180427000 0.165074000
v -0.083199000 0.169959000 0.165074000
v -0.120786000 0.152959000 0.165074000
v -0.153732000 0.130081000 0.165074000
v -0.180770000 0.102204000 0.165074000
v -0.200860000 0.070399000 0.165074000
v -0.213232000 0.035889000 0.165074000
v -0.217410000 0.000000000 0.165074000
v -0.213232000 -0.035889000 0.165074000
v -0.200860000 -0.070399000 0.165074000
v -0.180770000 -0.102204000 0.165074000
v -0.153732000 -0.130081000 0.165074000
v -0.120786000 -0.152959000 0.165074000
v -0.083199000 -0.169959000 0.165074000
v -0.042415000 -0.180427000 0.165074000
v -0.000000000 -0.183962000 0.165074000
v 0.042415000 -0.180427000 0.165074000
v 0.083199000 -0.169959000 0.165074000
v 0.120786000 -0.152959000 0.165074000
v 0.153732000 -0.130081000 0.165074000
v 0.180770000 -0.102204000 0.165074000
v 0.200860000 -0.070399000 0.165074000
v 0.213232000 -0.035889000 0.165074000
v 0.184892000 0.000000000 0.187324000
v 0.181339000 0.030521000 0.187324000
v 0.170818000 0.059870000 0.187324000
v 0.153732000 0.086917000 0.187324000
v 0.130738000 0.110625000 0.187324000
v 0.102720000 0.130081000 0.187324000
v 0.070755000 0.144538000 0.187324000
v 0.036071000 0.153441000 0.187324000
v 0.000000000 0.156447000 0.187324000
v -0.036071000 0.153441000 0.187324000
v -0.070755000 0.144538000 0.187324000
v -0.102720000 0.130081000 0.187324000
v -0.130738000 0.110625000 0.187324000
v -0.153732000 0.086917000 0.187324000
v -0.170818000 0.059870000 0.187324000
v -0.181339000 0.030521000 0.187324000
v -0.184892000 0.000000000 0.187324000
v -0.181339000 -0.030521000 0.187324000
v -0.170818000 -0.059870000 0.187324000
v -0.153732000 -0.086917000 0.187324000
v -0.130738000 -0.110625000 0.187324000
v -0.102720000 -0.130081000 0.187324000
v -0.070755000 -0.144538000 0.187324000
v -0.036071000 -0.153441000 0.187324000
v -0.000000000 -0.156447000 0.187324000
v 0.036071000 -0.153441000 0.187324000
v 0.070755000 -0.144538000 0.187324000
v 0.102720000 -0.130081000 0.187324000
v 0.130738000 -0.110625000 0.187324000
v 0.153732000 -0.086917000 0.187324000
v 0.170818000 -0.059870000 0.187324000
v 0.181339000 -0.030521000 0.187324000
v 0.145269000 0.000000000 0.205584000
v 0.142477000 0.023980000 0.205584000
v 0.134211000 0.047039000 0.205584000
v 0.120786000 0.068290000 0.205584000
v 0.102720000 0.086917000 0.205584000
v 0.080707000 0.102204000 0.205584000
v 0.055592000 0.113563000 0.205584000
v 0.028340000 0.120558000 0.205584000
v 0.000000000 0.122920000 0.205584000
v -0.028340000 0.120558000 0.205584000
v -0.055592000 0.113563000 0.205584000
v -0.080707000 0.102204000 0.205584000
v -0.102720000 0.086917000 0.205584000
v -0.120786000 0.068290000 0.205584000
v -0.134211000 0.047039000 0.205584000
v -0.142477000 0.023980000 0.205584000
v -0.145269000 0.000000000 0.205584000
v -0.142477000 -0.023980000 0.205584000
v -0.134211000 -0.047039000 0.205584000
v -0.120786000 -0.068290000 0.205584000
v -0.102720000 -0.086917000 0.205584000
v -0.080707000 -0.102204000 0.205584000
v -0.055592000 -0.113563000 0.205584000
v -0.028340000 -0.120558000 0.205584000
v -0.000000000 -0.122920000 0.205584000
v 0.028340000 -0.120558000 0.205584000
v 0.055592000 -0.113563000 0.205584000
v 0.080707000 -0.102204000 0.205584000
v 0.102720000 -0.086917000 0.205584000
v 0.120786000 -0.068290000 0.205584000
v 0.134211000 -0.047039000 0.205584000
v 0.142477000 -0.023980000 0.205584000
v 0.100063000 0.000000000 0.219152000
v 0.098140000 0.016518000 0.219152000
v 0.092446000 0.032401000 0.219152000
v 0.083199000 0.047039000 0.219152000
v 0.070755000 0.059870000 0.219152000
v 0.055592000 0.070399000 0.219152000
v 0.038292000 0.078224000 0.219152000
v 0.019521000 0.083042000 0.219152000
v 0.000000000 0.084669000 0.219152000
v -0.019521000 0.083042000 0.219152000
v -0.038292000 0.078224000 0.219152000
v -0.055592000 0.070399000 0.219152000
v -0.070755000 0.059870000 0.219152000
v -0.083199000 0.047039000 0.219152000
v -0.092446000 0.032401000 0.219152000
v -0.098140000 0.016518000 0.219152000
v -0.100063000 0.000000000 0.219152000
v -0.098140000 -0.016518000 0.219152000
v -0.092446000 -0.032401000 0.219152000
v -0.083199000 -0.047039000 0.219152000
v -0.070755000 -0.059870000 0.219152000
v -0.055592000 -0.070399000 0.219152000
v -0.038292000 -0.078224000 0.219152000
v -0.019521000 -0.083042000 0.219152000
v -0.000000000 -0.084669000 0.219152000
v 0.019521000 -0.083042000 0.219152000
v 0.038292000 -0.078224000 0.219152000
v 0.055592000 -0.070399000 0.219152000
v 0.070755000 -0.059870000 0.219152000
v 0.083199000 -0.047039000 0.219152000
v 0.092446000 -0.032401000 0.219152000
v 0.098140000 -0.016518000 0.219152000
v 0.051012000 0.000000000 0.227508000
v 0.050031000 0.008421000 0.227508000
v 0.047129000 0.016518000 0.227508000
v 0.042415000 0.023980000 0.227508000
v 0.036071000 0.030521000 0.227508000
v 0.028340000 0.035889000 0.227508000
v 0.019521000 0.039878000 0.227508000
v 0.009952000 0.042334000 0.227508000
v 0.000000000 0.043164000 0.227508000
v -0.009952000 0.042334000 0.227508000
v -0.019521000 0.039878000 0.227508000
v -0.028340000 0.035889000 0.227508000
v -0.036071000 0.030521000 0.227508000
v -0.042415000 0.023980000 0.227508000
v -0.047129000 0.016518000 0.227508000
v -0.050031000 0.008421000 0.227508000
v -0.051012000 0.000000000 0.227508000
v -0.050031000 -0.008421000 0.227508000
v -0.047129000 -0.016518000 0.227508000
v -0.042415000 -0.023980000 0.227508000
v -0.036071000 -0.030521000 0.227508000
v -0.028340000 -0.035889000 0.227508000
v -0.019521000 -0.039878000 0.227508000
v -0.009952000 -0.042334000 0.227508000
v -0.000000000 -0.043164000 0.227508000
v 0.009952000 -0.042334000 0.227508000
v 0.019521000 -0.039878000 0.227508000
v 0.028340000 -0.035889000 0.227508000
v 0.036071000 -0.030521000 0.227508000
v 0.042415000 -0.023980000 0.227508000
v 0.047129000 -0.016518000 0.227508000
v 0.050031000 -0.008421000 0.227508000
v 0.000000000 0.000000000 0.230329000
vn 0.055215205 0.006432267 -0.998453758
vn 0.053092485 0.019028577 -0.998408284
vn 0.048924211 0.030907093 -0.998324182
vn 0.042878691 0.041587283 -0.998214364
vn 0.035183300 0.050671031 -0.998095477
vn 0.026144140 0.057800244 -0.997985779
vn 0.016096058 0.062713020 -0.997901796
vn 0.005438976 0.065215293 -0.997856394
vn -0.005438976 0.065215293 -0.997856394
vn -0.016096058 0.062713020 -0.997901796
vn -0.026144140 0.057800244 -0.997985779
vn -0.035183300 0.050671031 -0.998095477
vn -0.042878691 0.041587283 -0.998214364
vn -0.048924211 0.030907093 -0.998324182
vn -0.053092485 0.019028577 -0.998408284
vn -0.055215205 0.006432267 -0.998453758
vn -0.055215205 -0.006432267 -0.998453758
vn -0.053092485 -0.019028577 -0.998408284
vn -0.048924211 -0.030907093 -0.998324182
vn -0.042878691 -0.041587283 -0.998214364
vn -0.035183300 -0.050671031 -0.998095477
vn -0.026144140 -0.057800244 -0.997985779
vn -0.016096058 -0.062713020 -0.997901796
vn -0.005438976 -0.065215293 -0.997856394
vn 0.005438976 -0.065215293 -0.997856394
vn 0.016096058 -0.062713020 -0.997901796
vn 0.026144140 -0.057800244 -0.997985779
vn 0.035183300 -0.050671031 -0.998095477
vn 0.042878691 -0.041587283 -0.998214364
vn 0.048924211 -0.030907093 -0.998324182
vn 0.053092485 -0.019028577 -0.998408284
vn 0.055215205 -0.006432267 -0.998453758
vn 0.129636572 0.006384568 -0.991541021
vn 0.126070400 0.036143576 -0.991362646
vn 0.117634705 0.064489418 -0.990960741
vn 0.104668755 0.090321441 -0.990397137
vn 0.087686908 0.112646435 -0.989758449
vn 0.067369312 0.130616600 -0.989141385
vn 0.044489444 0.143566356 -0.988640173
vn 0.019930678 0.151017750 -0.988330110
vn -0.005383963 0.152698791 -0.988258110
vn -0.030494194 0.148550623 -0.988434528
vn -0.054453983 0.138721637 -0.988833187
vn -0.076346383 0.123573493 -0.989394169
vn -0.095341108 0.103662576 -0.990032395
vn -0.110691025 0.079740414 -0.990650778
vn -0.121790117 0.052709730 -0.991155312
vn -0.128191113 0.023627690 -0.991467988
vn -0.129636572 -0.006384568 -0.991541021
vn -0.126070400 -0.036143576 -0.991362646
vn -0.117634705 -0.064489418 -0.990960741
vn -0.104668755 -0.090321441 -0.990397137
vn -0.087686908 -0.112646435 -0.989758449
vn -0.067369312 -0.130616600 -0.989141385
vn -0.044489444 -0.143566356 -0.988640173
vn -0.019930678 -0.151017750 -0.988330110
vn 0.005383963 -0.152698791 -0.988258110
vn 0.030494194 -0.148550623 -0.988434528
vn 0.054453983 -0.138721637 -0.988833187
vn 0.076346383 -0.123573493 -0.989394169
vn 0.095341108 -0.103662576 -0.990032395
vn 0.110691025 -0.079740414 -0.990650778
vn 0.121790117 -0.052709730 -0.991155312
vn 0.128191113 -0.023627690 -0.991467988
vn 0.236032257 0.006255785 -0.971725084
vn 0.230346583 0.060524551 -0.971224603
vn 0.215654162 0.112328664 -0.969987399
vn 0.192616866 0.159597465 -0.968208341
vn 0.162226750 0.200514078 -0.966165921
vn 0.125745816 0.233581245 -0.964172076
vn 0.084629630 0.257644417 -0.962526457
vn 0.040425889 0.271908485 -0.961473621
vn -0.005234722 0.275916373 -0.961167391
vn -0.050709187 0.269544032 -0.961652013
vn -0.094348516 0.252988665 -0.962857774
vn -0.134542336 0.226786096 -0.964606877
vn -0.169750706 0.191814064 -0.966639572
vn -0.198564851 0.149301550 -0.968649084
vn -0.219775853 0.100824253 -0.970326257
vn -0.232455024 0.048271285 -0.971408536
vn -0.236032257 -0.006255785 -0.971725084
vn -0.230346583 -0.060524551 -0.971224603
vn -0.215654162 -0.112328664 -0.969987399
vn -0.192616866 -0.159597465 -0.968208341
vn -0.162226750 -0.200514078 -0.966165921
vn -0.125745816 -0.233581245 -0.964172076
vn -0.084629630 -0.257644417 -0.962526457
vn -0.040425889 -0.271908485 -0.961473621
vn 0.005234722 -0.275916373 -0.961167391
vn 0.050709187 -0.269544032 -0.961652013
vn 0.094348516 -0.252988665 -0.962857774
vn 0.134542336 -0.226786096 -0.964606877
vn 0.169750706 -0.191814064 -0.966639572
vn 0.198564851 -0.149301550 -0.968649084
vn 0.219775853 -0.100824253 -0.970326257
vn 0.232455024 -0.048271285 -0.971408536
vn 0.357730399 0.006012008 -0.933805557
vn 0.349479463 0.088277506 -0.932776065
vn 0.327253813 0.166682097 -0.930119358
vn 0.292236716 0.237944642 -0.926272125
vn 0.246168378 0.299312607 -0.921853076
vn 0.191129983 0.348683228 -0.917545278
vn 0.129394776 0.384553098 -0.913989008
vn 0.063267170 0.405976004 -0.911691148
vn -0.004961963 0.412437383 -0.910972439
vn -0.073029865 0.403791181 -0.911931643
vn -0.138660093 0.380238289 -0.914435466
vn -0.199570088 0.342337316 -0.918137758
vn -0.253447223 0.291124226 -0.922502678
vn -0.298039270 0.228179023 -0.926880212
vn -0.331301015 0.155694887 -0.930590533
vn -0.351558800 0.076521224 -0.933033179
vn -0.357730399 -0.006012008 -0.933805557
vn -0.349479463 -0.088277506 -0.932776065
vn -0.327253813 -0.166682097 -0.930119358
vn -0.292236716 -0.237944642 -0.926272125
vn -0.246168378 -0.299312607 -0.921853076
vn -0.191129983 -0.348683228 -0.917545278
vn -0.129394776 -0.384553098 -0.913989008
vn -0.063267170 -0.405976004 -0.911691148
vn 0.004961963 -0.412437383 -0.910972439
vn 0.073029865 -0.403791181 -0.911931643
vn 0.138660093 -0.380238289 -0.914435466
vn 0.199570088 -0.342337316 -0.918137758
vn 0.253447223 -0.291124226 -0.922502678
vn 0.298039270 -0.228179023 -0.926880212
vn 0.331301015 -0.155694887 -0.930590533
vn 0.351558800 -0.076521224 -0.933033179
vn 0.494424228 0.005595583 -0.869202722
vn 0.483025727 0.119244277 -0.867448529
vn 0.451636718 0.227093747 -0.862816727
vn 0.402316070 0.324329403 -0.856126286
vn 0.338009883 0.407191999 -0.848495136
vn 0.262002375 0.473153197 -0.841118783
vn 0.177575994 0.520699010 -0.835068445
vn 0.087797288 0.549056808 -0.831160789
vn -0.004520991 0.557900341 -0.829895638
vn -0.096708628 0.547146336 -0.831431493
vn -0.186094628 0.516895947 -0.835576071
vn -0.269837453 0.467515729 -0.841793794
vn -0.344852930 0.399820387 -0.849246792
vn -0.407841265 0.315423289 -0.856839338
vn -0.455526799 0.216976734 -0.863375024
vn -0.485039216 0.108325821 -0.867757152
vn -0.494424228 -0.005595583 -0.869202722
vn -0.483025727 -0.119244277 -0.867448529
vn -0.451636718 -0.227093747 -0.862816727
vn -0.402316070 -0.324329403 -0.856126286
vn -0.338009883 -0.407191999 -0.848495136
vn -0.262002375 -0.473153197 -0.841118783
vn -0.177575994 -0.520699010 -0.835068445
vn -0.087797288 -0.549056808 -0.831160789
vn 0.004520991 -0.557900341 -0.829895638
vn 0.096708628 -0.547146336 -0.831431493
vn 0.186094628 -0.516895947 -0.835576071
vn 0.269837453 -0.467515729 -0.841793794
vn 0.344852930 -0.399820387 -0.849246792
vn 0.407841265 -0.315423289 -0.856839338
vn 0.455526799 -0.216976734 -0.863375024
vn 0.485039216 -0.108325821 -0.867757152
vn 0.646883697 0.004909078 -0.762572871
vn 0.631521178 0.153451115 -0.760022209
vn 0.588725919 0.293438924 -0.753190142
vn 0.522102512 0.418037815 -0.743406586
vn 0.436499691 0.522533799 -0.732411393
vn 0.336966133 0.604367349 -0.721937623
vn 0.228014820 0.662566988 -0.713452331
vn 0.113387950 0.697045136 -0.708005121
vn -0.003848214 0.707992935 -0.706209031
vn -0.120994352 0.695513728 -0.708252088
vn -0.235351433 0.659487649 -0.713922786
vn -0.343811324 0.599730881 -0.722576393
vn -0.442578818 0.516377478 -0.733129109
vn -0.527091913 0.410461734 -0.744107035
vn -0.592298719 0.284688601 -0.753747058
vn -0.633396359 0.143910564 -0.760328088
vn -0.646883697 -0.004909078 -0.762572871
vn -0.631521178 -0.153451115 -0.760022209
vn -0.588725919 -0.293438924 -0.753190142
vn -0.522102512 -0.418037815 -0.743406586
vn -0.436499691 -0.522533799 -0.732411393
vn -0.336966133 -0.604367349 -0.721937623
vn -0.228014820 -0.662566988 -0.713452331
vn -0.113387950 -0.697045136 -0.708005121
vn 0.003848214 -0.707992935 -0.706209031
vn 0.120994352 -0.695513728 -0.708252088
vn 0.235351433 -0.659487649 -0.713922786
vn 0.343811324 -0.599730881 -0.722576393
vn 0.442578818 -0.516377478 -0.733129109
vn 0.527091913 -0.410461734 -0.744107035
vn 0.592298719 -0.284688601 -0.753747058
vn 0.633396359 -0.143910564 -0.760328088
vn 0.806883989 0.003798482 -0.590697723
vn 0.786736040 0.188806184 -0.587706243
vn 0.730282528 0.361534160 -0.579638233
vn 0.643655257 0.512668909 -0.568223988
vn 0.534554959 0.636803211 -0.555637172
vn 0.410299528 0.732006313 -0.543894342
vn 0.276732990 0.798554136 -0.534537318
vn 0.138037522 0.837580806 -0.528586828
vn -0.002865953 0.850107221 -0.526601841
vn -0.143734828 0.836514033 -0.528757575
vn -0.282280633 0.796398884 -0.534851812
vn -0.415560666 0.728704770 -0.544333254
vn -0.539324378 0.632316808 -0.556151661
vn -0.647663389 0.507037190 -0.568722623
vn -0.733217200 0.354886031 -0.580041759
vn -0.788293245 0.181451706 -0.587936254
vn -0.806883989 -0.003798482 -0.590697723
vn -0.786736040 -0.188806184 -0.587706243
vn -0.730282528 -0.361534160 -0.579638233
vn -0.643655257 -0.512668909 -0.568223988
vn -0.534554959 -0.636803211 -0.555637172
vn -0.410299528 -0.732006313 -0.543894342
vn -0.276732990 -0.798554136 -0.534537318
vn -0.138037522 -0.837580806 -0.528586828
vn 0.002865953 -0.850107221 -0.526601841
vn 0.143734828 -0.836514033 -0.528757575
vn 0.282280633 -0.796398884 -0.534851812
vn 0.415560666 -0.728704770 -0.544333254
vn 0.539324378 -0.632316808 -0.556151661
vn 0.647663389 -0.507037190 -0.568722623
vn 0.733217200 -0.354886031 -0.580041759
vn 0.788293245 -0.181451706 -0.587936254
vn 0.943308850 0.002138982 -0.331909384
vn 0.918565134 0.218094662 -0.329655597
vn 0.848944615 0.417836931 -0.323582044
vn 0.743638942 0.589671452 -0.315101100
vn 0.613598086 0.727950284 -0.305917918
vn 0.468403575 0.831919260 -0.297503676
vn 0.314930702 0.903434490 -0.290903379
vn 0.157456546 0.944979321 -0.286742949
vn -0.001552494 0.958425537 -0.285338536
vn -0.160552104 0.944440740 -0.286800820
vn -0.317978181 0.902328924 -0.291019570
vn -0.471332887 0.830210160 -0.297651472
vn -0.616309528 0.725584154 -0.306088552
vn -0.745968997 0.586625805 -0.315278322
vn -0.850682338 0.414176880 -0.323723760
vn -0.919498012 0.213989475 -0.329745221
vn -0.943308850 -0.002138982 -0.331909384
vn -0.918565134 -0.218094662 -0.329655597
vn -0.848944615 -0.417836931 -0.323582044
vn -0.743638942 -0.589671452 -0.315101100
vn -0.613598086 -0.727950284 -0.305917918
vn -0.468403575 -0.831919260 -0.297503676
vn -0.314930702 -0.903434490 -0.290903379
vn -0.157456546 -0.944979321 -0.286742949
vn 0.001552494 -0.958425537 -0.285338536
vn 0.160552104 -0.944440740 -0.286800820
vn 0.317978181 -0.902328924 -0.291019570
vn 0.471332887 -0.830210160 -0.297651472
vn 0.616309528 -0.725584154 -0.306088552
vn 0.745968997 -0.586625805 -0.315278322
vn 0.850682338 -0.414176880 -0.323723760
vn 0.919498012 -0.213989475 -0.329745221
vn 1.000000000 -0.000000000 -0.000000000
vn 0.973464041 0.228840035 -0.000002340
vn 0.898159875 0.439669010 0.000004952
vn 0.784807551 0.619739548 -0.000000498
vn 0.645939377 0.763388709 0.000000699
vn 0.492166382 0.870501150 0.000002070
vn 0.330763335 0.943713737 -0.000004512
vn 0.165971820 0.986130496 -0.000004328
vn 0.000000000 1.000000000 -0.000000000
vn -0.165971820 0.986130496 0.000004328
vn -0.330763335 0.943713737 0.000004512
vn -0.492166382 0.870501150 -0.000002070
vn -0.645939377 0.763388709 -0.000000699
vn -0.784807551 0.619739548 0.000000498
vn -0.898159875 0.439669010 -0.000004952
vn -0.973464041 0.228840035 0.000002340
vn -1.000000000 0.000000000 0.000000000
vn -0.973464041 -0.228840035 -0.000002340
vn -0.898159875 -0.439669010 0.000004952
vn -0.784807551 -0.619739548 -0.000000498
vn -0.645939377 -0.763388709 0.000000699
vn -0.492166382 -0.870501150 0.000002070
vn -0.330763335 -0.943713737 -0.000004512
vn -0.165971820 -0.986130496 -0.000004328
vn -0.000000000 -1.000000000 -0.000000000
vn 0.165971820 -0.986130496 0.000004328
vn 0.330763335 -0.943713737 0.000004512
vn 0.492166382 -0.870501150 -0.000002070
vn 0.645939377 -0.763388709 -0.000000699
vn 0.784807551 -0.619739548 0.000000498
vn 0.898159875 -0.439669010 -0.000004952
vn 0.973464041 -0.228840035 0.000002340
vn 0.943308850 -0.002138982 0.331909384
vn 0.919498012 0.213989475 0.329745221
vn 0.850682338 0.414176880 0.323723760
vn 0.745968997 0.586625805 0.315278322
vn 0.616309528 0.725584154 0.306088552
vn 0.471332887 0.830210160 0.297651472
vn 0.317978181 0.902328924 0.291019570
vn 0.160552104 0.944440740 0.286800820
vn 0.001552494 0.958425537 0.285338536
vn -0.157456546 0.944979321 0.286742949
vn -0.314930702 0.903434490 0.290903379
vn -0.468403575 0.831919260 0.297503676
vn -0.613598086 0.727950284 0.305917918
vn -0.743638942 0.589671452 0.315101100
vn -0.848944615 0.417836931 0.323582044
vn -0.918565134 0.218094662 0.329655597
vn -0.943308850 0.002138982 0.331909384
vn -0.919498012 -0.213989475 0.329745221
vn -0.850682338 -0.414176880 0.323723760
vn -0.745968997 -0.586625805 0.315278322
vn -0.616309528 -0.725584154 0.306088552
vn -0.471332887 -0.830210160 0.297651472
vn -0.317978181 -0.902328924 0.291019570
vn -0.160552104 -0.944440740 0.286800820
vn -0.001552494 -0.958425537 0.285338536
vn 0.157456546 -0.944979321 0.286742949
vn 0.314930702 -0.903434490 0.290903379
vn 0.468403575 -0.831919260 0.297503676
vn 0.613598086 -0.727950284 0.305917918
vn 0.743638942 -0.589671452 0.315101100
vn 0.848944615 -0.417836931 0.323582044
vn 0.918565134 -0.218094662 0.329655597
vn 0.806883989 -0.003798482 0.590697723
vn 0.788293245 0.181451706 0.587936254
vn 0.733217200 0.354886031 0.580041759
vn 0.647663389 0.507037190 0.568722623
vn 0.539324378 0.632316808 0.556151661
vn 0.415560666 0.728704770 0.544333254
vn 0.282280633 0.796398884 0.534851812
vn 0.143734828 0.836514033 0.528757575
vn 0.002865953 0.850107221 0.526601841
vn -0.138037522 0.837580806 0.528586828
vn -0.276732990 0.798554136 0.534537318
vn -0.410299528 0.732006313 0.543894342
vn -0.534554959 0.636803211 0.555637172
vn -0.643655257 0.512668909 0.568223988
vn -0.730282528 0.361534160 0.579638233
vn -0.786736040 0.188806184 0.587706243
vn -0.806883989 0.003798482 0.590697723
vn -0.788293245 -0.181451706 0.587936254
vn -0.733217200 -0.354886031 0.580041759
vn -0.647663389 -0.507037190 0.568722623
vn -0.539324378 -0.632316808 0.556151661
vn -0.415560666 -0.728704770 0.544333254
vn -0.282280633 -0.796398884 0.534851812
vn -0.143734828 -0.836514033 0.528757575
vn -0.002865953 -0.850107221 0.526601841
vn 0.138037522 -0.837580806 0.528586828
vn 0.276732990 -0.798554136 0.534537318
vn 0.410299528 -0.732006313 0.543894342
vn 0.534554959 -0.636803211 0.555637172
vn 0.643655257 -0.512668909 0.568223988
vn 0.730282528 -0.361534160 0.579638233
vn 0.786736040 -0.188806184 0.587706243
vn 0.646883697 -0.004909078 0.762572871
vn 0.633396359 0.143910564 0.760328088
vn 0.592298719 0.284688601 0.753747058
vn 0.527091913 0.410461734 0.744107035
vn 0.442578818 0.516377478 0.733129109
vn 0.343811324 0.599730881 0.722576393
vn 0.235351433 0.659487649 0.713922786
vn 0.120994352 0.695513728 0.708252088
vn 0.003848214 0.707992935 0.706209031
vn -0.113387950 0.697045136 0.708005121
vn -0.228014820 0.662566988 0.713452331
vn -0.336966133 0.604367349 0.721937623
vn -0.436499691 0.522533799 0.732411393
vn -0.522102512 0.418037815 0.743406586
vn -0.588725919 0.293438924 0.753190142
vn -0.631521178 0.153451115 0.760022209
vn -0.646883697 0.004909078 0.762572871
vn -0.633396359 -0.143910564 0.760328088
vn -0.592298719 -0.284688601 0.753747058
vn -0.527091913 -0.410461734 0.744107035
vn -0.442578818 -0.516377478 0.733129109
vn -0.343811324 -0.599730881 0.722576393
vn -0.235351433 -0.659487649 0.713922786
vn -0.120994352 -0.695513728 0.708252088
vn -0.003848214 -0.707992935 0.706209031
vn 0.113387950 -0.697045136 0.708005121
vn 0.228014820 -0.662566988 0.713452331
vn 0.336966133 -0.604367349 0.721937623
vn 0.436499691 -0.522533799 0.732411393
vn 0.522102512 -0.418037815 0.743406586
vn 0.588725919 -0.293438924 0.753190142
vn 0.631521178 -0.153451115 0.760022209
vn 0.494424228 -0.005595583 0.869202722
vn 0.485039216 0.108325821 0.867757152
vn 0.455526799 0.216976734 0.863375024
vn 0.407841265 0.315423289 0.856839338
vn 0.344852930 0.399820387 0.849246792
vn 0.269837453 0.467515729 0.841793794
vn 0.186094628 0.516895947 0.835576071
vn 0.096708628 0.547146336 0.831431493
vn 0.004520991 0.557900341 0.829895638
vn -0.087797288 0.549056808 0.831160789
vn -0.177575994 0.520699010 0.835068445
vn -0.262002375 0.473153197 0.841118783
vn -0.338009883 0.407191999 0.848495136
vn -0.402316070 0.324329403 0.856126286
vn -0.451636718 0.227093747 0.862816727
vn -0.483025727 0.119244277 0.867448529
vn -0.494424228 0.005595583 0.869202722
vn -0.485039216 -0.108325821 0.867757152
vn -0.455526799 -0.216976734 0.863375024
vn -0.407841265 -0.315423289 0.856839338
vn -0.344852930 -0.399820387 0.849246792
vn -0.269837453 -0.467515729 0.841793794
vn -0.186094628 -0.516895947 0.835576071
vn -0.096708628 -0.547146336 0.831431493
vn -0.004520991 -0.557900341 0.829895638
vn 0.087797288 -0.549056808 0.831160789
vn 0.177575994 -0.520699010 0.835068445
vn 0.262002375 -0.473153197 0.841118783
vn 0.338009883 -0.407191999 0.848495136
vn 0.402316070 -0.324329403 0.856126286
vn 0.451636718 -0.227093747 0.862816727
vn 0.483025727 -0.119244277 0.867448529
vn 0.357730399 -0.006012008 0.933805557
vn 0.351558800 0.076521224 0.933033179
vn 0.331301015 0.155694887 0.930590533
vn 0.298039270 0.228179023 0.926880212
vn 0.253447223 0.291124226 0.922502678
vn 0.199570088 0.342337316 0.918137758
vn 0.138660093 0.380238289 0.914435466
vn 0.073029865 0.403791181 0.911931643
vn 0.004961963 0.412437383 0.910972439
vn -0.063267170 0.405976004 0.911691148
vn -0.129394776 0.384553098 0.913989008
vn -0.191129983 0.348683228 0.917545278
vn -0.246168378 0.299312607 0.921853076
vn -0.292236716 0.237944642 0.926272125
vn -0.327253813 0.166682097 0.930119358
vn -0.349479463 0.088277506 0.932776065
vn -0.357730399 0.006012008 0.933805557
vn -0.351558800 -0.076521224 0.933033179
vn -0.331301015 -0.155694887 0.930590533
vn -0.298039270 -0.228179023 0.926880212
vn -0.253447223 -0.291124226 0.922502678
vn -0.199570088 -0.342337316 0.918137758
vn -0.138660093 -0.380238289 0.914435466
vn -0.073029865 -0.403791181 0.911931643
vn -0.004961963 -0.412437383 0.910972439
vn 0.063267170 -0.405976004 0.911691148
vn 0.129394776 -0.384553098 0.913989008
vn 0.191129983 -0.348683228 0.917545278
vn 0.246168378 -0.299312607 0.921853076
vn 0.292236716 -0.237944642 0.926272125
vn 0.327253813 -0.166682097 0.930119358
vn 0.349479463 -0.088277506 0.932776065
vn 0.236032257 -0.006255785 0.971725084
vn 0.232455024 0.048271285 0.971408536
vn 0.219775853 0.100824253 0.970326257
vn 0.198564851 0.149301550 0.968649084
vn 0.169750706 0.191814064 0.966639572
vn 0.134542336 0.226786096 0.964606877
vn 0.094348516 0.252988665 0.962857774
vn 0.050709187 0.269544032 0.961652013
vn 0.005234722 0.275916373 0.961167391
vn -0.040425889 0.271908485 0.961473621
vn -0.084629630 0.257644417 0.962526457
vn -0.125745816 0.233581245 0.964172076
vn -0.162226750 0.200514078 0.966165921
vn -0.192616866 0.159597465 0.968208341
vn -0.215654162 0.112328664 0.969987399
vn -0.230346583 0.060524551 0.971224603
vn -0.236032257 0.006255785 0.971725084
vn -0.232455024 -0.048271285 0.971408536
vn -0.219775853 -0.100824253 0.970326257
vn -0.198564851 -0.149301550 0.968649084
vn -0.169750706 -0.191814064 0.966639572
vn -0.134542336 -0.226786096 0.964606877
vn -0.094348516 -0.252988665 0.962857774
vn -0.050709187 -0.269544032 0.961652013
vn -0.005234722 -0.275916373 0.961167391
vn 0.040425889 -0.271908485 0.961473621
vn 0.084629630 -0.257644417 0.962526457
vn 0.125745816 -0.233581245 0.964172076
vn 0.162226750 -0.200514078 0.966165921
vn 0.192616866 -0.159597465 0.968208341
vn 0.215654162 -0.112328664 0.969987399
vn 0.230346583 -0.060524551 0.971224603
vn 0.129636572 -0.006384568 0.991541021
vn 0.128191113 0.023627690 0.991467988
vn 0.121790117 0.052709730 0.991155312
vn 0.110691025 0.079740414 0.990650778
vn 0.095341108 0.103662576 0.990032395
vn 0.076346383 0.123573493 0.989394169
vn 0.054453983 0.138721637 0.988833187
vn 0.030494194 0.148550623 0.988434528
vn 0.005383963 0.152698791 0.988258110
vn -0.019930678 0.151017750 0.988330110
vn -0.044489444 0.143566356 0.988640173
vn -0.067369312 0.130616600 0.989141385
vn -0.087686908 0.112646435 0.989758449
vn -0.104668755 0.090321441 0.990397137
vn -0.117634705 0.064489418 0.990960741
vn -0.126070400 0.036143576 0.991362646
vn -0.129636572 0.006384568 0.991541021
vn -0.128191113 -0.023627690 0.991467988
vn -0.121790117 -0.052709730 0.991155312
vn -0.110691025 -0.079740414 0.990650778
vn -0.095341108 -0.103662576 0.990032395
vn -0.076346383 -0.123573493 0.989394169
vn -0.054453983 -0.138721637 0.988833187
vn -0.030494194 -0.148550623 0.988434528
vn -0.005383963 -0.152698791 0.988258110
vn 0.019930678 -0.151017750 0.988330110
vn 0.044489444 -0.143566356 0.988640173
vn 0.067369312 -0.130616600 0.989141385
vn 0.087686908 -0.112646435 0.989758449
vn 0.104668755 -0.090321441 0.990397137
vn 0.117634705 -0.064489418 0.990960741
vn 0.126070400 -0.036143576 0.991362646
vn 0.055215205 -0.006432267 0.998453758
vn 0.055215205 0.006432267 0.998453758
vn 0.053092485 0.019028577 0.998408284
vn 0.048924211 0.030907093 0.998324182
vn 0.042878691 0.041587283 0.998214364
vn 0.035183300 0.050671031 0.998095477
vn 0.026144140 0.057800244 0.997985779
vn 0.016096058 0.062713020 0.997901796
vn 0.005438976 0.065215293 0.997856394
vn -0.005438976 0.065215293 0.997856394
vn -0.016096058 0.062713020 0.997901796
vn -0.026144140 0.057800244 0.997985779
vn -0.035183300 0.050671031 0.998095477
vn -0.042878691 0.041587283 0.998214364
vn -0.048924211 0.030907093 0.998324182
vn -0.053092485 0.019028577 0.998408284
vn -0.055215205 0.006432267 0.998453758
vn -0.055215205 -0.006432267 0.998453758
vn -0.053092485 -0.019028577 0.998408284
vn -0.048924211 -0.030907093 0.998324182
vn -0.042878691 -0.041587283 0.998214364
vn -0.035183300 -0.050671031 0.998095477
vn -0.026144140 -0.057800244 0.997985779
vn -0.016096058 -0.062713020 0.997901796
vn -0.005438976 -0.065215293 0.997856394
vn 0.005438976 -0.065215293 0.997856394
vn 0.016096058 -0.062713020 0.997901796
vn 0.026144140 -0.057800244 0.997985779
vn 0.035183300 -0.050671031 0.998095477
vn 0.042878691 -0.041587283 0.998214364
vn 0.048924211 -0.030907093 0.998324182
vn 0.053092485 -0.019028577 0.998408284
f 1//1 3//34 2//33
f 1//2 4//35 3//34
f 1//3 5//36 4//35
f 1//4 6//37 5//36
f 1//5 7//38 6//37
f 1//6 8//39 7//38
f 1//7 9//40 8//39
f 1//8 10//41 9//40
f 1//9 11//42 10//41
f 1//10 12//43 11//42
f 1//11 13//44 12//43
f 1//12 14//45 13//44
f 1//13 15//46 14//45
f 1//14 16//47 15//46
f 1//15 17//48 16//47
f 1//16 18//49 17//48
f 1//17 19//50 18//49
f 1//18 20//51 19//50
f 1//19 21//52 20//51
f 1//20 22//53 21//52
f 1//21 23//54 22//53
f 1//22 24//55 23//54
f 1//23 25//56 24//55
f 1//24 26//57 25//56
f 1//25 27//58 26//57
f 1//26 28//59 27//58
f 1//27 29//60 28//59
f 1//28 30//61 29//60
f 1//29 31//62 30//61
f 1//30 32//63 31//62
f 1//31 33//64 32//63
f 1//32 2//33 33//64
f 2//33 3//34 35//66
f 2//33 35//66 34//65
f 3//34 4//35 36//67
f 3//34 36//67 35//66
f 4//35 5//36 37//68
f 4//35 37//68 36//67
f 5//36 6//37 38//69
f 5//36 38//69 37//68
f 6//37 7//38 39//70
f 6//37 39//70 38//69
f 7//38 8//39 40//71
f 7//38 40//71 39//70
f 8//39 9//40 41//72
f 8//39 41//72 40//71
f 9//40 10//41 42//73
f 9//40 42//73 41//72
f 10//41 11//42 43//74
f 10//41 43//74 42//73
f 11//42 12//43 44//75
f 11//42 44//75 43//74
f 12//43 13//44 45//76
f 12//43 45//76 44//75
f 13//44 14//45 46//77
f 13//44 46//77 45//76
f 14//45 15//46 47//78
f 14//45 47//78 46//77
f 15//46 16//47 48//79
f 15//46 48//79 47//78
f 16//47 17//48 49//80
f 16//47 49//80 48//79
f 17//48 18//49 50//81
f 17//48 50//81 49//80
f 18//49 19//50 51//82
f 18//49 51//82 50//81
f 19//50 20//51 52//83
f 19//50 52//83 51//82
f 20//51 21//52 53//84
f 20//51 53//84 52//83
f 21//52 22//53 54//85
f 21//52 54//85 53//84
f 22//53 23//54 55//86
f 22//53 55//86 54//85
f 23//54 24//55 56//87
f 23//54 56//87 55//86
f 24//55 25//56 57//88
f 24//55 57//88 56//87
f 25//56 26//57 58//89
f 25//56 58//89 57//88
f 26//57 27//58 59//90
f 26//57 59//90 58//89
f 27//58 28//59 60//91
f 27//58 60//91 59//90
f 28//59 29//60 61//92
f 28//59 61//92 60//91
f 29//60 30//61 62//93
f 29//60 62//93 61//92
f 30//61 31//62 63//94
f 30//61 63//94 62//93
f 31//62 32//63 64//95
f 31//62 64//95 63//94
f 32//63 33//64 65//96
f 32//63 65//96 64//95
f 33//64 2//33 34//65
f 33//64 34//65 65//96
f 34//65 35//66 67//98
f 34//65 67//98 66//97
f 35//66 36//67 68//99
f 35//66 68//99 67//98
f 36//67 37//68 69//100
f 36//67 69//100 68//99
f 37//68 38//69 70//101
f 37//68 70//101 69//100
f 38//69 39//70 71//102
f 38//69 71//102 70//101
f 39//70 40//71 72//103
f 39//70 72//103 71//102
f 40//71 41//72 73//104
f 40//71 73//104 72//103
f 41//72 42//73 74//105
f 41//72 74//105 73//104
f 42//73 43//74 75//106
f 42//73 75//106 74//105
f 43//74 44//75 76//107
f 43//74 76//107 75//106
f 44//75 45//76 77//108
f 44//75 77//108 76//107
f 45//76 46//77 78//109
f 45//76 78//109 77//108
f 46//77 47//78 79//110
f 46//77 79//110 78//109
f 47//78 48//79 80//111
f 47//78 80//111 79//110
f 48//79 49//80 81//112
f 48//79 81//112 80//111
f 49//80 50//81 82//113
f 49//80 82//113 81//112
f 50//81 51//82 83//114
f 50//81 83//114 82//113
f 51//82 52//83 84//115
f 51//82 84//115 83//114
f 52//83 53//84 85//116
f 52//83 85//116 84//115
f 53//84 54//85 86//117
f 53//84 86//117 85//116
f 54//85 55//86 87//118
f 54//85 87//118 86//117
f 55//86 56//87 88//119
f 55//86 88//119 87//118
f 56//87 57//88 89//120
f 56//87 89//120 88//119
f 57//88 58//89 90//121
f 57//88 90//121 89//120
f 58//89 59//90 91//122
f 58//89 91//122 90//121
f 59//90 60//91 92//123
f 59//90 92//123 91//122
f 60//91 61//92 93//124
f 60//91 93//124 92//123
f 61//92 62//93 94//125
f 61//92 94//125 93//124
f 62//93 63//94 95//126
f 62//93 95//126 94//125
f 63//94 64//95 96//127
f 63//94 96//127 95//126
f 64//95 65//96 97//128
f 64//95 97//128 96//127
f 65//96 34//65 66//97
f 65//96 66//97 97//128
f 66//97 67//98 99//130
f 66//97 99//130 98//129
f 67//98 68//99 100//131
f 67//98 100//131 99//130
f 68//99 69//100 101//132
f 68//99 101//132 100//131
f 69//100 70//101 102//133
f 69//100 102//133 101//132
f 70//101 71//102 103//134
f 70//101 103//134 102//133
f 71//102 72//103 104//135
f 71//102 104//135 103//134
f 72//103 73//104 105//136
f 72//103 105//136 104//135
f 73//104 74//105 106//137
f 73//104 106//137 105//136
f 74//105 75//106 107//138
f 74//105 107//138 106//137
f 75//106 76//107 108//139
f 75//106 108//139 107//138
f 76//107 77//108 109//140
f 76//107 109//140 108//139
f 77//108 78//109 110//141
f 77//108 110//141 109//140
f 78//109 79//110 111//142
f 78//109 111//142 110//141
f 79//110 80//111 112//143
f 79//110 112//143 111//142
f 80//111 81//112 113//144
f 80//111 113//144 112//143
f 81//112 82//113 114//145
f 81//112 114//145 113//144
f 82//113 83//114 115//146
f 82//113 115//146 114//145
f 83//114 84//115 116//147
f 83//114 116//147 115//146
f 84//115 85//116 117//148
f 84//115 117//148 116//147
f 85//116 86//117 118//149
f 85//116 118//149 117//148
f 86//117 87//118 119//150
f 86//117 119//150 118//149
f 87//118 88//119 120//151
f 87//118 120//151 119//150
f 88//119 89//120 121//152
f 88//119 121//152 120//151
f 89//120 90//121 122//153
f 89//120 122//153 121//152
f 90//121 91//122 123//154
f 90//121 123//154 122//153
f 91//122 92//123 124//155
f 91//122 124//155 123//154
f 92//123 93//124 125//156
f 92//123 125//156 124//155
f 93//124 94//125 126//157
f 93//124 126//157 125//156
f 94//125 95//126 127//158
f 94//125 127//158 126//157
f 95//126 96//127 128//159
f 95//126 128//159 127//158
f 96//127 97//128 129//160
f 96//127 129//160 128//159
f 97//128 66//97 98//129
f 97//128 98//129 129//160
f 98//129 99//130 131//162
f 98//129 131//162 130//161
f 99//130 100//131 132//163
f 99//130 132//163 131//162
f 100//131 101//132 133//164
f 100//131 133//164 132//163
f 101//132 102//133 134//165
f 101//132 134//165 133//164
f 102//133 103//134 135//166
f 102//133 135//166 134//165
f 103//134 104//135 136//167
f 103//134 136//167 135//166
f 104//135 105//136 137//168
f 104//135 137//168 136//167
f 105//136 106//137 138//169
f 105//136 138//169 137//168
f 106//137 107//138 139//170
f 106//137 139//170 138//169
f 107//138 108//139 140//171
f 107//138 140//171 139//170
f 108//139 109//140 141//172
f 108//139 141//172 140//171
f 109//140 110//141 142//173
f 109//140 142//173 141//172
f 110//141 111//142 143//174
f 110//141 143//174 142//173
f 111//142 112//143 144//175
f 111//142 144//175 143//174
f 112//143 113//144 145//176
f 112//143 145//176 144//175
f 113//144 114//145 146//177
f 113//144 146//177 145//176
f 114//145 115//146 147//178
f 114//145 147//178 146//177
f 115//146 116//147 148//179
f 115//146 148//179 147//178
f 116//147 117//148 149//180
f 116//147 149//180 148//179
f 117//148 118//149 150//181
f 117//148 150//181 149//180
f 118//149 119//150 151//182
f 118//149 151//182 150//181
f 119//150 120//151 152//183
f 119//150 152//183 151//182
f 120//151 121//152 153//184
f 120//151 153//184 152//183
f 121//152 122//153 154//185
f 121//152 154//185 153//184
f 122//153 123//154 155//186
f 122//153 155//186 154//185
f 123//154 124//155 156//187
f 123//154 156//187 155//186
f 124//155 125//156 157//188
f 124//155 157//188 156//187
f 125//156 126//157 158//189
f 125//156 158//189 157//188
f 126//157 127//158 159//190
f 126//157 159//190 158//189
f 127//158 128//159 160//191
f 127//158 160//191 159//190
f 128//159 129//160 161//192
f 128//159 161//192 160//191
f 129//160 98//129 130//161
f 129//160 130//161 161//192
f 130//161 131//162 163//194
f 130//161 163//194 162//193
f 131//162 132//163 164//195
f 131//162 164//195 163//194
f 132//163 133//164 165//196
f 132//163 165//196 164//195
f 133//164 134//165 166//197
f 133//164 166//197 165//196
f 134//165 135//166 167//198
f 134//165 167//198 166//197
f 135//166 136//167 168//199
f 135//166 168//199 167//198
f 136//167 137//168 169//200
f 136//167 169//200 168//199
f 137//168 138//169 170//201
f 137//168 170//201 169//200
f 138//169 139//170 171//202
f 138//169 171//202 170//201
f 139//170 140//171 172//203
f 139//170 172//203 171//202
f 140//171 141//172 173//204
f 140//171 173//204 172//203
f 141//172 142//173 174//205
f 141//172 174//205 173//204
f 142//173 143//174 175//206
f 142//173 175//206 174//205
f 143//174 144//175 176//207
f 143//174 176//207 175//206
f 144//175 145//176 177//208
f 144//175 177//208 176//207
f 145//176 146//177 178//209
f 145//176 178//209 177//208
f 146//177 147//178 179//210
f 146//177 179//210 178//209
f 147//178 148//179 180//211
f 147//178 180//211 179//210
f 148//179 149//180 181//212
f 148//179 181//212 180//211
f 149//180 150//181 182//213
f 149//180 182//213 181//212
f 150//181 151//182 183//214
f 150//181 183//214 182//213
f 151//182 152//183 184//215
f 151//182 184//215 183//214
f 152//183 153//184 185//216
f 152//183 185//216 184//215
f 153//184 154//185 186//217
f 153//184 186//217 185//216
f 154//185 155//186 187//218
f 154//185 187//218 186//217
f 155//186 156//187 188//219
f 155//186 188//219 187//218
f 156//187 157//188 189//220
f 156//187 189//220 188//219
f 157//188 158//189 190//221
f 157//188 190//221 189//220
f 158//189 159//190 191//222
f 158//189 191//222 190//221
f 159//190 160//191 192//223
f 159//190 192//223 191//222
f 160//191 161//192 193//224
f 160//191 193//224 192//223
f 161//192 130//161 162//193
f 161//192 162//193 193//224
f 162//193 163//194 195//226
f 162//193 195//226 194//225
f 163//194 164//195 196//227
f 163//194 196//227 195//226
f 164//195 165//196 197//228
f 164//195 197//228 196//227
f 165//196 166//197 198//229
f 165//196 198//229 197//228
f 166//197 167//198 199//230
f 166//197 199//230 198//229
f 167//198 168//199 200//231
f 167//198 200//231 199//230
f 168//199 169//200 201//232
f 168//199 201//232 200//231
f 169//200 170//201 202//233
f 169//200 202//233 201//232
f 170//201 171//202 203//234
f 170//201 203//234 202//233
f 171//202 172//203 204//235
f 171//202 204//235 203//234
f 172//203 173//204 205//236
f 172//203 205//236 204//235
f 173//204 174//205 206//237
f 173//204 206//237 205//236
f 174//205 175//206 207//238
f 174//205 207//238 206//237
f 175//206 176//207 208//239
f 175//206 208//239 207//238
f 176//207 177//208 209//240
f 176//207 209//240 208//239
f 177//208 178//209 210//241
f 177//208 210//241 209//240
f 178//209 179//210 211//242
f 178//209 211//242 210//241
f 179//210 180//211 212//243
f 179//210 212//243 211//242
f 180//211 181//212 213//244
f 180//211 213//244 212//243
f 181//212 182//213 214//245
f 181//212 214//245 213//244
f 182//213 183//214 215//246
f 182//213 215//246 214//245
f 183//214 184//215 216//247
f 183//214 216//247 215//246
f 184//215 185//216 217//248
f 184//215 217//248 216//247
f 185//216 186//217 218//249
f 185//216 218//249 217//248
f 186//217 187//218 219//250
f 186//217 219//250 218//249
f 187//218 188//219 220//251
f 187//218 220//251 219//250
f 188//219 189//220 221//252
f 188//219 221//252 220//251
f 189//220 190//221 222//253
f 189//220 222//253 221//252
f 190//221 191//222 223//254
f 190//221 223//254 222//253
f 191//222 192//223 224//255
f 191//222 224//255 223//254
f 192//223 193//224 225//256
f 192//223 225//256 224//255
f 193//224 162//193 194//225
f 193//224 194//225 225//256
f 194//225 195//226 227//258
f 194//225 227//258 226//257
f 195//226 196//227 228//259
f 195//226 228//259 227//258
f 196//227 197//228 229//260
f 196//227 229//260 228//259
f 197//228 198//229 230//261
f 197//228 230//261 229//260
f 198//229 199//230 231//262
f 198//229 231//262 230//261
f 199//230 200//231 232//263
f 199//230 232//263 231//262
f 200//231 201//232 233//264
f 200//231 233//264 232//263
f 201//232 202//233 234//265
f 201//232 234//265 233//264
f 202//233 203//234 235//266
f 202//233 235//266 234//265
f 203//234 204//235 236//267
f 203//234 236//267 235//266
f 204//235 205//236 237//268
f 204//235 237//268 236//267
f 205//236 206//237 238//269
f 205//236 238//269 237//268
f 206//237 207//238 239//270
f 206//237 239//270 238//269
f 207//238 208//239 240//271
f 207//238 240//271 239//270
f 208//239 209//240 241//272
f 208//239 241//272 240//271
f 209//240 210//241 242//273
f 209//240 242//273 241//272
f 210//241 211//242 243//274
f 210//241 243//274 242//273
f 211//242 212//243 244//275
f 211//242 244//275 243//274
f 212//243 213//244 245//276
f 212//243 245//276 244//275
f 213//244 214//245 246//277
f 213//244 246//277 245//276
f 214//245 215//246 247//278
f 214//245 247//278 246//277
f 215//246 216//247 248//279
f 215//246 248//279 247//278
f 216//247 217//248 249//280
f 216//247 249//280 248//279
f 217//248 218//249 250//281
f 217//248 250//281 249//280
f 218//249 219//250 251//282
f 218//249 251//282 250//281
f 219//250 220//251 252//283
f 219//250 252//283 251//282
f 220//251 221//252 253//284
f 220//251 253//284 252//283
f 221//252 222//253 254//285
f 221//252 254//285 253//284
f 222//253 223//254 255//286
f 222//253 255//286 254//285
f 223//254 224//255 256//287
f 223//254 256//287 255//286
f 224//255 225//256 257//288
f 224//255 257//288 256//287
f 225//256 194//225 226//257
f 225//256 226//257 257//288
f 226//257 227//258 259//290
f 226//257 259//290 258//289
f 227//258 228//259 260//291
f 227//258 260//291 259//290
f 228//259 229//260 261//292
f 228//259 261//292 260//291
f 229//260 230//261 262//293
f 229//260 262//293 261//292
f 230//261 231//262 263//294
f 230//261 263//294 262//293
f 231//262 232//263 264//295
f 231//262 264//295 263//294
f 232//263 233//264 265//296
f 232//263 265//296 264//295
f 233//264 234//265 266//297
f 233//264 266//297 265//296
f 234//265 235//266 267//298
f 234//265 267//298 266//297
f 235//266 236//267 268//299
f 235//266 268//299 267//298
f 236//267 237//268 269//300
f 236//267 269//300 268//299
f 237//268 238//269 270//301
f 237//268 270//301 269//300
f 238//269 239//270 271//302
f 238//269 271//302 270//301
f 239//270 240//271 272//303
f 239//270 272//303 271//302
f 240//271 241//272 273//304
f 240//271 273//304 272//303
f 241//272 242//273 274//305
f 241//272 274//305 273//304
f 242//273 243//274 275//306
f 242//273 275//306 274//305
f 243//274 244//275 276//307
f 243//274 276//307 275//306
f 244//275 245//276 277//308
f 244//275 277//308 276//307
f 245//276 246//277 278//309
f 245//276 278//309 277//308
f 246//277 247//278 279//310
f 246//277 279//310 278//309
f 247//278 248//279 280//311
f 247//278 280//311 279//310
f 248//279 249//280 281//312
f 248//279 281//312 280//311
f 249//280 250//281 282//313
f 249//280 282//313 281//312
f 250//281 251//282 283//314
f 250//281 283//314 282//313
f 251//282 252//283 284//315
f 251//282 284//315 283//314
f 252//283 253//284 285//316
f 252//283 285//316 284//315
f 253//284 254//285 286//317
f 253//284 286//317 285//316
f 254//285 255//286 287//318
f 254//285 287//318 286//317
f 255//286 256//287 288//319
f 255//286 288//319 287//318
f 256//287 257//288 289//320
f 256//287 289//320 288//319
f 257//288 226//257 258//289
f 257//288 258//289 289//320
f 258//289 259//290 291//322
f 258//289 291//322 290//321
f 259//290 260//291 292//323
f 259//290 292//323 291//322
f 260//291 261//292 293//324
f 260//291 293//324 292//323
f 261//292 262//293 294//325
f 261//292 294//325 293//324
f 262//293 263//294 295//326
f 262//293 295//326 294//325
f 263//294 264//295 296//327
f 263//294 296//327 295//326
f 264//295 265//296 297//328
f 264//295 297//328 296//327
f 265//296 266//297 298//329
f 265//296 298//329 297//328
f 266//297 267//298 299//330
f 266//297 299//330 298//329
f 267//298 268//299 300//331
f 267//298 300//331 299//330
f 268//299 269//300 301//332
f 268//299 301//332 300//331
f 269//300 270//301 302//333
f 269//300 302//333 301//332
f 270//301 271//302 303//334
f 270//301 303//334 302//333
f 271//302 272//303 304//335
f 271//302 304//335 303//334
f 272//303 273//304 305//336
f 272//303 305//336 304//335
f 273//304 274//305 306//337
f 273//304 306//337 305//336
f 274//305 275//306 307//338
f 274//305 307//338 306//337
f 275//306 276//307 308//339
f 275//306 308//339 307//338
f 276//307 277//308 309//340
f 276//307 309//340 308//339
f 277//308 278//309 310//341
f 277//308 310//341 309//340
f 278//309 279//310 311//342
f 278//309 311//342 310//341
f 279//310 280//311 312//343
f 279//310 312//343 311//342
f 280//311 281//312 313//344
f 280//311 313//344 312//343
f 281//312 282//313 314//345
f 281//312 314//345 313//344
f 282//313 283//314 315//346
f 282//313 315//346 314//345
f 283//314 284//315 316//347
f 283//314 316//347 315//346
f 284//315 285//316 317//348
f 284//315 317//348 316//347
f 285//316 286//317 318//349
f 285//316 318//349 317//348
f 286//317 287//318 319//350
f 286//317 319//350 318//349
f 287//318 288//319 320//351
f 287//318 320//351 319//350
f 288//319 289//320 321//352
f 288//319 321//352 320//351
f 289//320 258//289 290//321
f 289//320 290//321 321//352
f 290//321 291//322 323//354
f 290//321 323//354 322//353
f 291//322 292//323 324//355
f 291//322 324//355 323//354
f 292//323 293//324 325//356
f 292//323 325//356 324//355
f 293//324 294//325 326//357
f 293//324 326//357 325//356
f 294//325 295//326 327//358
f 294//325 327//358 326//357
f 295//326 296//327 328//359
f 295//326 328//359 327//358
f 296//327 297//328 329//360
f 296//327 329//360 328//359
f 297//328 298//329 330//361
f 297//328 330//361 329//360
f 298//329 299//330 331//362
f 298//329 331//362 330//361
f 299//330 300//331 332//363
f 299//330 332//363 331//362
f 300//331 301//332 333//364
f 300//331 333//364 332//363
f 301//332 302//333 334//365
f 301//332 334//365 333//364
f 302//333 303//334 335//366
f 302//333 335//366 334//365
f 303//334 304//335 336//367
f 303//334 336//367 335//366
f 304//335 305//336 337//368
f 304//335 337//368 336//367
f 305//336 306//337 338//369
f 305//336 338//369 337//368
f 306//337 307//338 339//370
f 306//337 339//370 338//369
f 307//338 308//339 340//371
f 307//338 340//371 339//370
f 308//339 309//340 341//372
f 308//339 341//372 340//371
f 309//340 310//341 342//373
f 309//340 342//373 341//372
f 310//341 311//342 343//374
f 310//341 343//374 342//373
f 311//342 312//343 344//375
f 311//342 344//375 343//374
f 312//343 313//344 345//376
f 312//343 345//376 344//375
f 313//344 314//345 346//377
f 313//344 346//377 345//376
f 314//345 315//346 347//378
f 314//345 347//378 346//377
f 315//346 316//347 348//379
f 315//346 348//379 347//378
f 316//347 317//348 349//380
f 316//347 349//380 348//379
f 317//348 318//349 350//381
f 317//348 350//381 349//380
f 318//349 319//350 351//382
f 318//349 351//382 350//381
f 319//350 320//351 352//383
f 319//350 352//383 351//382
f 320//351 321//352 353//384
f 320//351 353//384 352//383
f 321//352 290//321 322//353
f 321//352 322//353 353//384
f 322//353 323//354 355//386
f 322//353 355//386 354//385
f 323//354 324//355 356//387
f 323//354 356//387 355//386
f 324//355 325//356 357//388
f 324//355 357//388 356//387
f 325//356 326//357 358//389
f 325//356 358//389 357//388
f 326//357 327//358 359//390
f 326//357 359//390 358//389
f 327//358 328//359 360//391
f 327//358 360//391 359//390
f 328//359 329//360 361//392
f 328//359 361//392 360//391
f 329//360 330//361 362//393
f 329//360 362//393 361//392
f 330//361 331//362 363//394
f 330//361 363//394 362//393
f 331//362 332//363 364//395
f 331//362 364//395 363//394
f 332//363 333//364 365//396
f 332//363 365//396 364//395
f 333//364 334//365 366//397
f 333//364 366//397 365//396
f 334//365 335//366 367//398
f 334//365 367//398 366//397
f 335//366 336//367 368//399
f 335//366 368//399 367//398
f 336//367 337//368 369//400
f 336//367 369//400 368//399
f 337//368 338//369 370//401
f 337//368 370//401 369//400
f 338//369 339//370 371//402
f 338//369 371//402 370//401
f 339//370 340//371 372//403
f 339//370 372//403 371//402
f 340//371 341//372 373//404
f 340//371 373//404 372//403
f 341//372 342//373 374//405
f 341//372 374//405 373//404
f 342//373 343//374 375//406
f 342//373 375//406 374//405
f 343//374 344//375 376//407
f 343//374 376//407 375//406
f 344//375 345//376 377//408
f 344//375 377//408 376//407
f 345//376 346//377 378//409
f 345//376 378//409 377//408
f 346//377 347//378 379//410
f 346//377 379//410 378//409
f 347//378 348//379 380//411
f 347//378 380//411 379//410
f 348//379 349//380 381//412
f 348//379 381//412 380//411
f 349//380 350//381 382//413
f 349//380 382//413 381//412
f 350//381 351//382 383//414
f 350//381 383//414 382//413
f 351//382 352//383 384//415
f 351//382 384//415 383//414
f 352//383 353//384 385//416
f 352//383 385//416 384//415
f 353//384 322//353 354//385
f 353//384 354//385 385//416
f 354//385 355//386 387//418
f 354//385 387//418 386//417
f 355//386 356//387 388//419
f 355//386 388//419 387//418
f 356//387 357//388 389//420
f 356//387 389//420 388//419
f 357//388 358//389 390//421
f 357//388 390//421 389//420
f 358//389 359//390 391//422
f 358//389 391//422 390//421
f 359//390 360//391 392//423
f 359//390 392//423 391//422
f 360//391 361//392 393//424
f 360//391 393//424 392//423
f 361//392 362//393 394//425
f 361//392 394//425 393//424
f 362//393 363//394 395//426
f 362//393 395//426 394//425
f 363//394 364//395 396//427
f 363//394 396//427 395//426
f 364//395 365//396 397//428
f 364//395 397//428 396//427
f 365//396 366//397 398//429
f 365//396 398//429 397//428
f 366//397 367//398 399//430
f 366//397 399//430 398//429
f 367//398 368//399 400//431
f 367//398 400//431 399//430
f 368//399 369//400 401//432
f 368//399 401//432 400//431
f 369//400 370//401 402//433
f 369//400 402//433 401//432
f 370//401 371//402 403//434
f 370//401 403//434 402//433
f 371//402 372//403 404//435
f 371//402 404//435 403//434
f 372//403 373//404 405//436
f 372//403 405//436 404//435
f 373//404 374//405 406//437
f 373//404 406//437 405//436
f 374//405 375//406 407//438
f 374//405 407//438 406//437
f 375//406 376//407 408//439
f 375//406 408//439 407//438
f 376//407 377//408 409//440
f 376//407 409//440 408//439
f 377//408 378//409 410//441
f 377//408 410//441 409//440
f 378//409 379//410 411//442
f 378//409 411//442 410//441
f 379//410 380//411 412//443
f 379//410 412//443 411//442
f 380//411 381//412 413//444
f 380//411 413//444 412//443
f 381//412 382//413 414//445
f 381//412 414//445 413//444
f 382//413 383//414 415//446
f 382//413 415//446 414//445
f 383//414 384//415 416//447
f 383//414 416//447 415//446
f 384//415 385//416 417//448
f 384//415 417//448 416//447
f 385//416 354//385 386//417
f 385//416 386//417 417//448
f 386//417 387//418 419//450
f 386//417 419//450 418//449
f 387//418 388//419 420//451
f 387//418 420//451 419//450
f 388//419 389//420 421//452
f 388//419 421//452 420//451
f 389//420 390//421 422//453
f 389//420 422//453 421//452
f 390//421 391//422 423//454
f 390//421 423//454 422//453
f 391//422 392//423 424//455
f 391//422 424//455 423//454
f 392//423 393//424 425//456
f 392//423 425//456 424//455
f 393//424 394//425 426//457
f 393//424 426//457 425//456
f 394//425 395//426 427//458
f 394//425 427//458 426//457
f 395//426 396//427 428//459
f 395//426 428//459 427//458
f 396//427 397//428 429//460
f 396//427 429//460 428//459
f 397//428 398//429 430//461
f 397//428 430//461 429//460
f 398//429 399//430 431//462
f 398//429 431//462 430//461
f 399//430 400//431 432//463
f 399//430 432//463 431//462
f 400//431 401//432 433//464
f 400//431 433//464 432//463
f 401//432 402//433 434//465
f 401//432 434//465 433//464
f 402//433 403//434 435//466
f 402//433 435//466 434//465
f 403//434 404//435 436//467
f 403//434 436//467 435//466
f 404//435 405//436 437//468
f 404//435 437//468 436//467
f 405//436 406//437 438//469
f 405//436 438//469 437//468
f 406//437 407//438 439//470
f 406//437 439//470 438//469
f 407//438 408//439 440//471
f 407//438 440//471 439//470
f 408//439 409//440 441//472
f 408//439 441//472 440//471
f 409//440 410//441 442//473
f 409//440 442//473 441//472
f 410//441 411//442 443//474
f 410//441 443//474 442//473
f 411//442 412//443 444//475
f 411//442 444//475 443//474
f 412//443 413//444 445//476
f 412//443 445//476 444//475
f 413//444 414//445 446//477
f 413//444 446//477 445//476
f 414//445 415//446 447//478
f 414//445 447//478 446//477
f 415//446 416//447 448//479
f 415//446 448//479 447//478
f 416//447 417//448 449//480
f 416//447 449//480 448//479
f 417//448 386//417 418//449
f 417//448 418//449 449//480
f 418//449 419//450 451//482
f 418//449 451//482 450//481
f 419//450 420//451 452//483
f 419//450 452//483 451//482
f 420//451 421//452 453//484
f 420//451 453//484 452//483
f 421//452 422//453 454//485
f 421//452 454//485 453//484
f 422//453 423//454 455//486
f 422//453 455//486 454//485
f 423//454 424//455 456//487
f 423//454 456//487 455//486
f 424//455 425//456 457//488
f 424//455 457//488 456//487
f 425//456 426//457 458//489
f 425//456 458//489 457//488
f 426//457 427//458 459//490
f 426//457 459//490 458//489
f 427//458 428//459 460//491
f 427//458 460//491 459//490
f 428//459 429//460 461//492
f 428//459 461//492 460//491
f 429//460 430//461 462//493
f 429//460 462//493 461//492
f 430//461 431//462 463//494
f 430//461 463//494 462//493
f 431//462 432//463 464//495
f 431//462 464//495 463//494
f 432//463 433//464 465//496
f 432//463 465//496 464//495
f 433//464 434//465 466//497
f 433//464 466//497 465//496
f 434//465 435//466 467//498
f 434//465 467//498 466//497
f 435//466 436//467 468//499
f 435//466 468//499 467//498
f 436//467 437//468 469//500
f 436//467 469//500 468//499
f 437//468 438//469 470//501
f 437//468 470//501 469//500
f 438//469 439//470 471//502
f 438//469 471//502 470//501
f 439//470 440//471 472//503
f 439//470 472//503 471//502
f 440//471 441//472 473//504
f 440//471 473//504 472//503
f 441//472 442//473 474//505
f 441//472 474//505 473//504
f 442//473 443//474 475//506
f 442//473 475//506 474//505
f 443//474 444//475 476//507
f 443//474 476//507 475//506
f 444//475 445//476 477//508
f 444//475 477//508 476//507
f 445//476 446//477 478//509
f 445//476 478//509 477//508
f 446//477 447//478 479//510
f 446//477 479//510 478//509
f 447//478 448//479 480//511
f 447//478 480//511 479//510
f 448//479 449//480 481//512
f 448//479 481//512 480//511
f 449//480 418//449 450//481
f 449//480 450//481 481//512
f 450//481 451//482 482//514
f 451//482 452//483 482//515
f 452//483 453//484 482//516
f 453//484 454//485 482//517
f 454//485 455//486 482//518
f 455//486 456//487 482//519
f 456//487 457//488 482//520
f 457//488 458//489 482//521
f 458//489 459//490 482//522
f 459//490 460//491 482//523
f 460//491 461//492 482//524
f 461//492 462//493 482//525
f 462//493 463//494 482//526
f 463//494 464//495 482//527
f 464//495 465//496 482//528
f 465//496 466//497 482//529
f 466//497 467//498 482//530
f 467//498 468//499 482//531
f 468//499 469//500 482//532
f 469//500 470//501 482//533
f 470//501 471//502 482//534
f 471//502 472//503 482//535
f 472//503 473//504 482//536
f 473//504 474//505 482//537
f 474//505 475//506 482//538
f 475//506 476//507 482//539
f 476//507 477//508 482//540
f 477//508 478//509 482//541
f 478//509 479//510 482//542
f 479//510 480//511 482//543
f 480//511 481//512 482//544
f 481//512 450//481 482//513
