# Explicit UV marker box; +X is the pool-facing side.
v -0.003000 -0.110000 -0.110000
v -0.003000 0.110000 -0.110000
v -0.003000 0.110000 0.110000
v -0.003000 -0.110000 0.110000
v 0.003000 -0.110000 -0.110000
v 0.003000 0.110000 -0.110000
v 0.003000 0.110000 0.110000
v 0.003000 -0.110000 0.110000
vt 0.0 1.0
vt 1.0 1.0
vt 1.0 0.0
vt 0.0 0.0
vt 0.0 0.0
vn -1.0 0.0 0.0
vn 1.0 0.0 0.0
vn 0.0 1.0 0.0
vn 0.0 -1.0 0.0
vn 0.0 0.0 -1.0
vn 0.0 0.0 1.0
s off
f 5/1/2 6/2/2 7/3/2
f 5/1/2 7/3/2 8/4/2
f 1/5/1 4/5/1 3/5/1
f 1/5/1 3/5/1 2/5/1
f 2/5/3 3/5/3 7/5/3
f 2/5/3 7/5/3 6/5/3
f 1/5/4 5/5/4 8/5/4
f 1/5/4 8/5/4 4/5/4
f 1/5/5 2/5/5 6/5/5
f 1/5/5 6/5/5 5/5/5
f 4/5/6 8/5/6 7/5/6
f 4/5/6 7/5/6 3/5/6
