# Created by FreeCAD <https://www.freecad.org>
v 128.809692 -103.500000 193.222000
v 181.829529 -103.500000 130.431107
v 174.701080 -103.500000 128.109406
v 138.510315 -103.500000 203.871765
v 144.558319 -103.500000 207.830383
v 194.347870 -103.500000 138.572983
v 152.704330 -103.500000 128.795425
v 122.092468 -103.500000 172.818512
v 159.780075 -103.500000 127.318008
v 123.170830 -103.500000 179.965958
v 125.431190 -103.500000 186.831802
v 167.276138 -103.500000 127.060829
v 122.226593 -103.500000 165.591400
v 145.976044 -103.500000 131.437210
v 123.569405 -103.500000 158.488876
v 134.307114 -103.500000 139.884445
v 129.696228 -103.500000 145.451187
v 126.082962 -103.500000 151.711639
v 139.785324 -103.500000 135.168686
v 133.210861 -103.500000 198.956009
v 188.445297 -103.500000 133.954773
v 199.358414 -103.500000 144.145172
v 203.325150 -103.500000 150.502075
v 151.183960 -103.500000 210.719986
v 158.200012 -103.500000 212.458923
v 206.127975 -103.500000 157.450653
v 165.408234 -103.500000 212.998062
v 207.681992 -103.500000 164.780075
v 172.604904 -103.500000 212.322159
v 207.010849 -103.500000 179.169983
v 186.156265 -103.500000 207.435440
v 204.881256 -103.500000 186.077499
v 179.586685 -103.500000 210.450317
v 207.953308 -103.500000 172.003342
v 201.624695 -103.500000 192.530685
v 192.128021 -103.500000 203.362717
v 197.333191 -103.500000 198.347214
v 187.752396 130.000000 133.512634
v 193.591522 130.000000 137.882645
v 207.999313 130.000000 170.243729
v 207.421997 130.000000 162.973312
v 181.258728 130.000000 130.192291
v 174.297333 130.000000 128.017151
v 167.068451 130.000000 127.049782
v 159.780075 130.000000 127.318008
v 198.608124 130.000000 143.176605
v 202.657867 130.000000 149.242233
v 205.624283 130.000000 155.905029
v 202.420135 130.000000 191.183334
v 205.461884 130.000000 184.554596
v 207.339615 130.000000 177.507141
v 187.337311 130.000000 206.742950
v 193.225586 130.000000 202.439423
v 198.301880 130.000000 197.202667
v 173.820801 130.000000 212.085556
v 166.581421 130.000000 212.970917
v 180.806412 130.000000 209.989471
v 145.423920 130.000000 208.285461
v 152.175766 130.000000 211.043137
v 159.296555 130.000000 212.620071
v 129.238174 130.000000 193.876587
v 133.787735 130.000000 199.576920
v 139.235214 130.000000 204.426392
v 123.326736 130.000000 180.599014
v 122.134926 130.000000 173.403732
v 125.717407 130.000000 187.489365
v 125.918198 130.000000 152.066437
v 123.449570 130.000000 158.929245
v 122.176270 130.000000 166.110550
v 129.511139 130.000000 145.719528
v 134.125031 130.000000 140.071136
v 139.627151 130.000000 135.283752
v 145.859192 130.000000 131.495071
v 152.641876 130.000000 128.814117
vn 0.000000 1.000000 0.000000
vn 0.000000 1.000000 0.000000
vn -0.000000 1.000000 -0.000000
vn 0.000000 1.000000 0.000000
vn 0.000000 1.000000 0.000000
vn 0.000000 1.000000 0.000000
vn 0.000000 1.000000 0.000000
vn -0.000000 1.000000 -0.000000
vn 0.000000 1.000000 0.000000
vn 0.000000 1.000000 0.000000
vn -0.000000 1.000000 0.000000
vn 0.000000 1.000000 0.000000
vn 0.000000 1.000000 0.000000
vn 0.000000 1.000000 -0.000000
vn -0.000000 1.000000 0.000000
vn 0.000000 1.000000 0.000000
vn 0.000000 1.000000 0.000000
vn 0.000000 1.000000 0.000000
vn 0.000000 1.000000 0.000000
vn 0.000000 1.000000 0.000000
vn 0.000000 1.000000 0.000000
vn 0.000000 1.000000 0.000000
vn 0.000000 1.000000 0.000000
vn 0.000000 1.000000 0.000000
vn -0.000000 1.000000 0.000000
vn 0.000000 1.000000 -0.000000
vn 0.000000 1.000000 -0.000000
vn 0.000000 1.000000 0.000000
vn 0.000000 1.000000 0.000000
vn 0.000000 1.000000 0.000000
vn 0.000000 1.000000 0.000000
vn 0.000000 1.000000 0.000000
vn 0.000000 1.000000 0.000000
vn -0.000000 1.000000 -0.000000
vn -0.000000 1.000000 0.000000
vn 0.000000 -1.000000 0.000000
vn 0.000000 -1.000000 0.000000
vn 0.000000 -1.000000 0.000000
vn 0.000000 -1.000000 0.000000
vn 0.000000 -1.000000 0.000000
vn 0.000000 -1.000000 0.000000
vn 0.000000 -1.000000 0.000000
vn 0.000000 -1.000000 0.000000
vn 0.000000 -1.000000 0.000000
vn 0.000000 -1.000000 0.000000
vn 0.000000 -1.000000 0.000000
vn 0.000000 -1.000000 0.000000
vn 0.000000 -1.000000 0.000000
vn -0.000000 -1.000000 0.000000
vn 0.000000 -1.000000 0.000000
vn 0.000000 -1.000000 0.000000
vn 0.000000 -1.000000 0.000000
vn -0.000000 -1.000000 0.000000
vn 0.000000 -1.000000 0.000000
vn 0.000000 -1.000000 0.000000
vn -0.000000 -1.000000 0.000000
vn 0.000000 -1.000000 0.000000
vn 0.000000 -1.000000 0.000000
vn 0.000000 -1.000000 0.000000
vn 0.000000 -1.000000 0.000000
vn 0.000000 -1.000000 -0.000000
vn 0.000000 -1.000000 0.000000
vn 0.000000 -1.000000 0.000000
vn 0.000000 -1.000000 0.000000
vn -0.000000 -1.000000 -0.000000
vn 0.000000 -1.000000 0.000000
vn 0.000000 -1.000000 0.000000
vn 0.000000 -1.000000 0.000000
vn 0.000000 -1.000000 0.000000
vn -0.000000 -1.000000 -0.000000
vn 0.599181 0.000262 -0.800614
vn 0.996862 0.000497 -0.079157
vn 0.455259 0.000202 -0.890359
vn 0.470095 -0.000276 -0.882616
vn 0.298238 0.000139 -0.954491
vn 0.309684 -0.000215 -0.950840
vn 0.132638 0.000071 -0.991165
vn 0.139836 -0.000149 -0.990175
vn -0.036777 0.000000 -0.999323
vn -0.034288 -0.000078 -0.999412
vn 0.616209 -0.000332 -0.787582
vn 0.743588 -0.000384 -0.668638
vn 0.725866 0.000318 -0.687836
vn 0.848378 -0.000432 -0.529391
vn 0.831671 0.000369 -0.555269
vn 0.927396 -0.000476 -0.374081
vn 0.913548 0.000416 -0.406731
vn 0.978253 -0.000516 -0.207414
vn 0.969146 0.000459 -0.246488
vn 0.908879 0.000460 0.417060
vn 0.991464 -0.000467 0.130384
vn 0.590066 0.000419 0.807355
vn 0.804683 -0.000428 0.593705
vn 0.121393 0.000374 0.992604
vn 0.417091 -0.000385 0.908864
vn -0.378111 0.000325 0.925760
vn -0.074587 -0.000338 0.997214
vn -0.781584 0.000272 0.623800
vn -0.547652 -0.000287 0.836706
vn -0.986558 0.000216 0.163411
vn -0.884048 -0.000233 0.467397
vn -0.940974 0.000155 -0.338479
vn -0.999828 -0.000174 -0.018555
vn -0.870236 0.000134 -0.492635
vn -0.937592 -0.000133 -0.347736
vn -0.774462 0.000113 -0.632620
vn -0.866098 -0.000112 -0.499875
vn -0.656407 0.000091 -0.754407
vn -0.770127 -0.000091 -0.637890
vn -0.519473 0.000069 -0.854487
vn -0.652397 -0.000068 -0.757877
vn -0.367591 0.000046 -0.929988
vn -0.516228 -0.000046 -0.856451
vn -0.205135 0.000023 -0.978734
vn -0.365476 -0.000023 -0.930821
vn -0.204392 0.000000 -0.978889
vn -0.984642 0.000176 -0.174585
vn -0.982593 -0.000154 -0.185770
vn -0.988809 -0.000194 0.149185
vn -0.999984 0.000196 -0.005669
vn -0.944751 0.000235 0.327790
vn -0.949849 -0.000214 0.312708
vn -0.793266 -0.000251 0.608875
vn -0.875764 0.000254 0.482739
vn -0.664920 0.000290 0.746914
vn -0.680067 -0.000269 0.733150
vn -0.399760 -0.000305 0.916620
vn -0.529124 0.000308 0.848544
vn -0.216217 0.000342 0.976345
vn -0.240572 -0.000321 0.970631
vn 0.093507 -0.000354 0.995619
vn -0.048105 0.000358 0.998842
vn 0.287398 0.000389 0.957811
vn 0.258958 -0.000370 0.965888
vn 0.563438 -0.000400 0.826158
vn 0.445136 0.000404 0.895463
vn 0.718022 0.000433 0.696021
vn 0.693865 -0.000414 0.720105
vn 0.892763 -0.000442 0.450527
vn 0.825322 0.000447 0.564662
vn 0.966289 0.000473 0.257459
vn 0.955615 -0.000455 0.294617
vn 0.999295 -0.000480 -0.037535
vn 0.995901 0.000485 0.090453
f 71//1 70//1 67//1
f 59//2 47//2 46//2
f 67//3 68//3 72//3
f 72//4 71//4 67//4
f 73//5 68//5 69//5
f 68//6 73//6 72//6
f 74//7 73//7 69//7
f 74//8 65//8 45//8
f 65//9 74//9 69//9
f 66//10 43//10 44//10
f 65//11 64//11 45//11
f 39//12 38//12 63//12
f 42//13 61//13 62//13
f 47//14 60//14 48//14
f 58//15 59//15 46//15
f 57//16 51//16 40//16
f 55//17 41//17 56//17
f 53//18 54//18 49//18
f 50//19 52//19 53//19
f 50//20 53//20 49//20
f 52//21 51//21 57//21
f 52//22 50//22 51//22
f 55//23 40//23 41//23
f 55//24 57//24 40//24
f 60//25 56//25 48//25
f 48//26 56//26 41//26
f 39//27 58//27 46//27
f 47//28 59//28 60//28
f 63//29 38//29 62//29
f 58//30 39//30 63//30
f 62//31 38//31 42//31
f 61//32 43//32 66//32
f 61//33 42//33 43//33
f 45//34 64//34 44//34
f 64//35 66//35 44//35
f 1//36 3//36 2//36
f 4//37 6//37 5//37
f 7//38 9//38 8//38
f 10//39 12//39 11//39
f 13//40 15//40 14//40
f 16//41 18//41 17//41
f 18//42 16//42 19//42
f 15//43 19//43 14//43
f 18//44 19//44 15//44
f 13//45 7//45 8//45
f 14//46 7//46 13//46
f 9//47 12//47 10//47
f 9//48 10//48 8//48
f 3//49 11//49 12//49
f 2//50 20//50 1//50
f 3//51 1//51 11//51
f 20//52 21//52 4//52
f 21//53 20//53 2//53
f 5//54 6//54 22//54
f 4//55 21//55 6//55
f 23//56 24//56 22//56
f 5//57 22//57 24//57
f 25//58 23//58 26//58
f 23//59 25//59 24//59
f 26//60 28//60 27//60
f 27//61 25//61 26//61
f 27//62 28//62 29//62
f 30//63 32//63 31//63
f 29//64 34//64 33//64
f 35//65 36//65 32//65
f 36//66 35//66 37//66
f 30//67 31//67 33//67
f 32//68 36//68 31//68
f 29//69 28//69 34//69
f 30//70 33//70 34//70
f 38//71 39//71 21//71
f 40//72 28//72 41//72
f 2//73 42//73 38//73
f 38//74 21//74 2//74
f 42//75 3//75 43//75
f 3//76 42//76 2//76
f 44//77 43//77 12//77
f 3//78 12//78 43//78
f 9//79 45//79 44//79
f 44//80 12//80 9//80
f 21//81 39//81 6//81
f 22//82 6//82 46//82
f 39//83 46//83 6//83
f 47//84 23//84 22//84
f 22//85 46//85 47//85
f 23//86 48//86 26//86
f 48//87 23//87 47//87
f 28//88 26//88 41//88
f 48//89 41//89 26//89
f 49//90 32//90 50//90
f 51//91 30//91 34//91
f 36//92 53//92 52//92
f 35//93 54//93 37//93
f 55//94 56//94 29//94
f 57//95 33//95 31//95
f 58//96 24//96 59//96
f 25//97 27//97 60//97
f 20//98 62//98 61//98
f 5//99 63//99 4//99
f 64//100 65//100 10//100
f 66//101 11//101 1//101
f 67//102 15//102 68//102
f 13//103 8//103 69//103
f 67//104 70//104 18//104
f 18//105 15//105 67//105
f 17//106 70//106 71//106
f 70//107 17//107 18//107
f 72//108 16//108 71//108
f 17//109 71//109 16//109
f 72//110 73//110 19//110
f 19//111 16//111 72//111
f 14//112 73//112 74//112
f 73//113 14//113 19//113
f 45//114 7//114 74//114
f 14//115 74//115 7//115
f 9//116 7//116 45//116
f 69//117 68//117 13//117
f 15//118 13//118 68//118
f 65//119 8//119 10//119
f 69//120 8//120 65//120
f 66//121 64//121 11//121
f 64//122 10//122 11//122
f 20//123 61//123 1//123
f 61//124 66//124 1//124
f 4//125 63//125 62//125
f 4//126 62//126 20//126
f 5//127 24//127 58//127
f 5//128 58//128 63//128
f 59//129 25//129 60//129
f 24//130 25//130 59//130
f 56//131 27//131 29//131
f 60//132 27//132 56//132
f 57//133 55//133 33//133
f 55//134 29//134 33//134
f 36//135 52//135 31//135
f 52//136 57//136 31//136
f 37//137 54//137 53//137
f 37//138 53//138 36//138
f 35//139 32//139 49//139
f 35//140 49//140 54//140
f 50//141 30//141 51//141
f 32//142 30//142 50//142
f 40//143 34//143 28//143
f 51//144 34//144 40//144
