# Competition cone mesh: physical XY=0.28 m, height=0.50 m.
# Blender v2.68 (sub 0) OBJ File: ''
# www.blender.org
v 0.000000 -0.140000 0.000000
v -0.027313 -0.137310 0.000000
v -0.053576 -0.129343 0.000000
v -0.077780 -0.116406 0.000000
v -0.098995 -0.098995 0.000000
v -0.116406 -0.077780 0.000000
v -0.129343 -0.053576 0.000000
v -0.137310 -0.027313 0.000000
v -0.140000 -0.000000 0.000000
v 0.000000 0.000000 0.500000
v -0.137310 0.027313 0.000000
v -0.129343 0.053576 0.000000
v -0.116406 0.077780 0.000000
v -0.098995 0.098995 0.000000
v -0.077780 0.116406 0.000000
v -0.053576 0.129343 0.000000
v -0.027313 0.137310 0.000000
v 0.000000 0.140000 0.000000
v 0.027313 0.137310 0.000000
v 0.053576 0.129343 0.000000
v 0.077780 0.116406 0.000000
v 0.098995 0.098995 0.000000
v 0.116406 0.077780 0.000000
v 0.129343 0.053575 0.000000
v 0.137310 0.027313 0.000000
v 0.140000 -0.000000 0.000000
v 0.137310 -0.027313 0.000000
v 0.129343 -0.053576 0.000000
v 0.116406 -0.077780 0.000000
v 0.098995 -0.098995 0.000000
v 0.077780 -0.116406 0.000000
v 0.053575 -0.129343 0.000000
v 0.027312 -0.137310 0.000000
vn 0.279631 -0.921821 0.268425
vn -0.094417 -0.958662 0.268425
vn 0.094418 -0.958662 0.268425
vn -0.279631 -0.921821 0.268425
vn 0.454095 -0.849556 0.268425
vn 0.611110 -0.744642 0.268425
vn 0.744642 -0.611110 0.268425
vn 0.849552 -0.454102 0.268425
vn 0.921820 -0.279634 0.268426
vn 0.958662 -0.094416 0.268425
vn 0.958662 0.094417 0.268425
vn 0.921820 0.279634 0.268425
vn 0.849556 0.454095 0.268425
vn 0.744642 0.611110 0.268425
vn 0.611111 0.744641 0.268425
vn 0.454099 0.849554 0.268425
vn 0.279631 0.921821 0.268425
vn 0.094417 0.958662 0.268425
vn -0.094417 0.958662 0.268425
vn -0.279631 0.921821 0.268425
vn -0.454099 0.849554 0.268425
vn -0.611116 0.744637 0.268425
vn -0.744637 0.611116 0.268425
vn -0.849554 0.454099 0.268425
vn -0.921821 0.279631 0.268425
vn -0.958662 0.094417 0.268425
vn -0.958662 -0.094417 0.268425
vn -0.921821 -0.279631 0.268425
vn -0.849554 -0.454099 0.268425
vn -0.744637 -0.611116 0.268425
vn -0.611116 -0.744637 0.268425
vn -0.454099 -0.849554 0.268425
vn 0.000000 0.000000 -1.000000
vt 0.0 0.0
vt 0.5 1.0
vt 1.0 0.0
s off
f 32/1/1 10/2/1 33/3/1
f 1/1/2 10/2/2 2/3/2
f 33/1/3 10/2/3 1/3/3
f 2/1/4 10/2/4 3/3/4
f 31/1/5 10/2/5 32/3/5
f 30/1/6 10/2/6 31/3/6
f 29/1/7 10/2/7 30/3/7
f 28/1/8 10/2/8 29/3/8
f 27/1/9 10/2/9 28/3/9
f 26/1/10 10/2/10 27/3/10
f 25/1/11 10/2/11 26/3/11
f 24/1/12 10/2/12 25/3/12
f 23/1/13 10/2/13 24/3/13
f 22/1/14 10/2/14 23/3/14
f 21/1/15 10/2/15 22/3/15
f 20/1/16 10/2/16 21/3/16
f 19/1/17 10/2/17 20/3/17
f 18/1/18 10/2/18 19/3/18
f 17/1/19 10/2/19 18/3/19
f 16/1/20 10/2/20 17/3/20
f 15/1/21 10/2/21 16/3/21
f 14/1/22 10/2/22 15/3/22
f 13/1/23 10/2/23 14/3/23
f 12/1/24 10/2/24 13/3/24
f 11/1/25 10/2/25 12/3/25
f 9/1/26 10/2/26 11/3/26
f 8/1/27 10/2/27 9/3/27
f 7/1/28 10/2/28 8/3/28
f 6/1/29 10/2/29 7/3/29
f 5/1/30 10/2/30 6/3/30
f 4/1/31 10/2/31 5/3/31
f 3/1/32 10/2/32 4/3/32
f 1/1/33 2/2/33 33/3/33
f 2/1/33 3/2/33 33/3/33
f 3/1/33 4/2/33 33/3/33
f 4/1/33 5/2/33 33/3/33
f 5/1/33 6/2/33 33/3/33
f 6/1/33 7/2/33 33/3/33
f 7/1/33 8/2/33 33/3/33
f 8/1/33 9/2/33 33/3/33
f 9/1/33 11/2/33 33/3/33
f 11/1/33 12/2/33 33/3/33
f 12/1/33 13/2/33 33/3/33
f 13/1/33 14/2/33 33/3/33
f 28/1/33 26/2/33 27/3/33
f 14/1/33 15/2/33 16/3/33
f 33/1/33 14/2/33 16/3/33
f 19/1/33 17/2/33 18/3/33
f 19/1/33 16/2/33 17/3/33
f 33/1/33 16/2/33 19/3/33
f 22/1/33 20/2/33 21/3/33
f 22/1/33 19/2/33 20/3/33
f 33/1/33 19/2/33 22/3/33
f 25/1/33 23/2/33 24/3/33
f 32/1/33 33/2/33 22/3/33
f 28/1/33 25/2/33 26/3/33
f 28/1/33 23/2/33 25/3/33
f 31/1/33 32/2/33 22/3/33
f 30/1/33 31/2/33 22/3/33
f 29/1/33 30/2/33 22/3/33
f 28/1/33 29/2/33 23/3/33
f 29/1/33 22/2/33 23/3/33
