# Guoshui 2026 four gates: red PVC frame pipes.
# All faces are triangles; no MTL file is required by Stonefish.
o Guoshui2026GatePart
v 7.127234 1.092132 1.100000
v 7.127234 1.092132 0.600000
v 7.125711 1.084479 1.100000
v 7.125711 1.084479 0.600000
v 7.121376 1.077990 1.100000
v 7.121376 1.077990 0.600000
v 7.114888 1.073655 1.100000
v 7.114888 1.073655 0.600000
v 7.107234 1.072132 1.100000
v 7.107234 1.072132 0.600000
v 7.099580 1.073655 1.100000
v 7.099580 1.073655 0.600000
v 7.093092 1.077990 1.100000
v 7.093092 1.077990 0.600000
v 7.088756 1.084479 1.100000
v 7.088756 1.084479 0.600000
v 7.087234 1.092132 1.100000
v 7.087234 1.092132 0.600000
v 7.088756 1.099786 1.100000
v 7.088756 1.099786 0.600000
v 7.093092 1.106274 1.100000
v 7.093092 1.106274 0.600000
v 7.099580 1.110610 1.100000
v 7.099580 1.110610 0.600000
v 7.107234 1.112132 1.100000
v 7.107234 1.112132 0.600000
v 7.114888 1.110610 1.100000
v 7.114888 1.110610 0.600000
v 7.121376 1.106274 1.100000
v 7.121376 1.106274 0.600000
v 7.125711 1.099786 1.100000
v 7.125711 1.099786 0.600000
v 7.107234 1.092132 1.100000
v 7.107234 1.092132 0.600000
v 7.512766 0.507868 1.100000
v 7.512766 0.507868 0.600000
v 7.511244 0.500214 1.100000
v 7.511244 0.500214 0.600000
v 7.506908 0.493726 1.100000
v 7.506908 0.493726 0.600000
v 7.500420 0.489390 1.100000
v 7.500420 0.489390 0.600000
v 7.492766 0.487868 1.100000
v 7.492766 0.487868 0.600000
v 7.485112 0.489390 1.100000
v 7.485112 0.489390 0.600000
v 7.478624 0.493726 1.100000
v 7.478624 0.493726 0.600000
v 7.474289 0.500214 1.100000
v 7.474289 0.500214 0.600000
v 7.472766 0.507868 1.100000
v 7.472766 0.507868 0.600000
v 7.474289 0.515521 1.100000
v 7.474289 0.515521 0.600000
v 7.478624 0.522010 1.100000
v 7.478624 0.522010 0.600000
v 7.485112 0.526345 1.100000
v 7.485112 0.526345 0.600000
v 7.492766 0.527868 1.100000
v 7.492766 0.527868 0.600000
v 7.500420 0.526345 1.100000
v 7.500420 0.526345 0.600000
v 7.506908 0.522010 1.100000
v 7.506908 0.522010 0.600000
v 7.511244 0.515521 1.100000
v 7.511244 0.515521 0.600000
v 7.492766 0.507868 1.100000
v 7.492766 0.507868 0.600000
v 7.090541 1.081117 0.600000
v 7.476073 0.496853 0.600000
v 7.091811 1.081955 0.592346
v 7.477344 0.497691 0.592346
v 7.095430 1.084343 0.585858
v 7.480962 0.500079 0.585858
v 7.100846 1.087917 0.581522
v 7.486378 0.503652 0.581522
v 7.107234 1.092132 0.580000
v 7.492766 0.507868 0.580000
v 7.113622 1.096348 0.581522
v 7.499154 0.512083 0.581522
v 7.119038 1.099921 0.585858
v 7.504570 0.515657 0.585858
v 7.122656 1.102309 0.592346
v 7.508189 0.518045 0.592346
v 7.123927 1.103147 0.600000
v 7.509459 0.518883 0.600000
v 7.122656 1.102309 0.607654
v 7.508189 0.518045 0.607654
v 7.119038 1.099921 0.614142
v 7.504570 0.515657 0.614142
v 7.113622 1.096348 0.618478
v 7.499154 0.512083 0.618478
v 7.107234 1.092132 0.620000
v 7.492766 0.507868 0.620000
v 7.100846 1.087917 0.618478
v 7.486378 0.503652 0.618478
v 7.095430 1.084343 0.614142
v 7.480962 0.500079 0.614142
v 7.091811 1.081955 0.607654
v 7.477344 0.497691 0.607654
v 7.107234 1.092132 0.600000
v 7.492766 0.507868 0.600000
v 7.090541 1.081117 1.100000
v 7.476073 0.496853 1.100000
v 7.091811 1.081955 1.092346
v 7.477344 0.497691 1.092346
v 7.095430 1.084343 1.085858
v 7.480962 0.500079 1.085858
v 7.100846 1.087917 1.081522
v 7.486378 0.503652 1.081522
v 7.107234 1.092132 1.080000
v 7.492766 0.507868 1.080000
v 7.113622 1.096348 1.081522
v 7.499154 0.512083 1.081522
v 7.119038 1.099921 1.085858
v 7.504570 0.515657 1.085858
v 7.122656 1.102309 1.092346
v 7.508189 0.518045 1.092346
v 7.123927 1.103147 1.100000
v 7.509459 0.518883 1.100000
v 7.122656 1.102309 1.107654
v 7.508189 0.518045 1.107654
v 7.119038 1.099921 1.114142
v 7.504570 0.515657 1.114142
v 7.113622 1.096348 1.118478
v 7.499154 0.512083 1.118478
v 7.107234 1.092132 1.120000
v 7.492766 0.507868 1.120000
v 7.100846 1.087917 1.118478
v 7.486378 0.503652 1.118478
v 7.095430 1.084343 1.114142
v 7.480962 0.500079 1.114142
v 7.091811 1.081955 1.107654
v 7.477344 0.497691 1.107654
v 7.107234 1.092132 1.100000
v 7.492766 0.507868 1.100000
v 5.815379 -0.050031 0.900000
v 5.815379 -0.050031 0.400000
v 5.813856 -0.057684 0.900000
v 5.813856 -0.057684 0.400000
v 5.809521 -0.064173 0.900000
v 5.809521 -0.064173 0.400000
v 5.803032 -0.068508 0.900000
v 5.803032 -0.068508 0.400000
v 5.795379 -0.070031 0.900000
v 5.795379 -0.070031 0.400000
v 5.787725 -0.068508 0.900000
v 5.787725 -0.068508 0.400000
v 5.781236 -0.064173 0.900000
v 5.781236 -0.064173 0.400000
v 5.776901 -0.057684 0.900000
v 5.776901 -0.057684 0.400000
v 5.775379 -0.050031 0.900000
v 5.775379 -0.050031 0.400000
v 5.776901 -0.042377 0.900000
v 5.776901 -0.042377 0.400000
v 5.781236 -0.035888 0.900000
v 5.781236 -0.035888 0.400000
v 5.787725 -0.031553 0.900000
v 5.787725 -0.031553 0.400000
v 5.795379 -0.030031 0.900000
v 5.795379 -0.030031 0.400000
v 5.803032 -0.031553 0.900000
v 5.803032 -0.031553 0.400000
v 5.809521 -0.035888 0.900000
v 5.809521 -0.035888 0.400000
v 5.813856 -0.042377 0.900000
v 5.813856 -0.042377 0.400000
v 5.795379 -0.050031 0.900000
v 5.795379 -0.050031 0.400000
v 5.824621 -0.749969 0.900000
v 5.824621 -0.749969 0.400000
v 5.823099 -0.757623 0.900000
v 5.823099 -0.757623 0.400000
v 5.818764 -0.764112 0.900000
v 5.818764 -0.764112 0.400000
v 5.812275 -0.768447 0.900000
v 5.812275 -0.768447 0.400000
v 5.804621 -0.769969 0.900000
v 5.804621 -0.769969 0.400000
v 5.796968 -0.768447 0.900000
v 5.796968 -0.768447 0.400000
v 5.790479 -0.764112 0.900000
v 5.790479 -0.764112 0.400000
v 5.786144 -0.757623 0.900000
v 5.786144 -0.757623 0.400000
v 5.784621 -0.749969 0.900000
v 5.784621 -0.749969 0.400000
v 5.786144 -0.742316 0.900000
v 5.786144 -0.742316 0.400000
v 5.790479 -0.735827 0.900000
v 5.790479 -0.735827 0.400000
v 5.796968 -0.731492 0.900000
v 5.796968 -0.731492 0.400000
v 5.804621 -0.729969 0.900000
v 5.804621 -0.729969 0.400000
v 5.812275 -0.731492 0.900000
v 5.812275 -0.731492 0.400000
v 5.818764 -0.735827 0.900000
v 5.818764 -0.735827 0.400000
v 5.823099 -0.742316 0.900000
v 5.823099 -0.742316 0.400000
v 5.804621 -0.749969 0.900000
v 5.804621 -0.749969 0.400000
v 5.775380 -0.050295 0.400000
v 5.784623 -0.750234 0.400000
v 5.776903 -0.050274 0.392346
v 5.786145 -0.750213 0.392346
v 5.781238 -0.050217 0.385858
v 5.790481 -0.750156 0.385858
v 5.787726 -0.050132 0.381522
v 5.796968 -0.750071 0.381522
v 5.795379 -0.050031 0.380000
v 5.804621 -0.749969 0.380000
v 5.803032 -0.049929 0.381522
v 5.812274 -0.749868 0.381522
v 5.809519 -0.049844 0.385858
v 5.818762 -0.749783 0.385858
v 5.813855 -0.049787 0.392346
v 5.823097 -0.749726 0.392346
v 5.815377 -0.049766 0.400000
v 5.824620 -0.749705 0.400000
v 5.813855 -0.049787 0.407654
v 5.823097 -0.749726 0.407654
v 5.809519 -0.049844 0.414142
v 5.818762 -0.749783 0.414142
v 5.803032 -0.049929 0.418478
v 5.812274 -0.749868 0.418478
v 5.795379 -0.050031 0.420000
v 5.804621 -0.749969 0.420000
v 5.787726 -0.050132 0.418478
v 5.796968 -0.750071 0.418478
v 5.781238 -0.050217 0.414142
v 5.790481 -0.750156 0.414142
v 5.776903 -0.050274 0.407654
v 5.786145 -0.750213 0.407654
v 5.795379 -0.050031 0.400000
v 5.804621 -0.749969 0.400000
v 5.775380 -0.050295 0.900000
v 5.784623 -0.750234 0.900000
v 5.776903 -0.050274 0.892346
v 5.786145 -0.750213 0.892346
v 5.781238 -0.050217 0.885858
v 5.790481 -0.750156 0.885858
v 5.787726 -0.050132 0.881522
v 5.796968 -0.750071 0.881522
v 5.795379 -0.050031 0.880000
v 5.804621 -0.749969 0.880000
v 5.803032 -0.049929 0.881522
v 5.812274 -0.749868 0.881522
v 5.809519 -0.049844 0.885858
v 5.818762 -0.749783 0.885858
v 5.813855 -0.049787 0.892346
v 5.823097 -0.749726 0.892346
v 5.815377 -0.049766 0.900000
v 5.824620 -0.749705 0.900000
v 5.813855 -0.049787 0.907654
v 5.823097 -0.749726 0.907654
v 5.809519 -0.049844 0.914142
v 5.818762 -0.749783 0.914142
v 5.803032 -0.049929 0.918478
v 5.812274 -0.749868 0.918478
v 5.795379 -0.050031 0.920000
v 5.804621 -0.749969 0.920000
v 5.787726 -0.050132 0.918478
v 5.796968 -0.750071 0.918478
v 5.781238 -0.050217 0.914142
v 5.790481 -0.750156 0.914142
v 5.776903 -0.050274 0.907654
v 5.786145 -0.750213 0.907654
v 5.795379 -0.050031 0.900000
v 5.804621 -0.749969 0.900000
v 4.315813 1.168180 1.100000
v 4.315813 1.168180 0.600000
v 4.314291 1.160526 1.100000
v 4.314291 1.160526 0.600000
v 4.309955 1.154038 1.100000
v 4.309955 1.154038 0.600000
v 4.303467 1.149702 1.100000
v 4.303467 1.149702 0.600000
v 4.295813 1.148180 1.100000
v 4.295813 1.148180 0.600000
v 4.288160 1.149702 1.100000
v 4.288160 1.149702 0.600000
v 4.281671 1.154038 1.100000
v 4.281671 1.154038 0.600000
v 4.277336 1.160526 1.100000
v 4.277336 1.160526 0.600000
v 4.275813 1.168180 1.100000
v 4.275813 1.168180 0.600000
v 4.277336 1.175834 1.100000
v 4.277336 1.175834 0.600000
v 4.281671 1.182322 1.100000
v 4.281671 1.182322 0.600000
v 4.288160 1.186658 1.100000
v 4.288160 1.186658 0.600000
v 4.295813 1.188180 1.100000
v 4.295813 1.188180 0.600000
v 4.303467 1.186658 1.100000
v 4.303467 1.186658 0.600000
v 4.309955 1.182322 1.100000
v 4.309955 1.182322 0.600000
v 4.314291 1.175834 1.100000
v 4.314291 1.175834 0.600000
v 4.295813 1.168180 1.100000
v 4.295813 1.168180 0.600000
v 4.024187 0.531820 1.100000
v 4.024187 0.531820 0.600000
v 4.022664 0.524166 1.100000
v 4.022664 0.524166 0.600000
v 4.018329 0.517678 1.100000
v 4.018329 0.517678 0.600000
v 4.011840 0.513342 1.100000
v 4.011840 0.513342 0.600000
v 4.004187 0.511820 1.100000
v 4.004187 0.511820 0.600000
v 3.996533 0.513342 1.100000
v 3.996533 0.513342 0.600000
v 3.990045 0.517678 1.100000
v 3.990045 0.517678 0.600000
v 3.985709 0.524166 1.100000
v 3.985709 0.524166 0.600000
v 3.984187 0.531820 1.100000
v 3.984187 0.531820 0.600000
v 3.985709 0.539474 1.100000
v 3.985709 0.539474 0.600000
v 3.990045 0.545962 1.100000
v 3.990045 0.545962 0.600000
v 3.996533 0.550298 1.100000
v 3.996533 0.550298 0.600000
v 4.004187 0.551820 1.100000
v 4.004187 0.551820 0.600000
v 4.011840 0.550298 1.100000
v 4.011840 0.550298 0.600000
v 4.018329 0.545962 1.100000
v 4.018329 0.545962 0.600000
v 4.022664 0.539474 1.100000
v 4.022664 0.539474 0.600000
v 4.004187 0.531820 1.100000
v 4.004187 0.531820 0.600000
v 4.277632 1.176512 0.600000
v 3.986005 0.540152 0.600000
v 4.279016 1.175878 0.592346
v 3.987389 0.539518 0.592346
v 4.282957 1.174072 0.585858
v 3.991330 0.537712 0.585858
v 4.288856 1.171369 0.581522
v 3.997229 0.535009 0.581522
v 4.295813 1.168180 0.580000
v 4.004187 0.531820 0.580000
v 4.302771 1.164991 0.581522
v 4.011144 0.528631 0.581522
v 4.308670 1.162288 0.585858
v 4.017043 0.525928 0.585858
v 4.312611 1.160482 0.592346
v 4.020984 0.524122 0.592346
v 4.313995 1.159848 0.600000
v 4.022368 0.523488 0.600000
v 4.312611 1.160482 0.607654
v 4.020984 0.524122 0.607654
v 4.308670 1.162288 0.614142
v 4.017043 0.525928 0.614142
v 4.302771 1.164991 0.618478
v 4.011144 0.528631 0.618478
v 4.295813 1.168180 0.620000
v 4.004187 0.531820 0.620000
v 4.288856 1.171369 0.618478
v 3.997229 0.535009 0.618478
v 4.282957 1.174072 0.614142
v 3.991330 0.537712 0.614142
v 4.279016 1.175878 0.607654
v 3.987389 0.539518 0.607654
v 4.295813 1.168180 0.600000
v 4.004187 0.531820 0.600000
v 4.277632 1.176512 1.100000
v 3.986005 0.540152 1.100000
v 4.279016 1.175878 1.092346
v 3.987389 0.539518 1.092346
v 4.282957 1.174072 1.085858
v 3.991330 0.537712 1.085858
v 4.288856 1.171369 1.081522
v 3.997229 0.535009 1.081522
v 4.295813 1.168180 1.080000
v 4.004187 0.531820 1.080000
v 4.302771 1.164991 1.081522
v 4.011144 0.528631 1.081522
v 4.308670 1.162288 1.085858
v 4.017043 0.525928 1.085858
v 4.312611 1.160482 1.092346
v 4.020984 0.524122 1.092346
v 4.313995 1.159848 1.100000
v 4.022368 0.523488 1.100000
v 4.312611 1.160482 1.107654
v 4.020984 0.524122 1.107654
v 4.308670 1.162288 1.114142
v 4.017043 0.525928 1.114142
v 4.302771 1.164991 1.118478
v 4.011144 0.528631 1.118478
v 4.295813 1.168180 1.120000
v 4.004187 0.531820 1.120000
v 4.288856 1.171369 1.118478
v 3.997229 0.535009 1.118478
v 4.282957 1.174072 1.114142
v 3.991330 0.537712 1.114142
v 4.279016 1.175878 1.107654
v 3.987389 0.539518 1.107654
v 4.295813 1.168180 1.100000
v 4.004187 0.531820 1.100000
v 2.680775 1.488436 0.900000
v 2.680775 1.488436 0.400000
v 2.679252 1.480782 0.900000
v 2.679252 1.480782 0.400000
v 2.674917 1.474294 0.900000
v 2.674917 1.474294 0.400000
v 2.668428 1.469958 0.900000
v 2.668428 1.469958 0.400000
v 2.660775 1.468436 0.900000
v 2.660775 1.468436 0.400000
v 2.653121 1.469958 0.900000
v 2.653121 1.469958 0.400000
v 2.646633 1.474294 0.900000
v 2.646633 1.474294 0.400000
v 2.642297 1.480782 0.900000
v 2.642297 1.480782 0.400000
v 2.640775 1.488436 0.900000
v 2.640775 1.488436 0.400000
v 2.642297 1.496090 0.900000
v 2.642297 1.496090 0.400000
v 2.646633 1.502578 0.900000
v 2.646633 1.502578 0.400000
v 2.653121 1.506913 0.900000
v 2.653121 1.506913 0.400000
v 2.660775 1.508436 0.900000
v 2.660775 1.508436 0.400000
v 2.668428 1.506913 0.900000
v 2.668428 1.506913 0.400000
v 2.674917 1.502578 0.900000
v 2.674917 1.502578 0.400000
v 2.679252 1.496090 0.900000
v 2.679252 1.496090 0.400000
v 2.660775 1.488436 0.900000
v 2.660775 1.488436 0.400000
v 2.859225 0.811564 0.900000
v 2.859225 0.811564 0.400000
v 2.857703 0.803910 0.900000
v 2.857703 0.803910 0.400000
v 2.853367 0.797422 0.900000
v 2.853367 0.797422 0.400000
v 2.846879 0.793087 0.900000
v 2.846879 0.793087 0.400000
v 2.839225 0.791564 0.900000
v 2.839225 0.791564 0.400000
v 2.831572 0.793087 0.900000
v 2.831572 0.793087 0.400000
v 2.825083 0.797422 0.900000
v 2.825083 0.797422 0.400000
v 2.820748 0.803910 0.900000
v 2.820748 0.803910 0.400000
v 2.819225 0.811564 0.900000
v 2.819225 0.811564 0.400000
v 2.820748 0.819218 0.900000
v 2.820748 0.819218 0.400000
v 2.825083 0.825706 0.900000
v 2.825083 0.825706 0.400000
v 2.831572 0.830042 0.900000
v 2.831572 0.830042 0.400000
v 2.839225 0.831564 0.900000
v 2.839225 0.831564 0.400000
v 2.846879 0.830042 0.900000
v 2.846879 0.830042 0.400000
v 2.853367 0.825706 0.900000
v 2.853367 0.825706 0.400000
v 2.857703 0.819218 0.900000
v 2.857703 0.819218 0.400000
v 2.839225 0.811564 0.900000
v 2.839225 0.811564 0.400000
v 2.641436 1.483337 0.400000
v 2.819886 0.806466 0.400000
v 2.642908 1.483725 0.392346
v 2.821358 0.806854 0.392346
v 2.647100 1.484831 0.385858
v 2.825550 0.807959 0.385858
v 2.653374 1.486485 0.381522
v 2.831824 0.809613 0.381522
v 2.660775 1.488436 0.380000
v 2.839225 0.811564 0.380000
v 2.668176 1.490387 0.381522
v 2.846626 0.813515 0.381522
v 2.674450 1.492041 0.385858
v 2.852900 0.815169 0.385858
v 2.678642 1.493146 0.392346
v 2.857092 0.816275 0.392346
v 2.680114 1.493534 0.400000
v 2.858564 0.816663 0.400000
v 2.678642 1.493146 0.407654
v 2.857092 0.816275 0.407654
v 2.674450 1.492041 0.414142
v 2.852900 0.815169 0.414142
v 2.668176 1.490387 0.418478
v 2.846626 0.813515 0.418478
v 2.660775 1.488436 0.420000
v 2.839225 0.811564 0.420000
v 2.653374 1.486485 0.418478
v 2.831824 0.809613 0.418478
v 2.647100 1.484831 0.414142
v 2.825550 0.807959 0.414142
v 2.642908 1.483725 0.407654
v 2.821358 0.806854 0.407654
v 2.660775 1.488436 0.400000
v 2.839225 0.811564 0.400000
v 2.641436 1.483337 0.900000
v 2.819886 0.806466 0.900000
v 2.642908 1.483725 0.892346
v 2.821358 0.806854 0.892346
v 2.647100 1.484831 0.885858
v 2.825550 0.807959 0.885858
v 2.653374 1.486485 0.881522
v 2.831824 0.809613 0.881522
v 2.660775 1.488436 0.880000
v 2.839225 0.811564 0.880000
v 2.668176 1.490387 0.881522
v 2.846626 0.813515 0.881522
v 2.674450 1.492041 0.885858
v 2.852900 0.815169 0.885858
v 2.678642 1.493146 0.892346
v 2.857092 0.816275 0.892346
v 2.680114 1.493534 0.900000
v 2.858564 0.816663 0.900000
v 2.678642 1.493146 0.907654
v 2.857092 0.816275 0.907654
v 2.674450 1.492041 0.914142
v 2.852900 0.815169 0.914142
v 2.668176 1.490387 0.918478
v 2.846626 0.813515 0.918478
v 2.660775 1.488436 0.920000
v 2.839225 0.811564 0.920000
v 2.653374 1.486485 0.918478
v 2.831824 0.809613 0.918478
v 2.647100 1.484831 0.914142
v 2.825550 0.807959 0.914142
v 2.642908 1.483725 0.907654
v 2.821358 0.806854 0.907654
v 2.660775 1.488436 0.900000
v 2.839225 0.811564 0.900000
vn 1.000000 -0.000000 0.000000
vn 1.000000 -0.000000 0.000000
vn 0.923880 -0.382683 0.000000
vn 0.923880 -0.382683 0.000000
vn 0.707107 -0.707107 0.000000
vn 0.707107 -0.707107 0.000000
vn 0.382683 -0.923880 0.000000
vn 0.382683 -0.923880 0.000000
vn 0.000000 -1.000000 0.000000
vn 0.000000 -1.000000 0.000000
vn -0.382683 -0.923880 -0.000000
vn -0.382683 -0.923880 -0.000000
vn -0.707107 -0.707107 -0.000000
vn -0.707107 -0.707107 -0.000000
vn -0.923880 -0.382683 -0.000000
vn -0.923880 -0.382683 -0.000000
vn -1.000000 -0.000000 -0.000000
vn -1.000000 -0.000000 -0.000000
vn -0.923880 0.382683 0.000000
vn -0.923880 0.382683 0.000000
vn -0.707107 0.707107 0.000000
vn -0.707107 0.707107 0.000000
vn -0.382683 0.923880 0.000000
vn -0.382683 0.923880 0.000000
vn -0.000000 1.000000 0.000000
vn -0.000000 1.000000 0.000000
vn 0.382683 0.923880 0.000000
vn 0.382683 0.923880 0.000000
vn 0.707107 0.707107 0.000000
vn 0.707107 0.707107 0.000000
vn 0.923880 0.382683 0.000000
vn 0.923880 0.382683 0.000000
vn -0.000000 -0.000000 1.000000
vn 0.000000 0.000000 -1.000000
vn -0.000000 -0.000000 1.000000
vn 0.000000 0.000000 -1.000000
vn -0.000000 -0.000000 1.000000
vn 0.000000 0.000000 -1.000000
vn -0.000000 -0.000000 1.000000
vn 0.000000 0.000000 -1.000000
vn -0.000000 -0.000000 1.000000
vn 0.000000 0.000000 -1.000000
vn -0.000000 -0.000000 1.000000
vn 0.000000 0.000000 -1.000000
vn -0.000000 -0.000000 1.000000
vn 0.000000 0.000000 -1.000000
vn -0.000000 -0.000000 1.000000
vn 0.000000 0.000000 -1.000000
vn -0.000000 -0.000000 1.000000
vn 0.000000 0.000000 -1.000000
vn -0.000000 -0.000000 1.000000
vn 0.000000 0.000000 -1.000000
vn -0.000000 -0.000000 1.000000
vn 0.000000 0.000000 -1.000000
vn -0.000000 -0.000000 1.000000
vn 0.000000 0.000000 -1.000000
vn -0.000000 -0.000000 1.000000
vn 0.000000 0.000000 -1.000000
vn -0.000000 -0.000000 1.000000
vn 0.000000 0.000000 -1.000000
vn -0.000000 -0.000000 1.000000
vn 0.000000 0.000000 -1.000000
vn -0.000000 -0.000000 1.000000
vn 0.000000 0.000000 -1.000000
vn -0.000000 -0.000000 1.000000
vn 0.000000 0.000000 -1.000000
vn 1.000000 -0.000000 0.000000
vn 1.000000 -0.000000 0.000000
vn 0.923880 -0.382683 0.000000
vn 0.923880 -0.382683 0.000000
vn 0.707107 -0.707107 0.000000
vn 0.707107 -0.707107 0.000000
vn 0.382683 -0.923880 0.000000
vn 0.382683 -0.923880 0.000000
vn 0.000000 -1.000000 0.000000
vn 0.000000 -1.000000 0.000000
vn -0.382683 -0.923880 -0.000000
vn -0.382683 -0.923880 -0.000000
vn -0.707107 -0.707107 -0.000000
vn -0.707107 -0.707107 -0.000000
vn -0.923880 -0.382683 -0.000000
vn -0.923880 -0.382683 -0.000000
vn -1.000000 -0.000000 -0.000000
vn -1.000000 -0.000000 -0.000000
vn -0.923880 0.382683 0.000000
vn -0.923880 0.382683 0.000000
vn -0.707107 0.707107 0.000000
vn -0.707107 0.707107 0.000000
vn -0.382683 0.923880 0.000000
vn -0.382683 0.923880 0.000000
vn -0.000000 1.000000 0.000000
vn -0.000000 1.000000 0.000000
vn 0.382683 0.923880 0.000000
vn 0.382683 0.923880 0.000000
vn 0.707107 0.707107 0.000000
vn 0.707107 0.707107 0.000000
vn 0.923880 0.382683 0.000000
vn 0.923880 0.382683 0.000000
vn -0.000000 -0.000000 1.000000
vn 0.000000 0.000000 -1.000000
vn -0.000000 -0.000000 1.000000
vn 0.000000 0.000000 -1.000000
vn -0.000000 -0.000000 1.000000
vn 0.000000 0.000000 -1.000000
vn -0.000000 -0.000000 1.000000
vn 0.000000 0.000000 -1.000000
vn -0.000000 -0.000000 1.000000
vn 0.000000 0.000000 -1.000000
vn -0.000000 -0.000000 1.000000
vn 0.000000 0.000000 -1.000000
vn -0.000000 -0.000000 1.000000
vn 0.000000 0.000000 -1.000000
vn -0.000000 -0.000000 1.000000
vn 0.000000 0.000000 -1.000000
vn -0.000000 -0.000000 1.000000
vn 0.000000 0.000000 -1.000000
vn -0.000000 -0.000000 1.000000
vn 0.000000 0.000000 -1.000000
vn -0.000000 -0.000000 1.000000
vn 0.000000 0.000000 -1.000000
vn -0.000000 -0.000000 1.000000
vn 0.000000 0.000000 -1.000000
vn -0.000000 -0.000000 1.000000
vn 0.000000 0.000000 -1.000000
vn -0.000000 -0.000000 1.000000
vn 0.000000 0.000000 -1.000000
vn -0.000000 -0.000000 1.000000
vn 0.000000 0.000000 -1.000000
vn -0.000000 -0.000000 1.000000
vn 0.000000 0.000000 -1.000000
vn -0.000000 -0.000000 1.000000
vn 0.000000 0.000000 -1.000000
vn -0.834663 -0.550760 0.000000
vn -0.834663 -0.550760 0.000000
vn -0.771128 -0.508836 -0.382683
vn -0.771128 -0.508836 -0.382683
vn -0.590196 -0.389446 -0.707107
vn -0.590196 -0.389446 -0.707107
vn -0.319412 -0.210767 -0.923880
vn -0.319412 -0.210767 -0.923880
vn -0.000000 -0.000000 -1.000000
vn -0.000000 -0.000000 -1.000000
vn 0.319412 0.210767 -0.923880
vn 0.319412 0.210767 -0.923880
vn 0.590196 0.389446 -0.707107
vn 0.590196 0.389446 -0.707107
vn 0.771128 0.508836 -0.382683
vn 0.771128 0.508836 -0.382683
vn 0.834663 0.550760 -0.000000
vn 0.834663 0.550760 -0.000000
vn 0.771128 0.508836 0.382683
vn 0.771128 0.508836 0.382683
vn 0.590196 0.389446 0.707107
vn 0.590196 0.389446 0.707107
vn 0.319412 0.210767 0.923880
vn 0.319412 0.210767 0.923880
vn 0.000000 0.000000 1.000000
vn 0.000000 0.000000 1.000000
vn -0.319412 -0.210767 0.923880
vn -0.319412 -0.210767 0.923880
vn -0.590196 -0.389446 0.707107
vn -0.590196 -0.389446 0.707107
vn -0.771128 -0.508836 0.382683
vn -0.771128 -0.508836 0.382683
vn -0.550760 0.834663 -0.000000
vn 0.550760 -0.834663 0.000000
vn -0.550760 0.834663 -0.000000
vn 0.550760 -0.834663 0.000000
vn -0.550760 0.834663 -0.000000
vn 0.550760 -0.834663 0.000000
vn -0.550760 0.834663 -0.000000
vn 0.550760 -0.834663 0.000000
vn -0.550760 0.834663 -0.000000
vn 0.550760 -0.834663 0.000000
vn -0.550760 0.834663 -0.000000
vn 0.550760 -0.834663 0.000000
vn -0.550760 0.834663 -0.000000
vn 0.550760 -0.834663 0.000000
vn -0.550760 0.834663 -0.000000
vn 0.550760 -0.834663 0.000000
vn -0.550760 0.834663 -0.000000
vn 0.550760 -0.834663 0.000000
vn -0.550760 0.834663 -0.000000
vn 0.550760 -0.834663 0.000000
vn -0.550760 0.834663 -0.000000
vn 0.550760 -0.834663 0.000000
vn -0.550760 0.834663 -0.000000
vn 0.550760 -0.834663 0.000000
vn -0.550760 0.834663 -0.000000
vn 0.550760 -0.834663 0.000000
vn -0.550760 0.834663 -0.000000
vn 0.550760 -0.834663 0.000000
vn -0.550760 0.834663 -0.000000
vn 0.550760 -0.834663 0.000000
vn -0.550760 0.834663 -0.000000
vn 0.550760 -0.834663 0.000000
vn -0.550760 0.834663 -0.000000
vn 0.550760 -0.834663 0.000000
vn -0.834663 -0.550760 0.000000
vn -0.834663 -0.550760 0.000000
vn -0.771128 -0.508836 -0.382683
vn -0.771128 -0.508836 -0.382683
vn -0.590196 -0.389446 -0.707107
vn -0.590196 -0.389446 -0.707107
vn -0.319412 -0.210767 -0.923880
vn -0.319412 -0.210767 -0.923880
vn -0.000000 -0.000000 -1.000000
vn -0.000000 -0.000000 -1.000000
vn 0.319412 0.210767 -0.923880
vn 0.319412 0.210767 -0.923880
vn 0.590196 0.389446 -0.707107
vn 0.590196 0.389446 -0.707107
vn 0.771128 0.508836 -0.382683
vn 0.771128 0.508836 -0.382683
vn 0.834663 0.550760 -0.000000
vn 0.834663 0.550760 -0.000000
vn 0.771128 0.508836 0.382683
vn 0.771128 0.508836 0.382683
vn 0.590196 0.389446 0.707107
vn 0.590196 0.389446 0.707107
vn 0.319412 0.210767 0.923880
vn 0.319412 0.210767 0.923880
vn 0.000000 0.000000 1.000000
vn 0.000000 0.000000 1.000000
vn -0.319412 -0.210767 0.923880
vn -0.319412 -0.210767 0.923880
vn -0.590196 -0.389446 0.707107
vn -0.590196 -0.389446 0.707107
vn -0.771128 -0.508836 0.382683
vn -0.771128 -0.508836 0.382683
vn -0.550760 0.834663 -0.000000
vn 0.550760 -0.834663 0.000000
vn -0.550760 0.834663 -0.000000
vn 0.550760 -0.834663 0.000000
vn -0.550760 0.834663 -0.000000
vn 0.550760 -0.834663 0.000000
vn -0.550760 0.834663 -0.000000
vn 0.550760 -0.834663 0.000000
vn -0.550760 0.834663 -0.000000
vn 0.550760 -0.834663 0.000000
vn -0.550760 0.834663 -0.000000
vn 0.550760 -0.834663 0.000000
vn -0.550760 0.834663 -0.000000
vn 0.550760 -0.834663 0.000000
vn -0.550760 0.834663 -0.000000
vn 0.550760 -0.834663 0.000000
vn -0.550760 0.834663 -0.000000
vn 0.550760 -0.834663 0.000000
vn -0.550760 0.834663 -0.000000
vn 0.550760 -0.834663 0.000000
vn -0.550760 0.834663 -0.000000
vn 0.550760 -0.834663 0.000000
vn -0.550760 0.834663 -0.000000
vn 0.550760 -0.834663 0.000000
vn -0.550760 0.834663 -0.000000
vn 0.550760 -0.834663 0.000000
vn -0.550760 0.834663 -0.000000
vn 0.550760 -0.834663 0.000000
vn -0.550760 0.834663 -0.000000
vn 0.550760 -0.834663 0.000000
vn -0.550760 0.834663 -0.000000
vn 0.550760 -0.834663 0.000000
vn -0.550760 0.834663 -0.000000
vn 0.550760 -0.834663 0.000000
vn 1.000000 -0.000000 0.000000
vn 1.000000 -0.000000 0.000000
vn 0.923880 -0.382683 0.000000
vn 0.923880 -0.382683 0.000000
vn 0.707107 -0.707107 0.000000
vn 0.707107 -0.707107 0.000000
vn 0.382683 -0.923880 0.000000
vn 0.382683 -0.923880 0.000000
vn 0.000000 -1.000000 0.000000
vn 0.000000 -1.000000 0.000000
vn -0.382683 -0.923880 -0.000000
vn -0.382683 -0.923880 -0.000000
vn -0.707107 -0.707107 -0.000000
vn -0.707107 -0.707107 -0.000000
vn -0.923880 -0.382683 -0.000000
vn -0.923880 -0.382683 -0.000000
vn -1.000000 -0.000000 -0.000000
vn -1.000000 -0.000000 -0.000000
vn -0.923880 0.382683 0.000000
vn -0.923880 0.382683 0.000000
vn -0.707107 0.707107 0.000000
vn -0.707107 0.707107 0.000000
vn -0.382683 0.923880 0.000000
vn -0.382683 0.923880 0.000000
vn -0.000000 1.000000 0.000000
vn -0.000000 1.000000 0.000000
vn 0.382683 0.923880 0.000000
vn 0.382683 0.923880 0.000000
vn 0.707107 0.707107 0.000000
vn 0.707107 0.707107 0.000000
vn 0.923880 0.382683 0.000000
vn 0.923880 0.382683 0.000000
vn -0.000000 -0.000000 1.000000
vn 0.000000 0.000000 -1.000000
vn -0.000000 -0.000000 1.000000
vn 0.000000 0.000000 -1.000000
vn -0.000000 -0.000000 1.000000
vn 0.000000 0.000000 -1.000000
vn -0.000000 -0.000000 1.000000
vn 0.000000 0.000000 -1.000000
vn -0.000000 -0.000000 1.000000
vn 0.000000 0.000000 -1.000000
vn -0.000000 -0.000000 1.000000
vn 0.000000 0.000000 -1.000000
vn -0.000000 -0.000000 1.000000
vn 0.000000 0.000000 -1.000000
vn -0.000000 -0.000000 1.000000
vn 0.000000 0.000000 -1.000000
vn -0.000000 -0.000000 1.000000
vn 0.000000 0.000000 -1.000000
vn -0.000000 -0.000000 1.000000
vn 0.000000 0.000000 -1.000000
vn -0.000000 -0.000000 1.000000
vn 0.000000 0.000000 -1.000000
vn -0.000000 -0.000000 1.000000
vn 0.000000 0.000000 -1.000000
vn -0.000000 -0.000000 1.000000
vn 0.000000 0.000000 -1.000000
vn -0.000000 -0.000000 1.000000
vn 0.000000 0.000000 -1.000000
vn -0.000000 -0.000000 1.000000
vn 0.000000 0.000000 -1.000000
vn -0.000000 -0.000000 1.000000
vn 0.000000 0.000000 -1.000000
vn -0.000000 -0.000000 1.000000
vn 0.000000 0.000000 -1.000000
vn 1.000000 -0.000000 0.000000
vn 1.000000 -0.000000 0.000000
vn 0.923880 -0.382683 0.000000
vn 0.923880 -0.382683 0.000000
vn 0.707107 -0.707107 0.000000
vn 0.707107 -0.707107 0.000000
vn 0.382683 -0.923880 0.000000
vn 0.382683 -0.923880 0.000000
vn 0.000000 -1.000000 0.000000
vn 0.000000 -1.000000 0.000000
vn -0.382683 -0.923880 -0.000000
vn -0.382683 -0.923880 -0.000000
vn -0.707107 -0.707107 -0.000000
vn -0.707107 -0.707107 -0.000000
vn -0.923880 -0.382683 -0.000000
vn -0.923880 -0.382683 -0.000000
vn -1.000000 -0.000000 -0.000000
vn -1.000000 -0.000000 -0.000000
vn -0.923880 0.382683 0.000000
vn -0.923880 0.382683 0.000000
vn -0.707107 0.707107 0.000000
vn -0.707107 0.707107 0.000000
vn -0.382683 0.923880 0.000000
vn -0.382683 0.923880 0.000000
vn -0.000000 1.000000 0.000000
vn -0.000000 1.000000 0.000000
vn 0.382683 0.923880 0.000000
vn 0.382683 0.923880 0.000000
vn 0.707107 0.707107 0.000000
vn 0.707107 0.707107 0.000000
vn 0.923880 0.382683 0.000000
vn 0.923880 0.382683 0.000000
vn -0.000000 -0.000000 1.000000
vn 0.000000 0.000000 -1.000000
vn -0.000000 -0.000000 1.000000
vn 0.000000 0.000000 -1.000000
vn -0.000000 -0.000000 1.000000
vn 0.000000 0.000000 -1.000000
vn -0.000000 -0.000000 1.000000
vn 0.000000 0.000000 -1.000000
vn -0.000000 -0.000000 1.000000
vn 0.000000 0.000000 -1.000000
vn -0.000000 -0.000000 1.000000
vn 0.000000 0.000000 -1.000000
vn -0.000000 -0.000000 1.000000
vn 0.000000 0.000000 -1.000000
vn -0.000000 -0.000000 1.000000
vn 0.000000 0.000000 -1.000000
vn -0.000000 -0.000000 1.000000
vn 0.000000 0.000000 -1.000000
vn -0.000000 -0.000000 1.000000
vn 0.000000 0.000000 -1.000000
vn -0.000000 -0.000000 1.000000
vn 0.000000 0.000000 -1.000000
vn -0.000000 -0.000000 1.000000
vn 0.000000 0.000000 -1.000000
vn -0.000000 -0.000000 1.000000
vn 0.000000 0.000000 -1.000000
vn -0.000000 -0.000000 1.000000
vn 0.000000 0.000000 -1.000000
vn -0.000000 -0.000000 1.000000
vn 0.000000 0.000000 -1.000000
vn -0.000000 -0.000000 1.000000
vn 0.000000 0.000000 -1.000000
vn -0.000000 -0.000000 1.000000
vn 0.000000 0.000000 -1.000000
vn -0.999913 -0.013204 0.000000
vn -0.999913 -0.013204 0.000000
vn -0.923799 -0.012199 -0.382683
vn -0.923799 -0.012199 -0.382683
vn -0.707045 -0.009337 -0.707107
vn -0.707045 -0.009337 -0.707107
vn -0.382650 -0.005053 -0.923880
vn -0.382650 -0.005053 -0.923880
vn -0.000000 -0.000000 -1.000000
vn -0.000000 -0.000000 -1.000000
vn 0.382650 0.005053 -0.923880
vn 0.382650 0.005053 -0.923880
vn 0.707045 0.009337 -0.707107
vn 0.707045 0.009337 -0.707107
vn 0.923799 0.012199 -0.382683
vn 0.923799 0.012199 -0.382683
vn 0.999913 0.013204 -0.000000
vn 0.999913 0.013204 -0.000000
vn 0.923799 0.012199 0.382683
vn 0.923799 0.012199 0.382683
vn 0.707045 0.009337 0.707107
vn 0.707045 0.009337 0.707107
vn 0.382650 0.005053 0.923880
vn 0.382650 0.005053 0.923880
vn 0.000000 0.000000 1.000000
vn 0.000000 0.000000 1.000000
vn -0.382650 -0.005053 0.923880
vn -0.382650 -0.005053 0.923880
vn -0.707045 -0.009337 0.707107
vn -0.707045 -0.009337 0.707107
vn -0.923799 -0.012199 0.382683
vn -0.923799 -0.012199 0.382683
vn -0.013204 0.999913 -0.000000
vn 0.013204 -0.999913 0.000000
vn -0.013204 0.999913 -0.000000
vn 0.013204 -0.999913 0.000000
vn -0.013204 0.999913 -0.000000
vn 0.013204 -0.999913 0.000000
vn -0.013204 0.999913 -0.000000
vn 0.013204 -0.999913 0.000000
vn -0.013204 0.999913 -0.000000
vn 0.013204 -0.999913 0.000000
vn -0.013204 0.999913 -0.000000
vn 0.013204 -0.999913 0.000000
vn -0.013204 0.999913 -0.000000
vn 0.013204 -0.999913 0.000000
vn -0.013204 0.999913 -0.000000
vn 0.013204 -0.999913 0.000000
vn -0.013204 0.999913 -0.000000
vn 0.013204 -0.999913 0.000000
vn -0.013204 0.999913 -0.000000
vn 0.013204 -0.999913 0.000000
vn -0.013204 0.999913 -0.000000
vn 0.013204 -0.999913 0.000000
vn -0.013204 0.999913 -0.000000
vn 0.013204 -0.999913 0.000000
vn -0.013204 0.999913 -0.000000
vn 0.013204 -0.999913 0.000000
vn -0.013204 0.999913 -0.000000
vn 0.013204 -0.999913 0.000000
vn -0.013204 0.999913 -0.000000
vn 0.013204 -0.999913 0.000000
vn -0.013204 0.999913 -0.000000
vn 0.013204 -0.999913 0.000000
vn -0.013204 0.999913 -0.000000
vn 0.013204 -0.999913 0.000000
vn -0.999913 -0.013204 0.000000
vn -0.999913 -0.013204 0.000000
vn -0.923799 -0.012199 -0.382683
vn -0.923799 -0.012199 -0.382683
vn -0.707045 -0.009337 -0.707107
vn -0.707045 -0.009337 -0.707107
vn -0.382650 -0.005053 -0.923880
vn -0.382650 -0.005053 -0.923880
vn -0.000000 -0.000000 -1.000000
vn -0.000000 -0.000000 -1.000000
vn 0.382650 0.005053 -0.923880
vn 0.382650 0.005053 -0.923880
vn 0.707045 0.009337 -0.707107
vn 0.707045 0.009337 -0.707107
vn 0.923799 0.012199 -0.382683
vn 0.923799 0.012199 -0.382683
vn 0.999913 0.013204 -0.000000
vn 0.999913 0.013204 -0.000000
vn 0.923799 0.012199 0.382683
vn 0.923799 0.012199 0.382683
vn 0.707045 0.009337 0.707107
vn 0.707045 0.009337 0.707107
vn 0.382650 0.005053 0.923880
vn 0.382650 0.005053 0.923880
vn 0.000000 0.000000 1.000000
vn 0.000000 0.000000 1.000000
vn -0.382650 -0.005053 0.923880
vn -0.382650 -0.005053 0.923880
vn -0.707045 -0.009337 0.707107
vn -0.707045 -0.009337 0.707107
vn -0.923799 -0.012199 0.382683
vn -0.923799 -0.012199 0.382683
vn -0.013204 0.999913 -0.000000
vn 0.013204 -0.999913 0.000000
vn -0.013204 0.999913 -0.000000
vn 0.013204 -0.999913 0.000000
vn -0.013204 0.999913 -0.000000
vn 0.013204 -0.999913 0.000000
vn -0.013204 0.999913 -0.000000
vn 0.013204 -0.999913 0.000000
vn -0.013204 0.999913 -0.000000
vn 0.013204 -0.999913 0.000000
vn -0.013204 0.999913 -0.000000
vn 0.013204 -0.999913 0.000000
vn -0.013204 0.999913 -0.000000
vn 0.013204 -0.999913 0.000000
vn -0.013204 0.999913 -0.000000
vn 0.013204 -0.999913 0.000000
vn -0.013204 0.999913 -0.000000
vn 0.013204 -0.999913 0.000000
vn -0.013204 0.999913 -0.000000
vn 0.013204 -0.999913 0.000000
vn -0.013204 0.999913 -0.000000
vn 0.013204 -0.999913 0.000000
vn -0.013204 0.999913 -0.000000
vn 0.013204 -0.999913 0.000000
vn -0.013204 0.999913 -0.000000
vn 0.013204 -0.999913 0.000000
vn -0.013204 0.999913 -0.000000
vn 0.013204 -0.999913 0.000000
vn -0.013204 0.999913 -0.000000
vn 0.013204 -0.999913 0.000000
vn -0.013204 0.999913 -0.000000
vn 0.013204 -0.999913 0.000000
vn -0.013204 0.999913 -0.000000
vn 0.013204 -0.999913 0.000000
vn 1.000000 -0.000000 0.000000
vn 1.000000 -0.000000 0.000000
vn 0.923880 -0.382683 0.000000
vn 0.923880 -0.382683 0.000000
vn 0.707107 -0.707107 0.000000
vn 0.707107 -0.707107 0.000000
vn 0.382683 -0.923880 0.000000
vn 0.382683 -0.923880 0.000000
vn 0.000000 -1.000000 0.000000
vn 0.000000 -1.000000 0.000000
vn -0.382683 -0.923880 -0.000000
vn -0.382683 -0.923880 -0.000000
vn -0.707107 -0.707107 -0.000000
vn -0.707107 -0.707107 -0.000000
vn -0.923880 -0.382683 -0.000000
vn -0.923880 -0.382683 -0.000000
vn -1.000000 -0.000000 -0.000000
vn -1.000000 -0.000000 -0.000000
vn -0.923880 0.382683 0.000000
vn -0.923880 0.382683 0.000000
vn -0.707107 0.707107 0.000000
vn -0.707107 0.707107 0.000000
vn -0.382683 0.923880 0.000000
vn -0.382683 0.923880 0.000000
vn -0.000000 1.000000 0.000000
vn -0.000000 1.000000 0.000000
vn 0.382683 0.923880 0.000000
vn 0.382683 0.923880 0.000000
vn 0.707107 0.707107 0.000000
vn 0.707107 0.707107 0.000000
vn 0.923880 0.382683 0.000000
vn 0.923880 0.382683 0.000000
vn -0.000000 -0.000000 1.000000
vn 0.000000 0.000000 -1.000000
vn -0.000000 -0.000000 1.000000
vn 0.000000 0.000000 -1.000000
vn -0.000000 -0.000000 1.000000
vn 0.000000 0.000000 -1.000000
vn -0.000000 -0.000000 1.000000
vn 0.000000 0.000000 -1.000000
vn -0.000000 -0.000000 1.000000
vn 0.000000 0.000000 -1.000000
vn -0.000000 -0.000000 1.000000
vn 0.000000 0.000000 -1.000000
vn -0.000000 -0.000000 1.000000
vn 0.000000 0.000000 -1.000000
vn -0.000000 -0.000000 1.000000
vn 0.000000 0.000000 -1.000000
vn -0.000000 -0.000000 1.000000
vn 0.000000 0.000000 -1.000000
vn -0.000000 -0.000000 1.000000
vn 0.000000 0.000000 -1.000000
vn -0.000000 -0.000000 1.000000
vn 0.000000 0.000000 -1.000000
vn -0.000000 -0.000000 1.000000
vn 0.000000 0.000000 -1.000000
vn -0.000000 -0.000000 1.000000
vn 0.000000 0.000000 -1.000000
vn -0.000000 -0.000000 1.000000
vn 0.000000 0.000000 -1.000000
vn -0.000000 -0.000000 1.000000
vn 0.000000 0.000000 -1.000000
vn -0.000000 -0.000000 1.000000
vn 0.000000 0.000000 -1.000000
vn -0.000000 -0.000000 1.000000
vn 0.000000 0.000000 -1.000000
vn 1.000000 -0.000000 0.000000
vn 1.000000 -0.000000 0.000000
vn 0.923880 -0.382683 0.000000
vn 0.923880 -0.382683 0.000000
vn 0.707107 -0.707107 0.000000
vn 0.707107 -0.707107 0.000000
vn 0.382683 -0.923880 0.000000
vn 0.382683 -0.923880 0.000000
vn 0.000000 -1.000000 0.000000
vn 0.000000 -1.000000 0.000000
vn -0.382683 -0.923880 -0.000000
vn -0.382683 -0.923880 -0.000000
vn -0.707107 -0.707107 -0.000000
vn -0.707107 -0.707107 -0.000000
vn -0.923880 -0.382683 -0.000000
vn -0.923880 -0.382683 -0.000000
vn -1.000000 -0.000000 -0.000000
vn -1.000000 -0.000000 -0.000000
vn -0.923880 0.382683 0.000000
vn -0.923880 0.382683 0.000000
vn -0.707107 0.707107 0.000000
vn -0.707107 0.707107 0.000000
vn -0.382683 0.923880 0.000000
vn -0.382683 0.923880 0.000000
vn -0.000000 1.000000 0.000000
vn -0.000000 1.000000 0.000000
vn 0.382683 0.923880 0.000000
vn 0.382683 0.923880 0.000000
vn 0.707107 0.707107 0.000000
vn 0.707107 0.707107 0.000000
vn 0.923880 0.382683 0.000000
vn 0.923880 0.382683 0.000000
vn -0.000000 -0.000000 1.000000
vn 0.000000 0.000000 -1.000000
vn -0.000000 -0.000000 1.000000
vn 0.000000 0.000000 -1.000000
vn -0.000000 -0.000000 1.000000
vn 0.000000 0.000000 -1.000000
vn -0.000000 -0.000000 1.000000
vn 0.000000 0.000000 -1.000000
vn -0.000000 -0.000000 1.000000
vn 0.000000 0.000000 -1.000000
vn -0.000000 -0.000000 1.000000
vn 0.000000 0.000000 -1.000000
vn -0.000000 -0.000000 1.000000
vn 0.000000 0.000000 -1.000000
vn -0.000000 -0.000000 1.000000
vn 0.000000 0.000000 -1.000000
vn -0.000000 -0.000000 1.000000
vn 0.000000 0.000000 -1.000000
vn -0.000000 -0.000000 1.000000
vn 0.000000 0.000000 -1.000000
vn -0.000000 -0.000000 1.000000
vn 0.000000 0.000000 -1.000000
vn -0.000000 -0.000000 1.000000
vn 0.000000 0.000000 -1.000000
vn -0.000000 -0.000000 1.000000
vn 0.000000 0.000000 -1.000000
vn -0.000000 -0.000000 1.000000
vn 0.000000 0.000000 -1.000000
vn -0.000000 -0.000000 1.000000
vn 0.000000 0.000000 -1.000000
vn -0.000000 -0.000000 1.000000
vn 0.000000 0.000000 -1.000000
vn -0.000000 -0.000000 1.000000
vn 0.000000 0.000000 -1.000000
vn -0.909085 0.416610 0.000000
vn -0.909085 0.416610 0.000000
vn -0.839885 0.384897 -0.382683
vn -0.839885 0.384897 -0.382683
vn -0.642821 0.294587 -0.707107
vn -0.642821 0.294587 -0.707107
vn -0.347892 0.159430 -0.923880
vn -0.347892 0.159430 -0.923880
vn -0.000000 0.000000 -1.000000
vn -0.000000 0.000000 -1.000000
vn 0.347892 -0.159430 -0.923880
vn 0.347892 -0.159430 -0.923880
vn 0.642821 -0.294587 -0.707107
vn 0.642821 -0.294587 -0.707107
vn 0.839885 -0.384897 -0.382683
vn 0.839885 -0.384897 -0.382683
vn 0.909085 -0.416610 -0.000000
vn 0.909085 -0.416610 -0.000000
vn 0.839885 -0.384897 0.382683
vn 0.839885 -0.384897 0.382683
vn 0.642821 -0.294587 0.707107
vn 0.642821 -0.294587 0.707107
vn 0.347892 -0.159430 0.923880
vn 0.347892 -0.159430 0.923880
vn 0.000000 -0.000000 1.000000
vn 0.000000 -0.000000 1.000000
vn -0.347892 0.159430 0.923880
vn -0.347892 0.159430 0.923880
vn -0.642821 0.294587 0.707107
vn -0.642821 0.294587 0.707107
vn -0.839885 0.384897 0.382683
vn -0.839885 0.384897 0.382683
vn 0.416610 0.909085 -0.000000
vn -0.416610 -0.909085 0.000000
vn 0.416610 0.909085 -0.000000
vn -0.416610 -0.909085 0.000000
vn 0.416610 0.909085 -0.000000
vn -0.416610 -0.909085 0.000000
vn 0.416610 0.909085 -0.000000
vn -0.416610 -0.909085 0.000000
vn 0.416610 0.909085 -0.000000
vn -0.416610 -0.909085 0.000000
vn 0.416610 0.909085 -0.000000
vn -0.416610 -0.909085 0.000000
vn 0.416610 0.909085 -0.000000
vn -0.416610 -0.909085 0.000000
vn 0.416610 0.909085 -0.000000
vn -0.416610 -0.909085 0.000000
vn 0.416610 0.909085 -0.000000
vn -0.416610 -0.909085 0.000000
vn 0.416610 0.909085 -0.000000
vn -0.416610 -0.909085 0.000000
vn 0.416610 0.909085 -0.000000
vn -0.416610 -0.909085 0.000000
vn 0.416610 0.909085 -0.000000
vn -0.416610 -0.909085 0.000000
vn 0.416610 0.909085 -0.000000
vn -0.416610 -0.909085 0.000000
vn 0.416610 0.909085 -0.000000
vn -0.416610 -0.909085 0.000000
vn 0.416610 0.909085 -0.000000
vn -0.416610 -0.909085 0.000000
vn 0.416610 0.909085 -0.000000
vn -0.416610 -0.909085 0.000000
vn 0.416610 0.909085 -0.000000
vn -0.416610 -0.909085 0.000000
vn -0.909085 0.416610 0.000000
vn -0.909085 0.416610 0.000000
vn -0.839885 0.384897 -0.382683
vn -0.839885 0.384897 -0.382683
vn -0.642821 0.294587 -0.707107
vn -0.642821 0.294587 -0.707107
vn -0.347892 0.159430 -0.923880
vn -0.347892 0.159430 -0.923880
vn -0.000000 0.000000 -1.000000
vn -0.000000 0.000000 -1.000000
vn 0.347892 -0.159430 -0.923880
vn 0.347892 -0.159430 -0.923880
vn 0.642821 -0.294587 -0.707107
vn 0.642821 -0.294587 -0.707107
vn 0.839885 -0.384897 -0.382683
vn 0.839885 -0.384897 -0.382683
vn 0.909085 -0.416610 -0.000000
vn 0.909085 -0.416610 -0.000000
vn 0.839885 -0.384897 0.382683
vn 0.839885 -0.384897 0.382683
vn 0.642821 -0.294587 0.707107
vn 0.642821 -0.294587 0.707107
vn 0.347892 -0.159430 0.923880
vn 0.347892 -0.159430 0.923880
vn 0.000000 -0.000000 1.000000
vn 0.000000 -0.000000 1.000000
vn -0.347892 0.159430 0.923880
vn -0.347892 0.159430 0.923880
vn -0.642821 0.294587 0.707107
vn -0.642821 0.294587 0.707107
vn -0.839885 0.384897 0.382683
vn -0.839885 0.384897 0.382683
vn 0.416610 0.909085 -0.000000
vn -0.416610 -0.909085 0.000000
vn 0.416610 0.909085 -0.000000
vn -0.416610 -0.909085 0.000000
vn 0.416610 0.909085 -0.000000
vn -0.416610 -0.909085 0.000000
vn 0.416610 0.909085 -0.000000
vn -0.416610 -0.909085 0.000000
vn 0.416610 0.909085 -0.000000
vn -0.416610 -0.909085 0.000000
vn 0.416610 0.909085 -0.000000
vn -0.416610 -0.909085 0.000000
vn 0.416610 0.909085 -0.000000
vn -0.416610 -0.909085 0.000000
vn 0.416610 0.909085 -0.000000
vn -0.416610 -0.909085 0.000000
vn 0.416610 0.909085 -0.000000
vn -0.416610 -0.909085 0.000000
vn 0.416610 0.909085 -0.000000
vn -0.416610 -0.909085 0.000000
vn 0.416610 0.909085 -0.000000
vn -0.416610 -0.909085 0.000000
vn 0.416610 0.909085 -0.000000
vn -0.416610 -0.909085 0.000000
vn 0.416610 0.909085 -0.000000
vn -0.416610 -0.909085 0.000000
vn 0.416610 0.909085 -0.000000
vn -0.416610 -0.909085 0.000000
vn 0.416610 0.909085 -0.000000
vn -0.416610 -0.909085 0.000000
vn 0.416610 0.909085 -0.000000
vn -0.416610 -0.909085 0.000000
vn 0.416610 0.909085 -0.000000
vn -0.416610 -0.909085 0.000000
vn 1.000000 -0.000000 0.000000
vn 1.000000 -0.000000 0.000000
vn 0.923880 -0.382683 0.000000
vn 0.923880 -0.382683 0.000000
vn 0.707107 -0.707107 0.000000
vn 0.707107 -0.707107 0.000000
vn 0.382683 -0.923880 0.000000
vn 0.382683 -0.923880 0.000000
vn 0.000000 -1.000000 0.000000
vn 0.000000 -1.000000 0.000000
vn -0.382683 -0.923880 -0.000000
vn -0.382683 -0.923880 -0.000000
vn -0.707107 -0.707107 -0.000000
vn -0.707107 -0.707107 -0.000000
vn -0.923880 -0.382683 -0.000000
vn -0.923880 -0.382683 -0.000000
vn -1.000000 -0.000000 -0.000000
vn -1.000000 -0.000000 -0.000000
vn -0.923880 0.382683 0.000000
vn -0.923880 0.382683 0.000000
vn -0.707107 0.707107 0.000000
vn -0.707107 0.707107 0.000000
vn -0.382683 0.923880 0.000000
vn -0.382683 0.923880 0.000000
vn -0.000000 1.000000 0.000000
vn -0.000000 1.000000 0.000000
vn 0.382683 0.923880 0.000000
vn 0.382683 0.923880 0.000000
vn 0.707107 0.707107 0.000000
vn 0.707107 0.707107 0.000000
vn 0.923880 0.382683 0.000000
vn 0.923880 0.382683 0.000000
vn -0.000000 -0.000000 1.000000
vn 0.000000 0.000000 -1.000000
vn -0.000000 -0.000000 1.000000
vn 0.000000 0.000000 -1.000000
vn -0.000000 -0.000000 1.000000
vn 0.000000 0.000000 -1.000000
vn -0.000000 -0.000000 1.000000
vn 0.000000 0.000000 -1.000000
vn -0.000000 -0.000000 1.000000
vn 0.000000 0.000000 -1.000000
vn -0.000000 -0.000000 1.000000
vn 0.000000 0.000000 -1.000000
vn -0.000000 -0.000000 1.000000
vn 0.000000 0.000000 -1.000000
vn -0.000000 -0.000000 1.000000
vn 0.000000 0.000000 -1.000000
vn -0.000000 -0.000000 1.000000
vn 0.000000 0.000000 -1.000000
vn -0.000000 -0.000000 1.000000
vn 0.000000 0.000000 -1.000000
vn -0.000000 -0.000000 1.000000
vn 0.000000 0.000000 -1.000000
vn -0.000000 -0.000000 1.000000
vn 0.000000 0.000000 -1.000000
vn -0.000000 -0.000000 1.000000
vn 0.000000 0.000000 -1.000000
vn -0.000000 -0.000000 1.000000
vn 0.000000 0.000000 -1.000000
vn -0.000000 -0.000000 1.000000
vn 0.000000 0.000000 -1.000000
vn -0.000000 -0.000000 1.000000
vn 0.000000 0.000000 -1.000000
vn -0.000000 -0.000000 1.000000
vn 0.000000 0.000000 -1.000000
vn 1.000000 -0.000000 0.000000
vn 1.000000 -0.000000 0.000000
vn 0.923880 -0.382683 0.000000
vn 0.923880 -0.382683 0.000000
vn 0.707107 -0.707107 0.000000
vn 0.707107 -0.707107 0.000000
vn 0.382683 -0.923880 0.000000
vn 0.382683 -0.923880 0.000000
vn 0.000000 -1.000000 0.000000
vn 0.000000 -1.000000 0.000000
vn -0.382683 -0.923880 -0.000000
vn -0.382683 -0.923880 -0.000000
vn -0.707107 -0.707107 -0.000000
vn -0.707107 -0.707107 -0.000000
vn -0.923880 -0.382683 -0.000000
vn -0.923880 -0.382683 -0.000000
vn -1.000000 -0.000000 -0.000000
vn -1.000000 -0.000000 -0.000000
vn -0.923880 0.382683 0.000000
vn -0.923880 0.382683 0.000000
vn -0.707107 0.707107 0.000000
vn -0.707107 0.707107 0.000000
vn -0.382683 0.923880 0.000000
vn -0.382683 0.923880 0.000000
vn -0.000000 1.000000 0.000000
vn -0.000000 1.000000 0.000000
vn 0.382683 0.923880 0.000000
vn 0.382683 0.923880 0.000000
vn 0.707107 0.707107 0.000000
vn 0.707107 0.707107 0.000000
vn 0.923880 0.382683 0.000000
vn 0.923880 0.382683 0.000000
vn -0.000000 -0.000000 1.000000
vn 0.000000 0.000000 -1.000000
vn -0.000000 -0.000000 1.000000
vn 0.000000 0.000000 -1.000000
vn -0.000000 -0.000000 1.000000
vn 0.000000 0.000000 -1.000000
vn -0.000000 -0.000000 1.000000
vn 0.000000 0.000000 -1.000000
vn -0.000000 -0.000000 1.000000
vn 0.000000 0.000000 -1.000000
vn -0.000000 -0.000000 1.000000
vn 0.000000 0.000000 -1.000000
vn -0.000000 -0.000000 1.000000
vn 0.000000 0.000000 -1.000000
vn -0.000000 -0.000000 1.000000
vn 0.000000 0.000000 -1.000000
vn -0.000000 -0.000000 1.000000
vn 0.000000 0.000000 -1.000000
vn -0.000000 -0.000000 1.000000
vn 0.000000 0.000000 -1.000000
vn -0.000000 -0.000000 1.000000
vn 0.000000 0.000000 -1.000000
vn -0.000000 -0.000000 1.000000
vn 0.000000 0.000000 -1.000000
vn -0.000000 -0.000000 1.000000
vn 0.000000 0.000000 -1.000000
vn -0.000000 -0.000000 1.000000
vn 0.000000 0.000000 -1.000000
vn -0.000000 -0.000000 1.000000
vn 0.000000 0.000000 -1.000000
vn -0.000000 -0.000000 1.000000
vn 0.000000 0.000000 -1.000000
vn -0.000000 -0.000000 1.000000
vn 0.000000 0.000000 -1.000000
vn -0.966960 -0.254929 0.000000
vn -0.966960 -0.254929 0.000000
vn -0.893354 -0.235524 -0.382683
vn -0.893354 -0.235524 -0.382683
vn -0.683744 -0.180262 -0.707107
vn -0.683744 -0.180262 -0.707107
vn -0.370039 -0.097557 -0.923880
vn -0.370039 -0.097557 -0.923880
vn -0.000000 -0.000000 -1.000000
vn -0.000000 -0.000000 -1.000000
vn 0.370039 0.097557 -0.923880
vn 0.370039 0.097557 -0.923880
vn 0.683744 0.180262 -0.707107
vn 0.683744 0.180262 -0.707107
vn 0.893354 0.235524 -0.382683
vn 0.893354 0.235524 -0.382683
vn 0.966960 0.254929 -0.000000
vn 0.966960 0.254929 -0.000000
vn 0.893354 0.235524 0.382683
vn 0.893354 0.235524 0.382683
vn 0.683744 0.180262 0.707107
vn 0.683744 0.180262 0.707107
vn 0.370039 0.097557 0.923880
vn 0.370039 0.097557 0.923880
vn 0.000000 0.000000 1.000000
vn 0.000000 0.000000 1.000000
vn -0.370039 -0.097557 0.923880
vn -0.370039 -0.097557 0.923880
vn -0.683744 -0.180262 0.707107
vn -0.683744 -0.180262 0.707107
vn -0.893354 -0.235524 0.382683
vn -0.893354 -0.235524 0.382683
vn -0.254929 0.966960 -0.000000
vn 0.254929 -0.966960 0.000000
vn -0.254929 0.966960 -0.000000
vn 0.254929 -0.966960 0.000000
vn -0.254929 0.966960 -0.000000
vn 0.254929 -0.966960 0.000000
vn -0.254929 0.966960 -0.000000
vn 0.254929 -0.966960 0.000000
vn -0.254929 0.966960 -0.000000
vn 0.254929 -0.966960 0.000000
vn -0.254929 0.966960 -0.000000
vn 0.254929 -0.966960 0.000000
vn -0.254929 0.966960 -0.000000
vn 0.254929 -0.966960 0.000000
vn -0.254929 0.966960 -0.000000
vn 0.254929 -0.966960 0.000000
vn -0.254929 0.966960 -0.000000
vn 0.254929 -0.966960 0.000000
vn -0.254929 0.966960 -0.000000
vn 0.254929 -0.966960 0.000000
vn -0.254929 0.966960 -0.000000
vn 0.254929 -0.966960 0.000000
vn -0.254929 0.966960 -0.000000
vn 0.254929 -0.966960 0.000000
vn -0.254929 0.966960 -0.000000
vn 0.254929 -0.966960 0.000000
vn -0.254929 0.966960 -0.000000
vn 0.254929 -0.966960 0.000000
vn -0.254929 0.966960 -0.000000
vn 0.254929 -0.966960 0.000000
vn -0.254929 0.966960 -0.000000
vn 0.254929 -0.966960 0.000000
vn -0.254929 0.966960 -0.000000
vn 0.254929 -0.966960 0.000000
vn -0.966960 -0.254929 0.000000
vn -0.966960 -0.254929 0.000000
vn -0.893354 -0.235524 -0.382683
vn -0.893354 -0.235524 -0.382683
vn -0.683744 -0.180262 -0.707107
vn -0.683744 -0.180262 -0.707107
vn -0.370039 -0.097557 -0.923880
vn -0.370039 -0.097557 -0.923880
vn -0.000000 -0.000000 -1.000000
vn -0.000000 -0.000000 -1.000000
vn 0.370039 0.097557 -0.923880
vn 0.370039 0.097557 -0.923880
vn 0.683744 0.180262 -0.707107
vn 0.683744 0.180262 -0.707107
vn 0.893354 0.235524 -0.382683
vn 0.893354 0.235524 -0.382683
vn 0.966960 0.254929 -0.000000
vn 0.966960 0.254929 -0.000000
vn 0.893354 0.235524 0.382683
vn 0.893354 0.235524 0.382683
vn 0.683744 0.180262 0.707107
vn 0.683744 0.180262 0.707107
vn 0.370039 0.097557 0.923880
vn 0.370039 0.097557 0.923880
vn 0.000000 0.000000 1.000000
vn 0.000000 0.000000 1.000000
vn -0.370039 -0.097557 0.923880
vn -0.370039 -0.097557 0.923880
vn -0.683744 -0.180262 0.707107
vn -0.683744 -0.180262 0.707107
vn -0.893354 -0.235524 0.382683
vn -0.893354 -0.235524 0.382683
vn -0.254929 0.966960 -0.000000
vn 0.254929 -0.966960 0.000000
vn -0.254929 0.966960 -0.000000
vn 0.254929 -0.966960 0.000000
vn -0.254929 0.966960 -0.000000
vn 0.254929 -0.966960 0.000000
vn -0.254929 0.966960 -0.000000
vn 0.254929 -0.966960 0.000000
vn -0.254929 0.966960 -0.000000
vn 0.254929 -0.966960 0.000000
vn -0.254929 0.966960 -0.000000
vn 0.254929 -0.966960 0.000000
vn -0.254929 0.966960 -0.000000
vn 0.254929 -0.966960 0.000000
vn -0.254929 0.966960 -0.000000
vn 0.254929 -0.966960 0.000000
vn -0.254929 0.966960 -0.000000
vn 0.254929 -0.966960 0.000000
vn -0.254929 0.966960 -0.000000
vn 0.254929 -0.966960 0.000000
vn -0.254929 0.966960 -0.000000
vn 0.254929 -0.966960 0.000000
vn -0.254929 0.966960 -0.000000
vn 0.254929 -0.966960 0.000000
vn -0.254929 0.966960 -0.000000
vn 0.254929 -0.966960 0.000000
vn -0.254929 0.966960 -0.000000
vn 0.254929 -0.966960 0.000000
vn -0.254929 0.966960 -0.000000
vn 0.254929 -0.966960 0.000000
vn -0.254929 0.966960 -0.000000
vn 0.254929 -0.966960 0.000000
vn -0.254929 0.966960 -0.000000
vn 0.254929 -0.966960 0.000000
f 1//1 3//3 4//4
f 1//1 4//4 2//2
f 3//3 5//5 6//6
f 3//3 6//6 4//4
f 5//5 7//7 8//8
f 5//5 8//8 6//6
f 7//7 9//9 10//10
f 7//7 10//10 8//8
f 9//9 11//11 12//12
f 9//9 12//12 10//10
f 11//11 13//13 14//14
f 11//11 14//14 12//12
f 13//13 15//15 16//16
f 13//13 16//16 14//14
f 15//15 17//17 18//18
f 15//15 18//18 16//16
f 17//17 19//19 20//20
f 17//17 20//20 18//18
f 19//19 21//21 22//22
f 19//19 22//22 20//20
f 21//21 23//23 24//24
f 21//21 24//24 22//22
f 23//23 25//25 26//26
f 23//23 26//26 24//24
f 25//25 27//27 28//28
f 25//25 28//28 26//26
f 27//27 29//29 30//30
f 27//27 30//30 28//28
f 29//29 31//31 32//32
f 29//29 32//32 30//30
f 31//31 1//1 2//2
f 31//31 2//2 32//32
f 33//35 3//35 1//35
f 34//36 2//36 4//36
f 33//37 5//37 3//37
f 34//38 4//38 6//38
f 33//39 7//39 5//39
f 34//40 6//40 8//40
f 33//41 9//41 7//41
f 34//42 8//42 10//42
f 33//43 11//43 9//43
f 34//44 10//44 12//44
f 33//45 13//45 11//45
f 34//46 12//46 14//46
f 33//47 15//47 13//47
f 34//48 14//48 16//48
f 33//49 17//49 15//49
f 34//50 16//50 18//50
f 33//51 19//51 17//51
f 34//52 18//52 20//52
f 33//53 21//53 19//53
f 34//54 20//54 22//54
f 33//55 23//55 21//55
f 34//56 22//56 24//56
f 33//57 25//57 23//57
f 34//58 24//58 26//58
f 33//59 27//59 25//59
f 34//60 26//60 28//60
f 33//61 29//61 27//61
f 34//62 28//62 30//62
f 33//63 31//63 29//63
f 34//64 30//64 32//64
f 33//65 1//65 31//65
f 34//66 32//66 2//66
f 35//67 37//69 38//70
f 35//67 38//70 36//68
f 37//69 39//71 40//72
f 37//69 40//72 38//70
f 39//71 41//73 42//74
f 39//71 42//74 40//72
f 41//73 43//75 44//76
f 41//73 44//76 42//74
f 43//75 45//77 46//78
f 43//75 46//78 44//76
f 45//77 47//79 48//80
f 45//77 48//80 46//78
f 47//79 49//81 50//82
f 47//79 50//82 48//80
f 49//81 51//83 52//84
f 49//81 52//84 50//82
f 51//83 53//85 54//86
f 51//83 54//86 52//84
f 53//85 55//87 56//88
f 53//85 56//88 54//86
f 55//87 57//89 58//90
f 55//87 58//90 56//88
f 57//89 59//91 60//92
f 57//89 60//92 58//90
f 59//91 61//93 62//94
f 59//91 62//94 60//92
f 61//93 63//95 64//96
f 61//93 64//96 62//94
f 63//95 65//97 66//98
f 63//95 66//98 64//96
f 65//97 35//67 36//68
f 65//97 36//68 66//98
f 67//101 37//101 35//101
f 68//102 36//102 38//102
f 67//103 39//103 37//103
f 68//104 38//104 40//104
f 67//105 41//105 39//105
f 68//106 40//106 42//106
f 67//107 43//107 41//107
f 68//108 42//108 44//108
f 67//109 45//109 43//109
f 68//110 44//110 46//110
f 67//111 47//111 45//111
f 68//112 46//112 48//112
f 67//113 49//113 47//113
f 68//114 48//114 50//114
f 67//115 51//115 49//115
f 68//116 50//116 52//116
f 67//117 53//117 51//117
f 68//118 52//118 54//118
f 67//119 55//119 53//119
f 68//120 54//120 56//120
f 67//121 57//121 55//121
f 68//122 56//122 58//122
f 67//123 59//123 57//123
f 68//124 58//124 60//124
f 67//125 61//125 59//125
f 68//126 60//126 62//126
f 67//127 63//127 61//127
f 68//128 62//128 64//128
f 67//129 65//129 63//129
f 68//130 64//130 66//130
f 67//131 35//131 65//131
f 68//132 66//132 36//132
f 69//133 71//135 72//136
f 69//133 72//136 70//134
f 71//135 73//137 74//138
f 71//135 74//138 72//136
f 73//137 75//139 76//140
f 73//137 76//140 74//138
f 75//139 77//141 78//142
f 75//139 78//142 76//140
f 77//141 79//143 80//144
f 77//141 80//144 78//142
f 79//143 81//145 82//146
f 79//143 82//146 80//144
f 81//145 83//147 84//148
f 81//145 84//148 82//146
f 83//147 85//149 86//150
f 83//147 86//150 84//148
f 85//149 87//151 88//152
f 85//149 88//152 86//150
f 87//151 89//153 90//154
f 87//151 90//154 88//152
f 89//153 91//155 92//156
f 89//153 92//156 90//154
f 91//155 93//157 94//158
f 91//155 94//158 92//156
f 93//157 95//159 96//160
f 93//157 96//160 94//158
f 95//159 97//161 98//162
f 95//159 98//162 96//160
f 97//161 99//163 100//164
f 97//161 100//164 98//162
f 99//163 69//133 70//134
f 99//163 70//134 100//164
f 101//167 71//167 69//167
f 102//168 70//168 72//168
f 101//169 73//169 71//169
f 102//170 72//170 74//170
f 101//171 75//171 73//171
f 102//172 74//172 76//172
f 101//173 77//173 75//173
f 102//174 76//174 78//174
f 101//175 79//175 77//175
f 102//176 78//176 80//176
f 101//177 81//177 79//177
f 102//178 80//178 82//178
f 101//179 83//179 81//179
f 102//180 82//180 84//180
f 101//181 85//181 83//181
f 102//182 84//182 86//182
f 101//183 87//183 85//183
f 102//184 86//184 88//184
f 101//185 89//185 87//185
f 102//186 88//186 90//186
f 101//187 91//187 89//187
f 102//188 90//188 92//188
f 101//189 93//189 91//189
f 102//190 92//190 94//190
f 101//191 95//191 93//191
f 102//192 94//192 96//192
f 101//193 97//193 95//193
f 102//194 96//194 98//194
f 101//195 99//195 97//195
f 102//196 98//196 100//196
f 101//197 69//197 99//197
f 102//198 100//198 70//198
f 103//199 105//201 106//202
f 103//199 106//202 104//200
f 105//201 107//203 108//204
f 105//201 108//204 106//202
f 107//203 109//205 110//206
f 107//203 110//206 108//204
f 109//205 111//207 112//208
f 109//205 112//208 110//206
f 111//207 113//209 114//210
f 111//207 114//210 112//208
f 113//209 115//211 116//212
f 113//209 116//212 114//210
f 115//211 117//213 118//214
f 115//211 118//214 116//212
f 117//213 119//215 120//216
f 117//213 120//216 118//214
f 119//215 121//217 122//218
f 119//215 122//218 120//216
f 121//217 123//219 124//220
f 121//217 124//220 122//218
f 123//219 125//221 126//222
f 123//219 126//222 124//220
f 125//221 127//223 128//224
f 125//221 128//224 126//222
f 127//223 129//225 130//226
f 127//223 130//226 128//224
f 129//225 131//227 132//228
f 129//225 132//228 130//226
f 131//227 133//229 134//230
f 131//227 134//230 132//228
f 133//229 103//199 104//200
f 133//229 104//200 134//230
f 135//233 105//233 103//233
f 136//234 104//234 106//234
f 135//235 107//235 105//235
f 136//236 106//236 108//236
f 135//237 109//237 107//237
f 136//238 108//238 110//238
f 135//239 111//239 109//239
f 136//240 110//240 112//240
f 135//241 113//241 111//241
f 136//242 112//242 114//242
f 135//243 115//243 113//243
f 136//244 114//244 116//244
f 135//245 117//245 115//245
f 136//246 116//246 118//246
f 135//247 119//247 117//247
f 136//248 118//248 120//248
f 135//249 121//249 119//249
f 136//250 120//250 122//250
f 135//251 123//251 121//251
f 136//252 122//252 124//252
f 135//253 125//253 123//253
f 136//254 124//254 126//254
f 135//255 127//255 125//255
f 136//256 126//256 128//256
f 135//257 129//257 127//257
f 136//258 128//258 130//258
f 135//259 131//259 129//259
f 136//260 130//260 132//260
f 135//261 133//261 131//261
f 136//262 132//262 134//262
f 135//263 103//263 133//263
f 136//264 134//264 104//264
f 137//265 139//267 140//268
f 137//265 140//268 138//266
f 139//267 141//269 142//270
f 139//267 142//270 140//268
f 141//269 143//271 144//272
f 141//269 144//272 142//270
f 143//271 145//273 146//274
f 143//271 146//274 144//272
f 145//273 147//275 148//276
f 145//273 148//276 146//274
f 147//275 149//277 150//278
f 147//275 150//278 148//276
f 149//277 151//279 152//280
f 149//277 152//280 150//278
f 151//279 153//281 154//282
f 151//279 154//282 152//280
f 153//281 155//283 156//284
f 153//281 156//284 154//282
f 155//283 157//285 158//286
f 155//283 158//286 156//284
f 157//285 159//287 160//288
f 157//285 160//288 158//286
f 159//287 161//289 162//290
f 159//287 162//290 160//288
f 161//289 163//291 164//292
f 161//289 164//292 162//290
f 163//291 165//293 166//294
f 163//291 166//294 164//292
f 165//293 167//295 168//296
f 165//293 168//296 166//294
f 167//295 137//265 138//266
f 167//295 138//266 168//296
f 169//299 139//299 137//299
f 170//300 138//300 140//300
f 169//301 141//301 139//301
f 170//302 140//302 142//302
f 169//303 143//303 141//303
f 170//304 142//304 144//304
f 169//305 145//305 143//305
f 170//306 144//306 146//306
f 169//307 147//307 145//307
f 170//308 146//308 148//308
f 169//309 149//309 147//309
f 170//310 148//310 150//310
f 169//311 151//311 149//311
f 170//312 150//312 152//312
f 169//313 153//313 151//313
f 170//314 152//314 154//314
f 169//315 155//315 153//315
f 170//316 154//316 156//316
f 169//317 157//317 155//317
f 170//318 156//318 158//318
f 169//319 159//319 157//319
f 170//320 158//320 160//320
f 169//321 161//321 159//321
f 170//322 160//322 162//322
f 169//323 163//323 161//323
f 170//324 162//324 164//324
f 169//325 165//325 163//325
f 170//326 164//326 166//326
f 169//327 167//327 165//327
f 170//328 166//328 168//328
f 169//329 137//329 167//329
f 170//330 168//330 138//330
f 171//331 173//333 174//334
f 171//331 174//334 172//332
f 173//333 175//335 176//336
f 173//333 176//336 174//334
f 175//335 177//337 178//338
f 175//335 178//338 176//336
f 177//337 179//339 180//340
f 177//337 180//340 178//338
f 179//339 181//341 182//342
f 179//339 182//342 180//340
f 181//341 183//343 184//344
f 181//341 184//344 182//342
f 183//343 185//345 186//346
f 183//343 186//346 184//344
f 185//345 187//347 188//348
f 185//345 188//348 186//346
f 187//347 189//349 190//350
f 187//347 190//350 188//348
f 189//349 191//351 192//352
f 189//349 192//352 190//350
f 191//351 193//353 194//354
f 191//351 194//354 192//352
f 193//353 195//355 196//356
f 193//353 196//356 194//354
f 195//355 197//357 198//358
f 195//355 198//358 196//356
f 197//357 199//359 200//360
f 197//357 200//360 198//358
f 199//359 201//361 202//362
f 199//359 202//362 200//360
f 201//361 171//331 172//332
f 201//361 172//332 202//362
f 203//365 173//365 171//365
f 204//366 172//366 174//366
f 203//367 175//367 173//367
f 204//368 174//368 176//368
f 203//369 177//369 175//369
f 204//370 176//370 178//370
f 203//371 179//371 177//371
f 204//372 178//372 180//372
f 203//373 181//373 179//373
f 204//374 180//374 182//374
f 203//375 183//375 181//375
f 204//376 182//376 184//376
f 203//377 185//377 183//377
f 204//378 184//378 186//378
f 203//379 187//379 185//379
f 204//380 186//380 188//380
f 203//381 189//381 187//381
f 204//382 188//382 190//382
f 203//383 191//383 189//383
f 204//384 190//384 192//384
f 203//385 193//385 191//385
f 204//386 192//386 194//386
f 203//387 195//387 193//387
f 204//388 194//388 196//388
f 203//389 197//389 195//389
f 204//390 196//390 198//390
f 203//391 199//391 197//391
f 204//392 198//392 200//392
f 203//393 201//393 199//393
f 204//394 200//394 202//394
f 203//395 171//395 201//395
f 204//396 202//396 172//396
f 205//397 207//399 208//400
f 205//397 208//400 206//398
f 207//399 209//401 210//402
f 207//399 210//402 208//400
f 209//401 211//403 212//404
f 209//401 212//404 210//402
f 211//403 213//405 214//406
f 211//403 214//406 212//404
f 213//405 215//407 216//408
f 213//405 216//408 214//406
f 215//407 217//409 218//410
f 215//407 218//410 216//408
f 217//409 219//411 220//412
f 217//409 220//412 218//410
f 219//411 221//413 222//414
f 219//411 222//414 220//412
f 221//413 223//415 224//416
f 221//413 224//416 222//414
f 223//415 225//417 226//418
f 223//415 226//418 224//416
f 225//417 227//419 228//420
f 225//417 228//420 226//418
f 227//419 229//421 230//422
f 227//419 230//422 228//420
f 229//421 231//423 232//424
f 229//421 232//424 230//422
f 231//423 233//425 234//426
f 231//423 234//426 232//424
f 233//425 235//427 236//428
f 233//425 236//428 234//426
f 235//427 205//397 206//398
f 235//427 206//398 236//428
f 237//431 207//431 205//431
f 238//432 206//432 208//432
f 237//433 209//433 207//433
f 238//434 208//434 210//434
f 237//435 211//435 209//435
f 238//436 210//436 212//436
f 237//437 213//437 211//437
f 238//438 212//438 214//438
f 237//439 215//439 213//439
f 238//440 214//440 216//440
f 237//441 217//441 215//441
f 238//442 216//442 218//442
f 237//443 219//443 217//443
f 238//444 218//444 220//444
f 237//445 221//445 219//445
f 238//446 220//446 222//446
f 237//447 223//447 221//447
f 238//448 222//448 224//448
f 237//449 225//449 223//449
f 238//450 224//450 226//450
f 237//451 227//451 225//451
f 238//452 226//452 228//452
f 237//453 229//453 227//453
f 238//454 228//454 230//454
f 237//455 231//455 229//455
f 238//456 230//456 232//456
f 237//457 233//457 231//457
f 238//458 232//458 234//458
f 237//459 235//459 233//459
f 238//460 234//460 236//460
f 237//461 205//461 235//461
f 238//462 236//462 206//462
f 239//463 241//465 242//466
f 239//463 242//466 240//464
f 241//465 243//467 244//468
f 241//465 244//468 242//466
f 243//467 245//469 246//470
f 243//467 246//470 244//468
f 245//469 247//471 248//472
f 245//469 248//472 246//470
f 247//471 249//473 250//474
f 247//471 250//474 248//472
f 249//473 251//475 252//476
f 249//473 252//476 250//474
f 251//475 253//477 254//478
f 251//475 254//478 252//476
f 253//477 255//479 256//480
f 253//477 256//480 254//478
f 255//479 257//481 258//482
f 255//479 258//482 256//480
f 257//481 259//483 260//484
f 257//481 260//484 258//482
f 259//483 261//485 262//486
f 259//483 262//486 260//484
f 261//485 263//487 264//488
f 261//485 264//488 262//486
f 263//487 265//489 266//490
f 263//487 266//490 264//488
f 265//489 267//491 268//492
f 265//489 268//492 266//490
f 267//491 269//493 270//494
f 267//491 270//494 268//492
f 269//493 239//463 240//464
f 269//493 240//464 270//494
f 271//497 241//497 239//497
f 272//498 240//498 242//498
f 271//499 243//499 241//499
f 272//500 242//500 244//500
f 271//501 245//501 243//501
f 272//502 244//502 246//502
f 271//503 247//503 245//503
f 272//504 246//504 248//504
f 271//505 249//505 247//505
f 272//506 248//506 250//506
f 271//507 251//507 249//507
f 272//508 250//508 252//508
f 271//509 253//509 251//509
f 272//510 252//510 254//510
f 271//511 255//511 253//511
f 272//512 254//512 256//512
f 271//513 257//513 255//513
f 272//514 256//514 258//514
f 271//515 259//515 257//515
f 272//516 258//516 260//516
f 271//517 261//517 259//517
f 272//518 260//518 262//518
f 271//519 263//519 261//519
f 272//520 262//520 264//520
f 271//521 265//521 263//521
f 272//522 264//522 266//522
f 271//523 267//523 265//523
f 272//524 266//524 268//524
f 271//525 269//525 267//525
f 272//526 268//526 270//526
f 271//527 239//527 269//527
f 272//528 270//528 240//528
f 273//529 275//531 276//532
f 273//529 276//532 274//530
f 275//531 277//533 278//534
f 275//531 278//534 276//532
f 277//533 279//535 280//536
f 277//533 280//536 278//534
f 279//535 281//537 282//538
f 279//535 282//538 280//536
f 281//537 283//539 284//540
f 281//537 284//540 282//538
f 283//539 285//541 286//542
f 283//539 286//542 284//540
f 285//541 287//543 288//544
f 285//541 288//544 286//542
f 287//543 289//545 290//546
f 287//543 290//546 288//544
f 289//545 291//547 292//548
f 289//545 292//548 290//546
f 291//547 293//549 294//550
f 291//547 294//550 292//548
f 293//549 295//551 296//552
f 293//549 296//552 294//550
f 295//551 297//553 298//554
f 295//551 298//554 296//552
f 297//553 299//555 300//556
f 297//553 300//556 298//554
f 299//555 301//557 302//558
f 299//555 302//558 300//556
f 301//557 303//559 304//560
f 301//557 304//560 302//558
f 303//559 273//529 274//530
f 303//559 274//530 304//560
f 305//563 275//563 273//563
f 306//564 274//564 276//564
f 305//565 277//565 275//565
f 306//566 276//566 278//566
f 305//567 279//567 277//567
f 306//568 278//568 280//568
f 305//569 281//569 279//569
f 306//570 280//570 282//570
f 305//571 283//571 281//571
f 306//572 282//572 284//572
f 305//573 285//573 283//573
f 306//574 284//574 286//574
f 305//575 287//575 285//575
f 306//576 286//576 288//576
f 305//577 289//577 287//577
f 306//578 288//578 290//578
f 305//579 291//579 289//579
f 306//580 290//580 292//580
f 305//581 293//581 291//581
f 306//582 292//582 294//582
f 305//583 295//583 293//583
f 306//584 294//584 296//584
f 305//585 297//585 295//585
f 306//586 296//586 298//586
f 305//587 299//587 297//587
f 306//588 298//588 300//588
f 305//589 301//589 299//589
f 306//590 300//590 302//590
f 305//591 303//591 301//591
f 306//592 302//592 304//592
f 305//593 273//593 303//593
f 306//594 304//594 274//594
f 307//595 309//597 310//598
f 307//595 310//598 308//596
f 309//597 311//599 312//600
f 309//597 312//600 310//598
f 311//599 313//601 314//602
f 311//599 314//602 312//600
f 313//601 315//603 316//604
f 313//601 316//604 314//602
f 315//603 317//605 318//606
f 315//603 318//606 316//604
f 317//605 319//607 320//608
f 317//605 320//608 318//606
f 319//607 321//609 322//610
f 319//607 322//610 320//608
f 321//609 323//611 324//612
f 321//609 324//612 322//610
f 323//611 325//613 326//614
f 323//611 326//614 324//612
f 325//613 327//615 328//616
f 325//613 328//616 326//614
f 327//615 329//617 330//618
f 327//615 330//618 328//616
f 329//617 331//619 332//620
f 329//617 332//620 330//618
f 331//619 333//621 334//622
f 331//619 334//622 332//620
f 333//621 335//623 336//624
f 333//621 336//624 334//622
f 335//623 337//625 338//626
f 335//623 338//626 336//624
f 337//625 307//595 308//596
f 337//625 308//596 338//626
f 339//629 309//629 307//629
f 340//630 308//630 310//630
f 339//631 311//631 309//631
f 340//632 310//632 312//632
f 339//633 313//633 311//633
f 340//634 312//634 314//634
f 339//635 315//635 313//635
f 340//636 314//636 316//636
f 339//637 317//637 315//637
f 340//638 316//638 318//638
f 339//639 319//639 317//639
f 340//640 318//640 320//640
f 339//641 321//641 319//641
f 340//642 320//642 322//642
f 339//643 323//643 321//643
f 340//644 322//644 324//644
f 339//645 325//645 323//645
f 340//646 324//646 326//646
f 339//647 327//647 325//647
f 340//648 326//648 328//648
f 339//649 329//649 327//649
f 340//650 328//650 330//650
f 339//651 331//651 329//651
f 340//652 330//652 332//652
f 339//653 333//653 331//653
f 340//654 332//654 334//654
f 339//655 335//655 333//655
f 340//656 334//656 336//656
f 339//657 337//657 335//657
f 340//658 336//658 338//658
f 339//659 307//659 337//659
f 340//660 338//660 308//660
f 341//661 343//663 344//664
f 341//661 344//664 342//662
f 343//663 345//665 346//666
f 343//663 346//666 344//664
f 345//665 347//667 348//668
f 345//665 348//668 346//666
f 347//667 349//669 350//670
f 347//667 350//670 348//668
f 349//669 351//671 352//672
f 349//669 352//672 350//670
f 351//671 353//673 354//674
f 351//671 354//674 352//672
f 353//673 355//675 356//676
f 353//673 356//676 354//674
f 355//675 357//677 358//678
f 355//675 358//678 356//676
f 357//677 359//679 360//680
f 357//677 360//680 358//678
f 359//679 361//681 362//682
f 359//679 362//682 360//680
f 361//681 363//683 364//684
f 361//681 364//684 362//682
f 363//683 365//685 366//686
f 363//683 366//686 364//684
f 365//685 367//687 368//688
f 365//685 368//688 366//686
f 367//687 369//689 370//690
f 367//687 370//690 368//688
f 369//689 371//691 372//692
f 369//689 372//692 370//690
f 371//691 341//661 342//662
f 371//691 342//662 372//692
f 373//695 343//695 341//695
f 374//696 342//696 344//696
f 373//697 345//697 343//697
f 374//698 344//698 346//698
f 373//699 347//699 345//699
f 374//700 346//700 348//700
f 373//701 349//701 347//701
f 374//702 348//702 350//702
f 373//703 351//703 349//703
f 374//704 350//704 352//704
f 373//705 353//705 351//705
f 374//706 352//706 354//706
f 373//707 355//707 353//707
f 374//708 354//708 356//708
f 373//709 357//709 355//709
f 374//710 356//710 358//710
f 373//711 359//711 357//711
f 374//712 358//712 360//712
f 373//713 361//713 359//713
f 374//714 360//714 362//714
f 373//715 363//715 361//715
f 374//716 362//716 364//716
f 373//717 365//717 363//717
f 374//718 364//718 366//718
f 373//719 367//719 365//719
f 374//720 366//720 368//720
f 373//721 369//721 367//721
f 374//722 368//722 370//722
f 373//723 371//723 369//723
f 374//724 370//724 372//724
f 373//725 341//725 371//725
f 374//726 372//726 342//726
f 375//727 377//729 378//730
f 375//727 378//730 376//728
f 377//729 379//731 380//732
f 377//729 380//732 378//730
f 379//731 381//733 382//734
f 379//731 382//734 380//732
f 381//733 383//735 384//736
f 381//733 384//736 382//734
f 383//735 385//737 386//738
f 383//735 386//738 384//736
f 385//737 387//739 388//740
f 385//737 388//740 386//738
f 387//739 389//741 390//742
f 387//739 390//742 388//740
f 389//741 391//743 392//744
f 389//741 392//744 390//742
f 391//743 393//745 394//746
f 391//743 394//746 392//744
f 393//745 395//747 396//748
f 393//745 396//748 394//746
f 395//747 397//749 398//750
f 395//747 398//750 396//748
f 397//749 399//751 400//752
f 397//749 400//752 398//750
f 399//751 401//753 402//754
f 399//751 402//754 400//752
f 401//753 403//755 404//756
f 401//753 404//756 402//754
f 403//755 405//757 406//758
f 403//755 406//758 404//756
f 405//757 375//727 376//728
f 405//757 376//728 406//758
f 407//761 377//761 375//761
f 408//762 376//762 378//762
f 407//763 379//763 377//763
f 408//764 378//764 380//764
f 407//765 381//765 379//765
f 408//766 380//766 382//766
f 407//767 383//767 381//767
f 408//768 382//768 384//768
f 407//769 385//769 383//769
f 408//770 384//770 386//770
f 407//771 387//771 385//771
f 408//772 386//772 388//772
f 407//773 389//773 387//773
f 408//774 388//774 390//774
f 407//775 391//775 389//775
f 408//776 390//776 392//776
f 407//777 393//777 391//777
f 408//778 392//778 394//778
f 407//779 395//779 393//779
f 408//780 394//780 396//780
f 407//781 397//781 395//781
f 408//782 396//782 398//782
f 407//783 399//783 397//783
f 408//784 398//784 400//784
f 407//785 401//785 399//785
f 408//786 400//786 402//786
f 407//787 403//787 401//787
f 408//788 402//788 404//788
f 407//789 405//789 403//789
f 408//790 404//790 406//790
f 407//791 375//791 405//791
f 408//792 406//792 376//792
f 409//793 411//795 412//796
f 409//793 412//796 410//794
f 411//795 413//797 414//798
f 411//795 414//798 412//796
f 413//797 415//799 416//800
f 413//797 416//800 414//798
f 415//799 417//801 418//802
f 415//799 418//802 416//800
f 417//801 419//803 420//804
f 417//801 420//804 418//802
f 419//803 421//805 422//806
f 419//803 422//806 420//804
f 421//805 423//807 424//808
f 421//805 424//808 422//806
f 423//807 425//809 426//810
f 423//807 426//810 424//808
f 425//809 427//811 428//812
f 425//809 428//812 426//810
f 427//811 429//813 430//814
f 427//811 430//814 428//812
f 429//813 431//815 432//816
f 429//813 432//816 430//814
f 431//815 433//817 434//818
f 431//815 434//818 432//816
f 433//817 435//819 436//820
f 433//817 436//820 434//818
f 435//819 437//821 438//822
f 435//819 438//822 436//820
f 437//821 439//823 440//824
f 437//821 440//824 438//822
f 439//823 409//793 410//794
f 439//823 410//794 440//824
f 441//827 411//827 409//827
f 442//828 410//828 412//828
f 441//829 413//829 411//829
f 442//830 412//830 414//830
f 441//831 415//831 413//831
f 442//832 414//832 416//832
f 441//833 417//833 415//833
f 442//834 416//834 418//834
f 441//835 419//835 417//835
f 442//836 418//836 420//836
f 441//837 421//837 419//837
f 442//838 420//838 422//838
f 441//839 423//839 421//839
f 442//840 422//840 424//840
f 441//841 425//841 423//841
f 442//842 424//842 426//842
f 441//843 427//843 425//843
f 442//844 426//844 428//844
f 441//845 429//845 427//845
f 442//846 428//846 430//846
f 441//847 431//847 429//847
f 442//848 430//848 432//848
f 441//849 433//849 431//849
f 442//850 432//850 434//850
f 441//851 435//851 433//851
f 442//852 434//852 436//852
f 441//853 437//853 435//853
f 442//854 436//854 438//854
f 441//855 439//855 437//855
f 442//856 438//856 440//856
f 441//857 409//857 439//857
f 442//858 440//858 410//858
f 443//859 445//861 446//862
f 443//859 446//862 444//860
f 445//861 447//863 448//864
f 445//861 448//864 446//862
f 447//863 449//865 450//866
f 447//863 450//866 448//864
f 449//865 451//867 452//868
f 449//865 452//868 450//866
f 451//867 453//869 454//870
f 451//867 454//870 452//868
f 453//869 455//871 456//872
f 453//869 456//872 454//870
f 455//871 457//873 458//874
f 455//871 458//874 456//872
f 457//873 459//875 460//876
f 457//873 460//876 458//874
f 459//875 461//877 462//878
f 459//875 462//878 460//876
f 461//877 463//879 464//880
f 461//877 464//880 462//878
f 463//879 465//881 466//882
f 463//879 466//882 464//880
f 465//881 467//883 468//884
f 465//881 468//884 466//882
f 467//883 469//885 470//886
f 467//883 470//886 468//884
f 469//885 471//887 472//888
f 469//885 472//888 470//886
f 471//887 473//889 474//890
f 471//887 474//890 472//888
f 473//889 443//859 444//860
f 473//889 444//860 474//890
f 475//893 445//893 443//893
f 476//894 444//894 446//894
f 475//895 447//895 445//895
f 476//896 446//896 448//896
f 475//897 449//897 447//897
f 476//898 448//898 450//898
f 475//899 451//899 449//899
f 476//900 450//900 452//900
f 475//901 453//901 451//901
f 476//902 452//902 454//902
f 475//903 455//903 453//903
f 476//904 454//904 456//904
f 475//905 457//905 455//905
f 476//906 456//906 458//906
f 475//907 459//907 457//907
f 476//908 458//908 460//908
f 475//909 461//909 459//909
f 476//910 460//910 462//910
f 475//911 463//911 461//911
f 476//912 462//912 464//912
f 475//913 465//913 463//913
f 476//914 464//914 466//914
f 475//915 467//915 465//915
f 476//916 466//916 468//916
f 475//917 469//917 467//917
f 476//918 468//918 470//918
f 475//919 471//919 469//919
f 476//920 470//920 472//920
f 475//921 473//921 471//921
f 476//922 472//922 474//922
f 475//923 443//923 473//923
f 476//924 474//924 444//924
f 477//925 479//927 480//928
f 477//925 480//928 478//926
f 479//927 481//929 482//930
f 479//927 482//930 480//928
f 481//929 483//931 484//932
f 481//929 484//932 482//930
f 483//931 485//933 486//934
f 483//931 486//934 484//932
f 485//933 487//935 488//936
f 485//933 488//936 486//934
f 487//935 489//937 490//938
f 487//935 490//938 488//936
f 489//937 491//939 492//940
f 489//937 492//940 490//938
f 491//939 493//941 494//942
f 491//939 494//942 492//940
f 493//941 495//943 496//944
f 493//941 496//944 494//942
f 495//943 497//945 498//946
f 495//943 498//946 496//944
f 497//945 499//947 500//948
f 497//945 500//948 498//946
f 499//947 501//949 502//950
f 499//947 502//950 500//948
f 501//949 503//951 504//952
f 501//949 504//952 502//950
f 503//951 505//953 506//954
f 503//951 506//954 504//952
f 505//953 507//955 508//956
f 505//953 508//956 506//954
f 507//955 477//925 478//926
f 507//955 478//926 508//956
f 509//959 479//959 477//959
f 510//960 478//960 480//960
f 509//961 481//961 479//961
f 510//962 480//962 482//962
f 509//963 483//963 481//963
f 510//964 482//964 484//964
f 509//965 485//965 483//965
f 510//966 484//966 486//966
f 509//967 487//967 485//967
f 510//968 486//968 488//968
f 509//969 489//969 487//969
f 510//970 488//970 490//970
f 509//971 491//971 489//971
f 510//972 490//972 492//972
f 509//973 493//973 491//973
f 510//974 492//974 494//974
f 509//975 495//975 493//975
f 510//976 494//976 496//976
f 509//977 497//977 495//977
f 510//978 496//978 498//978
f 509//979 499//979 497//979
f 510//980 498//980 500//980
f 509//981 501//981 499//981
f 510//982 500//982 502//982
f 509//983 503//983 501//983
f 510//984 502//984 504//984
f 509//985 505//985 503//985
f 510//986 504//986 506//986
f 509//987 507//987 505//987
f 510//988 506//988 508//988
f 509//989 477//989 507//989
f 510//990 508//990 478//990
f 511//991 513//993 514//994
f 511//991 514//994 512//992
f 513//993 515//995 516//996
f 513//993 516//996 514//994
f 515//995 517//997 518//998
f 515//995 518//998 516//996
f 517//997 519//999 520//1000
f 517//997 520//1000 518//998
f 519//999 521//1001 522//1002
f 519//999 522//1002 520//1000
f 521//1001 523//1003 524//1004
f 521//1001 524//1004 522//1002
f 523//1003 525//1005 526//1006
f 523//1003 526//1006 524//1004
f 525//1005 527//1007 528//1008
f 525//1005 528//1008 526//1006
f 527//1007 529//1009 530//1010
f 527//1007 530//1010 528//1008
f 529//1009 531//1011 532//1012
f 529//1009 532//1012 530//1010
f 531//1011 533//1013 534//1014
f 531//1011 534//1014 532//1012
f 533//1013 535//1015 536//1016
f 533//1013 536//1016 534//1014
f 535//1015 537//1017 538//1018
f 535//1015 538//1018 536//1016
f 537//1017 539//1019 540//1020
f 537//1017 540//1020 538//1018
f 539//1019 541//1021 542//1022
f 539//1019 542//1022 540//1020
f 541//1021 511//991 512//992
f 541//1021 512//992 542//1022
f 543//1025 513//1025 511//1025
f 544//1026 512//1026 514//1026
f 543//1027 515//1027 513//1027
f 544//1028 514//1028 516//1028
f 543//1029 517//1029 515//1029
f 544//1030 516//1030 518//1030
f 543//1031 519//1031 517//1031
f 544//1032 518//1032 520//1032
f 543//1033 521//1033 519//1033
f 544//1034 520//1034 522//1034
f 543//1035 523//1035 521//1035
f 544//1036 522//1036 524//1036
f 543//1037 525//1037 523//1037
f 544//1038 524//1038 526//1038
f 543//1039 527//1039 525//1039
f 544//1040 526//1040 528//1040
f 543//1041 529//1041 527//1041
f 544//1042 528//1042 530//1042
f 543//1043 531//1043 529//1043
f 544//1044 530//1044 532//1044
f 543//1045 533//1045 531//1045
f 544//1046 532//1046 534//1046
f 543//1047 535//1047 533//1047
f 544//1048 534//1048 536//1048
f 543//1049 537//1049 535//1049
f 544//1050 536//1050 538//1050
f 543//1051 539//1051 537//1051
f 544//1052 538//1052 540//1052
f 543//1053 541//1053 539//1053
f 544//1054 540//1054 542//1054
f 543//1055 511//1055 541//1055
f 544//1056 542//1056 512//1056
# counts: vertices=544, normals=1056, faces=1024
