# Guoshui 2026 hollow PVC straight sleeve, units: metres.
# Outer radius 14 mm, bore radius 9 mm, length 50 mm.
o Guoshui2026PVCSleeveHollow
v 0.014000 0.000000 -0.025000
v 0.009899 0.009899 -0.025000
v 0.000000 0.014000 -0.025000
v -0.009899 0.009899 -0.025000
v -0.014000 0.000000 -0.025000
v -0.009899 -0.009899 -0.025000
v 0.000000 -0.014000 -0.025000
v 0.009899 -0.009899 -0.025000
v 0.009000 0.000000 -0.025000
v 0.006364 0.006364 -0.025000
v 0.000000 0.009000 -0.025000
v -0.006364 0.006364 -0.025000
v -0.009000 0.000000 -0.025000
v -0.006364 -0.006364 -0.025000
v 0.000000 -0.009000 -0.025000
v 0.006364 -0.006364 -0.025000
v 0.014000 0.000000 0.025000
v 0.009899 0.009899 0.025000
v 0.000000 0.014000 0.025000
v -0.009899 0.009899 0.025000
v -0.014000 0.000000 0.025000
v -0.009899 -0.009899 0.025000
v 0.000000 -0.014000 0.025000
v 0.009899 -0.009899 0.025000
v 0.009000 0.000000 0.025000
v 0.006364 0.006364 0.025000
v 0.000000 0.009000 0.025000
v -0.006364 0.006364 0.025000
v -0.009000 0.000000 0.025000
v -0.006364 -0.006364 0.025000
v 0.000000 -0.009000 0.025000
v 0.006364 -0.006364 0.025000
# Explicit normals: radial outward normals for the outer wall, radial
# inward normals for the bore, and separate normals for the two open rims.
vn 1.000000 0.000000 0.000000
vn 0.707107 0.707107 0.000000
vn 0.000000 1.000000 0.000000
vn -0.707107 0.707107 0.000000
vn -1.000000 0.000000 0.000000
vn -0.707107 -0.707107 0.000000
vn 0.000000 -1.000000 0.000000
vn 0.707107 -0.707107 0.000000
vn -1.000000 0.000000 0.000000
vn -0.707107 -0.707107 0.000000
vn 0.000000 -1.000000 0.000000
vn 0.707107 -0.707107 0.000000
vn 1.000000 0.000000 0.000000
vn 0.707107 0.707107 0.000000
vn 0.000000 1.000000 0.000000
vn -0.707107 0.707107 0.000000
vn 0.000000 0.000000 -1.000000
vn 0.000000 0.000000 1.000000
# All faces are triangles.  Stonefish's OBJ path is most reliable with
# triangulated meshes; keeping each quad split explicitly also avoids the
# long black spikes that can appear when a hollow sleeve is imported.
# Outside wall
f 1//1 2//2 18//2
f 1//1 18//2 17//1
f 2//2 3//3 19//3
f 2//2 19//3 18//2
f 3//3 4//4 20//4
f 3//3 20//4 19//3
f 4//4 5//5 21//5
f 4//4 21//5 20//4
f 5//5 6//6 22//6
f 5//5 22//6 21//5
f 6//6 7//7 23//7
f 6//6 23//7 22//6
f 7//7 8//8 24//8
f 7//7 24//8 23//7
f 8//8 1//1 17//1
f 8//8 17//1 24//8
# Inside wall
f 9//9 25//9 26//10
f 9//9 26//10 10//10
f 10//10 26//10 27//11
f 10//10 27//11 11//11
f 11//11 27//11 28//12
f 11//11 28//12 12//12
f 12//12 28//12 29//13
f 12//12 29//13 13//13
f 13//13 29//13 30//14
f 13//13 30//14 14//14
f 14//14 30//14 31//15
f 14//14 31//15 15//15
f 15//15 31//15 32//16
f 15//15 32//16 16//16
f 16//16 32//16 25//9
f 16//16 25//9 9//9
# Annular open ends: bottom ring and top ring; no radial fins.
# The winding gives the bottom rim a -Z normal and the top rim a +Z normal.
f 1//17 9//17 10//17
f 1//17 10//17 2//17
f 2//17 10//17 11//17
f 2//17 11//17 3//17
f 3//17 11//17 12//17
f 3//17 12//17 4//17
f 4//17 12//17 13//17
f 4//17 13//17 5//17
f 5//17 13//17 14//17
f 5//17 14//17 6//17
f 6//17 14//17 15//17
f 6//17 15//17 7//17
f 7//17 15//17 16//17
f 7//17 16//17 8//17
f 8//17 16//17 9//17
f 8//17 9//17 1//17
f 17//18 18//18 26//18
f 17//18 26//18 25//18
f 18//18 19//18 27//18
f 18//18 27//18 26//18
f 19//18 20//18 28//18
f 19//18 28//18 27//18
f 20//18 21//18 29//18
f 20//18 29//18 28//18
f 21//18 22//18 30//18
f 21//18 30//18 29//18
f 22//18 23//18 31//18
f 22//18 31//18 30//18
f 23//18 24//18 32//18
f 23//18 32//18 31//18
f 24//18 17//18 25//18
f 24//18 25//18 32//18
