# Created by FreeCAD <https://www.freecad.org>
v -200.000000 -5.512385 170.912415
v 31.000000 5.512385 170.912415
v -200.000000 5.512385 170.912415
v -200.000000 16.378574 169.049225
v 31.000000 16.378574 169.049225
v 31.000000 26.773581 165.376434
v -200.000000 26.773581 165.376434
v 31.000000 36.398361 159.999710
v -200.000000 36.398361 159.999710
v -200.000000 44.976025 153.073730
v 31.000000 44.976025 153.073730
v 31.000000 52.259815 144.797745
v -200.000000 52.259815 144.797745
v 31.000000 58.040180 135.409821
v -200.000000 58.040180 135.409821
v -200.000000 62.150837 125.180061
v 31.000000 62.150837 125.180061
v 31.000000 64.473526 114.402740
v -200.000000 64.473526 114.402740
v 31.000000 64.941429 103.387909
v -200.000000 64.941429 103.387909
v -200.000000 63.541092 92.452431
v 31.000000 63.541092 92.452431
v 31.000000 60.312786 81.910912
v -200.000000 60.312786 81.910912
v 31.000000 55.349396 72.066612
v -200.000000 55.349396 72.066612
v -200.000000 48.793701 63.202728
v 31.000000 48.793701 63.202728
v 31.000000 40.834301 55.574261
v -200.000000 40.834301 55.574261
v 31.000000 31.700171 49.400665
v -200.000000 31.700171 49.400665
v -200.000000 21.654087 44.859550
v 31.000000 21.654087 44.859550
v 31.000000 10.985053 42.081551
v -200.000000 10.985053 42.081551
v 31.000000 0.000000 41.146584
v -200.000000 0.000000 41.146584
v 31.000000 -5.512385 170.912415
v -200.000000 -16.378574 169.049225
v 31.000000 -16.378574 169.049225
v -200.000000 -26.773581 165.376434
v 31.000000 -26.773581 165.376434
v 31.000000 -36.398361 159.999710
v -200.000000 -36.398361 159.999710
v -200.000000 -44.976025 153.073730
v 31.000000 -44.976025 153.073730
v -200.000000 -52.259815 144.797745
v 31.000000 -52.259815 144.797745
v 31.000000 -58.040180 135.409821
v -200.000000 -58.040180 135.409821
v -200.000000 -62.150837 125.180061
v 31.000000 -62.150837 125.180061
v -200.000000 -64.473526 114.402740
v 31.000000 -64.473526 114.402740
v 31.000000 -64.941429 103.387909
v -200.000000 -64.941429 103.387909
v -200.000000 -63.541092 92.452431
v 31.000000 -63.541092 92.452431
v -200.000000 -60.312786 81.910912
v 31.000000 -60.312786 81.910912
v 31.000000 -55.349396 72.066612
v -200.000000 -55.349396 72.066612
v -200.000000 -48.793701 63.202728
v 31.000000 -48.793701 63.202728
v -200.000000 -40.834301 55.574261
v 31.000000 -40.834301 55.574261
v 31.000000 -31.700171 49.400665
v -200.000000 -31.700171 49.400665
v -200.000000 -21.654087 44.859550
v 31.000000 -21.654087 44.859550
v -200.000000 -10.985053 42.081551
v 31.000000 -10.985053 42.081551
vn 0.000000 0.000000 1.000000
vn -0.000000 0.169000 0.985616
vn 0.000000 0.169000 0.985616
vn 0.000000 0.333140 0.942877
vn -0.000000 0.333140 0.942877
vn 0.000000 0.487695 0.873014
vn 0.000000 0.487695 0.873014
vn -0.000000 0.628220 0.778036
vn 0.000000 0.628220 0.778036
vn 0.000000 0.750672 0.660675
vn -0.000000 0.750672 0.660675
vn 0.000000 0.851530 0.524307
vn 0.000000 0.851530 0.524307
vn -0.000000 0.927889 0.372857
vn 0.000000 0.927889 0.372857
vn 0.000000 0.977555 0.210679
vn -0.000000 0.977555 0.210679
vn 0.000000 0.999099 0.042441
vn 0.000000 0.999099 0.042441
vn 0.000000 0.991901 -0.127017
vn 0.000000 0.991901 -0.127017
vn 0.000000 0.956167 -0.292823
vn 0.000000 0.956167 -0.292823
vn 0.000000 0.892926 -0.450204
vn 0.000000 0.892926 -0.450204
vn 0.000000 0.803997 -0.594633
vn 0.000000 0.803997 -0.594633
vn 0.000000 0.691939 -0.721956
vn 0.000000 0.691939 -0.721956
vn 0.000000 0.559975 -0.828510
vn 0.000000 0.559975 -0.828510
vn 0.000000 0.411901 -0.911229
vn 0.000000 0.411901 -0.911229
vn 0.000000 0.251978 -0.967733
vn 0.000000 0.251978 -0.967733
vn 0.000000 0.084806 -0.996397
vn 0.000000 0.084806 -0.996397
vn 0.000000 0.000000 1.000000
vn 0.000000 -0.169000 0.985616
vn 0.000000 -0.169000 0.985616
vn 0.000000 -0.333140 0.942877
vn 0.000000 -0.333140 0.942877
vn 0.000000 -0.487695 0.873014
vn 0.000000 -0.487695 0.873014
vn 0.000000 -0.628220 0.778036
vn 0.000000 -0.628220 0.778036
vn 0.000000 -0.750672 0.660675
vn 0.000000 -0.750672 0.660675
vn 0.000000 -0.851530 0.524307
vn 0.000000 -0.851530 0.524307
vn 0.000000 -0.927889 0.372857
vn 0.000000 -0.927889 0.372857
vn 0.000000 -0.977555 0.210679
vn 0.000000 -0.977555 0.210679
vn 0.000000 -0.999099 0.042441
vn 0.000000 -0.999099 0.042441
vn 0.000000 -0.991901 -0.127017
vn -0.000000 -0.991901 -0.127017
vn 0.000000 -0.956167 -0.292823
vn 0.000000 -0.956167 -0.292823
vn -0.000000 -0.892926 -0.450204
vn 0.000000 -0.892926 -0.450204
vn 0.000000 -0.803997 -0.594633
vn -0.000000 -0.803997 -0.594633
vn 0.000000 -0.691939 -0.721956
vn 0.000000 -0.691939 -0.721956
vn -0.000000 -0.559975 -0.828510
vn 0.000000 -0.559975 -0.828510
vn 0.000000 -0.411901 -0.911229
vn -0.000000 -0.411901 -0.911229
vn 0.000000 -0.251978 -0.967733
vn 0.000000 -0.251978 -0.967733
vn 0.000000 -0.084806 -0.996397
vn 0.000000 -0.084806 -0.996397
vn 1.000000 0.000000 0.000000
vn 1.000000 0.000000 0.000000
vn 1.000000 0.000000 -0.000000
vn 1.000000 0.000000 0.000000
vn 1.000000 0.000000 0.000000
vn 1.000000 0.000000 0.000000
vn 1.000000 0.000000 0.000000
vn 1.000000 0.000000 -0.000000
vn 1.000000 0.000000 0.000000
vn 1.000000 0.000000 0.000000
vn 1.000000 0.000000 0.000000
vn 1.000000 -0.000000 0.000000
vn 1.000000 0.000000 0.000000
vn 1.000000 0.000000 -0.000000
vn 1.000000 0.000000 0.000000
vn 1.000000 0.000000 0.000000
vn 1.000000 -0.000000 0.000000
vn 1.000000 0.000000 0.000000
vn 1.000000 0.000000 0.000000
vn 1.000000 0.000000 0.000000
vn 1.000000 -0.000000 0.000000
vn 1.000000 0.000000 0.000000
vn 1.000000 0.000000 0.000000
vn 1.000000 0.000000 0.000000
vn 1.000000 0.000000 0.000000
vn 1.000000 0.000000 -0.000000
vn 1.000000 0.000000 -0.000000
vn 1.000000 0.000000 0.000000
vn 1.000000 0.000000 0.000000
vn 1.000000 0.000000 0.000000
vn 1.000000 0.000000 0.000000
vn 1.000000 0.000000 0.000000
vn 1.000000 0.000000 0.000000
vn 1.000000 0.000000 -0.000000
vn 1.000000 0.000000 0.000000
vn -1.000000 0.000000 -0.000000
vn -1.000000 0.000000 0.000000
vn -1.000000 0.000000 0.000000
vn -1.000000 0.000000 0.000000
vn -1.000000 0.000000 0.000000
vn -1.000000 0.000000 0.000000
vn -1.000000 0.000000 0.000000
vn -1.000000 0.000000 0.000000
vn -1.000000 0.000000 0.000000
vn -1.000000 0.000000 0.000000
vn -1.000000 0.000000 0.000000
vn -1.000000 0.000000 0.000000
vn -1.000000 -0.000000 0.000000
vn -1.000000 0.000000 0.000000
vn -1.000000 0.000000 0.000000
vn -1.000000 -0.000000 -0.000000
vn -1.000000 0.000000 0.000000
vn -1.000000 0.000000 0.000000
vn -1.000000 0.000000 0.000000
vn -1.000000 0.000000 0.000000
vn -1.000000 0.000000 0.000000
vn -1.000000 0.000000 0.000000
vn -1.000000 0.000000 0.000000
vn -1.000000 0.000000 0.000000
vn -1.000000 0.000000 0.000000
vn -1.000000 0.000000 0.000000
vn -1.000000 0.000000 0.000000
vn -1.000000 0.000000 0.000000
vn -1.000000 -0.000000 0.000000
vn -1.000000 -0.000000 0.000000
vn -1.000000 0.000000 -0.000000
vn -1.000000 0.000000 -0.000000
vn -1.000000 0.000000 0.000000
vn -1.000000 0.000000 0.000000
vn -1.000000 0.000000 0.000000
f 1//1 2//1 3//1
f 4//2 3//2 5//2
f 2//3 5//3 3//3
f 6//4 7//4 4//4
f 4//5 5//5 6//5
f 7//6 8//6 9//6
f 8//7 7//7 6//7
f 10//8 9//8 11//8
f 8//9 11//9 9//9
f 12//10 13//10 10//10
f 10//11 11//11 12//11
f 13//12 14//12 15//12
f 14//13 13//13 12//13
f 16//14 15//14 17//14
f 14//15 17//15 15//15
f 18//16 19//16 16//16
f 16//17 17//17 18//17
f 19//18 20//18 21//18
f 20//19 19//19 18//19
f 22//20 21//20 23//20
f 20//21 23//21 21//21
f 24//22 25//22 22//22
f 22//23 23//23 24//23
f 25//24 26//24 27//24
f 26//25 25//25 24//25
f 28//26 27//26 29//26
f 26//27 29//27 27//27
f 30//28 31//28 28//28
f 28//29 29//29 30//29
f 31//30 32//30 33//30
f 32//31 31//31 30//31
f 34//32 33//32 35//32
f 32//33 35//33 33//33
f 36//34 37//34 34//34
f 34//35 35//35 36//35
f 38//36 37//36 36//36
f 38//37 39//37 37//37
f 2//38 1//38 40//38
f 41//39 42//39 40//39
f 40//40 1//40 41//40
f 42//41 43//41 44//41
f 43//42 42//42 41//42
f 45//43 44//43 46//43
f 43//44 46//44 44//44
f 47//45 48//45 45//45
f 45//46 46//46 47//46
f 48//47 49//47 50//47
f 49//48 48//48 47//48
f 51//49 50//49 52//49
f 49//50 52//50 50//50
f 53//51 54//51 51//51
f 51//52 52//52 53//52
f 54//53 55//53 56//53
f 55//54 54//54 53//54
f 57//55 56//55 58//55
f 55//56 58//56 56//56
f 59//57 60//57 57//57
f 57//58 58//58 59//58
f 60//59 61//59 62//59
f 61//60 60//60 59//60
f 63//61 62//61 64//61
f 61//62 64//62 62//62
f 65//63 66//63 63//63
f 63//64 64//64 65//64
f 66//65 67//65 68//65
f 67//66 66//66 65//66
f 69//67 68//67 70//67
f 67//68 70//68 68//68
f 71//69 72//69 69//69
f 69//70 70//70 71//70
f 72//71 73//71 74//71
f 73//72 72//72 71//72
f 73//73 39//73 74//73
f 74//74 39//74 38//74
f 30//75 29//75 26//75
f 6//76 62//76 63//76
f 26//77 24//77 32//77
f 32//78 30//78 26//78
f 35//79 24//79 23//79
f 24//80 35//80 32//80
f 36//81 35//81 23//81
f 36//82 20//82 38//82
f 20//83 36//83 23//83
f 17//84 72//84 74//84
f 20//85 18//85 38//85
f 66//86 68//86 11//86
f 69//87 14//87 12//87
f 62//88 5//88 60//88
f 8//89 6//89 63//89
f 42//90 54//90 56//90
f 40//91 57//91 2//91
f 45//92 48//92 50//92
f 51//93 44//93 45//93
f 51//94 45//94 50//94
f 44//95 54//95 42//95
f 44//96 51//96 54//96
f 40//97 56//97 57//97
f 40//98 42//98 56//98
f 5//99 2//99 60//99
f 60//100 2//100 57//100
f 66//101 8//101 63//101
f 62//102 6//102 5//102
f 11//103 68//103 12//103
f 8//104 66//104 11//104
f 12//105 68//105 69//105
f 14//106 72//106 17//106
f 14//107 69//107 72//107
f 38//108 18//108 74//108
f 18//109 17//109 74//109
f 49//110 33//110 52//110
f 67//111 64//111 70//111
f 67//112 65//112 64//112
f 71//113 70//113 61//113
f 64//114 61//114 70//114
f 59//115 73//115 71//115
f 71//116 61//116 59//116
f 73//117 58//117 39//117
f 58//118 73//118 59//118
f 53//119 34//119 37//119
f 58//120 55//120 39//120
f 46//121 43//121 27//121
f 28//122 31//122 47//122
f 41//123 22//123 25//123
f 4//124 16//124 19//124
f 3//125 21//125 1//125
f 9//126 10//126 13//126
f 15//127 7//127 9//127
f 7//128 15//128 16//128
f 9//129 13//129 15//129
f 3//130 4//130 19//130
f 4//131 7//131 16//131
f 21//132 3//132 19//132
f 41//133 1//133 22//133
f 22//134 1//134 21//134
f 27//135 43//135 25//135
f 25//136 43//136 41//136
f 28//137 47//137 46//137
f 27//138 28//138 46//138
f 31//139 33//139 49//139
f 47//140 31//140 49//140
f 52//141 34//141 53//141
f 52//142 33//142 34//142
f 39//143 55//143 37//143
f 55//144 53//144 37//144
