# 国水 2026 水中巡游收集框视觉网面。
# 单位：米；严格轴对齐的双面六边形薄管网格，纯白、仅用于显示。
# 四个侧面 + 下层/中间红框上的水平网面；网线直径约 9 mm，网孔约 40-47 mm。
o Guoshui2026CollectionNetOrthogonal
# South side vertical grid x=-0.188
v -0.184103 -0.137750 -0.140000
v -0.188000 -0.135500 -0.140000
v -0.191897 -0.137750 -0.140000
v -0.191897 -0.142250 -0.140000
v -0.188000 -0.144500 -0.140000
v -0.184103 -0.142250 -0.140000
v -0.184103 -0.137750 0.140000
v -0.188000 -0.135500 0.140000
v -0.191897 -0.137750 0.140000
v -0.191897 -0.142250 0.140000
v -0.188000 -0.144500 0.140000
v -0.184103 -0.142250 0.140000
f 1 2 3 4 5 6
f 6 5 4 3 2 1
f 12 11 10 9 8 7
f 7 8 9 10 11 12
f 1 2 8 7
f 7 8 2 1
f 2 3 9 8
f 8 9 3 2
f 3 4 10 9
f 9 10 4 3
f 4 5 11 10
f 10 11 5 4
f 5 6 12 11
f 11 12 6 5
f 6 1 7 12
f 12 7 1 6
# South side vertical grid x=-0.141
v -0.137103 -0.137750 -0.140000
v -0.141000 -0.135500 -0.140000
v -0.144897 -0.137750 -0.140000
v -0.144897 -0.142250 -0.140000
v -0.141000 -0.144500 -0.140000
v -0.137103 -0.142250 -0.140000
v -0.137103 -0.137750 0.140000
v -0.141000 -0.135500 0.140000
v -0.144897 -0.137750 0.140000
v -0.144897 -0.142250 0.140000
v -0.141000 -0.144500 0.140000
v -0.137103 -0.142250 0.140000
f 13 14 15 16 17 18
f 18 17 16 15 14 13
f 24 23 22 21 20 19
f 19 20 21 22 23 24
f 13 14 20 19
f 19 20 14 13
f 14 15 21 20
f 20 21 15 14
f 15 16 22 21
f 21 22 16 15
f 16 17 23 22
f 22 23 17 16
f 17 18 24 23
f 23 24 18 17
f 18 13 19 24
f 24 19 13 18
# South side vertical grid x=-0.094
v -0.090103 -0.137750 -0.140000
v -0.094000 -0.135500 -0.140000
v -0.097897 -0.137750 -0.140000
v -0.097897 -0.142250 -0.140000
v -0.094000 -0.144500 -0.140000
v -0.090103 -0.142250 -0.140000
v -0.090103 -0.137750 0.140000
v -0.094000 -0.135500 0.140000
v -0.097897 -0.137750 0.140000
v -0.097897 -0.142250 0.140000
v -0.094000 -0.144500 0.140000
v -0.090103 -0.142250 0.140000
f 25 26 27 28 29 30
f 30 29 28 27 26 25
f 36 35 34 33 32 31
f 31 32 33 34 35 36
f 25 26 32 31
f 31 32 26 25
f 26 27 33 32
f 32 33 27 26
f 27 28 34 33
f 33 34 28 27
f 28 29 35 34
f 34 35 29 28
f 29 30 36 35
f 35 36 30 29
f 30 25 31 36
f 36 31 25 30
# South side vertical grid x=-0.047
v -0.043103 -0.137750 -0.140000
v -0.047000 -0.135500 -0.140000
v -0.050897 -0.137750 -0.140000
v -0.050897 -0.142250 -0.140000
v -0.047000 -0.144500 -0.140000
v -0.043103 -0.142250 -0.140000
v -0.043103 -0.137750 0.140000
v -0.047000 -0.135500 0.140000
v -0.050897 -0.137750 0.140000
v -0.050897 -0.142250 0.140000
v -0.047000 -0.144500 0.140000
v -0.043103 -0.142250 0.140000
f 37 38 39 40 41 42
f 42 41 40 39 38 37
f 48 47 46 45 44 43
f 43 44 45 46 47 48
f 37 38 44 43
f 43 44 38 37
f 38 39 45 44
f 44 45 39 38
f 39 40 46 45
f 45 46 40 39
f 40 41 47 46
f 46 47 41 40
f 41 42 48 47
f 47 48 42 41
f 42 37 43 48
f 48 43 37 42
# South side vertical grid x=0.000
v 0.003897 -0.137750 -0.140000
v 0.000000 -0.135500 -0.140000
v -0.003897 -0.137750 -0.140000
v -0.003897 -0.142250 -0.140000
v -0.000000 -0.144500 -0.140000
v 0.003897 -0.142250 -0.140000
v 0.003897 -0.137750 0.140000
v 0.000000 -0.135500 0.140000
v -0.003897 -0.137750 0.140000
v -0.003897 -0.142250 0.140000
v -0.000000 -0.144500 0.140000
v 0.003897 -0.142250 0.140000
f 49 50 51 52 53 54
f 54 53 52 51 50 49
f 60 59 58 57 56 55
f 55 56 57 58 59 60
f 49 50 56 55
f 55 56 50 49
f 50 51 57 56
f 56 57 51 50
f 51 52 58 57
f 57 58 52 51
f 52 53 59 58
f 58 59 53 52
f 53 54 60 59
f 59 60 54 53
f 54 49 55 60
f 60 55 49 54
# South side vertical grid x=0.047
v 0.050897 -0.137750 -0.140000
v 0.047000 -0.135500 -0.140000
v 0.043103 -0.137750 -0.140000
v 0.043103 -0.142250 -0.140000
v 0.047000 -0.144500 -0.140000
v 0.050897 -0.142250 -0.140000
v 0.050897 -0.137750 0.140000
v 0.047000 -0.135500 0.140000
v 0.043103 -0.137750 0.140000
v 0.043103 -0.142250 0.140000
v 0.047000 -0.144500 0.140000
v 0.050897 -0.142250 0.140000
f 61 62 63 64 65 66
f 66 65 64 63 62 61
f 72 71 70 69 68 67
f 67 68 69 70 71 72
f 61 62 68 67
f 67 68 62 61
f 62 63 69 68
f 68 69 63 62
f 63 64 70 69
f 69 70 64 63
f 64 65 71 70
f 70 71 65 64
f 65 66 72 71
f 71 72 66 65
f 66 61 67 72
f 72 67 61 66
# South side vertical grid x=0.094
v 0.097897 -0.137750 -0.140000
v 0.094000 -0.135500 -0.140000
v 0.090103 -0.137750 -0.140000
v 0.090103 -0.142250 -0.140000
v 0.094000 -0.144500 -0.140000
v 0.097897 -0.142250 -0.140000
v 0.097897 -0.137750 0.140000
v 0.094000 -0.135500 0.140000
v 0.090103 -0.137750 0.140000
v 0.090103 -0.142250 0.140000
v 0.094000 -0.144500 0.140000
v 0.097897 -0.142250 0.140000
f 73 74 75 76 77 78
f 78 77 76 75 74 73
f 84 83 82 81 80 79
f 79 80 81 82 83 84
f 73 74 80 79
f 79 80 74 73
f 74 75 81 80
f 80 81 75 74
f 75 76 82 81
f 81 82 76 75
f 76 77 83 82
f 82 83 77 76
f 77 78 84 83
f 83 84 78 77
f 78 73 79 84
f 84 79 73 78
# South side vertical grid x=0.141
v 0.144897 -0.137750 -0.140000
v 0.141000 -0.135500 -0.140000
v 0.137103 -0.137750 -0.140000
v 0.137103 -0.142250 -0.140000
v 0.141000 -0.144500 -0.140000
v 0.144897 -0.142250 -0.140000
v 0.144897 -0.137750 0.140000
v 0.141000 -0.135500 0.140000
v 0.137103 -0.137750 0.140000
v 0.137103 -0.142250 0.140000
v 0.141000 -0.144500 0.140000
v 0.144897 -0.142250 0.140000
f 85 86 87 88 89 90
f 90 89 88 87 86 85
f 96 95 94 93 92 91
f 91 92 93 94 95 96
f 85 86 92 91
f 91 92 86 85
f 86 87 93 92
f 92 93 87 86
f 87 88 94 93
f 93 94 88 87
f 88 89 95 94
f 94 95 89 88
f 89 90 96 95
f 95 96 90 89
f 90 85 91 96
f 96 91 85 90
# South side vertical grid x=0.188
v 0.191897 -0.137750 -0.140000
v 0.188000 -0.135500 -0.140000
v 0.184103 -0.137750 -0.140000
v 0.184103 -0.142250 -0.140000
v 0.188000 -0.144500 -0.140000
v 0.191897 -0.142250 -0.140000
v 0.191897 -0.137750 0.140000
v 0.188000 -0.135500 0.140000
v 0.184103 -0.137750 0.140000
v 0.184103 -0.142250 0.140000
v 0.188000 -0.144500 0.140000
v 0.191897 -0.142250 0.140000
f 97 98 99 100 101 102
f 102 101 100 99 98 97
f 108 107 106 105 104 103
f 103 104 105 106 107 108
f 97 98 104 103
f 103 104 98 97
f 98 99 105 104
f 104 105 99 98
f 99 100 106 105
f 105 106 100 99
f 100 101 107 106
f 106 107 101 100
f 101 102 108 107
f 107 108 102 101
f 102 97 103 108
f 108 103 97 102
# South side horizontal grid z=-0.140
v -0.188000 -0.136103 -0.137750
v -0.188000 -0.140000 -0.135500
v -0.188000 -0.143897 -0.137750
v -0.188000 -0.143897 -0.142250
v -0.188000 -0.140000 -0.144500
v -0.188000 -0.136103 -0.142250
v 0.188000 -0.136103 -0.137750
v 0.188000 -0.140000 -0.135500
v 0.188000 -0.143897 -0.137750
v 0.188000 -0.143897 -0.142250
v 0.188000 -0.140000 -0.144500
v 0.188000 -0.136103 -0.142250
f 109 110 111 112 113 114
f 114 113 112 111 110 109
f 120 119 118 117 116 115
f 115 116 117 118 119 120
f 109 110 116 115
f 115 116 110 109
f 110 111 117 116
f 116 117 111 110
f 111 112 118 117
f 117 118 112 111
f 112 113 119 118
f 118 119 113 112
f 113 114 120 119
f 119 120 114 113
f 114 109 115 120
f 120 115 109 114
# South side horizontal grid z=-0.093
v -0.188000 -0.136103 -0.091083
v -0.188000 -0.140000 -0.088833
v -0.188000 -0.143897 -0.091083
v -0.188000 -0.143897 -0.095583
v -0.188000 -0.140000 -0.097833
v -0.188000 -0.136103 -0.095583
v 0.188000 -0.136103 -0.091083
v 0.188000 -0.140000 -0.088833
v 0.188000 -0.143897 -0.091083
v 0.188000 -0.143897 -0.095583
v 0.188000 -0.140000 -0.097833
v 0.188000 -0.136103 -0.095583
f 121 122 123 124 125 126
f 126 125 124 123 122 121
f 132 131 130 129 128 127
f 127 128 129 130 131 132
f 121 122 128 127
f 127 128 122 121
f 122 123 129 128
f 128 129 123 122
f 123 124 130 129
f 129 130 124 123
f 124 125 131 130
f 130 131 125 124
f 125 126 132 131
f 131 132 126 125
f 126 121 127 132
f 132 127 121 126
# South side horizontal grid z=-0.047
v -0.188000 -0.136103 -0.044417
v -0.188000 -0.140000 -0.042167
v -0.188000 -0.143897 -0.044417
v -0.188000 -0.143897 -0.048917
v -0.188000 -0.140000 -0.051167
v -0.188000 -0.136103 -0.048917
v 0.188000 -0.136103 -0.044417
v 0.188000 -0.140000 -0.042167
v 0.188000 -0.143897 -0.044417
v 0.188000 -0.143897 -0.048917
v 0.188000 -0.140000 -0.051167
v 0.188000 -0.136103 -0.048917
f 133 134 135 136 137 138
f 138 137 136 135 134 133
f 144 143 142 141 140 139
f 139 140 141 142 143 144
f 133 134 140 139
f 139 140 134 133
f 134 135 141 140
f 140 141 135 134
f 135 136 142 141
f 141 142 136 135
f 136 137 143 142
f 142 143 137 136
f 137 138 144 143
f 143 144 138 137
f 138 133 139 144
f 144 139 133 138
# South side horizontal grid z=0.000
v -0.188000 -0.136103 0.002250
v -0.188000 -0.140000 0.004500
v -0.188000 -0.143897 0.002250
v -0.188000 -0.143897 -0.002250
v -0.188000 -0.140000 -0.004500
v -0.188000 -0.136103 -0.002250
v 0.188000 -0.136103 0.002250
v 0.188000 -0.140000 0.004500
v 0.188000 -0.143897 0.002250
v 0.188000 -0.143897 -0.002250
v 0.188000 -0.140000 -0.004500
v 0.188000 -0.136103 -0.002250
f 145 146 147 148 149 150
f 150 149 148 147 146 145
f 156 155 154 153 152 151
f 151 152 153 154 155 156
f 145 146 152 151
f 151 152 146 145
f 146 147 153 152
f 152 153 147 146
f 147 148 154 153
f 153 154 148 147
f 148 149 155 154
f 154 155 149 148
f 149 150 156 155
f 155 156 150 149
f 150 145 151 156
f 156 151 145 150
# South side horizontal grid z=0.047
v -0.188000 -0.136103 0.048917
v -0.188000 -0.140000 0.051167
v -0.188000 -0.143897 0.048917
v -0.188000 -0.143897 0.044417
v -0.188000 -0.140000 0.042167
v -0.188000 -0.136103 0.044417
v 0.188000 -0.136103 0.048917
v 0.188000 -0.140000 0.051167
v 0.188000 -0.143897 0.048917
v 0.188000 -0.143897 0.044417
v 0.188000 -0.140000 0.042167
v 0.188000 -0.136103 0.044417
f 157 158 159 160 161 162
f 162 161 160 159 158 157
f 168 167 166 165 164 163
f 163 164 165 166 167 168
f 157 158 164 163
f 163 164 158 157
f 158 159 165 164
f 164 165 159 158
f 159 160 166 165
f 165 166 160 159
f 160 161 167 166
f 166 167 161 160
f 161 162 168 167
f 167 168 162 161
f 162 157 163 168
f 168 163 157 162
# South side horizontal grid z=0.093
v -0.188000 -0.136103 0.095583
v -0.188000 -0.140000 0.097833
v -0.188000 -0.143897 0.095583
v -0.188000 -0.143897 0.091083
v -0.188000 -0.140000 0.088833
v -0.188000 -0.136103 0.091083
v 0.188000 -0.136103 0.095583
v 0.188000 -0.140000 0.097833
v 0.188000 -0.143897 0.095583
v 0.188000 -0.143897 0.091083
v 0.188000 -0.140000 0.088833
v 0.188000 -0.136103 0.091083
f 169 170 171 172 173 174
f 174 173 172 171 170 169
f 180 179 178 177 176 175
f 175 176 177 178 179 180
f 169 170 176 175
f 175 176 170 169
f 170 171 177 176
f 176 177 171 170
f 171 172 178 177
f 177 178 172 171
f 172 173 179 178
f 178 179 173 172
f 173 174 180 179
f 179 180 174 173
f 174 169 175 180
f 180 175 169 174
# South side horizontal grid z=0.140
v -0.188000 -0.136103 0.142250
v -0.188000 -0.140000 0.144500
v -0.188000 -0.143897 0.142250
v -0.188000 -0.143897 0.137750
v -0.188000 -0.140000 0.135500
v -0.188000 -0.136103 0.137750
v 0.188000 -0.136103 0.142250
v 0.188000 -0.140000 0.144500
v 0.188000 -0.143897 0.142250
v 0.188000 -0.143897 0.137750
v 0.188000 -0.140000 0.135500
v 0.188000 -0.136103 0.137750
f 181 182 183 184 185 186
f 186 185 184 183 182 181
f 192 191 190 189 188 187
f 187 188 189 190 191 192
f 181 182 188 187
f 187 188 182 181
f 182 183 189 188
f 188 189 183 182
f 183 184 190 189
f 189 190 184 183
f 184 185 191 190
f 190 191 185 184
f 185 186 192 191
f 191 192 186 185
f 186 181 187 192
f 192 187 181 186
# North side vertical grid x=-0.188
v -0.184103 0.142250 -0.140000
v -0.188000 0.144500 -0.140000
v -0.191897 0.142250 -0.140000
v -0.191897 0.137750 -0.140000
v -0.188000 0.135500 -0.140000
v -0.184103 0.137750 -0.140000
v -0.184103 0.142250 0.140000
v -0.188000 0.144500 0.140000
v -0.191897 0.142250 0.140000
v -0.191897 0.137750 0.140000
v -0.188000 0.135500 0.140000
v -0.184103 0.137750 0.140000
f 193 194 195 196 197 198
f 198 197 196 195 194 193
f 204 203 202 201 200 199
f 199 200 201 202 203 204
f 193 194 200 199
f 199 200 194 193
f 194 195 201 200
f 200 201 195 194
f 195 196 202 201
f 201 202 196 195
f 196 197 203 202
f 202 203 197 196
f 197 198 204 203
f 203 204 198 197
f 198 193 199 204
f 204 199 193 198
# North side vertical grid x=-0.141
v -0.137103 0.142250 -0.140000
v -0.141000 0.144500 -0.140000
v -0.144897 0.142250 -0.140000
v -0.144897 0.137750 -0.140000
v -0.141000 0.135500 -0.140000
v -0.137103 0.137750 -0.140000
v -0.137103 0.142250 0.140000
v -0.141000 0.144500 0.140000
v -0.144897 0.142250 0.140000
v -0.144897 0.137750 0.140000
v -0.141000 0.135500 0.140000
v -0.137103 0.137750 0.140000
f 205 206 207 208 209 210
f 210 209 208 207 206 205
f 216 215 214 213 212 211
f 211 212 213 214 215 216
f 205 206 212 211
f 211 212 206 205
f 206 207 213 212
f 212 213 207 206
f 207 208 214 213
f 213 214 208 207
f 208 209 215 214
f 214 215 209 208
f 209 210 216 215
f 215 216 210 209
f 210 205 211 216
f 216 211 205 210
# North side vertical grid x=-0.094
v -0.090103 0.142250 -0.140000
v -0.094000 0.144500 -0.140000
v -0.097897 0.142250 -0.140000
v -0.097897 0.137750 -0.140000
v -0.094000 0.135500 -0.140000
v -0.090103 0.137750 -0.140000
v -0.090103 0.142250 0.140000
v -0.094000 0.144500 0.140000
v -0.097897 0.142250 0.140000
v -0.097897 0.137750 0.140000
v -0.094000 0.135500 0.140000
v -0.090103 0.137750 0.140000
f 217 218 219 220 221 222
f 222 221 220 219 218 217
f 228 227 226 225 224 223
f 223 224 225 226 227 228
f 217 218 224 223
f 223 224 218 217
f 218 219 225 224
f 224 225 219 218
f 219 220 226 225
f 225 226 220 219
f 220 221 227 226
f 226 227 221 220
f 221 222 228 227
f 227 228 222 221
f 222 217 223 228
f 228 223 217 222
# North side vertical grid x=-0.047
v -0.043103 0.142250 -0.140000
v -0.047000 0.144500 -0.140000
v -0.050897 0.142250 -0.140000
v -0.050897 0.137750 -0.140000
v -0.047000 0.135500 -0.140000
v -0.043103 0.137750 -0.140000
v -0.043103 0.142250 0.140000
v -0.047000 0.144500 0.140000
v -0.050897 0.142250 0.140000
v -0.050897 0.137750 0.140000
v -0.047000 0.135500 0.140000
v -0.043103 0.137750 0.140000
f 229 230 231 232 233 234
f 234 233 232 231 230 229
f 240 239 238 237 236 235
f 235 236 237 238 239 240
f 229 230 236 235
f 235 236 230 229
f 230 231 237 236
f 236 237 231 230
f 231 232 238 237
f 237 238 232 231
f 232 233 239 238
f 238 239 233 232
f 233 234 240 239
f 239 240 234 233
f 234 229 235 240
f 240 235 229 234
# North side vertical grid x=0.000
v 0.003897 0.142250 -0.140000
v 0.000000 0.144500 -0.140000
v -0.003897 0.142250 -0.140000
v -0.003897 0.137750 -0.140000
v -0.000000 0.135500 -0.140000
v 0.003897 0.137750 -0.140000
v 0.003897 0.142250 0.140000
v 0.000000 0.144500 0.140000
v -0.003897 0.142250 0.140000
v -0.003897 0.137750 0.140000
v -0.000000 0.135500 0.140000
v 0.003897 0.137750 0.140000
f 241 242 243 244 245 246
f 246 245 244 243 242 241
f 252 251 250 249 248 247
f 247 248 249 250 251 252
f 241 242 248 247
f 247 248 242 241
f 242 243 249 248
f 248 249 243 242
f 243 244 250 249
f 249 250 244 243
f 244 245 251 250
f 250 251 245 244
f 245 246 252 251
f 251 252 246 245
f 246 241 247 252
f 252 247 241 246
# North side vertical grid x=0.047
v 0.050897 0.142250 -0.140000
v 0.047000 0.144500 -0.140000
v 0.043103 0.142250 -0.140000
v 0.043103 0.137750 -0.140000
v 0.047000 0.135500 -0.140000
v 0.050897 0.137750 -0.140000
v 0.050897 0.142250 0.140000
v 0.047000 0.144500 0.140000
v 0.043103 0.142250 0.140000
v 0.043103 0.137750 0.140000
v 0.047000 0.135500 0.140000
v 0.050897 0.137750 0.140000
f 253 254 255 256 257 258
f 258 257 256 255 254 253
f 264 263 262 261 260 259
f 259 260 261 262 263 264
f 253 254 260 259
f 259 260 254 253
f 254 255 261 260
f 260 261 255 254
f 255 256 262 261
f 261 262 256 255
f 256 257 263 262
f 262 263 257 256
f 257 258 264 263
f 263 264 258 257
f 258 253 259 264
f 264 259 253 258
# North side vertical grid x=0.094
v 0.097897 0.142250 -0.140000
v 0.094000 0.144500 -0.140000
v 0.090103 0.142250 -0.140000
v 0.090103 0.137750 -0.140000
v 0.094000 0.135500 -0.140000
v 0.097897 0.137750 -0.140000
v 0.097897 0.142250 0.140000
v 0.094000 0.144500 0.140000
v 0.090103 0.142250 0.140000
v 0.090103 0.137750 0.140000
v 0.094000 0.135500 0.140000
v 0.097897 0.137750 0.140000
f 265 266 267 268 269 270
f 270 269 268 267 266 265
f 276 275 274 273 272 271
f 271 272 273 274 275 276
f 265 266 272 271
f 271 272 266 265
f 266 267 273 272
f 272 273 267 266
f 267 268 274 273
f 273 274 268 267
f 268 269 275 274
f 274 275 269 268
f 269 270 276 275
f 275 276 270 269
f 270 265 271 276
f 276 271 265 270
# North side vertical grid x=0.141
v 0.144897 0.142250 -0.140000
v 0.141000 0.144500 -0.140000
v 0.137103 0.142250 -0.140000
v 0.137103 0.137750 -0.140000
v 0.141000 0.135500 -0.140000
v 0.144897 0.137750 -0.140000
v 0.144897 0.142250 0.140000
v 0.141000 0.144500 0.140000
v 0.137103 0.142250 0.140000
v 0.137103 0.137750 0.140000
v 0.141000 0.135500 0.140000
v 0.144897 0.137750 0.140000
f 277 278 279 280 281 282
f 282 281 280 279 278 277
f 288 287 286 285 284 283
f 283 284 285 286 287 288
f 277 278 284 283
f 283 284 278 277
f 278 279 285 284
f 284 285 279 278
f 279 280 286 285
f 285 286 280 279
f 280 281 287 286
f 286 287 281 280
f 281 282 288 287
f 287 288 282 281
f 282 277 283 288
f 288 283 277 282
# North side vertical grid x=0.188
v 0.191897 0.142250 -0.140000
v 0.188000 0.144500 -0.140000
v 0.184103 0.142250 -0.140000
v 0.184103 0.137750 -0.140000
v 0.188000 0.135500 -0.140000
v 0.191897 0.137750 -0.140000
v 0.191897 0.142250 0.140000
v 0.188000 0.144500 0.140000
v 0.184103 0.142250 0.140000
v 0.184103 0.137750 0.140000
v 0.188000 0.135500 0.140000
v 0.191897 0.137750 0.140000
f 289 290 291 292 293 294
f 294 293 292 291 290 289
f 300 299 298 297 296 295
f 295 296 297 298 299 300
f 289 290 296 295
f 295 296 290 289
f 290 291 297 296
f 296 297 291 290
f 291 292 298 297
f 297 298 292 291
f 292 293 299 298
f 298 299 293 292
f 293 294 300 299
f 299 300 294 293
f 294 289 295 300
f 300 295 289 294
# North side horizontal grid z=-0.140
v -0.188000 0.143897 -0.137750
v -0.188000 0.140000 -0.135500
v -0.188000 0.136103 -0.137750
v -0.188000 0.136103 -0.142250
v -0.188000 0.140000 -0.144500
v -0.188000 0.143897 -0.142250
v 0.188000 0.143897 -0.137750
v 0.188000 0.140000 -0.135500
v 0.188000 0.136103 -0.137750
v 0.188000 0.136103 -0.142250
v 0.188000 0.140000 -0.144500
v 0.188000 0.143897 -0.142250
f 301 302 303 304 305 306
f 306 305 304 303 302 301
f 312 311 310 309 308 307
f 307 308 309 310 311 312
f 301 302 308 307
f 307 308 302 301
f 302 303 309 308
f 308 309 303 302
f 303 304 310 309
f 309 310 304 303
f 304 305 311 310
f 310 311 305 304
f 305 306 312 311
f 311 312 306 305
f 306 301 307 312
f 312 307 301 306
# North side horizontal grid z=-0.093
v -0.188000 0.143897 -0.091083
v -0.188000 0.140000 -0.088833
v -0.188000 0.136103 -0.091083
v -0.188000 0.136103 -0.095583
v -0.188000 0.140000 -0.097833
v -0.188000 0.143897 -0.095583
v 0.188000 0.143897 -0.091083
v 0.188000 0.140000 -0.088833
v 0.188000 0.136103 -0.091083
v 0.188000 0.136103 -0.095583
v 0.188000 0.140000 -0.097833
v 0.188000 0.143897 -0.095583
f 313 314 315 316 317 318
f 318 317 316 315 314 313
f 324 323 322 321 320 319
f 319 320 321 322 323 324
f 313 314 320 319
f 319 320 314 313
f 314 315 321 320
f 320 321 315 314
f 315 316 322 321
f 321 322 316 315
f 316 317 323 322
f 322 323 317 316
f 317 318 324 323
f 323 324 318 317
f 318 313 319 324
f 324 319 313 318
# North side horizontal grid z=-0.047
v -0.188000 0.143897 -0.044417
v -0.188000 0.140000 -0.042167
v -0.188000 0.136103 -0.044417
v -0.188000 0.136103 -0.048917
v -0.188000 0.140000 -0.051167
v -0.188000 0.143897 -0.048917
v 0.188000 0.143897 -0.044417
v 0.188000 0.140000 -0.042167
v 0.188000 0.136103 -0.044417
v 0.188000 0.136103 -0.048917
v 0.188000 0.140000 -0.051167
v 0.188000 0.143897 -0.048917
f 325 326 327 328 329 330
f 330 329 328 327 326 325
f 336 335 334 333 332 331
f 331 332 333 334 335 336
f 325 326 332 331
f 331 332 326 325
f 326 327 333 332
f 332 333 327 326
f 327 328 334 333
f 333 334 328 327
f 328 329 335 334
f 334 335 329 328
f 329 330 336 335
f 335 336 330 329
f 330 325 331 336
f 336 331 325 330
# North side horizontal grid z=0.000
v -0.188000 0.143897 0.002250
v -0.188000 0.140000 0.004500
v -0.188000 0.136103 0.002250
v -0.188000 0.136103 -0.002250
v -0.188000 0.140000 -0.004500
v -0.188000 0.143897 -0.002250
v 0.188000 0.143897 0.002250
v 0.188000 0.140000 0.004500
v 0.188000 0.136103 0.002250
v 0.188000 0.136103 -0.002250
v 0.188000 0.140000 -0.004500
v 0.188000 0.143897 -0.002250
f 337 338 339 340 341 342
f 342 341 340 339 338 337
f 348 347 346 345 344 343
f 343 344 345 346 347 348
f 337 338 344 343
f 343 344 338 337
f 338 339 345 344
f 344 345 339 338
f 339 340 346 345
f 345 346 340 339
f 340 341 347 346
f 346 347 341 340
f 341 342 348 347
f 347 348 342 341
f 342 337 343 348
f 348 343 337 342
# North side horizontal grid z=0.047
v -0.188000 0.143897 0.048917
v -0.188000 0.140000 0.051167
v -0.188000 0.136103 0.048917
v -0.188000 0.136103 0.044417
v -0.188000 0.140000 0.042167
v -0.188000 0.143897 0.044417
v 0.188000 0.143897 0.048917
v 0.188000 0.140000 0.051167
v 0.188000 0.136103 0.048917
v 0.188000 0.136103 0.044417
v 0.188000 0.140000 0.042167
v 0.188000 0.143897 0.044417
f 349 350 351 352 353 354
f 354 353 352 351 350 349
f 360 359 358 357 356 355
f 355 356 357 358 359 360
f 349 350 356 355
f 355 356 350 349
f 350 351 357 356
f 356 357 351 350
f 351 352 358 357
f 357 358 352 351
f 352 353 359 358
f 358 359 353 352
f 353 354 360 359
f 359 360 354 353
f 354 349 355 360
f 360 355 349 354
# North side horizontal grid z=0.093
v -0.188000 0.143897 0.095583
v -0.188000 0.140000 0.097833
v -0.188000 0.136103 0.095583
v -0.188000 0.136103 0.091083
v -0.188000 0.140000 0.088833
v -0.188000 0.143897 0.091083
v 0.188000 0.143897 0.095583
v 0.188000 0.140000 0.097833
v 0.188000 0.136103 0.095583
v 0.188000 0.136103 0.091083
v 0.188000 0.140000 0.088833
v 0.188000 0.143897 0.091083
f 361 362 363 364 365 366
f 366 365 364 363 362 361
f 372 371 370 369 368 367
f 367 368 369 370 371 372
f 361 362 368 367
f 367 368 362 361
f 362 363 369 368
f 368 369 363 362
f 363 364 370 369
f 369 370 364 363
f 364 365 371 370
f 370 371 365 364
f 365 366 372 371
f 371 372 366 365
f 366 361 367 372
f 372 367 361 366
# North side horizontal grid z=0.140
v -0.188000 0.143897 0.142250
v -0.188000 0.140000 0.144500
v -0.188000 0.136103 0.142250
v -0.188000 0.136103 0.137750
v -0.188000 0.140000 0.135500
v -0.188000 0.143897 0.137750
v 0.188000 0.143897 0.142250
v 0.188000 0.140000 0.144500
v 0.188000 0.136103 0.142250
v 0.188000 0.136103 0.137750
v 0.188000 0.140000 0.135500
v 0.188000 0.143897 0.137750
f 373 374 375 376 377 378
f 378 377 376 375 374 373
f 384 383 382 381 380 379
f 379 380 381 382 383 384
f 373 374 380 379
f 379 380 374 373
f 374 375 381 380
f 380 381 375 374
f 375 376 382 381
f 381 382 376 375
f 376 377 383 382
f 382 383 377 376
f 377 378 384 383
f 383 384 378 377
f 378 373 379 384
f 384 379 373 378
# West side vertical grid y=-0.134
v -0.184103 -0.131750 -0.140000
v -0.188000 -0.129500 -0.140000
v -0.191897 -0.131750 -0.140000
v -0.191897 -0.136250 -0.140000
v -0.188000 -0.138500 -0.140000
v -0.184103 -0.136250 -0.140000
v -0.184103 -0.131750 0.140000
v -0.188000 -0.129500 0.140000
v -0.191897 -0.131750 0.140000
v -0.191897 -0.136250 0.140000
v -0.188000 -0.138500 0.140000
v -0.184103 -0.136250 0.140000
f 385 386 387 388 389 390
f 390 389 388 387 386 385
f 396 395 394 393 392 391
f 391 392 393 394 395 396
f 385 386 392 391
f 391 392 386 385
f 386 387 393 392
f 392 393 387 386
f 387 388 394 393
f 393 394 388 387
f 388 389 395 394
f 394 395 389 388
f 389 390 396 395
f 395 396 390 389
f 390 385 391 396
f 396 391 385 390
# West side vertical grid y=-0.089
v -0.184103 -0.087083 -0.140000
v -0.188000 -0.084833 -0.140000
v -0.191897 -0.087083 -0.140000
v -0.191897 -0.091583 -0.140000
v -0.188000 -0.093833 -0.140000
v -0.184103 -0.091583 -0.140000
v -0.184103 -0.087083 0.140000
v -0.188000 -0.084833 0.140000
v -0.191897 -0.087083 0.140000
v -0.191897 -0.091583 0.140000
v -0.188000 -0.093833 0.140000
v -0.184103 -0.091583 0.140000
f 397 398 399 400 401 402
f 402 401 400 399 398 397
f 408 407 406 405 404 403
f 403 404 405 406 407 408
f 397 398 404 403
f 403 404 398 397
f 398 399 405 404
f 404 405 399 398
f 399 400 406 405
f 405 406 400 399
f 400 401 407 406
f 406 407 401 400
f 401 402 408 407
f 407 408 402 401
f 402 397 403 408
f 408 403 397 402
# West side vertical grid y=-0.045
v -0.184103 -0.042417 -0.140000
v -0.188000 -0.040167 -0.140000
v -0.191897 -0.042417 -0.140000
v -0.191897 -0.046917 -0.140000
v -0.188000 -0.049167 -0.140000
v -0.184103 -0.046917 -0.140000
v -0.184103 -0.042417 0.140000
v -0.188000 -0.040167 0.140000
v -0.191897 -0.042417 0.140000
v -0.191897 -0.046917 0.140000
v -0.188000 -0.049167 0.140000
v -0.184103 -0.046917 0.140000
f 409 410 411 412 413 414
f 414 413 412 411 410 409
f 420 419 418 417 416 415
f 415 416 417 418 419 420
f 409 410 416 415
f 415 416 410 409
f 410 411 417 416
f 416 417 411 410
f 411 412 418 417
f 417 418 412 411
f 412 413 419 418
f 418 419 413 412
f 413 414 420 419
f 419 420 414 413
f 414 409 415 420
f 420 415 409 414
# West side vertical grid y=0.000
v -0.184103 0.002250 -0.140000
v -0.188000 0.004500 -0.140000
v -0.191897 0.002250 -0.140000
v -0.191897 -0.002250 -0.140000
v -0.188000 -0.004500 -0.140000
v -0.184103 -0.002250 -0.140000
v -0.184103 0.002250 0.140000
v -0.188000 0.004500 0.140000
v -0.191897 0.002250 0.140000
v -0.191897 -0.002250 0.140000
v -0.188000 -0.004500 0.140000
v -0.184103 -0.002250 0.140000
f 421 422 423 424 425 426
f 426 425 424 423 422 421
f 432 431 430 429 428 427
f 427 428 429 430 431 432
f 421 422 428 427
f 427 428 422 421
f 422 423 429 428
f 428 429 423 422
f 423 424 430 429
f 429 430 424 423
f 424 425 431 430
f 430 431 425 424
f 425 426 432 431
f 431 432 426 425
f 426 421 427 432
f 432 427 421 426
# West side vertical grid y=0.045
v -0.184103 0.046917 -0.140000
v -0.188000 0.049167 -0.140000
v -0.191897 0.046917 -0.140000
v -0.191897 0.042417 -0.140000
v -0.188000 0.040167 -0.140000
v -0.184103 0.042417 -0.140000
v -0.184103 0.046917 0.140000
v -0.188000 0.049167 0.140000
v -0.191897 0.046917 0.140000
v -0.191897 0.042417 0.140000
v -0.188000 0.040167 0.140000
v -0.184103 0.042417 0.140000
f 433 434 435 436 437 438
f 438 437 436 435 434 433
f 444 443 442 441 440 439
f 439 440 441 442 443 444
f 433 434 440 439
f 439 440 434 433
f 434 435 441 440
f 440 441 435 434
f 435 436 442 441
f 441 442 436 435
f 436 437 443 442
f 442 443 437 436
f 437 438 444 443
f 443 444 438 437
f 438 433 439 444
f 444 439 433 438
# West side vertical grid y=0.089
v -0.184103 0.091583 -0.140000
v -0.188000 0.093833 -0.140000
v -0.191897 0.091583 -0.140000
v -0.191897 0.087083 -0.140000
v -0.188000 0.084833 -0.140000
v -0.184103 0.087083 -0.140000
v -0.184103 0.091583 0.140000
v -0.188000 0.093833 0.140000
v -0.191897 0.091583 0.140000
v -0.191897 0.087083 0.140000
v -0.188000 0.084833 0.140000
v -0.184103 0.087083 0.140000
f 445 446 447 448 449 450
f 450 449 448 447 446 445
f 456 455 454 453 452 451
f 451 452 453 454 455 456
f 445 446 452 451
f 451 452 446 445
f 446 447 453 452
f 452 453 447 446
f 447 448 454 453
f 453 454 448 447
f 448 449 455 454
f 454 455 449 448
f 449 450 456 455
f 455 456 450 449
f 450 445 451 456
f 456 451 445 450
# West side vertical grid y=0.134
v -0.184103 0.136250 -0.140000
v -0.188000 0.138500 -0.140000
v -0.191897 0.136250 -0.140000
v -0.191897 0.131750 -0.140000
v -0.188000 0.129500 -0.140000
v -0.184103 0.131750 -0.140000
v -0.184103 0.136250 0.140000
v -0.188000 0.138500 0.140000
v -0.191897 0.136250 0.140000
v -0.191897 0.131750 0.140000
v -0.188000 0.129500 0.140000
v -0.184103 0.131750 0.140000
f 457 458 459 460 461 462
f 462 461 460 459 458 457
f 468 467 466 465 464 463
f 463 464 465 466 467 468
f 457 458 464 463
f 463 464 458 457
f 458 459 465 464
f 464 465 459 458
f 459 460 466 465
f 465 466 460 459
f 460 461 467 466
f 466 467 461 460
f 461 462 468 467
f 467 468 462 461
f 462 457 463 468
f 468 463 457 462
# West side horizontal grid z=-0.140
v -0.184103 -0.134000 -0.137750
v -0.188000 -0.134000 -0.135500
v -0.191897 -0.134000 -0.137750
v -0.191897 -0.134000 -0.142250
v -0.188000 -0.134000 -0.144500
v -0.184103 -0.134000 -0.142250
v -0.184103 0.134000 -0.137750
v -0.188000 0.134000 -0.135500
v -0.191897 0.134000 -0.137750
v -0.191897 0.134000 -0.142250
v -0.188000 0.134000 -0.144500
v -0.184103 0.134000 -0.142250
f 469 470 471 472 473 474
f 474 473 472 471 470 469
f 480 479 478 477 476 475
f 475 476 477 478 479 480
f 469 470 476 475
f 475 476 470 469
f 470 471 477 476
f 476 477 471 470
f 471 472 478 477
f 477 478 472 471
f 472 473 479 478
f 478 479 473 472
f 473 474 480 479
f 479 480 474 473
f 474 469 475 480
f 480 475 469 474
# West side horizontal grid z=-0.093
v -0.184103 -0.134000 -0.091083
v -0.188000 -0.134000 -0.088833
v -0.191897 -0.134000 -0.091083
v -0.191897 -0.134000 -0.095583
v -0.188000 -0.134000 -0.097833
v -0.184103 -0.134000 -0.095583
v -0.184103 0.134000 -0.091083
v -0.188000 0.134000 -0.088833
v -0.191897 0.134000 -0.091083
v -0.191897 0.134000 -0.095583
v -0.188000 0.134000 -0.097833
v -0.184103 0.134000 -0.095583
f 481 482 483 484 485 486
f 486 485 484 483 482 481
f 492 491 490 489 488 487
f 487 488 489 490 491 492
f 481 482 488 487
f 487 488 482 481
f 482 483 489 488
f 488 489 483 482
f 483 484 490 489
f 489 490 484 483
f 484 485 491 490
f 490 491 485 484
f 485 486 492 491
f 491 492 486 485
f 486 481 487 492
f 492 487 481 486
# West side horizontal grid z=-0.047
v -0.184103 -0.134000 -0.044417
v -0.188000 -0.134000 -0.042167
v -0.191897 -0.134000 -0.044417
v -0.191897 -0.134000 -0.048917
v -0.188000 -0.134000 -0.051167
v -0.184103 -0.134000 -0.048917
v -0.184103 0.134000 -0.044417
v -0.188000 0.134000 -0.042167
v -0.191897 0.134000 -0.044417
v -0.191897 0.134000 -0.048917
v -0.188000 0.134000 -0.051167
v -0.184103 0.134000 -0.048917
f 493 494 495 496 497 498
f 498 497 496 495 494 493
f 504 503 502 501 500 499
f 499 500 501 502 503 504
f 493 494 500 499
f 499 500 494 493
f 494 495 501 500
f 500 501 495 494
f 495 496 502 501
f 501 502 496 495
f 496 497 503 502
f 502 503 497 496
f 497 498 504 503
f 503 504 498 497
f 498 493 499 504
f 504 499 493 498
# West side horizontal grid z=0.000
v -0.184103 -0.134000 0.002250
v -0.188000 -0.134000 0.004500
v -0.191897 -0.134000 0.002250
v -0.191897 -0.134000 -0.002250
v -0.188000 -0.134000 -0.004500
v -0.184103 -0.134000 -0.002250
v -0.184103 0.134000 0.002250
v -0.188000 0.134000 0.004500
v -0.191897 0.134000 0.002250
v -0.191897 0.134000 -0.002250
v -0.188000 0.134000 -0.004500
v -0.184103 0.134000 -0.002250
f 505 506 507 508 509 510
f 510 509 508 507 506 505
f 516 515 514 513 512 511
f 511 512 513 514 515 516
f 505 506 512 511
f 511 512 506 505
f 506 507 513 512
f 512 513 507 506
f 507 508 514 513
f 513 514 508 507
f 508 509 515 514
f 514 515 509 508
f 509 510 516 515
f 515 516 510 509
f 510 505 511 516
f 516 511 505 510
# West side horizontal grid z=0.047
v -0.184103 -0.134000 0.048917
v -0.188000 -0.134000 0.051167
v -0.191897 -0.134000 0.048917
v -0.191897 -0.134000 0.044417
v -0.188000 -0.134000 0.042167
v -0.184103 -0.134000 0.044417
v -0.184103 0.134000 0.048917
v -0.188000 0.134000 0.051167
v -0.191897 0.134000 0.048917
v -0.191897 0.134000 0.044417
v -0.188000 0.134000 0.042167
v -0.184103 0.134000 0.044417
f 517 518 519 520 521 522
f 522 521 520 519 518 517
f 528 527 526 525 524 523
f 523 524 525 526 527 528
f 517 518 524 523
f 523 524 518 517
f 518 519 525 524
f 524 525 519 518
f 519 520 526 525
f 525 526 520 519
f 520 521 527 526
f 526 527 521 520
f 521 522 528 527
f 527 528 522 521
f 522 517 523 528
f 528 523 517 522
# West side horizontal grid z=0.093
v -0.184103 -0.134000 0.095583
v -0.188000 -0.134000 0.097833
v -0.191897 -0.134000 0.095583
v -0.191897 -0.134000 0.091083
v -0.188000 -0.134000 0.088833
v -0.184103 -0.134000 0.091083
v -0.184103 0.134000 0.095583
v -0.188000 0.134000 0.097833
v -0.191897 0.134000 0.095583
v -0.191897 0.134000 0.091083
v -0.188000 0.134000 0.088833
v -0.184103 0.134000 0.091083
f 529 530 531 532 533 534
f 534 533 532 531 530 529
f 540 539 538 537 536 535
f 535 536 537 538 539 540
f 529 530 536 535
f 535 536 530 529
f 530 531 537 536
f 536 537 531 530
f 531 532 538 537
f 537 538 532 531
f 532 533 539 538
f 538 539 533 532
f 533 534 540 539
f 539 540 534 533
f 534 529 535 540
f 540 535 529 534
# West side horizontal grid z=0.140
v -0.184103 -0.134000 0.142250
v -0.188000 -0.134000 0.144500
v -0.191897 -0.134000 0.142250
v -0.191897 -0.134000 0.137750
v -0.188000 -0.134000 0.135500
v -0.184103 -0.134000 0.137750
v -0.184103 0.134000 0.142250
v -0.188000 0.134000 0.144500
v -0.191897 0.134000 0.142250
v -0.191897 0.134000 0.137750
v -0.188000 0.134000 0.135500
v -0.184103 0.134000 0.137750
f 541 542 543 544 545 546
f 546 545 544 543 542 541
f 552 551 550 549 548 547
f 547 548 549 550 551 552
f 541 542 548 547
f 547 548 542 541
f 542 543 549 548
f 548 549 543 542
f 543 544 550 549
f 549 550 544 543
f 544 545 551 550
f 550 551 545 544
f 545 546 552 551
f 551 552 546 545
f 546 541 547 552
f 552 547 541 546
# East side vertical grid y=-0.134
v 0.191897 -0.131750 -0.140000
v 0.188000 -0.129500 -0.140000
v 0.184103 -0.131750 -0.140000
v 0.184103 -0.136250 -0.140000
v 0.188000 -0.138500 -0.140000
v 0.191897 -0.136250 -0.140000
v 0.191897 -0.131750 0.140000
v 0.188000 -0.129500 0.140000
v 0.184103 -0.131750 0.140000
v 0.184103 -0.136250 0.140000
v 0.188000 -0.138500 0.140000
v 0.191897 -0.136250 0.140000
f 553 554 555 556 557 558
f 558 557 556 555 554 553
f 564 563 562 561 560 559
f 559 560 561 562 563 564
f 553 554 560 559
f 559 560 554 553
f 554 555 561 560
f 560 561 555 554
f 555 556 562 561
f 561 562 556 555
f 556 557 563 562
f 562 563 557 556
f 557 558 564 563
f 563 564 558 557
f 558 553 559 564
f 564 559 553 558
# East side vertical grid y=-0.089
v 0.191897 -0.087083 -0.140000
v 0.188000 -0.084833 -0.140000
v 0.184103 -0.087083 -0.140000
v 0.184103 -0.091583 -0.140000
v 0.188000 -0.093833 -0.140000
v 0.191897 -0.091583 -0.140000
v 0.191897 -0.087083 0.140000
v 0.188000 -0.084833 0.140000
v 0.184103 -0.087083 0.140000
v 0.184103 -0.091583 0.140000
v 0.188000 -0.093833 0.140000
v 0.191897 -0.091583 0.140000
f 565 566 567 568 569 570
f 570 569 568 567 566 565
f 576 575 574 573 572 571
f 571 572 573 574 575 576
f 565 566 572 571
f 571 572 566 565
f 566 567 573 572
f 572 573 567 566
f 567 568 574 573
f 573 574 568 567
f 568 569 575 574
f 574 575 569 568
f 569 570 576 575
f 575 576 570 569
f 570 565 571 576
f 576 571 565 570
# East side vertical grid y=-0.045
v 0.191897 -0.042417 -0.140000
v 0.188000 -0.040167 -0.140000
v 0.184103 -0.042417 -0.140000
v 0.184103 -0.046917 -0.140000
v 0.188000 -0.049167 -0.140000
v 0.191897 -0.046917 -0.140000
v 0.191897 -0.042417 0.140000
v 0.188000 -0.040167 0.140000
v 0.184103 -0.042417 0.140000
v 0.184103 -0.046917 0.140000
v 0.188000 -0.049167 0.140000
v 0.191897 -0.046917 0.140000
f 577 578 579 580 581 582
f 582 581 580 579 578 577
f 588 587 586 585 584 583
f 583 584 585 586 587 588
f 577 578 584 583
f 583 584 578 577
f 578 579 585 584
f 584 585 579 578
f 579 580 586 585
f 585 586 580 579
f 580 581 587 586
f 586 587 581 580
f 581 582 588 587
f 587 588 582 581
f 582 577 583 588
f 588 583 577 582
# East side vertical grid y=0.000
v 0.191897 0.002250 -0.140000
v 0.188000 0.004500 -0.140000
v 0.184103 0.002250 -0.140000
v 0.184103 -0.002250 -0.140000
v 0.188000 -0.004500 -0.140000
v 0.191897 -0.002250 -0.140000
v 0.191897 0.002250 0.140000
v 0.188000 0.004500 0.140000
v 0.184103 0.002250 0.140000
v 0.184103 -0.002250 0.140000
v 0.188000 -0.004500 0.140000
v 0.191897 -0.002250 0.140000
f 589 590 591 592 593 594
f 594 593 592 591 590 589
f 600 599 598 597 596 595
f 595 596 597 598 599 600
f 589 590 596 595
f 595 596 590 589
f 590 591 597 596
f 596 597 591 590
f 591 592 598 597
f 597 598 592 591
f 592 593 599 598
f 598 599 593 592
f 593 594 600 599
f 599 600 594 593
f 594 589 595 600
f 600 595 589 594
# East side vertical grid y=0.045
v 0.191897 0.046917 -0.140000
v 0.188000 0.049167 -0.140000
v 0.184103 0.046917 -0.140000
v 0.184103 0.042417 -0.140000
v 0.188000 0.040167 -0.140000
v 0.191897 0.042417 -0.140000
v 0.191897 0.046917 0.140000
v 0.188000 0.049167 0.140000
v 0.184103 0.046917 0.140000
v 0.184103 0.042417 0.140000
v 0.188000 0.040167 0.140000
v 0.191897 0.042417 0.140000
f 601 602 603 604 605 606
f 606 605 604 603 602 601
f 612 611 610 609 608 607
f 607 608 609 610 611 612
f 601 602 608 607
f 607 608 602 601
f 602 603 609 608
f 608 609 603 602
f 603 604 610 609
f 609 610 604 603
f 604 605 611 610
f 610 611 605 604
f 605 606 612 611
f 611 612 606 605
f 606 601 607 612
f 612 607 601 606
# East side vertical grid y=0.089
v 0.191897 0.091583 -0.140000
v 0.188000 0.093833 -0.140000
v 0.184103 0.091583 -0.140000
v 0.184103 0.087083 -0.140000
v 0.188000 0.084833 -0.140000
v 0.191897 0.087083 -0.140000
v 0.191897 0.091583 0.140000
v 0.188000 0.093833 0.140000
v 0.184103 0.091583 0.140000
v 0.184103 0.087083 0.140000
v 0.188000 0.084833 0.140000
v 0.191897 0.087083 0.140000
f 613 614 615 616 617 618
f 618 617 616 615 614 613
f 624 623 622 621 620 619
f 619 620 621 622 623 624
f 613 614 620 619
f 619 620 614 613
f 614 615 621 620
f 620 621 615 614
f 615 616 622 621
f 621 622 616 615
f 616 617 623 622
f 622 623 617 616
f 617 618 624 623
f 623 624 618 617
f 618 613 619 624
f 624 619 613 618
# East side vertical grid y=0.134
v 0.191897 0.136250 -0.140000
v 0.188000 0.138500 -0.140000
v 0.184103 0.136250 -0.140000
v 0.184103 0.131750 -0.140000
v 0.188000 0.129500 -0.140000
v 0.191897 0.131750 -0.140000
v 0.191897 0.136250 0.140000
v 0.188000 0.138500 0.140000
v 0.184103 0.136250 0.140000
v 0.184103 0.131750 0.140000
v 0.188000 0.129500 0.140000
v 0.191897 0.131750 0.140000
f 625 626 627 628 629 630
f 630 629 628 627 626 625
f 636 635 634 633 632 631
f 631 632 633 634 635 636
f 625 626 632 631
f 631 632 626 625
f 626 627 633 632
f 632 633 627 626
f 627 628 634 633
f 633 634 628 627
f 628 629 635 634
f 634 635 629 628
f 629 630 636 635
f 635 636 630 629
f 630 625 631 636
f 636 631 625 630
# East side horizontal grid z=-0.140
v 0.191897 -0.134000 -0.137750
v 0.188000 -0.134000 -0.135500
v 0.184103 -0.134000 -0.137750
v 0.184103 -0.134000 -0.142250
v 0.188000 -0.134000 -0.144500
v 0.191897 -0.134000 -0.142250
v 0.191897 0.134000 -0.137750
v 0.188000 0.134000 -0.135500
v 0.184103 0.134000 -0.137750
v 0.184103 0.134000 -0.142250
v 0.188000 0.134000 -0.144500
v 0.191897 0.134000 -0.142250
f 637 638 639 640 641 642
f 642 641 640 639 638 637
f 648 647 646 645 644 643
f 643 644 645 646 647 648
f 637 638 644 643
f 643 644 638 637
f 638 639 645 644
f 644 645 639 638
f 639 640 646 645
f 645 646 640 639
f 640 641 647 646
f 646 647 641 640
f 641 642 648 647
f 647 648 642 641
f 642 637 643 648
f 648 643 637 642
# East side horizontal grid z=-0.093
v 0.191897 -0.134000 -0.091083
v 0.188000 -0.134000 -0.088833
v 0.184103 -0.134000 -0.091083
v 0.184103 -0.134000 -0.095583
v 0.188000 -0.134000 -0.097833
v 0.191897 -0.134000 -0.095583
v 0.191897 0.134000 -0.091083
v 0.188000 0.134000 -0.088833
v 0.184103 0.134000 -0.091083
v 0.184103 0.134000 -0.095583
v 0.188000 0.134000 -0.097833
v 0.191897 0.134000 -0.095583
f 649 650 651 652 653 654
f 654 653 652 651 650 649
f 660 659 658 657 656 655
f 655 656 657 658 659 660
f 649 650 656 655
f 655 656 650 649
f 650 651 657 656
f 656 657 651 650
f 651 652 658 657
f 657 658 652 651
f 652 653 659 658
f 658 659 653 652
f 653 654 660 659
f 659 660 654 653
f 654 649 655 660
f 660 655 649 654
# East side horizontal grid z=-0.047
v 0.191897 -0.134000 -0.044417
v 0.188000 -0.134000 -0.042167
v 0.184103 -0.134000 -0.044417
v 0.184103 -0.134000 -0.048917
v 0.188000 -0.134000 -0.051167
v 0.191897 -0.134000 -0.048917
v 0.191897 0.134000 -0.044417
v 0.188000 0.134000 -0.042167
v 0.184103 0.134000 -0.044417
v 0.184103 0.134000 -0.048917
v 0.188000 0.134000 -0.051167
v 0.191897 0.134000 -0.048917
f 661 662 663 664 665 666
f 666 665 664 663 662 661
f 672 671 670 669 668 667
f 667 668 669 670 671 672
f 661 662 668 667
f 667 668 662 661
f 662 663 669 668
f 668 669 663 662
f 663 664 670 669
f 669 670 664 663
f 664 665 671 670
f 670 671 665 664
f 665 666 672 671
f 671 672 666 665
f 666 661 667 672
f 672 667 661 666
# East side horizontal grid z=0.000
v 0.191897 -0.134000 0.002250
v 0.188000 -0.134000 0.004500
v 0.184103 -0.134000 0.002250
v 0.184103 -0.134000 -0.002250
v 0.188000 -0.134000 -0.004500
v 0.191897 -0.134000 -0.002250
v 0.191897 0.134000 0.002250
v 0.188000 0.134000 0.004500
v 0.184103 0.134000 0.002250
v 0.184103 0.134000 -0.002250
v 0.188000 0.134000 -0.004500
v 0.191897 0.134000 -0.002250
f 673 674 675 676 677 678
f 678 677 676 675 674 673
f 684 683 682 681 680 679
f 679 680 681 682 683 684
f 673 674 680 679
f 679 680 674 673
f 674 675 681 680
f 680 681 675 674
f 675 676 682 681
f 681 682 676 675
f 676 677 683 682
f 682 683 677 676
f 677 678 684 683
f 683 684 678 677
f 678 673 679 684
f 684 679 673 678
# East side horizontal grid z=0.047
v 0.191897 -0.134000 0.048917
v 0.188000 -0.134000 0.051167
v 0.184103 -0.134000 0.048917
v 0.184103 -0.134000 0.044417
v 0.188000 -0.134000 0.042167
v 0.191897 -0.134000 0.044417
v 0.191897 0.134000 0.048917
v 0.188000 0.134000 0.051167
v 0.184103 0.134000 0.048917
v 0.184103 0.134000 0.044417
v 0.188000 0.134000 0.042167
v 0.191897 0.134000 0.044417
f 685 686 687 688 689 690
f 690 689 688 687 686 685
f 696 695 694 693 692 691
f 691 692 693 694 695 696
f 685 686 692 691
f 691 692 686 685
f 686 687 693 692
f 692 693 687 686
f 687 688 694 693
f 693 694 688 687
f 688 689 695 694
f 694 695 689 688
f 689 690 696 695
f 695 696 690 689
f 690 685 691 696
f 696 691 685 690
# East side horizontal grid z=0.093
v 0.191897 -0.134000 0.095583
v 0.188000 -0.134000 0.097833
v 0.184103 -0.134000 0.095583
v 0.184103 -0.134000 0.091083
v 0.188000 -0.134000 0.088833
v 0.191897 -0.134000 0.091083
v 0.191897 0.134000 0.095583
v 0.188000 0.134000 0.097833
v 0.184103 0.134000 0.095583
v 0.184103 0.134000 0.091083
v 0.188000 0.134000 0.088833
v 0.191897 0.134000 0.091083
f 697 698 699 700 701 702
f 702 701 700 699 698 697
f 708 707 706 705 704 703
f 703 704 705 706 707 708
f 697 698 704 703
f 703 704 698 697
f 698 699 705 704
f 704 705 699 698
f 699 700 706 705
f 705 706 700 699
f 700 701 707 706
f 706 707 701 700
f 701 702 708 707
f 707 708 702 701
f 702 697 703 708
f 708 703 697 702
# East side horizontal grid z=0.140
v 0.191897 -0.134000 0.142250
v 0.188000 -0.134000 0.144500
v 0.184103 -0.134000 0.142250
v 0.184103 -0.134000 0.137750
v 0.188000 -0.134000 0.135500
v 0.191897 -0.134000 0.137750
v 0.191897 0.134000 0.142250
v 0.188000 0.134000 0.144500
v 0.184103 0.134000 0.142250
v 0.184103 0.134000 0.137750
v 0.188000 0.134000 0.135500
v 0.191897 0.134000 0.137750
f 709 710 711 712 713 714
f 714 713 712 711 710 709
f 720 719 718 717 716 715
f 715 716 717 718 719 720
f 709 710 716 715
f 715 716 710 709
f 710 711 717 716
f 716 717 711 710
f 711 712 718 717
f 717 718 712 711
f 712 713 719 718
f 718 719 713 712
f 713 714 720 719
f 719 720 714 713
f 714 709 715 720
f 720 715 709 714
# Middle frame net vertical grid x=-0.188
v -0.184103 -0.134000 0.142250
v -0.188000 -0.134000 0.144500
v -0.191897 -0.134000 0.142250
v -0.191897 -0.134000 0.137750
v -0.188000 -0.134000 0.135500
v -0.184103 -0.134000 0.137750
v -0.184103 0.134000 0.142250
v -0.188000 0.134000 0.144500
v -0.191897 0.134000 0.142250
v -0.191897 0.134000 0.137750
v -0.188000 0.134000 0.135500
v -0.184103 0.134000 0.137750
f 721 722 723 724 725 726
f 726 725 724 723 722 721
f 732 731 730 729 728 727
f 727 728 729 730 731 732
f 721 722 728 727
f 727 728 722 721
f 722 723 729 728
f 728 729 723 722
f 723 724 730 729
f 729 730 724 723
f 724 725 731 730
f 730 731 725 724
f 725 726 732 731
f 731 732 726 725
f 726 721 727 732
f 732 727 721 726
# Middle frame net vertical grid x=-0.141
v -0.137103 -0.134000 0.142250
v -0.141000 -0.134000 0.144500
v -0.144897 -0.134000 0.142250
v -0.144897 -0.134000 0.137750
v -0.141000 -0.134000 0.135500
v -0.137103 -0.134000 0.137750
v -0.137103 0.134000 0.142250
v -0.141000 0.134000 0.144500
v -0.144897 0.134000 0.142250
v -0.144897 0.134000 0.137750
v -0.141000 0.134000 0.135500
v -0.137103 0.134000 0.137750
f 733 734 735 736 737 738
f 738 737 736 735 734 733
f 744 743 742 741 740 739
f 739 740 741 742 743 744
f 733 734 740 739
f 739 740 734 733
f 734 735 741 740
f 740 741 735 734
f 735 736 742 741
f 741 742 736 735
f 736 737 743 742
f 742 743 737 736
f 737 738 744 743
f 743 744 738 737
f 738 733 739 744
f 744 739 733 738
# Middle frame net vertical grid x=-0.094
v -0.090103 -0.134000 0.142250
v -0.094000 -0.134000 0.144500
v -0.097897 -0.134000 0.142250
v -0.097897 -0.134000 0.137750
v -0.094000 -0.134000 0.135500
v -0.090103 -0.134000 0.137750
v -0.090103 0.134000 0.142250
v -0.094000 0.134000 0.144500
v -0.097897 0.134000 0.142250
v -0.097897 0.134000 0.137750
v -0.094000 0.134000 0.135500
v -0.090103 0.134000 0.137750
f 745 746 747 748 749 750
f 750 749 748 747 746 745
f 756 755 754 753 752 751
f 751 752 753 754 755 756
f 745 746 752 751
f 751 752 746 745
f 746 747 753 752
f 752 753 747 746
f 747 748 754 753
f 753 754 748 747
f 748 749 755 754
f 754 755 749 748
f 749 750 756 755
f 755 756 750 749
f 750 745 751 756
f 756 751 745 750
# Middle frame net vertical grid x=-0.047
v -0.043103 -0.134000 0.142250
v -0.047000 -0.134000 0.144500
v -0.050897 -0.134000 0.142250
v -0.050897 -0.134000 0.137750
v -0.047000 -0.134000 0.135500
v -0.043103 -0.134000 0.137750
v -0.043103 0.134000 0.142250
v -0.047000 0.134000 0.144500
v -0.050897 0.134000 0.142250
v -0.050897 0.134000 0.137750
v -0.047000 0.134000 0.135500
v -0.043103 0.134000 0.137750
f 757 758 759 760 761 762
f 762 761 760 759 758 757
f 768 767 766 765 764 763
f 763 764 765 766 767 768
f 757 758 764 763
f 763 764 758 757
f 758 759 765 764
f 764 765 759 758
f 759 760 766 765
f 765 766 760 759
f 760 761 767 766
f 766 767 761 760
f 761 762 768 767
f 767 768 762 761
f 762 757 763 768
f 768 763 757 762
# Middle frame net vertical grid x=0.000
v 0.003897 -0.134000 0.142250
v 0.000000 -0.134000 0.144500
v -0.003897 -0.134000 0.142250
v -0.003897 -0.134000 0.137750
v -0.000000 -0.134000 0.135500
v 0.003897 -0.134000 0.137750
v 0.003897 0.134000 0.142250
v 0.000000 0.134000 0.144500
v -0.003897 0.134000 0.142250
v -0.003897 0.134000 0.137750
v -0.000000 0.134000 0.135500
v 0.003897 0.134000 0.137750
f 769 770 771 772 773 774
f 774 773 772 771 770 769
f 780 779 778 777 776 775
f 775 776 777 778 779 780
f 769 770 776 775
f 775 776 770 769
f 770 771 777 776
f 776 777 771 770
f 771 772 778 777
f 777 778 772 771
f 772 773 779 778
f 778 779 773 772
f 773 774 780 779
f 779 780 774 773
f 774 769 775 780
f 780 775 769 774
# Middle frame net vertical grid x=0.047
v 0.050897 -0.134000 0.142250
v 0.047000 -0.134000 0.144500
v 0.043103 -0.134000 0.142250
v 0.043103 -0.134000 0.137750
v 0.047000 -0.134000 0.135500
v 0.050897 -0.134000 0.137750
v 0.050897 0.134000 0.142250
v 0.047000 0.134000 0.144500
v 0.043103 0.134000 0.142250
v 0.043103 0.134000 0.137750
v 0.047000 0.134000 0.135500
v 0.050897 0.134000 0.137750
f 781 782 783 784 785 786
f 786 785 784 783 782 781
f 792 791 790 789 788 787
f 787 788 789 790 791 792
f 781 782 788 787
f 787 788 782 781
f 782 783 789 788
f 788 789 783 782
f 783 784 790 789
f 789 790 784 783
f 784 785 791 790
f 790 791 785 784
f 785 786 792 791
f 791 792 786 785
f 786 781 787 792
f 792 787 781 786
# Middle frame net vertical grid x=0.094
v 0.097897 -0.134000 0.142250
v 0.094000 -0.134000 0.144500
v 0.090103 -0.134000 0.142250
v 0.090103 -0.134000 0.137750
v 0.094000 -0.134000 0.135500
v 0.097897 -0.134000 0.137750
v 0.097897 0.134000 0.142250
v 0.094000 0.134000 0.144500
v 0.090103 0.134000 0.142250
v 0.090103 0.134000 0.137750
v 0.094000 0.134000 0.135500
v 0.097897 0.134000 0.137750
f 793 794 795 796 797 798
f 798 797 796 795 794 793
f 804 803 802 801 800 799
f 799 800 801 802 803 804
f 793 794 800 799
f 799 800 794 793
f 794 795 801 800
f 800 801 795 794
f 795 796 802 801
f 801 802 796 795
f 796 797 803 802
f 802 803 797 796
f 797 798 804 803
f 803 804 798 797
f 798 793 799 804
f 804 799 793 798
# Middle frame net vertical grid x=0.141
v 0.144897 -0.134000 0.142250
v 0.141000 -0.134000 0.144500
v 0.137103 -0.134000 0.142250
v 0.137103 -0.134000 0.137750
v 0.141000 -0.134000 0.135500
v 0.144897 -0.134000 0.137750
v 0.144897 0.134000 0.142250
v 0.141000 0.134000 0.144500
v 0.137103 0.134000 0.142250
v 0.137103 0.134000 0.137750
v 0.141000 0.134000 0.135500
v 0.144897 0.134000 0.137750
f 805 806 807 808 809 810
f 810 809 808 807 806 805
f 816 815 814 813 812 811
f 811 812 813 814 815 816
f 805 806 812 811
f 811 812 806 805
f 806 807 813 812
f 812 813 807 806
f 807 808 814 813
f 813 814 808 807
f 808 809 815 814
f 814 815 809 808
f 809 810 816 815
f 815 816 810 809
f 810 805 811 816
f 816 811 805 810
# Middle frame net vertical grid x=0.188
v 0.191897 -0.134000 0.142250
v 0.188000 -0.134000 0.144500
v 0.184103 -0.134000 0.142250
v 0.184103 -0.134000 0.137750
v 0.188000 -0.134000 0.135500
v 0.191897 -0.134000 0.137750
v 0.191897 0.134000 0.142250
v 0.188000 0.134000 0.144500
v 0.184103 0.134000 0.142250
v 0.184103 0.134000 0.137750
v 0.188000 0.134000 0.135500
v 0.191897 0.134000 0.137750
f 817 818 819 820 821 822
f 822 821 820 819 818 817
f 828 827 826 825 824 823
f 823 824 825 826 827 828
f 817 818 824 823
f 823 824 818 817
f 818 819 825 824
f 824 825 819 818
f 819 820 826 825
f 825 826 820 819
f 820 821 827 826
f 826 827 821 820
f 821 822 828 827
f 827 828 822 821
f 822 817 823 828
f 828 823 817 822
# Middle frame net horizontal grid y=-0.134
v -0.188000 -0.130103 0.142250
v -0.188000 -0.134000 0.144500
v -0.188000 -0.137897 0.142250
v -0.188000 -0.137897 0.137750
v -0.188000 -0.134000 0.135500
v -0.188000 -0.130103 0.137750
v 0.188000 -0.130103 0.142250
v 0.188000 -0.134000 0.144500
v 0.188000 -0.137897 0.142250
v 0.188000 -0.137897 0.137750
v 0.188000 -0.134000 0.135500
v 0.188000 -0.130103 0.137750
f 829 830 831 832 833 834
f 834 833 832 831 830 829
f 840 839 838 837 836 835
f 835 836 837 838 839 840
f 829 830 836 835
f 835 836 830 829
f 830 831 837 836
f 836 837 831 830
f 831 832 838 837
f 837 838 832 831
f 832 833 839 838
f 838 839 833 832
f 833 834 840 839
f 839 840 834 833
f 834 829 835 840
f 840 835 829 834
# Middle frame net horizontal grid y=-0.089
v -0.188000 -0.085436 0.142250
v -0.188000 -0.089333 0.144500
v -0.188000 -0.093230 0.142250
v -0.188000 -0.093230 0.137750
v -0.188000 -0.089333 0.135500
v -0.188000 -0.085436 0.137750
v 0.188000 -0.085436 0.142250
v 0.188000 -0.089333 0.144500
v 0.188000 -0.093230 0.142250
v 0.188000 -0.093230 0.137750
v 0.188000 -0.089333 0.135500
v 0.188000 -0.085436 0.137750
f 841 842 843 844 845 846
f 846 845 844 843 842 841
f 852 851 850 849 848 847
f 847 848 849 850 851 852
f 841 842 848 847
f 847 848 842 841
f 842 843 849 848
f 848 849 843 842
f 843 844 850 849
f 849 850 844 843
f 844 845 851 850
f 850 851 845 844
f 845 846 852 851
f 851 852 846 845
f 846 841 847 852
f 852 847 841 846
# Middle frame net horizontal grid y=-0.045
v -0.188000 -0.040770 0.142250
v -0.188000 -0.044667 0.144500
v -0.188000 -0.048564 0.142250
v -0.188000 -0.048564 0.137750
v -0.188000 -0.044667 0.135500
v -0.188000 -0.040770 0.137750
v 0.188000 -0.040770 0.142250
v 0.188000 -0.044667 0.144500
v 0.188000 -0.048564 0.142250
v 0.188000 -0.048564 0.137750
v 0.188000 -0.044667 0.135500
v 0.188000 -0.040770 0.137750
f 853 854 855 856 857 858
f 858 857 856 855 854 853
f 864 863 862 861 860 859
f 859 860 861 862 863 864
f 853 854 860 859
f 859 860 854 853
f 854 855 861 860
f 860 861 855 854
f 855 856 862 861
f 861 862 856 855
f 856 857 863 862
f 862 863 857 856
f 857 858 864 863
f 863 864 858 857
f 858 853 859 864
f 864 859 853 858
# Middle frame net horizontal grid y=0.000
v -0.188000 0.003897 0.142250
v -0.188000 0.000000 0.144500
v -0.188000 -0.003897 0.142250
v -0.188000 -0.003897 0.137750
v -0.188000 -0.000000 0.135500
v -0.188000 0.003897 0.137750
v 0.188000 0.003897 0.142250
v 0.188000 0.000000 0.144500
v 0.188000 -0.003897 0.142250
v 0.188000 -0.003897 0.137750
v 0.188000 -0.000000 0.135500
v 0.188000 0.003897 0.137750
f 865 866 867 868 869 870
f 870 869 868 867 866 865
f 876 875 874 873 872 871
f 871 872 873 874 875 876
f 865 866 872 871
f 871 872 866 865
f 866 867 873 872
f 872 873 867 866
f 867 868 874 873
f 873 874 868 867
f 868 869 875 874
f 874 875 869 868
f 869 870 876 875
f 875 876 870 869
f 870 865 871 876
f 876 871 865 870
# Middle frame net horizontal grid y=0.045
v -0.188000 0.048564 0.142250
v -0.188000 0.044667 0.144500
v -0.188000 0.040770 0.142250
v -0.188000 0.040770 0.137750
v -0.188000 0.044667 0.135500
v -0.188000 0.048564 0.137750
v 0.188000 0.048564 0.142250
v 0.188000 0.044667 0.144500
v 0.188000 0.040770 0.142250
v 0.188000 0.040770 0.137750
v 0.188000 0.044667 0.135500
v 0.188000 0.048564 0.137750
f 877 878 879 880 881 882
f 882 881 880 879 878 877
f 888 887 886 885 884 883
f 883 884 885 886 887 888
f 877 878 884 883
f 883 884 878 877
f 878 879 885 884
f 884 885 879 878
f 879 880 886 885
f 885 886 880 879
f 880 881 887 886
f 886 887 881 880
f 881 882 888 887
f 887 888 882 881
f 882 877 883 888
f 888 883 877 882
# Middle frame net horizontal grid y=0.089
v -0.188000 0.093230 0.142250
v -0.188000 0.089333 0.144500
v -0.188000 0.085436 0.142250
v -0.188000 0.085436 0.137750
v -0.188000 0.089333 0.135500
v -0.188000 0.093230 0.137750
v 0.188000 0.093230 0.142250
v 0.188000 0.089333 0.144500
v 0.188000 0.085436 0.142250
v 0.188000 0.085436 0.137750
v 0.188000 0.089333 0.135500
v 0.188000 0.093230 0.137750
f 889 890 891 892 893 894
f 894 893 892 891 890 889
f 900 899 898 897 896 895
f 895 896 897 898 899 900
f 889 890 896 895
f 895 896 890 889
f 890 891 897 896
f 896 897 891 890
f 891 892 898 897
f 897 898 892 891
f 892 893 899 898
f 898 899 893 892
f 893 894 900 899
f 899 900 894 893
f 894 889 895 900
f 900 895 889 894
# Middle frame net horizontal grid y=0.134
v -0.188000 0.137897 0.142250
v -0.188000 0.134000 0.144500
v -0.188000 0.130103 0.142250
v -0.188000 0.130103 0.137750
v -0.188000 0.134000 0.135500
v -0.188000 0.137897 0.137750
v 0.188000 0.137897 0.142250
v 0.188000 0.134000 0.144500
v 0.188000 0.130103 0.142250
v 0.188000 0.130103 0.137750
v 0.188000 0.134000 0.135500
v 0.188000 0.137897 0.137750
f 901 902 903 904 905 906
f 906 905 904 903 902 901
f 912 911 910 909 908 907
f 907 908 909 910 911 912
f 901 902 908 907
f 907 908 902 901
f 902 903 909 908
f 908 909 903 902
f 903 904 910 909
f 909 910 904 903
f 904 905 911 910
f 910 911 905 904
f 905 906 912 911
f 911 912 906 905
f 906 901 907 912
f 912 907 901 906
