# Guoshui 2026 four gates: white PVC support columns.
# All faces are triangles; no MTL file is required by Stonefish.
o Guoshui2026GatePart
v 7.087234 1.092132 1.100000
v 7.087234 1.092132 1.300000
v 7.088756 1.084479 1.100000
v 7.088756 1.084479 1.300000
v 7.093092 1.077990 1.100000
v 7.093092 1.077990 1.300000
v 7.099580 1.073655 1.100000
v 7.099580 1.073655 1.300000
v 7.107234 1.072132 1.100000
v 7.107234 1.072132 1.300000
v 7.114888 1.073655 1.100000
v 7.114888 1.073655 1.300000
v 7.121376 1.077990 1.100000
v 7.121376 1.077990 1.300000
v 7.125711 1.084479 1.100000
v 7.125711 1.084479 1.300000
v 7.127234 1.092132 1.100000
v 7.127234 1.092132 1.300000
v 7.125711 1.099786 1.100000
v 7.125711 1.099786 1.300000
v 7.121376 1.106274 1.100000
v 7.121376 1.106274 1.300000
v 7.114888 1.110610 1.100000
v 7.114888 1.110610 1.300000
v 7.107234 1.112132 1.100000
v 7.107234 1.112132 1.300000
v 7.099580 1.110610 1.100000
v 7.099580 1.110610 1.300000
v 7.093092 1.106274 1.100000
v 7.093092 1.106274 1.300000
v 7.088756 1.099786 1.100000
v 7.088756 1.099786 1.300000
v 7.107234 1.092132 1.100000
v 7.107234 1.092132 1.300000
v 7.472766 0.507868 1.100000
v 7.472766 0.507868 1.300000
v 7.474289 0.500214 1.100000
v 7.474289 0.500214 1.300000
v 7.478624 0.493726 1.100000
v 7.478624 0.493726 1.300000
v 7.485112 0.489390 1.100000
v 7.485112 0.489390 1.300000
v 7.492766 0.487868 1.100000
v 7.492766 0.487868 1.300000
v 7.500420 0.489390 1.100000
v 7.500420 0.489390 1.300000
v 7.506908 0.493726 1.100000
v 7.506908 0.493726 1.300000
v 7.511244 0.500214 1.100000
v 7.511244 0.500214 1.300000
v 7.512766 0.507868 1.100000
v 7.512766 0.507868 1.300000
v 7.511244 0.515521 1.100000
v 7.511244 0.515521 1.300000
v 7.506908 0.522010 1.100000
v 7.506908 0.522010 1.300000
v 7.500420 0.526345 1.100000
v 7.500420 0.526345 1.300000
v 7.492766 0.527868 1.100000
v 7.492766 0.527868 1.300000
v 7.485112 0.526345 1.100000
v 7.485112 0.526345 1.300000
v 7.478624 0.522010 1.100000
v 7.478624 0.522010 1.300000
v 7.474289 0.515521 1.100000
v 7.474289 0.515521 1.300000
v 7.492766 0.507868 1.100000
v 7.492766 0.507868 1.300000
v 5.775379 -0.050031 0.900000
v 5.775379 -0.050031 1.300000
v 5.776901 -0.057684 0.900000
v 5.776901 -0.057684 1.300000
v 5.781236 -0.064173 0.900000
v 5.781236 -0.064173 1.300000
v 5.787725 -0.068508 0.900000
v 5.787725 -0.068508 1.300000
v 5.795379 -0.070031 0.900000
v 5.795379 -0.070031 1.300000
v 5.803032 -0.068508 0.900000
v 5.803032 -0.068508 1.300000
v 5.809521 -0.064173 0.900000
v 5.809521 -0.064173 1.300000
v 5.813856 -0.057684 0.900000
v 5.813856 -0.057684 1.300000
v 5.815379 -0.050031 0.900000
v 5.815379 -0.050031 1.300000
v 5.813856 -0.042377 0.900000
v 5.813856 -0.042377 1.300000
v 5.809521 -0.035888 0.900000
v 5.809521 -0.035888 1.300000
v 5.803032 -0.031553 0.900000
v 5.803032 -0.031553 1.300000
v 5.795379 -0.030031 0.900000
v 5.795379 -0.030031 1.300000
v 5.787725 -0.031553 0.900000
v 5.787725 -0.031553 1.300000
v 5.781236 -0.035888 0.900000
v 5.781236 -0.035888 1.300000
v 5.776901 -0.042377 0.900000
v 5.776901 -0.042377 1.300000
v 5.795379 -0.050031 0.900000
v 5.795379 -0.050031 1.300000
v 5.784621 -0.749969 0.900000
v 5.784621 -0.749969 1.300000
v 5.786144 -0.757623 0.900000
v 5.786144 -0.757623 1.300000
v 5.790479 -0.764112 0.900000
v 5.790479 -0.764112 1.300000
v 5.796968 -0.768447 0.900000
v 5.796968 -0.768447 1.300000
v 5.804621 -0.769969 0.900000
v 5.804621 -0.769969 1.300000
v 5.812275 -0.768447 0.900000
v 5.812275 -0.768447 1.300000
v 5.818764 -0.764112 0.900000
v 5.818764 -0.764112 1.300000
v 5.823099 -0.757623 0.900000
v 5.823099 -0.757623 1.300000
v 5.824621 -0.749969 0.900000
v 5.824621 -0.749969 1.300000
v 5.823099 -0.742316 0.900000
v 5.823099 -0.742316 1.300000
v 5.818764 -0.735827 0.900000
v 5.818764 -0.735827 1.300000
v 5.812275 -0.731492 0.900000
v 5.812275 -0.731492 1.300000
v 5.804621 -0.729969 0.900000
v 5.804621 -0.729969 1.300000
v 5.796968 -0.731492 0.900000
v 5.796968 -0.731492 1.300000
v 5.790479 -0.735827 0.900000
v 5.790479 -0.735827 1.300000
v 5.786144 -0.742316 0.900000
v 5.786144 -0.742316 1.300000
v 5.804621 -0.749969 0.900000
v 5.804621 -0.749969 1.300000
v 4.275813 1.168180 1.100000
v 4.275813 1.168180 1.300000
v 4.277336 1.160526 1.100000
v 4.277336 1.160526 1.300000
v 4.281671 1.154038 1.100000
v 4.281671 1.154038 1.300000
v 4.288160 1.149702 1.100000
v 4.288160 1.149702 1.300000
v 4.295813 1.148180 1.100000
v 4.295813 1.148180 1.300000
v 4.303467 1.149702 1.100000
v 4.303467 1.149702 1.300000
v 4.309955 1.154038 1.100000
v 4.309955 1.154038 1.300000
v 4.314291 1.160526 1.100000
v 4.314291 1.160526 1.300000
v 4.315813 1.168180 1.100000
v 4.315813 1.168180 1.300000
v 4.314291 1.175834 1.100000
v 4.314291 1.175834 1.300000
v 4.309955 1.182322 1.100000
v 4.309955 1.182322 1.300000
v 4.303467 1.186658 1.100000
v 4.303467 1.186658 1.300000
v 4.295813 1.188180 1.100000
v 4.295813 1.188180 1.300000
v 4.288160 1.186658 1.100000
v 4.288160 1.186658 1.300000
v 4.281671 1.182322 1.100000
v 4.281671 1.182322 1.300000
v 4.277336 1.175834 1.100000
v 4.277336 1.175834 1.300000
v 4.295813 1.168180 1.100000
v 4.295813 1.168180 1.300000
v 3.984187 0.531820 1.100000
v 3.984187 0.531820 1.300000
v 3.985709 0.524166 1.100000
v 3.985709 0.524166 1.300000
v 3.990045 0.517678 1.100000
v 3.990045 0.517678 1.300000
v 3.996533 0.513342 1.100000
v 3.996533 0.513342 1.300000
v 4.004187 0.511820 1.100000
v 4.004187 0.511820 1.300000
v 4.011840 0.513342 1.100000
v 4.011840 0.513342 1.300000
v 4.018329 0.517678 1.100000
v 4.018329 0.517678 1.300000
v 4.022664 0.524166 1.100000
v 4.022664 0.524166 1.300000
v 4.024187 0.531820 1.100000
v 4.024187 0.531820 1.300000
v 4.022664 0.539474 1.100000
v 4.022664 0.539474 1.300000
v 4.018329 0.545962 1.100000
v 4.018329 0.545962 1.300000
v 4.011840 0.550298 1.100000
v 4.011840 0.550298 1.300000
v 4.004187 0.551820 1.100000
v 4.004187 0.551820 1.300000
v 3.996533 0.550298 1.100000
v 3.996533 0.550298 1.300000
v 3.990045 0.545962 1.100000
v 3.990045 0.545962 1.300000
v 3.985709 0.539474 1.100000
v 3.985709 0.539474 1.300000
v 4.004187 0.531820 1.100000
v 4.004187 0.531820 1.300000
v 2.640775 1.488436 0.900000
v 2.640775 1.488436 1.300000
v 2.642297 1.480782 0.900000
v 2.642297 1.480782 1.300000
v 2.646633 1.474294 0.900000
v 2.646633 1.474294 1.300000
v 2.653121 1.469958 0.900000
v 2.653121 1.469958 1.300000
v 2.660775 1.468436 0.900000
v 2.660775 1.468436 1.300000
v 2.668428 1.469958 0.900000
v 2.668428 1.469958 1.300000
v 2.674917 1.474294 0.900000
v 2.674917 1.474294 1.300000
v 2.679252 1.480782 0.900000
v 2.679252 1.480782 1.300000
v 2.680775 1.488436 0.900000
v 2.680775 1.488436 1.300000
v 2.679252 1.496090 0.900000
v 2.679252 1.496090 1.300000
v 2.674917 1.502578 0.900000
v 2.674917 1.502578 1.300000
v 2.668428 1.506913 0.900000
v 2.668428 1.506913 1.300000
v 2.660775 1.508436 0.900000
v 2.660775 1.508436 1.300000
v 2.653121 1.506913 0.900000
v 2.653121 1.506913 1.300000
v 2.646633 1.502578 0.900000
v 2.646633 1.502578 1.300000
v 2.642297 1.496090 0.900000
v 2.642297 1.496090 1.300000
v 2.660775 1.488436 0.900000
v 2.660775 1.488436 1.300000
v 2.819225 0.811564 0.900000
v 2.819225 0.811564 1.300000
v 2.820748 0.803910 0.900000
v 2.820748 0.803910 1.300000
v 2.825083 0.797422 0.900000
v 2.825083 0.797422 1.300000
v 2.831572 0.793087 0.900000
v 2.831572 0.793087 1.300000
v 2.839225 0.791564 0.900000
v 2.839225 0.791564 1.300000
v 2.846879 0.793087 0.900000
v 2.846879 0.793087 1.300000
v 2.853367 0.797422 0.900000
v 2.853367 0.797422 1.300000
v 2.857703 0.803910 0.900000
v 2.857703 0.803910 1.300000
v 2.859225 0.811564 0.900000
v 2.859225 0.811564 1.300000
v 2.857703 0.819218 0.900000
v 2.857703 0.819218 1.300000
v 2.853367 0.825706 0.900000
v 2.853367 0.825706 1.300000
v 2.846879 0.830042 0.900000
v 2.846879 0.830042 1.300000
v 2.839225 0.831564 0.900000
v 2.839225 0.831564 1.300000
v 2.831572 0.830042 0.900000
v 2.831572 0.830042 1.300000
v 2.825083 0.825706 0.900000
v 2.825083 0.825706 1.300000
v 2.820748 0.819218 0.900000
v 2.820748 0.819218 1.300000
v 2.839225 0.811564 0.900000
v 2.839225 0.811564 1.300000
vn -1.000000 0.000000 0.000000
vn -1.000000 0.000000 0.000000
vn -0.923880 -0.382683 0.000000
vn -0.923880 -0.382683 0.000000
vn -0.707107 -0.707107 0.000000
vn -0.707107 -0.707107 0.000000
vn -0.382683 -0.923880 0.000000
vn -0.382683 -0.923880 0.000000
vn -0.000000 -1.000000 0.000000
vn -0.000000 -1.000000 0.000000
vn 0.382683 -0.923880 0.000000
vn 0.382683 -0.923880 0.000000
vn 0.707107 -0.707107 0.000000
vn 0.707107 -0.707107 0.000000
vn 0.923880 -0.382683 0.000000
vn 0.923880 -0.382683 0.000000
vn 1.000000 -0.000000 0.000000
vn 1.000000 -0.000000 0.000000
vn 0.923880 0.382683 -0.000000
vn 0.923880 0.382683 -0.000000
vn 0.707107 0.707107 -0.000000
vn 0.707107 0.707107 -0.000000
vn 0.382683 0.923880 -0.000000
vn 0.382683 0.923880 -0.000000
vn 0.000000 1.000000 -0.000000
vn 0.000000 1.000000 -0.000000
vn -0.382683 0.923880 0.000000
vn -0.382683 0.923880 0.000000
vn -0.707107 0.707107 0.000000
vn -0.707107 0.707107 0.000000
vn -0.923880 0.382683 0.000000
vn -0.923880 0.382683 0.000000
vn -0.000000 -0.000000 -1.000000
vn 0.000000 0.000000 1.000000
vn -0.000000 -0.000000 -1.000000
vn 0.000000 0.000000 1.000000
vn -0.000000 -0.000000 -1.000000
vn 0.000000 0.000000 1.000000
vn -0.000000 -0.000000 -1.000000
vn 0.000000 0.000000 1.000000
vn -0.000000 -0.000000 -1.000000
vn 0.000000 0.000000 1.000000
vn -0.000000 -0.000000 -1.000000
vn 0.000000 0.000000 1.000000
vn -0.000000 -0.000000 -1.000000
vn 0.000000 0.000000 1.000000
vn -0.000000 -0.000000 -1.000000
vn 0.000000 0.000000 1.000000
vn -0.000000 -0.000000 -1.000000
vn 0.000000 0.000000 1.000000
vn -0.000000 -0.000000 -1.000000
vn 0.000000 0.000000 1.000000
vn -0.000000 -0.000000 -1.000000
vn 0.000000 0.000000 1.000000
vn -0.000000 -0.000000 -1.000000
vn 0.000000 0.000000 1.000000
vn -0.000000 -0.000000 -1.000000
vn 0.000000 0.000000 1.000000
vn -0.000000 -0.000000 -1.000000
vn 0.000000 0.000000 1.000000
vn -0.000000 -0.000000 -1.000000
vn 0.000000 0.000000 1.000000
vn -0.000000 -0.000000 -1.000000
vn 0.000000 0.000000 1.000000
vn -0.000000 -0.000000 -1.000000
vn 0.000000 0.000000 1.000000
vn -1.000000 0.000000 0.000000
vn -1.000000 0.000000 0.000000
vn -0.923880 -0.382683 0.000000
vn -0.923880 -0.382683 0.000000
vn -0.707107 -0.707107 0.000000
vn -0.707107 -0.707107 0.000000
vn -0.382683 -0.923880 0.000000
vn -0.382683 -0.923880 0.000000
vn -0.000000 -1.000000 0.000000
vn -0.000000 -1.000000 0.000000
vn 0.382683 -0.923880 0.000000
vn 0.382683 -0.923880 0.000000
vn 0.707107 -0.707107 0.000000
vn 0.707107 -0.707107 0.000000
vn 0.923880 -0.382683 0.000000
vn 0.923880 -0.382683 0.000000
vn 1.000000 -0.000000 0.000000
vn 1.000000 -0.000000 0.000000
vn 0.923880 0.382683 -0.000000
vn 0.923880 0.382683 -0.000000
vn 0.707107 0.707107 -0.000000
vn 0.707107 0.707107 -0.000000
vn 0.382683 0.923880 -0.000000
vn 0.382683 0.923880 -0.000000
vn 0.000000 1.000000 -0.000000
vn 0.000000 1.000000 -0.000000
vn -0.382683 0.923880 0.000000
vn -0.382683 0.923880 0.000000
vn -0.707107 0.707107 0.000000
vn -0.707107 0.707107 0.000000
vn -0.923880 0.382683 0.000000
vn -0.923880 0.382683 0.000000
vn -0.000000 -0.000000 -1.000000
vn 0.000000 0.000000 1.000000
vn -0.000000 -0.000000 -1.000000
vn 0.000000 0.000000 1.000000
vn -0.000000 -0.000000 -1.000000
vn 0.000000 0.000000 1.000000
vn -0.000000 -0.000000 -1.000000
vn 0.000000 0.000000 1.000000
vn -0.000000 -0.000000 -1.000000
vn 0.000000 0.000000 1.000000
vn -0.000000 -0.000000 -1.000000
vn 0.000000 0.000000 1.000000
vn -0.000000 -0.000000 -1.000000
vn 0.000000 0.000000 1.000000
vn -0.000000 -0.000000 -1.000000
vn 0.000000 0.000000 1.000000
vn -0.000000 -0.000000 -1.000000
vn 0.000000 0.000000 1.000000
vn -0.000000 -0.000000 -1.000000
vn 0.000000 0.000000 1.000000
vn -0.000000 -0.000000 -1.000000
vn 0.000000 0.000000 1.000000
vn -0.000000 -0.000000 -1.000000
vn 0.000000 0.000000 1.000000
vn -0.000000 -0.000000 -1.000000
vn 0.000000 0.000000 1.000000
vn -0.000000 -0.000000 -1.000000
vn 0.000000 0.000000 1.000000
vn -0.000000 -0.000000 -1.000000
vn 0.000000 0.000000 1.000000
vn -0.000000 -0.000000 -1.000000
vn 0.000000 0.000000 1.000000
vn -0.000000 -0.000000 -1.000000
vn 0.000000 0.000000 1.000000
vn -1.000000 0.000000 0.000000
vn -1.000000 0.000000 0.000000
vn -0.923880 -0.382683 0.000000
vn -0.923880 -0.382683 0.000000
vn -0.707107 -0.707107 0.000000
vn -0.707107 -0.707107 0.000000
vn -0.382683 -0.923880 0.000000
vn -0.382683 -0.923880 0.000000
vn -0.000000 -1.000000 0.000000
vn -0.000000 -1.000000 0.000000
vn 0.382683 -0.923880 0.000000
vn 0.382683 -0.923880 0.000000
vn 0.707107 -0.707107 0.000000
vn 0.707107 -0.707107 0.000000
vn 0.923880 -0.382683 0.000000
vn 0.923880 -0.382683 0.000000
vn 1.000000 -0.000000 0.000000
vn 1.000000 -0.000000 0.000000
vn 0.923880 0.382683 -0.000000
vn 0.923880 0.382683 -0.000000
vn 0.707107 0.707107 -0.000000
vn 0.707107 0.707107 -0.000000
vn 0.382683 0.923880 -0.000000
vn 0.382683 0.923880 -0.000000
vn 0.000000 1.000000 -0.000000
vn 0.000000 1.000000 -0.000000
vn -0.382683 0.923880 0.000000
vn -0.382683 0.923880 0.000000
vn -0.707107 0.707107 0.000000
vn -0.707107 0.707107 0.000000
vn -0.923880 0.382683 0.000000
vn -0.923880 0.382683 0.000000
vn -0.000000 -0.000000 -1.000000
vn 0.000000 0.000000 1.000000
vn -0.000000 -0.000000 -1.000000
vn 0.000000 0.000000 1.000000
vn -0.000000 -0.000000 -1.000000
vn 0.000000 0.000000 1.000000
vn -0.000000 -0.000000 -1.000000
vn 0.000000 0.000000 1.000000
vn -0.000000 -0.000000 -1.000000
vn 0.000000 0.000000 1.000000
vn -0.000000 -0.000000 -1.000000
vn 0.000000 0.000000 1.000000
vn -0.000000 -0.000000 -1.000000
vn 0.000000 0.000000 1.000000
vn -0.000000 -0.000000 -1.000000
vn 0.000000 0.000000 1.000000
vn -0.000000 -0.000000 -1.000000
vn 0.000000 0.000000 1.000000
vn -0.000000 -0.000000 -1.000000
vn 0.000000 0.000000 1.000000
vn -0.000000 -0.000000 -1.000000
vn 0.000000 0.000000 1.000000
vn -0.000000 -0.000000 -1.000000
vn 0.000000 0.000000 1.000000
vn -0.000000 -0.000000 -1.000000
vn 0.000000 0.000000 1.000000
vn -0.000000 -0.000000 -1.000000
vn 0.000000 0.000000 1.000000
vn -0.000000 -0.000000 -1.000000
vn 0.000000 0.000000 1.000000
vn -0.000000 -0.000000 -1.000000
vn 0.000000 0.000000 1.000000
vn -0.000000 -0.000000 -1.000000
vn 0.000000 0.000000 1.000000
vn -1.000000 0.000000 0.000000
vn -1.000000 0.000000 0.000000
vn -0.923880 -0.382683 0.000000
vn -0.923880 -0.382683 0.000000
vn -0.707107 -0.707107 0.000000
vn -0.707107 -0.707107 0.000000
vn -0.382683 -0.923880 0.000000
vn -0.382683 -0.923880 0.000000
vn -0.000000 -1.000000 0.000000
vn -0.000000 -1.000000 0.000000
vn 0.382683 -0.923880 0.000000
vn 0.382683 -0.923880 0.000000
vn 0.707107 -0.707107 0.000000
vn 0.707107 -0.707107 0.000000
vn 0.923880 -0.382683 0.000000
vn 0.923880 -0.382683 0.000000
vn 1.000000 -0.000000 0.000000
vn 1.000000 -0.000000 0.000000
vn 0.923880 0.382683 -0.000000
vn 0.923880 0.382683 -0.000000
vn 0.707107 0.707107 -0.000000
vn 0.707107 0.707107 -0.000000
vn 0.382683 0.923880 -0.000000
vn 0.382683 0.923880 -0.000000
vn 0.000000 1.000000 -0.000000
vn 0.000000 1.000000 -0.000000
vn -0.382683 0.923880 0.000000
vn -0.382683 0.923880 0.000000
vn -0.707107 0.707107 0.000000
vn -0.707107 0.707107 0.000000
vn -0.923880 0.382683 0.000000
vn -0.923880 0.382683 0.000000
vn -0.000000 -0.000000 -1.000000
vn 0.000000 0.000000 1.000000
vn -0.000000 -0.000000 -1.000000
vn 0.000000 0.000000 1.000000
vn -0.000000 -0.000000 -1.000000
vn 0.000000 0.000000 1.000000
vn -0.000000 -0.000000 -1.000000
vn 0.000000 0.000000 1.000000
vn -0.000000 -0.000000 -1.000000
vn 0.000000 0.000000 1.000000
vn -0.000000 -0.000000 -1.000000
vn 0.000000 0.000000 1.000000
vn -0.000000 -0.000000 -1.000000
vn 0.000000 0.000000 1.000000
vn -0.000000 -0.000000 -1.000000
vn 0.000000 0.000000 1.000000
vn -0.000000 -0.000000 -1.000000
vn 0.000000 0.000000 1.000000
vn -0.000000 -0.000000 -1.000000
vn 0.000000 0.000000 1.000000
vn -0.000000 -0.000000 -1.000000
vn 0.000000 0.000000 1.000000
vn -0.000000 -0.000000 -1.000000
vn 0.000000 0.000000 1.000000
vn -0.000000 -0.000000 -1.000000
vn 0.000000 0.000000 1.000000
vn -0.000000 -0.000000 -1.000000
vn 0.000000 0.000000 1.000000
vn -0.000000 -0.000000 -1.000000
vn 0.000000 0.000000 1.000000
vn -0.000000 -0.000000 -1.000000
vn 0.000000 0.000000 1.000000
vn -0.000000 -0.000000 -1.000000
vn 0.000000 0.000000 1.000000
vn -1.000000 0.000000 0.000000
vn -1.000000 0.000000 0.000000
vn -0.923880 -0.382683 0.000000
vn -0.923880 -0.382683 0.000000
vn -0.707107 -0.707107 0.000000
vn -0.707107 -0.707107 0.000000
vn -0.382683 -0.923880 0.000000
vn -0.382683 -0.923880 0.000000
vn -0.000000 -1.000000 0.000000
vn -0.000000 -1.000000 0.000000
vn 0.382683 -0.923880 0.000000
vn 0.382683 -0.923880 0.000000
vn 0.707107 -0.707107 0.000000
vn 0.707107 -0.707107 0.000000
vn 0.923880 -0.382683 0.000000
vn 0.923880 -0.382683 0.000000
vn 1.000000 -0.000000 0.000000
vn 1.000000 -0.000000 0.000000
vn 0.923880 0.382683 -0.000000
vn 0.923880 0.382683 -0.000000
vn 0.707107 0.707107 -0.000000
vn 0.707107 0.707107 -0.000000
vn 0.382683 0.923880 -0.000000
vn 0.382683 0.923880 -0.000000
vn 0.000000 1.000000 -0.000000
vn 0.000000 1.000000 -0.000000
vn -0.382683 0.923880 0.000000
vn -0.382683 0.923880 0.000000
vn -0.707107 0.707107 0.000000
vn -0.707107 0.707107 0.000000
vn -0.923880 0.382683 0.000000
vn -0.923880 0.382683 0.000000
vn -0.000000 -0.000000 -1.000000
vn 0.000000 0.000000 1.000000
vn -0.000000 -0.000000 -1.000000
vn 0.000000 0.000000 1.000000
vn -0.000000 -0.000000 -1.000000
vn 0.000000 0.000000 1.000000
vn -0.000000 -0.000000 -1.000000
vn 0.000000 0.000000 1.000000
vn -0.000000 -0.000000 -1.000000
vn 0.000000 0.000000 1.000000
vn -0.000000 -0.000000 -1.000000
vn 0.000000 0.000000 1.000000
vn -0.000000 -0.000000 -1.000000
vn 0.000000 0.000000 1.000000
vn -0.000000 -0.000000 -1.000000
vn 0.000000 0.000000 1.000000
vn -0.000000 -0.000000 -1.000000
vn 0.000000 0.000000 1.000000
vn -0.000000 -0.000000 -1.000000
vn 0.000000 0.000000 1.000000
vn -0.000000 -0.000000 -1.000000
vn 0.000000 0.000000 1.000000
vn -0.000000 -0.000000 -1.000000
vn 0.000000 0.000000 1.000000
vn -0.000000 -0.000000 -1.000000
vn 0.000000 0.000000 1.000000
vn -0.000000 -0.000000 -1.000000
vn 0.000000 0.000000 1.000000
vn -0.000000 -0.000000 -1.000000
vn 0.000000 0.000000 1.000000
vn -0.000000 -0.000000 -1.000000
vn 0.000000 0.000000 1.000000
vn -0.000000 -0.000000 -1.000000
vn 0.000000 0.000000 1.000000
vn -1.000000 0.000000 0.000000
vn -1.000000 0.000000 0.000000
vn -0.923880 -0.382683 0.000000
vn -0.923880 -0.382683 0.000000
vn -0.707107 -0.707107 0.000000
vn -0.707107 -0.707107 0.000000
vn -0.382683 -0.923880 0.000000
vn -0.382683 -0.923880 0.000000
vn -0.000000 -1.000000 0.000000
vn -0.000000 -1.000000 0.000000
vn 0.382683 -0.923880 0.000000
vn 0.382683 -0.923880 0.000000
vn 0.707107 -0.707107 0.000000
vn 0.707107 -0.707107 0.000000
vn 0.923880 -0.382683 0.000000
vn 0.923880 -0.382683 0.000000
vn 1.000000 -0.000000 0.000000
vn 1.000000 -0.000000 0.000000
vn 0.923880 0.382683 -0.000000
vn 0.923880 0.382683 -0.000000
vn 0.707107 0.707107 -0.000000
vn 0.707107 0.707107 -0.000000
vn 0.382683 0.923880 -0.000000
vn 0.382683 0.923880 -0.000000
vn 0.000000 1.000000 -0.000000
vn 0.000000 1.000000 -0.000000
vn -0.382683 0.923880 0.000000
vn -0.382683 0.923880 0.000000
vn -0.707107 0.707107 0.000000
vn -0.707107 0.707107 0.000000
vn -0.923880 0.382683 0.000000
vn -0.923880 0.382683 0.000000
vn -0.000000 -0.000000 -1.000000
vn 0.000000 0.000000 1.000000
vn -0.000000 -0.000000 -1.000000
vn 0.000000 0.000000 1.000000
vn -0.000000 -0.000000 -1.000000
vn 0.000000 0.000000 1.000000
vn -0.000000 -0.000000 -1.000000
vn 0.000000 0.000000 1.000000
vn -0.000000 -0.000000 -1.000000
vn 0.000000 0.000000 1.000000
vn -0.000000 -0.000000 -1.000000
vn 0.000000 0.000000 1.000000
vn -0.000000 -0.000000 -1.000000
vn 0.000000 0.000000 1.000000
vn -0.000000 -0.000000 -1.000000
vn 0.000000 0.000000 1.000000
vn -0.000000 -0.000000 -1.000000
vn 0.000000 0.000000 1.000000
vn -0.000000 -0.000000 -1.000000
vn 0.000000 0.000000 1.000000
vn -0.000000 -0.000000 -1.000000
vn 0.000000 0.000000 1.000000
vn -0.000000 -0.000000 -1.000000
vn 0.000000 0.000000 1.000000
vn -0.000000 -0.000000 -1.000000
vn 0.000000 0.000000 1.000000
vn -0.000000 -0.000000 -1.000000
vn 0.000000 0.000000 1.000000
vn -0.000000 -0.000000 -1.000000
vn 0.000000 0.000000 1.000000
vn -0.000000 -0.000000 -1.000000
vn 0.000000 0.000000 1.000000
vn -0.000000 -0.000000 -1.000000
vn 0.000000 0.000000 1.000000
vn -1.000000 0.000000 0.000000
vn -1.000000 0.000000 0.000000
vn -0.923880 -0.382683 0.000000
vn -0.923880 -0.382683 0.000000
vn -0.707107 -0.707107 0.000000
vn -0.707107 -0.707107 0.000000
vn -0.382683 -0.923880 0.000000
vn -0.382683 -0.923880 0.000000
vn -0.000000 -1.000000 0.000000
vn -0.000000 -1.000000 0.000000
vn 0.382683 -0.923880 0.000000
vn 0.382683 -0.923880 0.000000
vn 0.707107 -0.707107 0.000000
vn 0.707107 -0.707107 0.000000
vn 0.923880 -0.382683 0.000000
vn 0.923880 -0.382683 0.000000
vn 1.000000 -0.000000 0.000000
vn 1.000000 -0.000000 0.000000
vn 0.923880 0.382683 -0.000000
vn 0.923880 0.382683 -0.000000
vn 0.707107 0.707107 -0.000000
vn 0.707107 0.707107 -0.000000
vn 0.382683 0.923880 -0.000000
vn 0.382683 0.923880 -0.000000
vn 0.000000 1.000000 -0.000000
vn 0.000000 1.000000 -0.000000
vn -0.382683 0.923880 0.000000
vn -0.382683 0.923880 0.000000
vn -0.707107 0.707107 0.000000
vn -0.707107 0.707107 0.000000
vn -0.923880 0.382683 0.000000
vn -0.923880 0.382683 0.000000
vn -0.000000 -0.000000 -1.000000
vn 0.000000 0.000000 1.000000
vn -0.000000 -0.000000 -1.000000
vn 0.000000 0.000000 1.000000
vn -0.000000 -0.000000 -1.000000
vn 0.000000 0.000000 1.000000
vn -0.000000 -0.000000 -1.000000
vn 0.000000 0.000000 1.000000
vn -0.000000 -0.000000 -1.000000
vn 0.000000 0.000000 1.000000
vn -0.000000 -0.000000 -1.000000
vn 0.000000 0.000000 1.000000
vn -0.000000 -0.000000 -1.000000
vn 0.000000 0.000000 1.000000
vn -0.000000 -0.000000 -1.000000
vn 0.000000 0.000000 1.000000
vn -0.000000 -0.000000 -1.000000
vn 0.000000 0.000000 1.000000
vn -0.000000 -0.000000 -1.000000
vn 0.000000 0.000000 1.000000
vn -0.000000 -0.000000 -1.000000
vn 0.000000 0.000000 1.000000
vn -0.000000 -0.000000 -1.000000
vn 0.000000 0.000000 1.000000
vn -0.000000 -0.000000 -1.000000
vn 0.000000 0.000000 1.000000
vn -0.000000 -0.000000 -1.000000
vn 0.000000 0.000000 1.000000
vn -0.000000 -0.000000 -1.000000
vn 0.000000 0.000000 1.000000
vn -0.000000 -0.000000 -1.000000
vn 0.000000 0.000000 1.000000
vn -0.000000 -0.000000 -1.000000
vn 0.000000 0.000000 1.000000
vn -1.000000 0.000000 0.000000
vn -1.000000 0.000000 0.000000
vn -0.923880 -0.382683 0.000000
vn -0.923880 -0.382683 0.000000
vn -0.707107 -0.707107 0.000000
vn -0.707107 -0.707107 0.000000
vn -0.382683 -0.923880 0.000000
vn -0.382683 -0.923880 0.000000
vn -0.000000 -1.000000 0.000000
vn -0.000000 -1.000000 0.000000
vn 0.382683 -0.923880 0.000000
vn 0.382683 -0.923880 0.000000
vn 0.707107 -0.707107 0.000000
vn 0.707107 -0.707107 0.000000
vn 0.923880 -0.382683 0.000000
vn 0.923880 -0.382683 0.000000
vn 1.000000 -0.000000 0.000000
vn 1.000000 -0.000000 0.000000
vn 0.923880 0.382683 -0.000000
vn 0.923880 0.382683 -0.000000
vn 0.707107 0.707107 -0.000000
vn 0.707107 0.707107 -0.000000
vn 0.382683 0.923880 -0.000000
vn 0.382683 0.923880 -0.000000
vn 0.000000 1.000000 -0.000000
vn 0.000000 1.000000 -0.000000
vn -0.382683 0.923880 0.000000
vn -0.382683 0.923880 0.000000
vn -0.707107 0.707107 0.000000
vn -0.707107 0.707107 0.000000
vn -0.923880 0.382683 0.000000
vn -0.923880 0.382683 0.000000
vn -0.000000 -0.000000 -1.000000
vn 0.000000 0.000000 1.000000
vn -0.000000 -0.000000 -1.000000
vn 0.000000 0.000000 1.000000
vn -0.000000 -0.000000 -1.000000
vn 0.000000 0.000000 1.000000
vn -0.000000 -0.000000 -1.000000
vn 0.000000 0.000000 1.000000
vn -0.000000 -0.000000 -1.000000
vn 0.000000 0.000000 1.000000
vn -0.000000 -0.000000 -1.000000
vn 0.000000 0.000000 1.000000
vn -0.000000 -0.000000 -1.000000
vn 0.000000 0.000000 1.000000
vn -0.000000 -0.000000 -1.000000
vn 0.000000 0.000000 1.000000
vn -0.000000 -0.000000 -1.000000
vn 0.000000 0.000000 1.000000
vn -0.000000 -0.000000 -1.000000
vn 0.000000 0.000000 1.000000
vn -0.000000 -0.000000 -1.000000
vn 0.000000 0.000000 1.000000
vn -0.000000 -0.000000 -1.000000
vn 0.000000 0.000000 1.000000
vn -0.000000 -0.000000 -1.000000
vn 0.000000 0.000000 1.000000
vn -0.000000 -0.000000 -1.000000
vn 0.000000 0.000000 1.000000
vn -0.000000 -0.000000 -1.000000
vn 0.000000 0.000000 1.000000
vn -0.000000 -0.000000 -1.000000
vn 0.000000 0.000000 1.000000
vn -0.000000 -0.000000 -1.000000
vn 0.000000 0.000000 1.000000
f 1//1 3//3 4//4
f 1//1 4//4 2//2
f 3//3 5//5 6//6
f 3//3 6//6 4//4
f 5//5 7//7 8//8
f 5//5 8//8 6//6
f 7//7 9//9 10//10
f 7//7 10//10 8//8
f 9//9 11//11 12//12
f 9//9 12//12 10//10
f 11//11 13//13 14//14
f 11//11 14//14 12//12
f 13//13 15//15 16//16
f 13//13 16//16 14//14
f 15//15 17//17 18//18
f 15//15 18//18 16//16
f 17//17 19//19 20//20
f 17//17 20//20 18//18
f 19//19 21//21 22//22
f 19//19 22//22 20//20
f 21//21 23//23 24//24
f 21//21 24//24 22//22
f 23//23 25//25 26//26
f 23//23 26//26 24//24
f 25//25 27//27 28//28
f 25//25 28//28 26//26
f 27//27 29//29 30//30
f 27//27 30//30 28//28
f 29//29 31//31 32//32
f 29//29 32//32 30//30
f 31//31 1//1 2//2
f 31//31 2//2 32//32
f 33//35 3//35 1//35
f 34//36 2//36 4//36
f 33//37 5//37 3//37
f 34//38 4//38 6//38
f 33//39 7//39 5//39
f 34//40 6//40 8//40
f 33//41 9//41 7//41
f 34//42 8//42 10//42
f 33//43 11//43 9//43
f 34//44 10//44 12//44
f 33//45 13//45 11//45
f 34//46 12//46 14//46
f 33//47 15//47 13//47
f 34//48 14//48 16//48
f 33//49 17//49 15//49
f 34//50 16//50 18//50
f 33//51 19//51 17//51
f 34//52 18//52 20//52
f 33//53 21//53 19//53
f 34//54 20//54 22//54
f 33//55 23//55 21//55
f 34//56 22//56 24//56
f 33//57 25//57 23//57
f 34//58 24//58 26//58
f 33//59 27//59 25//59
f 34//60 26//60 28//60
f 33//61 29//61 27//61
f 34//62 28//62 30//62
f 33//63 31//63 29//63
f 34//64 30//64 32//64
f 33//65 1//65 31//65
f 34//66 32//66 2//66
f 35//67 37//69 38//70
f 35//67 38//70 36//68
f 37//69 39//71 40//72
f 37//69 40//72 38//70
f 39//71 41//73 42//74
f 39//71 42//74 40//72
f 41//73 43//75 44//76
f 41//73 44//76 42//74
f 43//75 45//77 46//78
f 43//75 46//78 44//76
f 45//77 47//79 48//80
f 45//77 48//80 46//78
f 47//79 49//81 50//82
f 47//79 50//82 48//80
f 49//81 51//83 52//84
f 49//81 52//84 50//82
f 51//83 53//85 54//86
f 51//83 54//86 52//84
f 53//85 55//87 56//88
f 53//85 56//88 54//86
f 55//87 57//89 58//90
f 55//87 58//90 56//88
f 57//89 59//91 60//92
f 57//89 60//92 58//90
f 59//91 61//93 62//94
f 59//91 62//94 60//92
f 61//93 63//95 64//96
f 61//93 64//96 62//94
f 63//95 65//97 66//98
f 63//95 66//98 64//96
f 65//97 35//67 36//68
f 65//97 36//68 66//98
f 67//101 37//101 35//101
f 68//102 36//102 38//102
f 67//103 39//103 37//103
f 68//104 38//104 40//104
f 67//105 41//105 39//105
f 68//106 40//106 42//106
f 67//107 43//107 41//107
f 68//108 42//108 44//108
f 67//109 45//109 43//109
f 68//110 44//110 46//110
f 67//111 47//111 45//111
f 68//112 46//112 48//112
f 67//113 49//113 47//113
f 68//114 48//114 50//114
f 67//115 51//115 49//115
f 68//116 50//116 52//116
f 67//117 53//117 51//117
f 68//118 52//118 54//118
f 67//119 55//119 53//119
f 68//120 54//120 56//120
f 67//121 57//121 55//121
f 68//122 56//122 58//122
f 67//123 59//123 57//123
f 68//124 58//124 60//124
f 67//125 61//125 59//125
f 68//126 60//126 62//126
f 67//127 63//127 61//127
f 68//128 62//128 64//128
f 67//129 65//129 63//129
f 68//130 64//130 66//130
f 67//131 35//131 65//131
f 68//132 66//132 36//132
f 69//133 71//135 72//136
f 69//133 72//136 70//134
f 71//135 73//137 74//138
f 71//135 74//138 72//136
f 73//137 75//139 76//140
f 73//137 76//140 74//138
f 75//139 77//141 78//142
f 75//139 78//142 76//140
f 77//141 79//143 80//144
f 77//141 80//144 78//142
f 79//143 81//145 82//146
f 79//143 82//146 80//144
f 81//145 83//147 84//148
f 81//145 84//148 82//146
f 83//147 85//149 86//150
f 83//147 86//150 84//148
f 85//149 87//151 88//152
f 85//149 88//152 86//150
f 87//151 89//153 90//154
f 87//151 90//154 88//152
f 89//153 91//155 92//156
f 89//153 92//156 90//154
f 91//155 93//157 94//158
f 91//155 94//158 92//156
f 93//157 95//159 96//160
f 93//157 96//160 94//158
f 95//159 97//161 98//162
f 95//159 98//162 96//160
f 97//161 99//163 100//164
f 97//161 100//164 98//162
f 99//163 69//133 70//134
f 99//163 70//134 100//164
f 101//167 71//167 69//167
f 102//168 70//168 72//168
f 101//169 73//169 71//169
f 102//170 72//170 74//170
f 101//171 75//171 73//171
f 102//172 74//172 76//172
f 101//173 77//173 75//173
f 102//174 76//174 78//174
f 101//175 79//175 77//175
f 102//176 78//176 80//176
f 101//177 81//177 79//177
f 102//178 80//178 82//178
f 101//179 83//179 81//179
f 102//180 82//180 84//180
f 101//181 85//181 83//181
f 102//182 84//182 86//182
f 101//183 87//183 85//183
f 102//184 86//184 88//184
f 101//185 89//185 87//185
f 102//186 88//186 90//186
f 101//187 91//187 89//187
f 102//188 90//188 92//188
f 101//189 93//189 91//189
f 102//190 92//190 94//190
f 101//191 95//191 93//191
f 102//192 94//192 96//192
f 101//193 97//193 95//193
f 102//194 96//194 98//194
f 101//195 99//195 97//195
f 102//196 98//196 100//196
f 101//197 69//197 99//197
f 102//198 100//198 70//198
f 103//199 105//201 106//202
f 103//199 106//202 104//200
f 105//201 107//203 108//204
f 105//201 108//204 106//202
f 107//203 109//205 110//206
f 107//203 110//206 108//204
f 109//205 111//207 112//208
f 109//205 112//208 110//206
f 111//207 113//209 114//210
f 111//207 114//210 112//208
f 113//209 115//211 116//212
f 113//209 116//212 114//210
f 115//211 117//213 118//214
f 115//211 118//214 116//212
f 117//213 119//215 120//216
f 117//213 120//216 118//214
f 119//215 121//217 122//218
f 119//215 122//218 120//216
f 121//217 123//219 124//220
f 121//217 124//220 122//218
f 123//219 125//221 126//222
f 123//219 126//222 124//220
f 125//221 127//223 128//224
f 125//221 128//224 126//222
f 127//223 129//225 130//226
f 127//223 130//226 128//224
f 129//225 131//227 132//228
f 129//225 132//228 130//226
f 131//227 133//229 134//230
f 131//227 134//230 132//228
f 133//229 103//199 104//200
f 133//229 104//200 134//230
f 135//233 105//233 103//233
f 136//234 104//234 106//234
f 135//235 107//235 105//235
f 136//236 106//236 108//236
f 135//237 109//237 107//237
f 136//238 108//238 110//238
f 135//239 111//239 109//239
f 136//240 110//240 112//240
f 135//241 113//241 111//241
f 136//242 112//242 114//242
f 135//243 115//243 113//243
f 136//244 114//244 116//244
f 135//245 117//245 115//245
f 136//246 116//246 118//246
f 135//247 119//247 117//247
f 136//248 118//248 120//248
f 135//249 121//249 119//249
f 136//250 120//250 122//250
f 135//251 123//251 121//251
f 136//252 122//252 124//252
f 135//253 125//253 123//253
f 136//254 124//254 126//254
f 135//255 127//255 125//255
f 136//256 126//256 128//256
f 135//257 129//257 127//257
f 136//258 128//258 130//258
f 135//259 131//259 129//259
f 136//260 130//260 132//260
f 135//261 133//261 131//261
f 136//262 132//262 134//262
f 135//263 103//263 133//263
f 136//264 134//264 104//264
f 137//265 139//267 140//268
f 137//265 140//268 138//266
f 139//267 141//269 142//270
f 139//267 142//270 140//268
f 141//269 143//271 144//272
f 141//269 144//272 142//270
f 143//271 145//273 146//274
f 143//271 146//274 144//272
f 145//273 147//275 148//276
f 145//273 148//276 146//274
f 147//275 149//277 150//278
f 147//275 150//278 148//276
f 149//277 151//279 152//280
f 149//277 152//280 150//278
f 151//279 153//281 154//282
f 151//279 154//282 152//280
f 153//281 155//283 156//284
f 153//281 156//284 154//282
f 155//283 157//285 158//286
f 155//283 158//286 156//284
f 157//285 159//287 160//288
f 157//285 160//288 158//286
f 159//287 161//289 162//290
f 159//287 162//290 160//288
f 161//289 163//291 164//292
f 161//289 164//292 162//290
f 163//291 165//293 166//294
f 163//291 166//294 164//292
f 165//293 167//295 168//296
f 165//293 168//296 166//294
f 167//295 137//265 138//266
f 167//295 138//266 168//296
f 169//299 139//299 137//299
f 170//300 138//300 140//300
f 169//301 141//301 139//301
f 170//302 140//302 142//302
f 169//303 143//303 141//303
f 170//304 142//304 144//304
f 169//305 145//305 143//305
f 170//306 144//306 146//306
f 169//307 147//307 145//307
f 170//308 146//308 148//308
f 169//309 149//309 147//309
f 170//310 148//310 150//310
f 169//311 151//311 149//311
f 170//312 150//312 152//312
f 169//313 153//313 151//313
f 170//314 152//314 154//314
f 169//315 155//315 153//315
f 170//316 154//316 156//316
f 169//317 157//317 155//317
f 170//318 156//318 158//318
f 169//319 159//319 157//319
f 170//320 158//320 160//320
f 169//321 161//321 159//321
f 170//322 160//322 162//322
f 169//323 163//323 161//323
f 170//324 162//324 164//324
f 169//325 165//325 163//325
f 170//326 164//326 166//326
f 169//327 167//327 165//327
f 170//328 166//328 168//328
f 169//329 137//329 167//329
f 170//330 168//330 138//330
f 171//331 173//333 174//334
f 171//331 174//334 172//332
f 173//333 175//335 176//336
f 173//333 176//336 174//334
f 175//335 177//337 178//338
f 175//335 178//338 176//336
f 177//337 179//339 180//340
f 177//337 180//340 178//338
f 179//339 181//341 182//342
f 179//339 182//342 180//340
f 181//341 183//343 184//344
f 181//341 184//344 182//342
f 183//343 185//345 186//346
f 183//343 186//346 184//344
f 185//345 187//347 188//348
f 185//345 188//348 186//346
f 187//347 189//349 190//350
f 187//347 190//350 188//348
f 189//349 191//351 192//352
f 189//349 192//352 190//350
f 191//351 193//353 194//354
f 191//351 194//354 192//352
f 193//353 195//355 196//356
f 193//353 196//356 194//354
f 195//355 197//357 198//358
f 195//355 198//358 196//356
f 197//357 199//359 200//360
f 197//357 200//360 198//358
f 199//359 201//361 202//362
f 199//359 202//362 200//360
f 201//361 171//331 172//332
f 201//361 172//332 202//362
f 203//365 173//365 171//365
f 204//366 172//366 174//366
f 203//367 175//367 173//367
f 204//368 174//368 176//368
f 203//369 177//369 175//369
f 204//370 176//370 178//370
f 203//371 179//371 177//371
f 204//372 178//372 180//372
f 203//373 181//373 179//373
f 204//374 180//374 182//374
f 203//375 183//375 181//375
f 204//376 182//376 184//376
f 203//377 185//377 183//377
f 204//378 184//378 186//378
f 203//379 187//379 185//379
f 204//380 186//380 188//380
f 203//381 189//381 187//381
f 204//382 188//382 190//382
f 203//383 191//383 189//383
f 204//384 190//384 192//384
f 203//385 193//385 191//385
f 204//386 192//386 194//386
f 203//387 195//387 193//387
f 204//388 194//388 196//388
f 203//389 197//389 195//389
f 204//390 196//390 198//390
f 203//391 199//391 197//391
f 204//392 198//392 200//392
f 203//393 201//393 199//393
f 204//394 200//394 202//394
f 203//395 171//395 201//395
f 204//396 202//396 172//396
f 205//397 207//399 208//400
f 205//397 208//400 206//398
f 207//399 209//401 210//402
f 207//399 210//402 208//400
f 209//401 211//403 212//404
f 209//401 212//404 210//402
f 211//403 213//405 214//406
f 211//403 214//406 212//404
f 213//405 215//407 216//408
f 213//405 216//408 214//406
f 215//407 217//409 218//410
f 215//407 218//410 216//408
f 217//409 219//411 220//412
f 217//409 220//412 218//410
f 219//411 221//413 222//414
f 219//411 222//414 220//412
f 221//413 223//415 224//416
f 221//413 224//416 222//414
f 223//415 225//417 226//418
f 223//415 226//418 224//416
f 225//417 227//419 228//420
f 225//417 228//420 226//418
f 227//419 229//421 230//422
f 227//419 230//422 228//420
f 229//421 231//423 232//424
f 229//421 232//424 230//422
f 231//423 233//425 234//426
f 231//423 234//426 232//424
f 233//425 235//427 236//428
f 233//425 236//428 234//426
f 235//427 205//397 206//398
f 235//427 206//398 236//428
f 237//431 207//431 205//431
f 238//432 206//432 208//432
f 237//433 209//433 207//433
f 238//434 208//434 210//434
f 237//435 211//435 209//435
f 238//436 210//436 212//436
f 237//437 213//437 211//437
f 238//438 212//438 214//438
f 237//439 215//439 213//439
f 238//440 214//440 216//440
f 237//441 217//441 215//441
f 238//442 216//442 218//442
f 237//443 219//443 217//443
f 238//444 218//444 220//444
f 237//445 221//445 219//445
f 238//446 220//446 222//446
f 237//447 223//447 221//447
f 238//448 222//448 224//448
f 237//449 225//449 223//449
f 238//450 224//450 226//450
f 237//451 227//451 225//451
f 238//452 226//452 228//452
f 237//453 229//453 227//453
f 238//454 228//454 230//454
f 237//455 231//455 229//455
f 238//456 230//456 232//456
f 237//457 233//457 231//457
f 238//458 232//458 234//458
f 237//459 235//459 233//459
f 238//460 234//460 236//460
f 237//461 205//461 235//461
f 238//462 236//462 206//462
f 239//463 241//465 242//466
f 239//463 242//466 240//464
f 241//465 243//467 244//468
f 241//465 244//468 242//466
f 243//467 245//469 246//470
f 243//467 246//470 244//468
f 245//469 247//471 248//472
f 245//469 248//472 246//470
f 247//471 249//473 250//474
f 247//471 250//474 248//472
f 249//473 251//475 252//476
f 249//473 252//476 250//474
f 251//475 253//477 254//478
f 251//475 254//478 252//476
f 253//477 255//479 256//480
f 253//477 256//480 254//478
f 255//479 257//481 258//482
f 255//479 258//482 256//480
f 257//481 259//483 260//484
f 257//481 260//484 258//482
f 259//483 261//485 262//486
f 259//483 262//486 260//484
f 261//485 263//487 264//488
f 261//485 264//488 262//486
f 263//487 265//489 266//490
f 263//487 266//490 264//488
f 265//489 267//491 268//492
f 265//489 268//492 266//490
f 267//491 269//493 270//494
f 267//491 270//494 268//492
f 269//493 239//463 240//464
f 269//493 240//464 270//494
f 271//497 241//497 239//497
f 272//498 240//498 242//498
f 271//499 243//499 241//499
f 272//500 242//500 244//500
f 271//501 245//501 243//501
f 272//502 244//502 246//502
f 271//503 247//503 245//503
f 272//504 246//504 248//504
f 271//505 249//505 247//505
f 272//506 248//506 250//506
f 271//507 251//507 249//507
f 272//508 250//508 252//508
f 271//509 253//509 251//509
f 272//510 252//510 254//510
f 271//511 255//511 253//511
f 272//512 254//512 256//512
f 271//513 257//513 255//513
f 272//514 256//514 258//514
f 271//515 259//515 257//515
f 272//516 258//516 260//516
f 271//517 261//517 259//517
f 272//518 260//518 262//518
f 271//519 263//519 261//519
f 272//520 262//520 264//520
f 271//521 265//521 263//521
f 272//522 264//522 266//522
f 271//523 267//523 265//523
f 272//524 266//524 268//524
f 271//525 269//525 267//525
f 272//526 268//526 270//526
f 271//527 239//527 269//527
f 272//528 270//528 240//528
# counts: vertices=272, normals=528, faces=512
