# 国水 2026 水中巡游红色圆环。
# 单位为米；外径 0.12 m、内径 0.10 m、管径 0.01 m。
# 圆环位于 Y-Z 平面，法线朝 X 方向；32 段细分避免低模折面。
o Guoshui2026RedRing
v -0.005000 0.060000 0.000000
v -0.005000 0.058847 0.011705
v -0.005000 0.055433 0.022961
v -0.005000 0.049888 0.033334
v -0.005000 0.042426 0.042426
v -0.005000 0.033334 0.049888
v -0.005000 0.022961 0.055433
v -0.005000 0.011705 0.058847
v -0.005000 0.000000 0.060000
v -0.005000 -0.011705 0.058847
v -0.005000 -0.022961 0.055433
v -0.005000 -0.033334 0.049888
v -0.005000 -0.042426 0.042426
v -0.005000 -0.049888 0.033334
v -0.005000 -0.055433 0.022961
v -0.005000 -0.058847 0.011705
v -0.005000 -0.060000 0.000000
v -0.005000 -0.058847 -0.011705
v -0.005000 -0.055433 -0.022961
v -0.005000 -0.049888 -0.033334
v -0.005000 -0.042426 -0.042426
v -0.005000 -0.033334 -0.049888
v -0.005000 -0.022961 -0.055433
v -0.005000 -0.011705 -0.058847
v -0.005000 0.000000 -0.060000
v -0.005000 0.011705 -0.058847
v -0.005000 0.022961 -0.055433
v -0.005000 0.033334 -0.049888
v -0.005000 0.042426 -0.042426
v -0.005000 0.049888 -0.033334
v -0.005000 0.055433 -0.022961
v -0.005000 0.058847 -0.011705
v -0.005000 0.050000 0.000000
v -0.005000 0.049039 0.009755
v -0.005000 0.046194 0.019134
v -0.005000 0.041573 0.027779
v -0.005000 0.035355 0.035355
v -0.005000 0.027779 0.041573
v -0.005000 0.019134 0.046194
v -0.005000 0.009755 0.049039
v -0.005000 0.000000 0.050000
v -0.005000 -0.009755 0.049039
v -0.005000 -0.019134 0.046194
v -0.005000 -0.027779 0.041573
v -0.005000 -0.035355 0.035355
v -0.005000 -0.041573 0.027779
v -0.005000 -0.046194 0.019134
v -0.005000 -0.049039 0.009755
v -0.005000 -0.050000 0.000000
v -0.005000 -0.049039 -0.009755
v -0.005000 -0.046194 -0.019134
v -0.005000 -0.041573 -0.027779
v -0.005000 -0.035355 -0.035355
v -0.005000 -0.027779 -0.041573
v -0.005000 -0.019134 -0.046194
v -0.005000 -0.009755 -0.049039
v -0.005000 0.000000 -0.050000
v -0.005000 0.009755 -0.049039
v -0.005000 0.019134 -0.046194
v -0.005000 0.027779 -0.041573
v -0.005000 0.035355 -0.035355
v -0.005000 0.041573 -0.027779
v -0.005000 0.046194 -0.019134
v -0.005000 0.049039 -0.009755
v 0.005000 0.060000 0.000000
v 0.005000 0.058847 0.011705
v 0.005000 0.055433 0.022961
v 0.005000 0.049888 0.033334
v 0.005000 0.042426 0.042426
v 0.005000 0.033334 0.049888
v 0.005000 0.022961 0.055433
v 0.005000 0.011705 0.058847
v 0.005000 0.000000 0.060000
v 0.005000 -0.011705 0.058847
v 0.005000 -0.022961 0.055433
v 0.005000 -0.033334 0.049888
v 0.005000 -0.042426 0.042426
v 0.005000 -0.049888 0.033334
v 0.005000 -0.055433 0.022961
v 0.005000 -0.058847 0.011705
v 0.005000 -0.060000 0.000000
v 0.005000 -0.058847 -0.011705
v 0.005000 -0.055433 -0.022961
v 0.005000 -0.049888 -0.033334
v 0.005000 -0.042426 -0.042426
v 0.005000 -0.033334 -0.049888
v 0.005000 -0.022961 -0.055433
v 0.005000 -0.011705 -0.058847
v 0.005000 0.000000 -0.060000
v 0.005000 0.011705 -0.058847
v 0.005000 0.022961 -0.055433
v 0.005000 0.033334 -0.049888
v 0.005000 0.042426 -0.042426
v 0.005000 0.049888 -0.033334
v 0.005000 0.055433 -0.022961
v 0.005000 0.058847 -0.011705
v 0.005000 0.050000 0.000000
v 0.005000 0.049039 0.009755
v 0.005000 0.046194 0.019134
v 0.005000 0.041573 0.027779
v 0.005000 0.035355 0.035355
v 0.005000 0.027779 0.041573
v 0.005000 0.019134 0.046194
v 0.005000 0.009755 0.049039
v 0.005000 0.000000 0.050000
v 0.005000 -0.009755 0.049039
v 0.005000 -0.019134 0.046194
v 0.005000 -0.027779 0.041573
v 0.005000 -0.035355 0.035355
v 0.005000 -0.041573 0.027779
v 0.005000 -0.046194 0.019134
v 0.005000 -0.049039 0.009755
v 0.005000 -0.050000 0.000000
v 0.005000 -0.049039 -0.009755
v 0.005000 -0.046194 -0.019134
v 0.005000 -0.041573 -0.027779
v 0.005000 -0.035355 -0.035355
v 0.005000 -0.027779 -0.041573
v 0.005000 -0.019134 -0.046194
v 0.005000 -0.009755 -0.049039
v 0.005000 0.000000 -0.050000
v 0.005000 0.009755 -0.049039
v 0.005000 0.019134 -0.046194
v 0.005000 0.027779 -0.041573
v 0.005000 0.035355 -0.035355
v 0.005000 0.041573 -0.027779
v 0.005000 0.046194 -0.019134
v 0.005000 0.049039 -0.009755
f 1 33 34 2
f 65 66 98 97
f 1 2 66 65
f 33 97 98 34
f 2 34 35 3
f 66 67 99 98
f 2 3 67 66
f 34 98 99 35
f 3 35 36 4
f 67 68 100 99
f 3 4 68 67
f 35 99 100 36
f 4 36 37 5
f 68 69 101 100
f 4 5 69 68
f 36 100 101 37
f 5 37 38 6
f 69 70 102 101
f 5 6 70 69
f 37 101 102 38
f 6 38 39 7
f 70 71 103 102
f 6 7 71 70
f 38 102 103 39
f 7 39 40 8
f 71 72 104 103
f 7 8 72 71
f 39 103 104 40
f 8 40 41 9
f 72 73 105 104
f 8 9 73 72
f 40 104 105 41
f 9 41 42 10
f 73 74 106 105
f 9 10 74 73
f 41 105 106 42
f 10 42 43 11
f 74 75 107 106
f 10 11 75 74
f 42 106 107 43
f 11 43 44 12
f 75 76 108 107
f 11 12 76 75
f 43 107 108 44
f 12 44 45 13
f 76 77 109 108
f 12 13 77 76
f 44 108 109 45
f 13 45 46 14
f 77 78 110 109
f 13 14 78 77
f 45 109 110 46
f 14 46 47 15
f 78 79 111 110
f 14 15 79 78
f 46 110 111 47
f 15 47 48 16
f 79 80 112 111
f 15 16 80 79
f 47 111 112 48
f 16 48 49 17
f 80 81 113 112
f 16 17 81 80
f 48 112 113 49
f 17 49 50 18
f 81 82 114 113
f 17 18 82 81
f 49 113 114 50
f 18 50 51 19
f 82 83 115 114
f 18 19 83 82
f 50 114 115 51
f 19 51 52 20
f 83 84 116 115
f 19 20 84 83
f 51 115 116 52
f 20 52 53 21
f 84 85 117 116
f 20 21 85 84
f 52 116 117 53
f 21 53 54 22
f 85 86 118 117
f 21 22 86 85
f 53 117 118 54
f 22 54 55 23
f 86 87 119 118
f 22 23 87 86
f 54 118 119 55
f 23 55 56 24
f 87 88 120 119
f 23 24 88 87
f 55 119 120 56
f 24 56 57 25
f 88 89 121 120
f 24 25 89 88
f 56 120 121 57
f 25 57 58 26
f 89 90 122 121
f 25 26 90 89
f 57 121 122 58
f 26 58 59 27
f 90 91 123 122
f 26 27 91 90
f 58 122 123 59
f 27 59 60 28
f 91 92 124 123
f 27 28 92 91
f 59 123 124 60
f 28 60 61 29
f 92 93 125 124
f 28 29 93 92
f 60 124 125 61
f 29 61 62 30
f 93 94 126 125
f 29 30 94 93
f 61 125 126 62
f 30 62 63 31
f 94 95 127 126
f 30 31 95 94
f 62 126 127 63
f 31 63 64 32
f 95 96 128 127
f 31 32 96 95
f 63 127 128 64
f 32 64 33 1
f 96 65 97 128
f 32 1 65 96
f 64 128 97 33
